<svg width="24" height="24" viewBox="0 0 24 24" fill="none" xmlns="http://www.w3.org/2000/svg">
<path opacity="0.4" d="M17 9C17 12.87 13.64 16 9.49999 16L8.57 17.12L8.01999 17.78C7.55 18.34 6.64999 18.22 6.33999 17.55L5 14.6C3.18 13.32 2 11.29 2 9C2 5.13 5.35999 2 9.49999 2C12.52 2 15.13 3.67001 16.3 6.07001C16.75 6.96001 17 7.95 17 9Z" fill="white"/>
<path d="M22.0003 12.86C22.0003 15.15 20.8203 17.1801 19.0003 18.4601L17.6603 21.41C17.3503 22.08 16.4503 22.2101 15.9803 21.6401L14.5003 19.86C12.0803 19.86 9.92031 18.7901 8.57031 17.1201L9.5003 16.0001C13.6403 16.0001 17.0003 12.8701 17.0003 9.00006C17.0003 7.95006 16.7503 6.96007 16.3003 6.07007C19.5703 6.82007 22.0003 9.58005 22.0003 12.86Z" fill="white"/>
<path d="M12 9.75H7C6.59 9.75 6.25 9.41 6.25 9C6.25 8.59 6.59 8.25 7 8.25H12C12.41 8.25 12.75 8.59 12.75 9C12.75 9.41 12.41 9.75 12 9.75Z" fill="white"/>
</svg>
