<svg width="64" height="64" viewBox="0 0 64 64" fill="none" xmlns="http://www.w3.org/2000/svg">
<path opacity="0.4" d="M51.2003 39.4134C48.907 41.52 45.8669 42.6934 42.7469 42.6667H16.9869C6.13358 41.8934 6.10692 26.1334 16.9869 25.3601H17.0936C9.65361 4.66672 41.0936 -3.57334 44.6936 18.1333C54.747 19.4133 58.827 32.7734 51.2003 39.4134Z" fill="url(#paint0_linear_802_4710)"/>
<path d="M50 56.0001C50 57.0934 49.0933 58.0001 48 58.0001H37.3333C37.2 58.0001 37.0933 58.0001 36.96 57.9468C36.1866 59.9201 34.24 61.3334 32 61.3334C29.76 61.3334 27.8134 59.9201 27.04 57.9468C26.9067 58.0001 26.8 58.0001 26.6667 58.0001H16C14.9067 58.0001 14 57.0934 14 56.0001C14 54.9067 14.9067 54.0001 16 54.0001H26.6667C26.8 54.0001 26.9067 54.0001 27.04 54.0534C27.5734 52.6667 28.6666 51.5735 30.0533 51.0401C30 50.9068 30 50.8001 30 50.6667V42.6667H34V50.6667C34 50.8001 34 50.9068 33.9467 51.0401C35.3334 51.5735 36.4266 52.6667 36.96 54.0534C37.0933 54.0001 37.2 54.0001 37.3333 54.0001H48C49.0933 54.0001 50 54.9067 50 56.0001Z" fill="url(#paint1_linear_802_4710)"/>
<defs>
<linearGradient id="paint0_linear_802_4710" x1="9.85973" y1="39.4468" x2="54.5412" y2="34.062" gradientUnits="userSpaceOnUse">
<stop stop-color="#288DD1"/>
<stop offset="1" stop-color="#3FE0C8"/>
</linearGradient>
<linearGradient id="paint1_linear_802_4710" x1="14.795" y1="59.7234" x2="48.8337" y2="53.3458" gradientUnits="userSpaceOnUse">
<stop stop-color="#288DD1"/>
<stop offset="1" stop-color="#3FE0C8"/>
</linearGradient>
</defs>
</svg>
