<svg width="64" height="64" viewBox="0 0 64 64" fill="none" xmlns="http://www.w3.org/2000/svg">
<path opacity="0.4" d="M54.0532 45.8401C51.3865 48.2667 47.9465 49.6001 44.3465 49.5734H44.1064C44.9064 47.9201 45.3331 46.0534 45.3331 44.0801C45.3331 36.7201 39.3598 30.7467 31.9998 30.7467C24.6398 30.7467 18.6665 36.7201 18.6665 44.0801C18.6665 46.0534 19.0932 47.9201 19.8932 49.5734H14.7731C2.29309 48.6934 2.29309 30.5334 14.7731 29.6534H14.9065C6.34655 5.84006 42.4531 -3.67994 46.5864 21.3334C58.1331 22.8001 62.7999 38.1867 54.0532 45.8401Z" fill="url(#paint0_linear_802_4703)"/>
<path d="M31.9998 30.7466C24.6398 30.7466 18.6665 36.7199 18.6665 44.0799C18.6665 46.0532 19.0932 47.9199 19.8932 49.5733C20.1066 50.0533 20.3465 50.5066 20.6131 50.9332C22.9065 54.7999 27.1465 57.4132 31.9998 57.4132C36.8532 57.4132 41.0932 54.7999 43.3866 50.9332C43.6532 50.5066 43.8931 50.0533 44.1064 49.5733C44.9064 47.9199 45.3332 46.0532 45.3332 44.0799C45.3332 36.7199 39.3598 30.7466 31.9998 30.7466ZM37.5199 42.9332L31.8398 48.1866C31.4665 48.5333 30.9598 48.7199 30.4798 48.7199C29.9732 48.7199 29.4666 48.5332 29.0666 48.1332L26.4264 45.4933C25.6531 44.7199 25.6531 43.4399 26.4264 42.6666C27.1998 41.8933 28.4798 41.8933 29.2531 42.6666L30.5332 43.9466L34.7998 39.9999C35.6265 39.2533 36.8798 39.3066 37.6265 40.1066C38.3731 40.9066 38.3199 42.1599 37.5199 42.9332Z" fill="url(#paint1_linear_802_4703)"/>
<defs>
<linearGradient id="paint0_linear_802_4703" x1="6.5874" y1="45.8662" x2="57.8908" y2="39.7005" gradientUnits="userSpaceOnUse">
<stop stop-color="#288DD1"/>
<stop offset="1" stop-color="#3FE0C8"/>
</linearGradient>
<linearGradient id="paint1_linear_802_4703" x1="19.2554" y1="55.1132" x2="45.1103" y2="52.6014" gradientUnits="userSpaceOnUse">
<stop stop-color="#288DD1"/>
<stop offset="1" stop-color="#3FE0C8"/>
</linearGradient>
</defs>
</svg>
