<svg width="99" height="98" viewBox="0 0 99 98" fill="none" xmlns="http://www.w3.org/2000/svg">
<path opacity="0.4" d="M82.0003 36.7499V48.6733L78.8153 46.8358C76.202 45.3249 72.9353 45.7741 70.812 47.8158C70.3628 48.2241 69.9953 48.7141 69.6687 49.2449L69.4237 49.6941C68.9745 50.4699 68.607 50.6741 68.5662 50.7149C68.4845 50.6741 68.0762 50.4699 67.627 49.6533L67.382 49.2449C66.4837 47.6933 65.0545 46.6316 63.3395 46.1824C61.5837 45.6924 59.787 45.9374 58.2762 46.8358L54.5603 48.9999C52.8862 49.9391 51.702 51.4908 51.212 53.3283C50.722 55.2066 50.967 57.1258 51.9062 58.7999C52.3553 59.5349 52.3553 59.9841 52.3553 60.0658C52.3145 60.1066 51.9062 60.3516 51.0078 60.3516C47.047 60.3516 43.8212 63.5774 43.8212 67.4974V71.3358C43.8212 75.2558 47.047 78.4816 51.0078 78.4816C51.9062 78.4816 52.3145 78.7266 52.3145 78.7674C52.3553 78.8083 52.3553 79.2983 51.9062 80.0333C51.6203 80.5641 51.3753 81.0949 51.2528 81.6666H37.0837C25.8137 81.6666 16.667 72.5199 16.667 61.2499V36.7499C16.667 25.4799 25.8137 16.3333 37.0837 16.3333H61.5837C72.8537 16.3333 82.0003 25.4799 82.0003 36.7499Z" fill="url(#paint0_linear_566_38511)"/>
<path d="M70.8121 39.7717V47.8159C70.363 48.2242 69.9955 48.7142 69.6688 49.2451L69.4238 49.6942C68.9746 50.4701 68.6071 50.6742 68.5663 50.7151C68.4846 50.6742 68.0763 50.4701 67.6271 49.6534L67.3821 49.2451C66.4838 47.6934 65.0546 46.6317 63.3396 46.1826C61.5838 45.6926 59.7871 45.9376 58.2763 46.8359L54.5605 49.0001C52.8863 49.9392 51.7021 51.4909 51.2121 53.3284C50.7221 55.2067 50.9671 57.1259 51.9063 58.8001C52.3555 59.5351 52.3555 59.9842 52.3555 60.0659C52.3146 60.1067 51.9063 60.3517 51.008 60.3517C47.0471 60.3517 43.8213 63.5776 43.8213 67.4976V70.4784H40.1055C33.368 70.4784 27.8555 64.9659 27.8555 58.2284V39.7717C27.8555 33.0342 33.368 27.5217 40.1055 27.5217H58.5621C65.2996 27.5217 70.8121 33.0342 70.8121 39.7717Z" fill="url(#paint1_linear_566_38511)"/>
<path d="M37.3269 11.2292V16.3334H37.0819C35.0402 16.3334 33.0802 16.6192 31.2019 17.1909V11.2292C31.2019 9.55508 32.5494 8.16675 34.2644 8.16675C35.9386 8.16675 37.3269 9.55508 37.3269 11.2292Z" fill="url(#paint2_linear_566_38511)"/>
<path d="M52.3958 11.2292V16.3334H46.2708V11.2292C46.2708 9.55508 47.6591 8.16675 49.3333 8.16675C51.0074 8.16675 52.3958 9.55508 52.3958 11.2292Z" fill="url(#paint3_linear_566_38511)"/>
<path d="M67.5034 11.2292V17.1909C65.6251 16.6192 63.6243 16.3334 61.5826 16.3334H61.3784V11.2292C61.3784 9.55508 62.7668 8.16675 64.4409 8.16675C66.1151 8.16675 67.5034 9.55508 67.5034 11.2292Z" fill="url(#paint4_linear_566_38511)"/>
<path d="M90.1665 33.8916C90.1665 35.6066 88.819 36.9541 87.104 36.9541H81.9998V36.7499C81.9998 34.7083 81.714 32.7074 81.1423 30.8291H87.104C88.819 30.8291 90.1665 32.2174 90.1665 33.8916Z" fill="url(#paint5_linear_566_38511)"/>
<path d="M37.3269 81.6666V86.7707C37.3269 88.4449 35.9386 89.8332 34.2644 89.8332C32.5494 89.8332 31.2019 88.4449 31.2019 86.7707V80.8091C33.0802 81.3807 35.0402 81.6666 37.0819 81.6666H37.3269Z" fill="url(#paint6_linear_566_38511)"/>
<path d="M17.5237 30.8291C16.952 32.7074 16.6662 34.7083 16.6662 36.7499V36.9541H11.562C9.88785 36.9541 8.49951 35.6066 8.49951 33.8916C8.49951 32.2174 9.88785 30.8291 11.562 30.8291H17.5237Z" fill="url(#paint7_linear_566_38511)"/>
<path d="M16.6662 45.9375V52.0625H11.562C9.88785 52.0625 8.49951 50.6742 8.49951 49C8.49951 47.285 9.88785 45.9375 11.562 45.9375H16.6662Z" fill="url(#paint8_linear_566_38511)"/>
<path d="M17.5237 67.1709H11.562C9.88785 67.1709 8.49951 65.7826 8.49951 64.1084C8.49951 62.3934 9.88785 61.0459 11.562 61.0459H16.6662V61.2501C16.6662 63.2917 16.952 65.2926 17.5237 67.1709Z" fill="url(#paint9_linear_566_38511)"/>
<path opacity="0.4" d="M86.0444 63.4142C83.2678 63.4142 81.6753 62.0258 81.6753 59.9842C81.6753 59.1675 81.9203 58.2283 82.4919 57.2483C83.6353 55.2883 82.9411 52.7567 80.9811 51.6542L77.2653 49.49C75.5503 48.4692 73.3453 49.0817 72.3244 50.7967L72.0794 51.205C70.1194 54.5942 66.9344 54.5942 64.9744 51.205L64.7294 50.7967C63.7494 49.0817 61.5036 48.4692 59.8294 49.49L56.0728 51.6542C54.7661 52.3892 53.9903 53.7775 53.9903 55.2067C53.9903 55.9008 54.1944 56.595 54.5619 57.2483C55.1336 58.2283 55.4194 59.1675 55.4194 59.9842C55.4194 62.0258 53.7861 63.4142 51.0094 63.4142C48.7636 63.4142 46.8853 65.2517 46.8853 67.4975V71.3358C46.8853 73.5817 48.7636 75.4192 51.0094 75.4192C53.7861 75.4192 55.4194 76.8075 55.4194 78.8492C55.4194 79.6658 55.1336 80.605 54.5619 81.585C53.4186 83.545 54.1128 86.0767 56.0728 87.1792L59.8294 89.3433C61.5036 90.3642 63.7494 89.7517 64.7294 88.0367L64.9744 87.6283C66.9344 84.2392 70.1194 84.2392 72.0794 87.6283L72.3244 88.0367C73.3453 89.7517 75.5503 90.3642 77.2653 89.3433L80.9811 87.1792C82.2878 86.4442 83.0636 85.0558 83.0636 83.6267C83.0636 82.9325 82.8594 82.2383 82.4919 81.585C81.9203 80.605 81.6753 79.6658 81.6753 78.8492C81.6753 76.8075 83.2678 75.4192 86.0444 75.4192C88.3311 75.4192 90.1686 73.5817 90.1686 71.3358V67.4975C90.1686 65.2517 88.3311 63.4142 86.0444 63.4142ZM68.5269 76.44C64.6478 76.44 61.5036 73.2958 61.5036 69.4167C61.5036 65.5375 64.6478 62.3933 68.5269 62.3933C72.4061 62.3933 75.5503 65.5375 75.5503 69.4167C75.5503 73.2958 72.4061 76.44 68.5269 76.44Z" fill="url(#paint10_linear_566_38511)"/>
<path d="M75.5506 69.4166C75.5506 73.2958 72.4064 76.44 68.5272 76.44C64.6481 76.44 61.5039 73.2958 61.5039 69.4166C61.5039 65.5375 64.6481 62.3933 68.5272 62.3933C72.4064 62.3933 75.5506 65.5375 75.5506 69.4166Z" fill="url(#paint11_linear_566_38511)"/>
<defs>
<linearGradient id="paint0_linear_566_38511" x1="18.1098" y1="76.0316" x2="81.4544" y2="69.8776" gradientUnits="userSpaceOnUse">
<stop stop-color="#288DD1"/>
<stop offset="1" stop-color="#3FE0C8"/>
</linearGradient>
<linearGradient id="paint1_linear_566_38511" x1="28.8041" y1="66.7734" x2="70.4532" y2="62.7271" gradientUnits="userSpaceOnUse">
<stop stop-color="#288DD1"/>
<stop offset="1" stop-color="#3FE0C8"/>
</linearGradient>
<linearGradient id="paint2_linear_566_38511" x1="31.3372" y1="16.4126" x2="37.3058" y2="16.019" gradientUnits="userSpaceOnUse">
<stop stop-color="#288DD1"/>
<stop offset="1" stop-color="#3FE0C8"/>
</linearGradient>
<linearGradient id="paint3_linear_566_38511" x1="46.406" y1="15.629" x2="52.369" y2="15.1946" gradientUnits="userSpaceOnUse">
<stop stop-color="#288DD1"/>
<stop offset="1" stop-color="#3FE0C8"/>
</linearGradient>
<linearGradient id="paint4_linear_566_38511" x1="61.5137" y1="16.4126" x2="67.4823" y2="16.019" gradientUnits="userSpaceOnUse">
<stop stop-color="#288DD1"/>
<stop offset="1" stop-color="#3FE0C8"/>
</linearGradient>
<linearGradient id="paint5_linear_566_38511" x1="81.3416" y1="36.4258" x2="89.9964" y2="35.187" gradientUnits="userSpaceOnUse">
<stop stop-color="#288DD1"/>
<stop offset="1" stop-color="#3FE0C8"/>
</linearGradient>
<linearGradient id="paint6_linear_566_38511" x1="31.3372" y1="89.0549" x2="37.3058" y2="88.6613" gradientUnits="userSpaceOnUse">
<stop stop-color="#288DD1"/>
<stop offset="1" stop-color="#3FE0C8"/>
</linearGradient>
<linearGradient id="paint7_linear_566_38511" x1="8.6988" y1="36.4258" x2="17.3535" y2="35.187" gradientUnits="userSpaceOnUse">
<stop stop-color="#288DD1"/>
<stop offset="1" stop-color="#3FE0C8"/>
</linearGradient>
<linearGradient id="paint8_linear_566_38511" x1="8.67986" y1="51.5342" x2="16.5408" y2="50.516" gradientUnits="userSpaceOnUse">
<stop stop-color="#288DD1"/>
<stop offset="1" stop-color="#3FE0C8"/>
</linearGradient>
<linearGradient id="paint9_linear_566_38511" x1="8.6988" y1="66.6426" x2="17.3535" y2="65.4038" gradientUnits="userSpaceOnUse">
<stop stop-color="#288DD1"/>
<stop offset="1" stop-color="#3FE0C8"/>
</linearGradient>
<linearGradient id="paint10_linear_566_38511" x1="47.8411" y1="86.3165" x2="89.7587" y2="82.0011" gradientUnits="userSpaceOnUse">
<stop stop-color="#288DD1"/>
<stop offset="1" stop-color="#3FE0C8"/>
</linearGradient>
<linearGradient id="paint11_linear_566_38511" x1="61.8141" y1="75.2285" x2="75.4332" y2="73.9053" gradientUnits="userSpaceOnUse">
<stop stop-color="#288DD1"/>
<stop offset="1" stop-color="#3FE0C8"/>
</linearGradient>
</defs>
</svg>
