<svg width="21" height="21" viewBox="0 0 21 21" fill="none" xmlns="http://www.w3.org/2000/svg">
<g clip-path="url(#clip0_220_56148)">
<path d="M10.4738 1.72986V19.822M14.5856 5.01933H8.41784C7.65447 5.01933 6.92237 5.32258 6.38258 5.86236C5.8428 6.40215 5.53955 7.13425 5.53955 7.89762C5.53955 8.66099 5.8428 9.3931 6.38258 9.93288C6.92237 10.4727 7.65447 10.7759 8.41784 10.7759H12.5297C13.2931 10.7759 14.0252 11.0792 14.5649 11.6189C15.1047 12.1587 15.408 12.8908 15.408 13.6542C15.408 14.4176 15.1047 15.1497 14.5649 15.6895C14.0252 16.2292 13.2931 16.5325 12.5297 16.5325H5.53955" stroke="black" stroke-opacity="0.6" stroke-width="1.64474" stroke-linecap="round" stroke-linejoin="round"/>
</g>
<defs>
<clipPath id="clip0_220_56148">
<rect width="19.7368" height="19.7368" fill="white" transform="translate(0.605469 0.907471)"/>
</clipPath>
</defs>
</svg>
