<svg width="64" height="64" viewBox="0 0 64 64" fill="none" xmlns="http://www.w3.org/2000/svg">
<path opacity="0.4" d="M58.6666 20.8266V25.3599C58.6666 27.4132 56.4799 28.6399 54.6666 27.6799C50.7466 25.5733 46.0266 24.7466 41.0666 25.7866C37.8666 26.4532 34.9066 27.9466 32.4799 29.9999C31.0932 31.1466 29.8666 32.5066 28.8266 33.9999C27.3866 36.1066 26.32 38.5066 25.7866 41.0666C24.7466 46.0266 25.5733 50.7466 27.6799 54.6666C28.6399 56.4799 27.4133 58.6666 25.3599 58.6666H20.8266C12.2666 58.6666 5.33325 51.7332 5.33325 43.1732V20.8266C5.33325 12.2666 12.2666 5.33325 20.8266 5.33325H43.1733C51.7333 5.33325 58.6666 12.2666 58.6666 20.8266Z" fill="url(#paint0_linear_800_73917)"/>
<path d="M32.4799 30C31.0932 31.1467 29.8666 32.5067 28.8266 34H5.33325V30H32.4799Z" fill="url(#paint1_linear_800_73917)"/>
<path d="M16 24.0001C14.9067 24.0001 14 23.0934 14 22.0001V16.6667C14 15.5734 14.9067 14.6667 16 14.6667C17.0933 14.6667 18 15.5734 18 16.6667V22.0001C18 23.0934 17.0933 24.0001 16 24.0001Z" fill="url(#paint2_linear_800_73917)"/>
<path d="M26.6667 24.0001C25.5734 24.0001 24.6667 23.0934 24.6667 22.0001V16.6667C24.6667 15.5734 25.5734 14.6667 26.6667 14.6667C27.7601 14.6667 28.6667 15.5734 28.6667 16.6667V22.0001C28.6667 23.0934 27.7601 24.0001 26.6667 24.0001Z" fill="url(#paint3_linear_800_73917)"/>
<path d="M16 50.0001C14.9067 50.0001 14 49.0934 14 48.0001V42.6667C14 41.5734 14.9067 40.6667 16 40.6667C17.0933 40.6667 18 41.5734 18 42.6667V48.0001C18 49.0934 17.0933 50.0001 16 50.0001Z" fill="url(#paint4_linear_800_73917)"/>
<path d="M47.9999 21.3333H37.3333C36.2399 21.3333 35.3333 20.4266 35.3333 19.3333C35.3333 18.2399 36.2399 17.3333 37.3333 17.3333H47.9999C49.0933 17.3333 49.9999 18.2399 49.9999 19.3333C49.9999 20.4266 49.0933 21.3333 47.9999 21.3333Z" fill="url(#paint5_linear_800_73917)"/>
<path d="M45.3333 29.3333C36.5066 29.3333 29.3333 36.5066 29.3333 45.3333C29.3333 54.1599 36.5066 61.3333 45.3333 61.3333C54.1599 61.3333 61.3333 54.1599 61.3333 45.3333C61.3333 36.5066 54.1599 29.3333 45.3333 29.3333ZM53.1466 48.5333C52.7199 49.5733 52.1066 50.5066 51.3066 51.3066C49.7066 52.9066 47.5999 53.7866 45.3333 53.7866C43.5199 53.7866 41.8133 53.1999 40.3733 52.1333V52.5066C40.3733 53.3332 39.7066 54.0266 38.8533 54.0266C38.0266 54.0266 37.3333 53.3599 37.3333 52.5066V48.6666C37.3333 47.8399 37.9999 47.1466 38.8533 47.1466H42.6933C43.5199 47.1466 44.2132 47.8133 44.2132 48.6666C44.2132 49.4399 43.6532 50.0266 42.9066 50.1333C44.9332 51.1199 47.5199 50.7999 49.1466 49.1732C49.6532 48.6666 50.0532 48.0533 50.3199 47.3866C50.6399 46.6133 51.5199 46.2399 52.2932 46.5599C53.0932 46.8533 53.4666 47.7599 53.1466 48.5333ZM53.3333 42.0266C53.3333 42.8532 52.6666 43.5466 51.8132 43.5466H47.9732C47.1466 43.5466 46.4533 42.8799 46.4533 42.0266C46.4533 41.2532 47.0133 40.6666 47.7599 40.5599C45.7333 39.5732 43.1466 39.8933 41.4932 41.5199C41.0399 41.9733 40.6933 42.4799 40.4266 43.0399C40.1599 43.5999 39.6266 43.9199 39.0666 43.9199C38.8532 43.9199 38.6399 43.8666 38.4266 43.7866C37.6799 43.4399 37.3333 42.5333 37.7066 41.7599C38.1333 40.8799 38.6933 40.0799 39.3599 39.3866C40.9599 37.7866 43.0666 36.9066 45.3333 36.9066C47.1466 36.9066 48.8532 37.4932 50.2932 38.5599V38.2133C50.2932 37.3866 50.9599 36.6932 51.8132 36.6932C52.6666 36.6932 53.3333 37.3333 53.3333 38.1866V42.0266Z" fill="url(#paint6_linear_800_73917)"/>
<defs>
<linearGradient id="paint0_linear_800_73917" x1="6.51103" y1="54.0666" x2="58.2209" y2="49.0429" gradientUnits="userSpaceOnUse">
<stop stop-color="#288DD1"/>
<stop offset="1" stop-color="#3FE0C8"/>
</linearGradient>
<linearGradient id="paint1_linear_800_73917" x1="5.93274" y1="33.655" x2="24.4511" y2="21.4452" gradientUnits="userSpaceOnUse">
<stop stop-color="#288DD1"/>
<stop offset="1" stop-color="#3FE0C8"/>
</linearGradient>
<linearGradient id="paint2_linear_800_73917" x1="14.0883" y1="23.1951" x2="17.9964" y2="23.0324" gradientUnits="userSpaceOnUse">
<stop stop-color="#288DD1"/>
<stop offset="1" stop-color="#3FE0C8"/>
</linearGradient>
<linearGradient id="paint3_linear_800_73917" x1="24.7551" y1="23.1951" x2="28.6632" y2="23.0324" gradientUnits="userSpaceOnUse">
<stop stop-color="#288DD1"/>
<stop offset="1" stop-color="#3FE0C8"/>
</linearGradient>
<linearGradient id="paint4_linear_800_73917" x1="14.0883" y1="49.1951" x2="17.9964" y2="49.0324" gradientUnits="userSpaceOnUse">
<stop stop-color="#288DD1"/>
<stop offset="1" stop-color="#3FE0C8"/>
</linearGradient>
<linearGradient id="paint5_linear_800_73917" x1="35.6571" y1="20.9883" x2="48.3952" y2="16.4507" gradientUnits="userSpaceOnUse">
<stop stop-color="#288DD1"/>
<stop offset="1" stop-color="#3FE0C8"/>
</linearGradient>
<linearGradient id="paint6_linear_800_73917" x1="30.0399" y1="58.5733" x2="61.0659" y2="55.559" gradientUnits="userSpaceOnUse">
<stop stop-color="#288DD1"/>
<stop offset="1" stop-color="#3FE0C8"/>
</linearGradient>
</defs>
</svg>
