<svg width="400" height="300" viewBox="0 0 400 300" fill="none" xmlns="http://www.w3.org/2000/svg">
<g opacity="0.41">
<mask id="mask0_566_44455" style="mask-type:luminance" maskUnits="userSpaceOnUse" x="313" y="-149" width="601" height="600">
<path d="M913.001 -149L313 -149L313 451H913.001V-149Z" fill="white"/>
</mask>
<g mask="url(#mask0_566_44455)">
<g opacity="0.27">
<path d="M359.454 246.945C358.731 234.774 359.297 223.86 362.159 213.166C362.945 210.273 363.983 207.411 365.336 204.706C368.261 198.793 373.387 195.931 379.772 195.082C387.729 194.012 395.686 194.547 403.486 196.246C419.527 199.737 435.472 203.637 451.481 207.316C456.702 208.512 459.816 211.845 461.326 216.846C462.835 221.784 463.276 226.848 462.93 231.943C462.458 238.265 461.703 244.586 460.822 250.877C460.256 255.028 457.426 256.507 453.526 254.871C448.525 252.795 444.31 249.524 440.41 245.782C435.976 241.536 432.327 236.661 429.339 231.314C427.987 228.892 426.068 227.508 423.458 226.911C418.96 225.873 414.463 224.866 409.965 223.86C402.417 222.162 394.868 220.432 387.32 218.828C383.546 218.041 383.074 218.167 382.162 221.941C380.495 228.766 379.206 235.686 377.79 242.605C376.752 247.7 375.715 252.764 374.708 257.859C373.765 262.734 370.494 264.936 365.933 265.785C362.442 266.414 359.423 263.74 359.454 260.186C359.517 255.374 359.454 250.562 359.454 246.882V246.945Z" fill="white" fill-opacity="0.6"/>
<path d="M403.832 320.447C397.385 320.447 390.906 320.447 384.458 320.447C380.558 320.447 376.941 316.327 377.381 312.364C377.57 310.571 378.86 309.282 381.061 308.967C383.106 308.684 385.181 308.559 387.226 308.527C398.297 308.37 409.368 308.275 420.439 308.15C423.364 308.118 423.647 307.961 423.961 305.099C424.653 298.966 425.408 300.13 419.873 299.312C408.55 297.613 397.196 296.293 385.873 294.626C378.86 293.588 371.877 292.204 364.927 290.851C361.656 290.222 360.303 288.461 360.869 285.19C361.436 281.919 362.316 278.68 363.354 275.503C364.14 273.081 366.153 271.855 368.669 271.98C371.846 272.138 375.023 272.421 378.136 272.987C393.359 275.755 408.55 278.648 423.741 281.542C425.974 281.982 428.113 282.768 430.314 283.397C433.931 284.435 436.322 286.7 437.328 290.317C439.624 298.588 442.077 306.797 444.027 315.163C446.921 327.461 448.902 339.916 449.468 352.528C449.594 355.044 449.468 357.623 449.311 360.139C449.06 363.945 447.235 366.87 443.87 368.725C443.052 369.197 442.235 369.7 441.354 370.078C426.698 376.557 411.821 382.375 395.969 385.3C394.837 385.52 393.422 385.489 392.478 384.954C390.119 383.696 390.308 379.324 392.635 378.003C393.327 377.626 394.051 377.312 394.774 376.966C404.304 372.594 413.834 368.253 423.364 363.85C430.063 360.768 431.101 359.384 430.44 351.993C429.717 343.941 428.49 335.89 427.484 327.87C427.264 325.983 426.918 324.096 426.823 322.177C426.729 320.604 425.943 320.038 424.496 320.038C421.005 320.038 417.514 320.101 414.023 320.133C410.626 320.133 407.26 320.133 403.864 320.133V320.416L403.832 320.447Z" fill="white" fill-opacity="0.6"/>
<path d="M345.553 295.852C349.422 296.01 352.409 297.551 354.643 300.57C359.266 306.955 363.795 313.434 368.544 319.724C371.658 323.844 375.055 327.807 378.451 331.707C381.785 335.544 386.031 337.4 391.189 336.865C396.599 336.299 402.009 335.67 407.45 335.104C409.117 334.947 410.846 334.726 412.513 334.884C416.162 335.261 417.986 338.406 416.13 341.551C414.369 344.571 412.136 347.401 409.809 350.043C407.89 352.213 405.531 353.975 403.361 355.925C402.26 356.931 401.254 358 400.121 358.944C396.316 362.058 392.038 364.196 387.132 364.7C384.27 365.014 381.722 363.85 379.615 361.869C378.42 360.737 377.319 359.542 376.25 358.283C364.644 344.35 353.636 329.977 344.326 314.377C342.282 310.98 340.143 307.615 338.099 304.218C337.596 303.369 337.187 302.394 336.967 301.451C336.589 299.689 337.47 298.085 339.326 297.425C341.37 296.733 343.509 296.324 345.584 295.821L345.553 295.852Z" fill="white" fill-opacity="0.6"/>
<path d="M327.185 332.682C324.575 332.147 322.31 331.707 320.046 331.204C318.976 330.952 317.875 330.7 316.837 330.323C314.133 329.348 313.221 327.461 314.353 324.819C315.579 321.957 316.963 319.158 318.284 316.327C318.599 315.667 318.882 314.975 319.259 314.157C318.662 313.874 318.158 313.622 317.655 313.402C315.139 312.301 312.592 311.263 310.075 310.1C309.038 309.628 308.031 308.968 307.15 308.213C304.634 306.074 304.446 303.652 306.584 301.168C309.981 297.173 313.755 293.525 318.158 290.568C321.901 288.052 324.449 288.43 327.5 292.739C328.946 294.783 328.129 296.764 325.738 297.551C325.55 297.614 325.298 297.645 325.141 297.771C322.719 299.752 320.297 301.765 317.529 304.061C318.63 304.533 319.228 304.816 319.857 305.036C322.373 305.917 324.889 306.703 327.374 307.615C331.494 309.156 332.312 311.547 330.016 315.258C328.695 317.428 327.217 319.504 325.864 321.643C325.361 322.429 325.046 323.309 324.512 324.442C326.021 324.662 327.279 324.819 328.506 325.039C330.991 325.511 333.538 325.888 335.96 326.612C339.734 327.776 340.521 330.575 338.13 333.72C336.495 335.859 334.733 337.903 333.004 340.01C332.689 340.419 332.375 340.828 331.903 341.457C335.646 342.055 339.137 342.275 342.691 342.055C344.232 341.96 345.899 342.149 347.314 342.684C348.163 342.998 349.044 344.162 349.233 345.105C350.019 349.068 348.132 351.459 344.075 351.427C337.187 351.396 330.299 351.175 323.442 350.861C319.762 350.704 318.536 348.596 319.637 345.137C320.895 341.205 322.719 337.588 325.612 334.601C326.116 334.066 326.556 333.468 327.217 332.651L327.185 332.682Z" fill="white" fill-opacity="0.6"/>
<path d="M386.472 249.965C386.943 246.348 387.164 242.7 387.95 239.145C389.428 232.604 393.643 229.679 400.342 230.182C404.242 230.465 408.142 230.874 412.042 231.251C414.589 231.503 416.288 232.887 417.011 235.277C417.546 237.038 417.986 238.862 418.206 240.687C419.024 247.417 419.747 254.148 420.471 260.878C420.565 261.728 420.534 262.577 420.502 263.426C420.408 266.005 419.118 267.955 416.665 268.49C413.394 269.182 409.997 269.559 406.632 269.716C404.714 269.811 403.298 268.238 403.11 266.068C402.952 263.929 403.015 261.728 403.204 259.589C403.55 255.249 404.053 250.94 404.525 246.631C404.619 245.656 404.399 245.09 403.361 245.058C403.204 245.058 403.047 245.027 402.889 244.996C398.706 244.366 398.392 244.524 397.511 248.581C397.071 250.531 397.008 252.575 396.41 254.462C395.75 256.538 394.869 258.614 393.768 260.47C393.391 261.099 392.039 261.508 391.158 261.413C389.365 261.256 387.447 258.96 387.226 257.167C387.101 256.224 387.006 255.28 386.975 254.305C386.943 252.89 386.975 251.443 386.975 250.028C386.818 250.028 386.66 250.028 386.472 249.996V249.965Z" fill="white" fill-opacity="0.6"/>
<path d="M349.579 270.031C349.83 274.245 350.051 278.46 350.334 282.674C350.397 283.46 350.585 284.247 350.617 285.033C350.743 288.178 348.667 289.814 345.805 288.524C334.639 283.523 323.38 278.711 313.158 271.823C310.296 269.905 309.824 266.98 312.372 264.621C313.881 263.206 315.769 261.947 317.687 261.318C326.619 258.456 335.803 256.506 345.113 255.217C347.66 254.871 349.547 256.255 349.736 258.897C349.988 262.577 349.799 266.288 349.799 269.999C349.736 269.999 349.642 269.999 349.579 269.999V270.031Z" fill="white" fill-opacity="0.6"/>
<path d="M346.748 207.725C345.615 206.625 344.64 205.744 343.76 204.737C340.174 200.743 341.244 196.34 346.339 194.736C349.138 193.855 352.094 193.383 355.019 192.943C357.221 192.597 358.353 193.855 358.825 196.025C359.36 198.573 358.919 200.932 358.385 203.385C357.536 207.316 356.907 211.279 356.089 215.242C355.711 217.035 355.208 218.828 354.642 220.589C354.202 222.036 352.723 222.979 351.088 222.539C346.59 221.407 342.942 218.953 340.803 214.739C339.765 212.695 340.678 210.525 342.848 209.392C344.011 208.763 345.269 208.354 346.716 207.757L346.748 207.725Z" fill="white" fill-opacity="0.6"/>
<path d="M321.555 238.233C322.027 231.723 322.499 224.646 323.065 217.601C323.38 213.607 325.298 212.223 329.261 212.852C329.67 212.915 330.11 212.978 330.519 213.072C334.545 214.015 335.709 215.714 335.048 219.803C333.79 227.571 332.501 235.371 331.211 243.139C330.959 244.712 330.739 246.285 330.425 247.826C329.984 250.122 329.041 251.065 327.122 251.317C325.015 251.568 323.851 250.845 322.814 248.643C321.335 245.498 321.493 242.164 321.555 238.233Z" fill="white" fill-opacity="0.6"/>
<path d="M342.125 230.622C343.351 230.874 345.773 231.251 348.1 231.912C350.648 232.603 352 234.616 351.246 237.132C350.176 240.655 348.792 244.115 347.251 247.449C346.245 249.587 342.565 249.587 340.835 247.354C338.036 243.706 336.086 239.586 335.992 234.836C335.96 231.974 337.784 230.528 342.125 230.622Z" fill="white" fill-opacity="0.6"/>
</g>
<g opacity="0.27">
<path d="M421.068 86.7303C421.571 83.7738 421.98 81.1005 422.514 78.4585C423.112 75.5021 423.678 72.5142 424.527 69.6522C425.565 66.0981 427.264 64.9029 430.975 65.0917C435.189 65.3118 439.404 65.8151 443.618 66.1925C444.185 66.2554 444.751 66.3497 445.537 66.444C445.38 65.7521 445.348 65.2174 445.191 64.7456C443.776 59.9336 442.455 55.0586 440.819 50.3094C439.656 46.9127 439.939 44.1135 442.769 41.7232C444.719 40.0877 446.48 38.2321 448.556 36.8168C449.909 35.8733 451.576 35.2757 453.211 34.9297C456.168 34.3007 458.841 35.6216 460.288 38.295C460.917 39.4587 461.389 40.7168 461.672 42.0063C464.817 56.2852 467.93 70.5642 470.95 84.8747C471.422 87.1392 471.673 89.498 471.705 91.8254C471.736 96.7947 468.528 99.1851 463.81 97.6125C461.42 96.7947 459.124 95.6311 456.985 94.3101C451.576 90.9762 446.26 87.4851 440.882 84.0884C440.285 83.711 439.624 83.4278 438.618 82.8617C438.838 85.6609 439.026 88.0513 439.247 90.473C439.844 96.7319 440.568 103.022 441.008 109.281C441.197 112.049 440.851 114.879 440.693 117.679C440.662 118.37 440.473 119.031 440.253 119.691C439.215 122.931 436.605 124.22 433.522 122.868C431.761 122.082 430.063 121.012 428.522 119.849C419.81 113.181 411.16 106.45 402.511 99.7198C400.75 98.3674 399.052 96.9205 397.322 95.5367C396.913 95.2221 396.504 94.9706 395.686 94.4045C395.969 95.5053 396.064 96.1971 396.315 96.7947C398.36 102.079 400.404 107.362 402.448 112.646C403.36 115.005 404.304 117.395 405.122 119.786C405.436 120.666 405.562 121.641 405.562 122.585C405.531 124.755 404.052 126.328 401.851 126.359C400.656 126.359 399.429 126.17 398.265 125.856C383.703 121.925 369.11 117.993 354.579 113.936C350.962 112.929 347.44 111.577 344.043 110.004C339.262 107.771 335.991 104.06 334.576 98.8705C333.381 94.4359 332.217 89.9697 331.053 85.5036C330.896 84.8432 330.77 84.1512 330.739 83.4593C330.676 82.0754 331.148 80.9118 332.5 80.3456C333.853 79.7795 335.048 80.1883 335.928 81.2577C337.124 82.673 338.35 84.0883 339.388 85.598C341.024 87.9883 343.131 89.781 345.647 91.102C354.894 95.977 364.927 97.2351 375.18 97.644C376.627 97.7069 377.287 97.0463 377.602 95.7254C378.577 91.4794 379.552 87.2649 380.558 83.0504C381.061 80.9432 381.565 78.8045 382.225 76.7601C382.634 75.4706 383.263 74.2126 384.049 73.0804C385.936 70.2812 388.327 69.6206 391.346 71.1618C396.315 73.6779 401.222 76.2883 406.128 78.8988C410.531 81.2262 414.872 83.648 419.275 86.0069C419.778 86.2899 420.313 86.4787 421.131 86.8246L421.068 86.7303Z" fill="white" fill-opacity="0.6"/>
<path d="M290.701 50.6868C291.204 44.0191 291.519 38.0433 292.179 32.0989C292.714 27.1925 294.412 25.6514 299.35 24.928C302.087 24.5191 304.791 24.1417 307.528 23.7957C308.849 23.607 309.446 22.8836 309.761 21.5627C311.05 16.0901 312.434 10.6805 313.85 5.23935C315.045 0.678883 318.095 -1.83724 322.687 -2.52917C328.443 -3.37836 334.23 -4.13322 339.986 -5.01387C344.483 -5.67435 343.791 -5.67433 343.382 -9.3227C342.911 -13.3485 342.187 -17.3743 341.401 -21.3372C340.866 -24.042 339.231 -25.3 336.243 -25.4258C331.211 -25.646 326.241 -26.3379 321.209 -26.8726C320.643 -26.9355 320.045 -27.0613 319.511 -27.2186C316.177 -28.0678 315.139 -30.0178 316.177 -33.2887C316.334 -33.7919 316.523 -34.2952 316.712 -34.7984C318.253 -38.7299 319.605 -39.6733 323.788 -39.3588C329.921 -38.9185 336.023 -38.3839 342.156 -37.8492C343.162 -37.7549 344.137 -37.4718 345.112 -37.2201C350.019 -35.9935 352.912 -33.1 353.919 -27.9734C355.68 -18.7581 357.599 -9.57427 357.63 -0.138828C357.63 1.11923 357.724 2.40871 357.63 3.66677C357.284 8.06998 355.46 10.6176 351.182 11.6555C346.811 12.7248 342.345 13.228 337.91 14.0457C333.947 14.7691 330.016 15.6184 326.053 16.3732C324.795 16.6248 324.291 17.2538 324.354 18.5747C324.575 22.6949 324.7 26.815 324.92 30.9666C325.172 35.6529 323.788 38.2949 319.291 39.6788C314.95 40.9997 310.421 41.6916 305.987 42.6351C305.421 42.7609 304.76 42.7295 304.288 42.9811C303.816 43.2327 303.187 43.7674 303.187 44.2077C303.03 47.7617 302.999 51.2843 302.904 54.8383C302.904 56.0964 303.439 56.8827 304.571 57.4173C308.188 59.1472 311.742 61.0657 315.422 62.7327C318.536 64.148 320.108 66.6012 320.203 69.8407C320.391 78.3641 320.454 86.8873 320.454 95.4107C320.454 97.6438 319.291 98.6817 317.089 98.8704C315.139 99.0276 313.189 99.1535 311.208 99.1849C307.056 99.1849 304.98 97.5495 304.414 93.4293C303.722 88.3971 303.187 83.3334 302.779 78.2697C302.621 76.3512 301.866 75.3132 300.074 74.6842C298.124 73.9922 296.268 73.0802 294.413 72.1366C292.683 71.256 291.708 69.8092 291.582 67.8278C291.267 61.852 290.984 55.8762 290.733 50.5923L290.701 50.6868Z" fill="white" fill-opacity="0.6"/>
<path d="M422.043 192.879C416.193 192.407 410.312 192.187 404.493 191.401C399.744 190.772 395.247 189.073 391.189 186.4C386.723 183.444 383.327 179.544 381.848 174.354C380.181 168.504 378.86 162.56 377.414 156.647C376.061 151.143 374.772 145.639 373.482 140.103C373.293 139.349 373.105 138.531 373.136 137.776C373.231 135.606 375.023 134.411 377.005 135.26C378.106 135.732 379.206 136.329 380.119 137.147C385.937 142.242 391.724 147.369 397.417 152.558C400.719 155.546 404.022 158.534 407.041 161.805C412.419 167.623 419.118 170.328 426.855 170.36C436.417 170.391 446.041 170.391 455.571 169.857C465.855 169.259 476.14 167.969 486.425 167.12C490.167 166.806 493.942 166.9 497.684 166.932C498.785 166.932 499.886 167.215 500.955 167.529C502.308 167.938 503.283 168.85 503.44 170.328C503.597 171.806 502.842 172.939 501.616 173.599C499.1 174.92 496.521 176.21 493.942 177.405C474.756 186.274 454.533 190.835 433.429 191.841C431.51 191.935 429.623 192.093 427.736 192.219C425.849 192.344 423.93 192.439 422.043 192.564C422.043 192.69 422.043 192.785 422.012 192.91L422.043 192.879Z" fill="white" fill-opacity="0.6"/>
<path d="M331.778 177.185C326.588 177.31 321.524 176.713 316.586 175.109C309.227 172.687 304.1 168.032 301.993 160.358C299.445 151.174 300.232 142.148 303.44 133.31C303.974 131.832 305.044 130.479 306.05 129.221C306.899 128.152 308.126 127.963 309.227 128.938C310.579 130.165 311.837 131.517 313.19 132.744C318.285 137.399 323.349 142.085 328.475 146.677C333.728 151.363 339.043 155.986 344.327 160.641C346.465 162.497 348.793 164.195 350.68 166.302C351.718 167.466 352.252 169.259 352.63 170.831C352.787 171.492 352.001 172.75 351.309 173.096C349.359 174.039 347.283 174.857 345.144 175.36C342.282 176.052 339.389 176.43 336.464 176.839C334.891 177.059 333.319 177.059 331.746 177.185H331.778Z" fill="white" fill-opacity="0.6"/>
<path d="M397.542 21.4055C397.542 23.4813 397.542 25.5256 397.542 27.6014C397.574 29.6143 396.693 31.0296 394.9 31.9417C381.974 38.6409 369.613 46.4409 356.309 52.3852C354.422 53.2344 352.755 54.4925 350.868 55.3731C349.296 56.0965 349.138 57.1029 349.956 58.3924C351.906 61.4747 353.825 64.5884 355.932 67.5448C357.756 70.0924 359.863 72.4198 361.719 74.9045C363.952 77.8609 363.103 80.7545 359.675 82.1384C356.404 83.4908 355.114 83.302 352.818 80.5972C347.786 74.7158 342.88 68.74 337.942 62.7956C337.344 62.0722 336.841 61.2231 336.369 60.4054C334.859 57.8264 334.985 55.2788 336.872 53.0143C338.319 51.2844 339.86 49.5231 341.684 48.2022C348.981 42.9183 356.278 37.6659 363.763 32.6651C369.299 28.9853 375.149 25.6829 380.873 22.2861C381.942 21.6571 382.603 20.8393 382.571 19.6442C382.54 17.0966 382.414 14.5806 382.288 12.033C382.225 10.5548 382.005 9.07653 381.911 7.59831C381.816 5.67977 382.54 4.73617 384.333 4.2015C386.22 3.63537 388.075 3.00634 389.962 2.53457C393.013 1.77974 394.9 2.72331 395.561 5.80555C396.316 9.26522 396.662 12.7878 397.07 16.3103C397.259 17.9773 397.102 19.7071 397.102 21.3741H397.479L397.542 21.4055Z" fill="white" fill-opacity="0.6"/>
<path d="M325.707 118.119C334.482 118.213 341.811 119.534 348.353 123.811C353.573 127.24 357.505 131.863 360.619 137.21C363.606 142.336 365.116 147.872 364.141 153.785C363.606 156.961 362.977 160.201 360.965 162.937C359.486 164.981 356.844 165.453 354.926 163.692C352.095 161.081 349.39 158.377 346.654 155.703C342.911 152.086 339.169 148.469 335.426 144.821C333.13 142.588 330.897 140.261 328.601 137.996C324.103 133.498 319.637 128.969 315.108 124.503C313.567 122.994 313.693 120.918 315.643 119.911C316.366 119.534 317.215 119.314 318.065 119.188C320.958 118.748 323.883 118.37 325.707 118.119Z" fill="white" fill-opacity="0.6"/>
<path d="M411.286 68.2682C404.178 67.6706 397.291 66.1609 390.434 64.1794C385.622 62.7641 380.747 61.6004 375.872 60.3738C373.293 59.7134 372.318 57.323 373.922 55.1214C375.275 53.2343 377.256 52.3537 379.489 52.165C383.641 51.7875 387.824 51.5359 392.007 51.19C393.233 51.0956 394.428 50.9069 395.624 50.8126C399.555 50.4351 402.889 48.9884 405.814 46.2522C411.192 41.1885 417.514 37.3514 423.741 33.4514C424.182 33.1683 424.653 32.9167 425.157 32.728C426.603 32.1618 428.082 32.036 429.34 33.1368C430.629 34.2376 430.818 35.7473 430.346 37.2255C428.931 41.5658 427.641 45.9376 425.911 50.1206C424.213 54.2408 422.169 58.1722 420.093 62.1036C419.307 63.5819 418.174 64.8714 417.011 66.098C415.469 67.7335 413.488 68.4254 411.255 68.2682H411.286Z" fill="white" fill-opacity="0.6"/>
<path d="M366.531 186.526C361.876 186.526 357.944 183.255 357.944 179.355C357.944 174.983 362.253 170.926 366.845 170.957C371.217 170.957 374.645 174.48 374.677 178.883C374.677 183.412 371.374 186.526 366.531 186.526Z" fill="white" fill-opacity="0.6"/>
<path d="M340.709 34.7734C338.382 34.7734 337.061 33.9557 336.369 32.3831C335.237 29.8355 334.073 27.2565 333.224 24.6146C332.941 23.734 333.318 22.413 333.853 21.5953C334.545 20.5574 335.803 20.6831 336.872 21.2178C339.325 22.4129 341.81 23.5767 344.2 24.8662C345.144 25.3694 345.993 26.1871 346.685 27.0048C347.628 28.1685 347.849 29.6153 346.905 30.8419C345.207 33.075 342.816 34.2701 340.646 34.7734H340.709Z" fill="white" fill-opacity="0.6"/>
</g>
</g>
</g>
<g opacity="0.41">
<mask id="mask1_566_44455" style="mask-type:luminance" maskUnits="userSpaceOnUse" x="-288" y="-149" width="601" height="600">
<path d="M312.737 -149L-287.264 -149L-287.264 451H312.737V-149Z" fill="white"/>
</mask>
<g mask="url(#mask1_566_44455)">
<g opacity="0.27">
<path d="M209.199 246.945C208.476 234.774 209.042 223.86 211.904 213.166C212.69 210.273 213.728 207.411 215.081 204.706C218.006 198.793 223.132 195.931 229.517 195.082C237.474 194.012 245.431 194.547 253.231 196.246C269.272 199.737 285.218 203.637 301.226 207.316C306.447 208.512 309.561 211.845 311.071 216.846C312.58 221.784 313.021 226.848 312.675 231.943C312.203 238.265 311.448 244.586 310.568 250.877C310.001 255.028 307.171 256.507 303.271 254.871C298.27 252.795 294.055 249.524 290.156 245.782C285.721 241.536 282.104 236.661 279.085 231.314C277.732 228.892 275.814 227.508 273.203 226.911C268.706 225.873 264.208 224.866 259.71 223.86C252.162 222.162 244.614 220.432 237.065 218.828C233.291 218.041 232.819 218.167 231.907 221.941C230.24 228.766 228.951 235.686 227.535 242.605C226.498 247.7 225.46 252.764 224.453 257.859C223.51 262.734 220.239 264.936 215.678 265.785C212.187 266.414 209.168 263.74 209.199 260.186C209.262 255.374 209.199 250.562 209.199 246.882V246.945Z" fill="white" fill-opacity="0.6"/>
<path d="M253.577 320.447C247.13 320.447 240.651 320.447 234.203 320.447C230.303 320.447 226.686 316.327 227.127 312.364C227.315 310.571 228.605 309.282 230.806 308.967C232.851 308.684 234.927 308.559 236.971 308.527C248.042 308.37 259.113 308.275 270.184 308.15C273.109 308.118 273.392 307.961 273.706 305.099C274.398 298.966 275.153 300.13 269.618 299.312C258.295 297.613 246.941 296.293 235.618 294.626C228.605 293.588 221.623 292.204 214.672 290.851C211.401 290.222 210.048 288.461 210.615 285.19C211.181 281.919 212.061 278.68 213.099 275.503C213.886 273.081 215.898 271.855 218.415 271.98C221.591 272.138 224.768 272.421 227.881 272.987C243.104 275.755 258.295 278.648 273.486 281.542C275.719 281.982 277.858 282.768 280.059 283.397C283.676 284.435 286.067 286.7 287.073 290.317C289.369 298.588 291.822 306.797 293.772 315.163C296.666 327.461 298.647 339.916 299.213 352.528C299.339 355.044 299.213 357.623 299.056 360.139C298.805 363.945 296.98 366.87 293.615 368.725C292.797 369.197 291.98 369.7 291.099 370.078C276.443 376.557 261.566 382.375 245.714 385.3C244.582 385.52 243.167 385.489 242.223 384.954C239.864 383.696 240.053 379.324 242.381 378.003C243.073 377.626 243.796 377.312 244.519 376.966C254.049 372.594 263.579 368.253 273.109 363.85C279.808 360.768 280.846 359.384 280.185 351.993C279.462 343.941 278.235 335.89 277.229 327.87C277.009 325.983 276.663 324.096 276.568 322.177C276.474 320.604 275.688 320.038 274.241 320.038C270.75 320.038 267.259 320.101 263.768 320.133C260.371 320.133 257.005 320.133 253.609 320.133C253.609 320.227 253.609 320.321 253.609 320.416L253.577 320.447Z" fill="white" fill-opacity="0.6"/>
<path d="M195.298 295.852C199.167 296.01 202.155 297.551 204.388 300.57C209.011 306.955 213.54 313.434 218.289 319.724C221.403 323.844 224.8 327.807 228.196 331.707C231.53 335.544 235.776 337.4 240.934 336.865C246.344 336.299 251.754 335.67 257.195 335.104C258.862 334.947 260.591 334.726 262.258 334.884C265.907 335.261 267.731 338.406 265.875 341.551C264.114 344.571 261.881 347.401 259.554 350.043C257.635 352.213 255.276 353.975 253.106 355.925C252.005 356.931 250.999 358 249.867 358.944C246.061 362.058 241.784 364.196 236.877 364.7C234.015 365.014 231.467 363.85 229.36 361.869C228.165 360.737 227.064 359.542 225.995 358.283C214.389 344.35 203.381 329.977 194.072 314.377C192.027 310.98 189.889 307.615 187.844 304.218C187.341 303.369 186.932 302.394 186.712 301.451C186.334 299.689 187.215 298.085 189.071 297.425C191.084 296.733 193.254 296.324 195.33 295.821L195.298 295.852Z" fill="white" fill-opacity="0.6"/>
<path d="M321.513 364.323C319.721 364.229 317.519 364.292 315.38 364.008C309.971 363.317 306.888 357.215 309.341 352.34C309.593 351.868 309.813 351.396 310.159 350.988C313.713 346.458 314.657 341.143 314.814 335.608C315.223 319.41 313.273 303.464 309.719 287.707C309.184 285.285 308.744 282.832 308.555 280.348C308.366 277.611 309.562 276.133 312.235 275.661C314.846 275.221 317.487 274.812 320.098 274.812C324.564 274.812 326.829 276.793 327.615 281.197C328.747 287.33 329.691 293.526 330.854 299.659C333.591 314.472 335.383 329.38 336.767 344.383C337.145 348.566 337.208 352.749 336.233 356.869C335.163 361.335 333.213 363.191 328.684 363.788C326.42 364.103 324.155 364.134 321.513 364.354V364.323Z" fill="white" fill-opacity="0.6"/>
<path d="M176.899 332.682C174.288 332.147 172.024 331.707 169.759 331.204C168.69 330.952 167.589 330.7 166.551 330.323C163.847 329.348 162.934 327.461 164.067 324.819C165.293 321.957 166.709 319.158 167.998 316.327C168.313 315.667 168.596 314.975 168.973 314.157C168.376 313.874 167.872 313.622 167.369 313.402C164.853 312.301 162.305 311.263 159.789 310.1C158.751 309.628 157.745 308.968 156.864 308.213C154.348 306.074 154.159 303.652 156.298 301.168C159.695 297.173 163.469 293.525 167.872 290.568C171.615 288.052 174.163 288.43 177.213 292.739C178.66 294.783 177.842 296.764 175.452 297.551C175.263 297.614 175.012 297.645 174.855 297.771C172.433 299.752 170.011 301.765 167.243 304.061C168.344 304.533 168.942 304.816 169.571 305.036C172.055 305.917 174.603 306.703 177.088 307.615C181.208 309.156 182.025 311.547 179.73 315.258C178.409 317.428 176.93 319.504 175.578 321.643C175.075 322.429 174.76 323.309 174.226 324.442C175.735 324.662 176.993 324.819 178.22 325.039C180.704 325.511 183.252 325.888 185.674 326.612C189.448 327.776 190.234 330.575 187.844 333.72C186.209 335.859 184.447 337.903 182.717 340.01C182.403 340.419 182.088 340.828 181.617 341.457C185.359 342.055 188.85 342.275 192.404 342.055C193.946 341.96 195.613 342.149 197.028 342.684C197.877 342.998 198.758 344.162 198.946 345.105C199.733 349.068 197.846 351.459 193.788 351.427C186.9 351.396 180.013 351.175 173.156 350.861C169.476 350.704 168.25 348.596 169.351 345.137C170.609 341.205 172.433 337.588 175.326 334.601C175.83 334.066 176.27 333.468 176.93 332.651L176.899 332.682Z" fill="white" fill-opacity="0.6"/>
<path d="M236.216 249.965C236.688 246.348 236.908 242.7 237.694 239.145C239.172 232.604 243.387 229.679 250.086 230.182C253.986 230.465 257.886 230.874 261.786 231.251C264.334 231.503 266.032 232.887 266.755 235.277C267.29 237.038 267.73 238.862 267.95 240.687C268.768 247.417 269.492 254.148 270.215 260.878C270.309 261.728 270.278 262.577 270.246 263.426C270.152 266.005 268.863 267.955 266.409 268.49C263.138 269.182 259.742 269.559 256.376 269.716C254.458 269.811 253.042 268.238 252.854 266.068C252.696 263.929 252.759 261.728 252.948 259.589C253.294 255.249 253.797 250.94 254.269 246.631C254.363 245.656 254.143 245.09 253.105 245.058C252.948 245.058 252.791 245.027 252.634 244.996C248.45 244.366 248.136 244.524 247.255 248.581C246.815 250.531 246.752 252.575 246.155 254.462C245.494 256.538 244.613 258.614 243.513 260.47C243.135 261.099 241.783 261.508 240.902 261.413C239.109 261.256 237.191 258.96 236.971 257.167C236.845 256.224 236.751 255.28 236.719 254.305C236.688 252.89 236.719 251.443 236.719 250.028C236.562 250.028 236.405 250.028 236.216 249.996V249.965Z" fill="white" fill-opacity="0.6"/>
<path d="M199.293 270.031C199.544 274.245 199.764 278.46 200.048 282.674C200.11 283.46 200.299 284.247 200.331 285.033C200.457 288.178 198.381 289.814 195.519 288.524C184.353 283.523 173.094 278.711 162.872 271.823C160.01 269.905 159.538 266.98 162.086 264.621C163.595 263.206 165.482 261.947 167.401 261.318C176.333 258.456 185.517 256.506 194.827 255.217C197.374 254.871 199.261 256.255 199.45 258.897C199.702 262.577 199.513 266.288 199.513 269.999C199.45 269.999 199.356 269.999 199.293 269.999V270.031Z" fill="white" fill-opacity="0.6"/>
<path d="M296.918 284.531C296.667 284.499 296.069 284.499 295.503 284.311C290.471 282.707 285.438 281.103 280.406 279.436C279.526 279.153 278.676 278.618 277.89 278.083C276.349 277.014 275.688 275.504 276.223 273.649C277.072 270.692 277.922 267.736 278.991 264.874C280.155 261.729 281.853 261.037 285.092 261.917C288.709 262.892 292.389 263.71 296.006 264.779C298.365 265.503 300.724 266.383 302.926 267.484C305.127 268.554 305.819 270.158 305.096 272.516C304.089 275.693 302.894 278.807 301.573 281.826C300.818 283.587 299.277 284.562 296.918 284.531Z" fill="white" fill-opacity="0.6"/>
<path d="M196.493 207.725C195.361 206.625 194.386 205.744 193.505 204.737C189.919 200.743 190.989 196.34 196.084 194.736C198.883 193.855 201.84 193.383 204.765 192.943C206.966 192.597 208.098 193.855 208.57 196.025C209.105 198.573 208.665 200.932 208.13 203.385C207.281 207.316 206.652 211.279 205.834 215.242C205.457 217.035 204.953 218.828 204.387 220.589C203.947 222.036 202.469 222.979 200.833 222.539C196.336 221.407 192.687 218.953 190.549 214.739C189.511 212.695 190.423 210.525 192.593 209.392C193.757 208.763 195.015 208.354 196.461 207.757L196.493 207.725Z" fill="white" fill-opacity="0.6"/>
<path d="M171.269 238.233C171.741 231.723 172.213 224.646 172.779 217.601C173.094 213.607 175.012 212.223 178.975 212.852C179.384 212.915 179.824 212.978 180.233 213.072C184.259 214.015 185.423 215.714 184.762 219.803C183.504 227.571 182.214 235.371 180.925 243.139C180.673 244.712 180.453 246.285 180.139 247.826C179.698 250.122 178.755 251.065 176.836 251.317C174.729 251.568 173.565 250.845 172.527 248.643C171.049 245.498 171.206 242.164 171.269 238.233Z" fill="white" fill-opacity="0.6"/>
<path d="M191.87 230.622C193.096 230.874 195.518 231.251 197.846 231.912C200.393 232.603 201.746 234.616 200.991 237.132C199.921 240.655 198.537 244.115 196.996 247.449C195.99 249.587 192.31 249.587 190.58 247.354C187.781 243.706 185.831 239.586 185.737 234.836C185.705 231.974 187.53 230.528 191.87 230.622Z" fill="white" fill-opacity="0.6"/>
</g>
<g opacity="0.27">
<path d="M270.813 86.7303C271.316 83.7738 271.725 81.1005 272.26 78.4585C272.857 75.5021 273.423 72.5142 274.273 69.6522C275.311 66.0981 277.009 64.9029 280.72 65.0917C284.935 65.3118 289.149 65.8151 293.364 66.1925C293.93 66.2554 294.496 66.3497 295.282 66.444C295.125 65.7521 295.094 65.2174 294.936 64.7456C293.521 59.9336 292.2 55.0586 290.564 50.3094C289.401 46.9127 289.684 44.1135 292.515 41.7232C294.465 40.0877 296.226 38.2321 298.302 36.8168C299.654 35.8733 301.321 35.2757 302.956 34.9297C305.913 34.3007 308.586 35.6216 310.033 38.295C310.662 39.4587 311.134 40.7168 311.417 42.0063C314.562 56.2852 317.676 70.5642 320.695 84.8747C321.167 87.1392 321.418 89.498 321.45 91.8254C321.481 96.7947 318.273 99.1851 313.556 97.6125C311.165 96.7947 308.869 95.6311 306.731 94.3101C301.321 90.9762 296.006 87.4851 290.627 84.0884C290.03 83.711 289.369 83.4278 288.331 82.8617C288.552 85.6609 288.74 88.0513 288.961 90.473C289.558 96.7319 290.281 103.022 290.722 109.281C290.911 112.049 290.565 114.879 290.407 117.679C290.376 118.37 290.187 119.031 289.967 119.691C288.929 122.931 286.319 124.22 283.236 122.868C281.475 122.082 279.777 121.012 278.236 119.849C269.523 113.181 260.874 106.45 252.225 99.7198C250.464 98.3674 248.765 96.9205 247.036 95.5367C246.658 95.2221 246.218 94.9706 245.4 94.4045C245.683 95.5053 245.778 96.1971 246.029 96.7947C248.074 102.079 250.118 107.362 252.162 112.646C253.074 115.005 254.018 117.395 254.836 119.786C255.15 120.666 255.276 121.641 255.276 122.585C255.244 124.755 253.766 126.328 251.565 126.359C250.369 126.359 249.143 126.17 247.979 125.856C233.417 121.925 218.824 117.993 204.293 113.936C200.676 112.929 197.153 111.577 193.757 110.004C188.976 107.771 185.705 104.06 184.29 98.8705C183.095 94.4359 181.931 89.9697 180.767 85.5036C180.61 84.8432 180.484 84.1512 180.453 83.4593C180.39 82.0754 180.862 80.9118 182.214 80.3456C183.566 79.7795 184.762 80.1883 185.642 81.2577C186.837 82.673 188.064 84.0883 189.102 85.598C190.737 87.9883 192.845 89.781 195.361 91.102C204.607 95.977 214.641 97.2351 224.894 97.644C226.341 97.7069 227.001 97.0463 227.316 95.7254C228.291 91.4794 229.266 87.2649 230.272 83.0504C230.775 80.9432 231.278 78.8045 231.939 76.7601C232.348 75.4706 232.977 74.2126 233.763 73.0804C235.65 70.2812 238.04 69.6206 241.06 71.1618C246.029 73.6779 250.936 76.2883 255.842 78.8988C260.245 81.2262 264.586 83.648 268.989 86.0069C269.492 86.2899 270.027 86.4787 270.844 86.8246L270.813 86.7303Z" fill="white" fill-opacity="0.6"/>
<path d="M140.446 50.6868C140.95 44.0191 141.264 38.0433 141.925 32.0989C142.459 27.1925 144.158 25.6514 149.095 24.928C151.832 24.5191 154.537 24.1417 157.273 23.7957C158.594 23.607 159.191 22.8836 159.506 21.5627C160.795 16.0901 162.179 10.6805 163.595 5.23935C164.79 0.678883 167.841 -1.83724 172.432 -2.52917C178.188 -3.37836 183.975 -4.13322 189.731 -5.01387C194.228 -5.67435 193.536 -5.67433 193.128 -9.3227C192.656 -13.3485 191.932 -17.3743 191.146 -21.3372C190.611 -24.042 188.976 -25.3 185.988 -25.4258C180.956 -25.646 175.986 -26.3379 170.954 -26.8726C170.388 -26.9355 169.791 -27.0613 169.256 -27.2186C165.922 -28.0678 164.884 -30.0178 165.953 -33.2887C166.111 -33.7919 166.299 -34.2952 166.488 -34.7984C168.029 -38.7299 169.382 -39.6733 173.565 -39.3588C179.698 -38.9185 185.799 -38.3839 191.932 -37.8492C192.939 -37.7549 193.914 -37.4718 194.889 -37.2201C199.795 -35.9935 202.689 -33.1 203.695 -27.9734C205.457 -18.7581 207.375 -9.57427 207.407 -0.138828C207.407 1.11923 207.501 2.40871 207.407 3.66677C207.061 8.06998 205.236 10.6176 200.959 11.6555C196.587 12.7248 192.121 13.228 187.686 14.0457C183.724 14.7691 179.792 15.6184 175.829 16.3732C174.571 16.6248 174.068 17.2538 174.131 18.5747C174.351 22.6949 174.477 26.815 174.697 30.9666C174.949 35.6529 173.565 38.2949 169.067 39.6788C164.727 40.9997 160.198 41.6916 155.763 42.6351C155.197 42.7609 154.537 42.7295 154.065 42.9811C153.593 43.2327 152.964 43.7674 152.964 44.2077C152.807 47.7617 152.775 51.2843 152.681 54.8383C152.681 56.0964 153.216 56.8827 154.348 57.4173C157.965 59.1472 161.519 61.0657 165.199 62.7327C168.312 64.148 169.885 66.6012 169.979 69.8407C170.168 78.3641 170.231 86.8873 170.231 95.4107C170.231 97.6438 169.067 98.6817 166.866 98.8704C164.916 99.0276 162.966 99.1535 160.984 99.1849C156.833 99.1849 154.757 97.5495 154.191 93.4293C153.499 88.3971 152.964 83.3334 152.555 78.2697C152.398 76.3512 151.643 75.3132 149.85 74.6842C147.9 73.9922 146.045 73.0802 144.189 72.1366C142.459 71.256 141.484 69.8092 141.358 67.8278C141.044 61.852 140.761 55.8762 140.509 50.5923L140.446 50.6868Z" fill="white" fill-opacity="0.6"/>
<path d="M271.787 192.879C265.938 192.407 260.056 192.187 254.238 191.401C249.488 190.772 244.991 189.073 240.934 186.4C236.467 183.444 233.071 179.544 231.592 174.354C229.926 168.504 228.605 162.56 227.158 156.647C225.805 151.143 224.516 145.639 223.226 140.103C223.038 139.349 222.849 138.531 222.88 137.776C222.975 135.606 224.768 134.411 226.749 135.26C227.85 135.732 228.951 136.329 229.863 137.147C235.681 142.242 241.468 147.369 247.161 152.558C250.463 155.546 253.766 158.534 256.785 161.805C262.163 167.623 268.863 170.328 276.6 170.36C286.161 170.391 295.785 170.391 305.315 169.857C315.599 169.259 325.884 167.969 336.169 167.12C339.912 166.806 343.686 166.9 347.428 166.932C348.529 166.932 349.63 167.215 350.699 167.529C352.052 167.938 353.027 168.85 353.184 170.328C353.341 171.806 352.587 172.939 351.36 173.599C348.844 174.92 346.265 176.21 343.686 177.405C324.5 186.274 304.277 190.835 283.173 191.841C281.254 191.935 279.367 192.093 277.48 192.219C275.593 192.344 273.675 192.439 271.787 192.564C271.787 192.69 271.788 192.785 271.756 192.91L271.787 192.879Z" fill="white" fill-opacity="0.6"/>
<path d="M321.419 156.678C318.557 156.238 315.789 155.892 313.053 155.326C312.015 155.106 310.945 154.54 310.065 153.911C307.8 152.307 307.328 150.074 308.587 147.62C309.278 146.299 310.065 145.041 310.725 143.72C315.128 134.568 315.128 125.636 309.216 117.081C307.863 115.131 308.335 113.37 309.216 111.545C310.002 109.941 311.512 109.973 313.053 109.879C316.701 109.596 320.318 109.187 323.966 108.904C325.162 108.809 326.388 108.904 327.615 108.998C329.345 109.155 330.728 110.004 331.735 111.42C332.27 112.206 332.836 112.992 333.245 113.841C336.704 121.295 341.831 127.523 347.24 133.593C349.285 135.889 351.235 138.279 353.028 140.732C354.034 142.116 354.915 143.689 355.512 145.324C356.582 148.218 355.418 150.577 352.43 151.395C349.065 152.338 345.636 153.093 342.208 153.628C335.32 154.728 328.37 155.609 321.482 156.584L321.419 156.678Z" fill="white" fill-opacity="0.6"/>
<path d="M247.287 21.4055C247.287 23.4813 247.287 25.5256 247.287 27.6014C247.319 29.6143 246.438 31.0296 244.645 31.9417C231.719 38.6409 219.358 46.4409 206.054 52.3852C204.167 53.2344 202.5 54.4925 200.613 55.3731C199.041 56.0965 198.883 57.1029 199.701 58.3924C201.651 61.4747 203.57 64.5884 205.677 67.5448C207.501 70.0924 209.608 72.4198 211.464 74.9045C213.697 77.8609 212.848 80.7545 209.42 82.1384C206.149 83.4908 204.859 83.302 202.563 80.5972C197.531 74.7158 192.624 68.74 187.718 62.7956C187.12 62.0722 186.617 61.2231 186.145 60.4054C184.636 57.8264 184.762 55.2788 186.649 53.0143C188.095 51.2844 189.637 49.5231 191.461 48.2022C198.757 42.9183 206.054 37.6659 213.54 32.6651C219.075 28.9853 224.925 25.6829 230.649 22.2861C231.719 21.6571 232.379 20.8393 232.348 19.6442C232.316 17.0966 232.19 14.5806 232.065 12.033C232.002 10.5548 231.782 9.07653 231.687 7.59831C231.593 5.67977 232.316 4.73617 234.109 4.2015C235.996 3.63537 237.852 3.00634 239.739 2.53457C242.79 1.77974 244.677 2.72331 245.337 5.80555C246.092 9.26522 246.438 12.7878 246.847 16.3103C247.036 17.9773 246.847 19.7071 246.847 21.3741H247.224L247.287 21.4055Z" fill="white" fill-opacity="0.6"/>
<path d="M297.956 26.0919C294.622 26.0919 291.288 26.029 287.954 26.0919C284.243 26.1548 282.639 23.9846 284.023 20.5879C284.809 18.6379 285.752 16.7193 286.664 14.8008C288.552 10.8379 291.697 8.79353 296.068 8.57337C297.767 8.47902 299.434 8.32177 301.132 8.29032C301.981 8.29032 302.39 7.94431 302.39 7.06367C302.327 3.25804 302.296 -0.547514 302.233 -4.35314C302.233 -5.89427 301.415 -6.96368 300.031 -7.56125C298.239 -8.37899 296.446 -9.13377 294.622 -9.85715C290.816 -11.4297 289.715 -14.2919 291.885 -18.6951C292.42 -19.7959 292.986 -20.8652 293.584 -21.9031C294.622 -23.7588 296.226 -24.7338 298.364 -24.7652C303.774 -24.891 309.026 -24.0103 314.185 -22.4692C317.487 -21.4942 319.751 -19.2926 320.16 -15.77C321.355 -5.73702 321.576 4.29596 319.626 14.2661C319.217 16.3733 318.462 18.4492 317.581 20.3992C315.883 24.1104 312.989 26.2806 308.743 26.2806C305.158 26.2806 301.541 26.2806 297.956 26.2806V26.1547V26.0919Z" fill="white" fill-opacity="0.6"/>
<path d="M175.452 118.119C184.227 118.213 191.555 119.534 198.097 123.811C203.318 127.24 207.249 131.863 210.363 137.21C213.351 142.336 214.86 147.872 213.885 153.785C213.351 156.961 212.722 160.201 210.709 162.937C209.231 164.981 206.589 165.453 204.67 163.692C201.839 161.081 199.135 158.377 196.398 155.703C192.656 152.086 188.913 148.469 185.17 144.821C182.874 142.588 180.641 140.261 178.345 137.996C173.848 133.498 169.381 128.969 164.852 124.503C163.311 122.994 163.437 120.918 165.387 119.911C166.11 119.534 166.96 119.314 167.809 119.188C170.702 118.748 173.627 118.37 175.452 118.119Z" fill="white" fill-opacity="0.6"/>
<path d="M151.045 174.7C148.435 174.165 146.17 173.725 143.906 173.222C142.837 172.97 141.736 172.719 140.698 172.341C137.993 171.366 137.081 169.479 138.213 166.837C139.44 163.975 140.824 161.176 142.145 158.345C142.459 157.685 142.742 156.993 143.12 156.175C142.522 155.892 142.019 155.64 141.516 155.42C138.999 154.32 136.452 153.282 133.936 152.118C132.898 151.646 131.891 150.986 131.011 150.231C128.495 148.092 128.306 145.67 130.445 143.186C133.841 139.191 137.616 135.543 142.019 132.587C145.762 130.07 148.309 130.448 151.36 134.757C152.807 136.801 151.989 138.782 149.599 139.569C149.41 139.632 149.158 139.663 149.001 139.789C146.579 141.77 144.157 143.783 141.39 146.079C142.491 146.551 143.088 146.834 143.717 147.054C146.202 147.935 148.749 148.721 151.234 149.633C155.354 151.174 156.172 153.565 153.876 157.276C152.555 159.446 151.077 161.522 149.724 163.661C149.221 164.447 148.907 165.328 148.372 166.46C149.882 166.68 151.14 166.837 152.366 167.057C154.851 167.529 157.399 167.907 159.82 168.63C163.595 169.794 164.381 172.593 161.991 175.738C160.355 177.877 158.594 179.921 156.864 182.028C156.549 182.437 156.235 182.846 155.763 183.475C159.506 184.073 162.997 184.293 166.551 184.073C168.092 183.978 169.759 184.167 171.174 184.702C172.024 185.016 172.904 186.18 173.093 187.123C173.879 191.086 171.992 193.477 167.935 193.445C161.047 193.414 154.159 193.194 147.303 192.879C143.623 192.722 142.396 190.615 143.497 187.155C144.755 183.223 146.579 179.606 149.473 176.619C149.976 176.084 150.416 175.486 151.077 174.669L151.045 174.7Z" fill="white" fill-opacity="0.6"/>
<path d="M261 68.2682C253.892 67.6706 247.004 66.1609 240.148 64.1794C235.336 62.7641 230.461 61.6004 225.586 60.3738C223.007 59.7134 222.032 57.323 223.636 55.1214C224.988 53.2343 226.97 52.3537 229.203 52.165C233.355 51.7875 237.538 51.5359 241.721 51.19C242.947 51.0956 244.142 50.9069 245.338 50.8126C249.269 50.4351 252.603 48.9884 255.528 46.2522C260.906 41.1885 267.228 37.3514 273.455 33.4514C273.896 33.1683 274.367 32.9167 274.87 32.728C276.317 32.1618 277.796 32.036 279.054 33.1368C280.343 34.2376 280.532 35.7473 280.06 37.2255C278.645 41.5658 277.355 45.9376 275.625 50.1206C273.927 54.2408 271.883 58.1722 269.807 62.1036C269.021 63.5819 267.888 64.8714 266.725 66.098C265.183 67.7335 263.202 68.4254 260.969 68.2682H261Z" fill="white" fill-opacity="0.6"/>
<path d="M262.446 138.248C262.572 136.864 262.604 134.599 263.012 132.366C263.61 129.221 265.812 127.774 268.957 128.435C270.844 128.844 272.731 129.441 274.524 130.228C281.726 133.404 288.928 136.644 296.068 139.946C299.307 141.424 299.685 144.287 296.98 146.614C295.753 147.683 294.37 148.658 292.923 149.35C286.632 152.307 280.216 154.917 273.391 156.301C271.693 156.647 269.932 156.741 268.202 156.71C265.214 156.678 263.61 155.137 263.39 152.149C263.044 147.841 262.792 143.5 262.446 138.279V138.248Z" fill="white" fill-opacity="0.6"/>
<path d="M254.615 2.21993C254.961 0.521551 255.213 -1.23981 255.716 -2.87529C256.628 -5.83173 258.547 -7.18411 261.597 -6.77524C264.208 -6.42928 266.85 -5.92599 269.335 -5.13971C273.329 -3.88165 277.229 -2.40344 281.129 -0.830867C282.23 -0.390547 283.362 0.458648 284.085 1.43364C285.312 3.10057 284.589 4.86178 283.205 6.37145C281.035 8.69886 278.581 8.57314 275.814 8.22718C270.089 7.50379 264.334 7.00051 258.578 6.40294C255.59 6.11987 254.71 5.14485 254.615 2.25132V2.21993Z" fill="white" fill-opacity="0.6"/>
<path d="M134.471 119.502C135.414 115.162 136.201 110.728 138.371 106.702C139.597 104.469 142.208 103.714 144.252 105.192C147.617 107.645 150.92 110.256 153.845 113.212C156.329 115.697 155.449 118.779 152.209 120.069C148.089 121.704 143.875 123.182 139.692 124.598C137.459 125.353 135.697 124.315 135.037 122.05C134.785 121.232 134.659 120.415 134.471 119.471V119.502Z" fill="white" fill-opacity="0.6"/>
<path d="M218.006 175.109C218.384 175.109 218.761 175.109 219.107 175.109C223.164 175.109 224.8 176.87 224.328 180.927C224.171 182.406 223.982 183.884 223.573 185.299C222.818 187.878 221.057 188.979 218.415 188.665C215.647 188.319 212.88 187.91 210.112 187.469C208.351 187.186 207.25 186.211 207.218 184.419C207.187 182.06 207.376 179.669 207.753 177.342C208.036 175.612 209.483 174.669 211.433 174.731C213.634 174.794 215.867 175.046 218.069 175.203C218.069 175.203 218.069 175.14 218.069 175.109H218.006Z" fill="white" fill-opacity="0.6"/>
<path d="M168.155 156.678C163.5 156.678 159.568 153.407 159.568 149.507C159.568 145.136 163.877 141.078 168.469 141.11C172.841 141.11 176.269 144.632 176.301 149.036C176.301 153.565 172.998 156.678 168.155 156.678Z" fill="white" fill-opacity="0.6"/>
<path d="M120.537 186.683C115.883 186.683 111.951 183.412 111.951 179.512C111.951 175.14 116.26 171.083 120.852 171.114C125.224 171.114 128.652 174.637 128.683 179.04C128.683 183.569 125.381 186.683 120.537 186.683Z" fill="white" fill-opacity="0.6"/>
<path d="M190.455 34.7734C188.128 34.7734 186.807 33.9557 186.115 32.3831C184.983 29.8355 183.819 27.2565 182.97 24.6146C182.687 23.734 183.064 22.413 183.599 21.5953C184.291 20.5574 185.549 20.6831 186.618 21.2178C189.071 22.4129 191.556 23.5767 193.946 24.8662C194.89 25.3694 195.739 26.1871 196.431 27.0048C197.375 28.1685 197.595 29.6153 196.651 30.8419C194.953 33.075 192.562 34.2701 190.392 34.7734H190.455Z" fill="white" fill-opacity="0.6"/>
<path d="M159.915 220.242C157.588 220.242 156.267 219.424 155.575 217.851C154.443 215.304 153.279 212.725 152.43 210.083C152.147 209.202 152.524 207.881 153.059 207.063C153.751 206.026 155.009 206.151 156.078 206.686C158.531 207.881 161.016 209.045 163.406 210.334C164.35 210.838 165.199 211.655 165.891 212.473C166.834 213.637 167.055 215.084 166.111 216.31C164.413 218.543 162.022 219.738 159.852 220.242H159.915Z" fill="white" fill-opacity="0.6"/>
<path d="M190.454 181.147C188.127 181.147 186.806 180.33 186.114 178.757C184.982 176.21 183.818 173.631 182.969 170.989C182.686 170.108 183.063 168.787 183.598 167.969C184.29 166.931 185.548 167.057 186.617 167.592C189.07 168.787 191.555 169.951 193.945 171.24C194.889 171.743 195.738 172.561 196.43 173.379C197.374 174.543 197.594 175.989 196.65 177.216C194.952 179.449 192.561 180.644 190.391 181.147H190.454Z" fill="white" fill-opacity="0.6"/>
</g>
<g opacity="0.27">
<path d="M82.3857 127.993C83.1091 140.165 82.543 151.079 79.6809 161.772C78.8946 164.666 77.8566 167.528 76.5042 170.233C73.5792 176.146 68.4527 179.008 62.068 179.857C54.1108 180.926 46.1536 180.392 38.3536 178.693C22.3133 175.202 6.36738 171.302 -9.64145 167.622C-14.8624 166.427 -17.9761 163.093 -19.4858 158.093C-20.9955 153.155 -21.4358 148.091 -21.0899 142.996C-20.6181 136.674 -19.8632 130.352 -18.9826 124.062C-18.4164 119.91 -15.5858 118.432 -11.6858 120.068C-6.68499 122.144 -2.47054 125.414 1.42945 129.157C5.86412 133.403 9.48111 138.278 12.5005 143.625C13.8529 146.047 15.7714 147.43 18.3819 148.028C22.8794 149.066 27.3769 150.072 31.8745 151.079C39.4229 152.777 46.9713 154.507 54.5196 156.111C58.2938 156.897 58.7656 156.772 59.6777 152.997C61.3447 146.172 62.6341 139.253 64.0495 132.334C65.0874 127.239 66.1253 122.175 67.1317 117.08C68.0753 112.205 71.3462 110.003 75.9066 109.154C79.3978 108.525 82.4172 111.198 82.3857 114.752C82.3228 119.565 82.3857 124.377 82.3857 128.056V127.993Z" fill="white" fill-opacity="0.6"/>
<path d="M38.0079 54.4913C44.4554 54.4913 50.9344 54.4913 57.382 54.4913C61.282 54.4913 64.8989 58.6114 64.4586 62.5743C64.2699 64.3671 62.9803 65.6565 60.7787 65.971C58.7344 66.2541 56.6586 66.38 54.6143 66.4114C43.5433 66.5687 32.4724 66.663 21.4014 66.7888C18.4765 66.8203 18.1934 66.9775 17.8789 69.8396C17.187 75.9726 16.4321 74.8089 21.9676 75.6267C33.2901 77.325 44.6441 78.646 55.9666 80.3129C62.9803 81.3508 69.9626 82.7347 76.9134 84.0871C80.1843 84.7161 81.5368 86.4774 80.9707 89.7483C80.4045 93.0193 79.5239 96.2589 78.486 99.4355C77.6997 101.857 75.6868 103.084 73.1706 102.958C69.994 102.801 66.8175 102.518 63.7038 101.952C48.4813 99.1838 33.2902 96.2903 18.0991 93.3967C15.866 92.9564 13.7272 92.1701 11.5256 91.5411C7.9087 90.5032 5.51844 88.2387 4.51199 84.6217C2.21603 76.35 -0.237206 68.1412 -2.1872 59.7751C-5.08074 47.4776 -7.06222 35.0228 -7.62835 22.4107C-7.75416 19.8946 -7.62829 17.3156 -7.47103 14.7995C-7.21942 10.9939 -5.39529 8.06886 -2.02998 6.21322C-1.21224 5.74145 -0.394444 5.23824 0.486199 4.86083C15.1426 -1.61818 30.0192 -7.43669 45.8707 -10.3617C47.003 -10.5818 48.4184 -10.5504 49.3619 -10.0158C51.7208 -8.7577 51.532 -4.38597 49.2046 -3.06501C48.5127 -2.68759 47.7893 -2.37302 47.0659 -2.02706C37.5361 2.3447 28.0063 6.68495 18.4765 11.0882C11.7773 14.1704 10.7394 15.5543 11.3999 22.9454C12.1233 30.997 13.3499 39.0485 14.3563 47.0687C14.5765 48.9558 14.9224 50.8428 15.0168 52.7614C15.1111 54.3339 15.8974 54.9001 17.3442 54.9001C20.8353 54.9001 24.3265 54.8372 27.8176 54.8058C31.2144 54.8058 34.5796 54.8058 37.9764 54.8058V54.5227L38.0079 54.4913Z" fill="white" fill-opacity="0.6"/>
<path d="M151.108 -72.6671C150.604 -65.9993 150.29 -60.0236 149.629 -54.0793C149.095 -49.1729 147.396 -47.6318 142.458 -46.9084C139.722 -46.4995 137.017 -46.122 134.281 -45.7761C132.96 -45.5874 132.362 -44.864 132.048 -43.5431C130.758 -38.0705 129.375 -32.6608 127.959 -27.2197C126.764 -22.6593 123.713 -20.1431 119.121 -19.4512C113.366 -18.602 107.579 -17.8472 101.823 -16.9665C97.3254 -16.306 98.0173 -16.306 98.4262 -12.6577C98.898 -8.63189 99.6214 -4.60607 100.408 -0.643188C100.942 2.06164 102.578 3.31966 105.566 3.44547C110.598 3.66563 115.567 4.35754 120.6 4.8922C121.166 4.95511 121.763 5.08096 122.298 5.23823C125.632 6.08742 126.67 8.03738 125.632 11.3083C125.475 11.8116 125.286 12.3148 125.097 12.818C123.556 16.7495 122.204 17.693 118.021 17.3784C111.887 16.9381 105.786 16.4035 99.6528 15.8688C98.6464 15.7745 97.6714 15.4914 96.6964 15.2398C91.79 14.0132 88.8965 11.1196 87.89 5.99303C86.1287 -3.22225 84.2101 -12.4061 84.1787 -21.8416C84.1787 -23.0996 84.0843 -24.3891 84.1787 -25.6472C84.5246 -30.0504 86.3489 -32.598 90.6263 -33.6359C94.998 -34.7052 99.4642 -35.2084 103.899 -36.0261C107.862 -36.7495 111.793 -37.5987 115.756 -38.3536C117.014 -38.6052 117.517 -39.2342 117.454 -40.5551C117.234 -44.6753 117.108 -48.7954 116.888 -52.947C116.637 -57.6333 118.021 -60.2752 122.518 -61.659C126.858 -62.98 131.387 -63.6719 135.822 -64.6155C136.388 -64.7413 137.049 -64.7099 137.521 -64.9615C137.992 -65.2131 138.621 -65.7477 138.621 -66.1881C138.779 -69.7421 138.81 -73.2647 138.904 -76.8187C138.904 -78.0767 138.37 -78.863 137.237 -79.3977C133.62 -81.1276 130.066 -83.0461 126.387 -84.713C123.273 -86.1283 121.7 -88.5816 121.606 -91.8211C121.417 -100.344 121.354 -108.868 121.354 -117.391C121.354 -119.624 122.518 -120.662 124.72 -120.851C126.67 -121.008 128.62 -121.134 130.601 -121.165C134.753 -121.165 136.829 -119.53 137.395 -115.41C138.087 -110.377 138.621 -105.314 139.03 -100.25C139.187 -98.3315 139.942 -97.2936 141.735 -96.6646C143.685 -95.9726 145.541 -95.0605 147.396 -94.117C149.126 -93.2363 150.101 -91.7896 150.227 -89.8082C150.541 -83.8324 150.825 -77.8566 151.076 -72.5727L151.108 -72.6671Z" fill="white" fill-opacity="0.6"/>
<path d="M96.2876 79.0863C92.4191 78.9291 89.4313 77.388 87.1982 74.3686C82.5748 67.984 78.0458 61.5049 73.2966 55.2146C70.1829 51.0944 66.7861 47.1316 63.3894 43.2316C60.0555 39.3945 55.8095 37.5389 50.6514 38.0736C45.2418 38.6397 39.8322 39.2687 34.3911 39.8349C32.7241 39.9921 30.9942 40.2123 29.3273 40.055C25.6789 39.6776 23.8548 36.5325 25.7104 33.3873C27.4717 30.368 29.7048 27.5373 32.0322 24.8954C33.9507 22.7253 36.3096 20.964 38.4797 19.014C39.5805 18.0075 40.587 16.9381 41.7192 15.9946C45.5249 12.8809 49.8023 10.7422 54.7087 10.239C57.5708 9.92449 60.1184 11.0882 62.2257 13.0696C63.4208 14.2019 64.5216 15.3971 65.5909 16.6551C77.1965 30.5881 88.2047 44.9614 97.5143 60.5614C99.5587 63.9581 101.697 67.3235 103.742 70.7202C104.245 71.5694 104.654 72.513 104.874 73.488C105.251 75.2493 104.371 76.8533 102.515 77.5138C100.471 78.2057 98.332 78.6145 96.2562 79.1177L96.2876 79.0863Z" fill="white" fill-opacity="0.6"/>
<path d="M-6.37032 -48.072C-3.03646 -48.072 0.297379 -48.0091 3.63124 -48.072C7.34252 -48.1349 8.94655 -45.9648 7.56268 -42.568C6.77639 -40.618 5.83286 -38.6995 4.92076 -36.781C3.03367 -32.8181 -0.111546 -30.7737 -4.48331 -30.5535C-6.18169 -30.4592 -7.84858 -30.3019 -9.54696 -30.2705C-10.3961 -30.2705 -10.805 -29.9245 -10.805 -29.0438C-10.7421 -25.2382 -10.7107 -21.4326 -10.6478 -17.6269C-10.6478 -16.0858 -9.83 -15.0165 -8.44613 -14.4189C-6.6534 -13.6012 -4.86066 -12.8463 -3.03647 -12.1229C0.800619 -10.5503 1.86996 -7.68826 -0.300201 -3.28505C-0.834877 -2.18425 -1.40103 -1.1149 -1.99861 -0.0455551C-3.06796 1.81009 -4.6405 2.78509 -6.77921 2.81654C-12.1889 2.94235 -17.4413 2.06167 -22.5993 0.52055C-25.9017 -0.454445 -28.1663 -2.65606 -28.5752 -6.17863C-29.7704 -16.2117 -29.9905 -26.2446 -28.0405 -36.2148C-27.6316 -38.322 -26.8768 -40.3978 -25.9961 -42.3478C-24.2978 -46.0591 -21.4042 -48.2292 -17.1583 -48.2292C-13.5728 -48.2292 -9.9558 -48.2292 -6.37032 -48.2292V-48.1034V-48.072Z" fill="white" fill-opacity="0.6"/>
<path d="M114.655 42.2566C117.266 42.7913 119.53 43.2316 121.795 43.7348C122.864 43.9864 123.965 44.238 125.003 44.6155C127.708 45.5905 128.62 47.4775 127.487 50.1195C126.261 52.9815 124.846 55.7808 123.556 58.6114C123.241 59.2719 122.958 59.9638 122.581 60.7816C123.179 61.0646 123.682 61.3162 124.185 61.5364C126.701 62.6372 129.249 63.6751 131.765 64.8388C132.803 65.3106 133.809 65.971 134.69 66.7258C137.206 68.8645 137.395 71.2864 135.256 73.771C131.859 77.7654 128.085 81.4137 123.682 84.3702C119.939 86.8863 117.391 86.5089 114.341 82.2C112.894 80.1557 113.712 78.1742 116.102 77.3879C116.291 77.325 116.542 77.2936 116.699 77.1678C119.121 75.1863 121.543 73.1734 124.311 70.8775C123.21 70.4057 122.612 70.1226 121.983 69.9025C119.499 69.0218 116.951 68.2355 114.466 67.3234C110.346 65.7823 109.529 63.392 111.825 59.6807C113.146 57.5106 114.624 55.4348 115.976 53.2961C116.479 52.5098 116.794 51.6291 117.329 50.4969C115.819 50.2767 114.561 50.1195 113.334 49.8994C110.85 49.4276 108.302 49.0502 105.88 48.3268C102.106 47.1631 101.32 44.3639 103.71 41.2187C105.346 39.08 107.107 37.0357 108.837 34.9284C109.151 34.5196 109.466 34.1107 109.937 33.4817C106.195 32.8841 102.704 32.664 99.1496 32.8841C97.6085 32.9785 95.9415 32.7897 94.5262 32.255C93.677 31.9405 92.7964 30.7769 92.6077 29.8333C91.8214 25.8704 93.7085 23.4801 97.7657 23.5115C104.654 23.543 111.541 23.7631 118.398 24.0776C122.078 24.2349 123.304 26.3422 122.204 29.8018C120.945 33.7333 119.121 37.3502 116.228 40.3381C115.725 40.8728 115.284 41.4703 114.624 42.2881L114.655 42.2566Z" fill="white" fill-opacity="0.6"/>
<path d="M55.3374 124.974C54.8656 128.591 54.6455 132.239 53.8592 135.793C52.381 142.335 48.1664 145.26 41.4673 144.757C37.5673 144.474 33.6673 144.065 29.7673 143.688C27.2197 143.436 25.5213 142.052 24.7979 139.662C24.2632 137.901 23.823 136.076 23.6028 134.252C22.7851 127.522 22.0617 120.791 21.3383 114.06C21.244 113.211 21.2754 112.362 21.3068 111.513C21.4012 108.934 22.6907 106.984 25.1439 106.449C28.4149 105.757 31.8116 105.411 35.177 105.223C37.0955 105.128 38.5108 106.701 38.6995 108.871C38.8568 111.01 38.7939 113.211 38.6052 115.35C38.2592 119.69 37.7559 123.999 37.2842 128.308C37.1898 129.283 37.41 129.849 38.4479 129.88C38.6052 129.88 38.7624 129.912 38.9197 129.943C43.1028 130.572 43.4172 130.415 44.2979 126.358C44.7382 124.408 44.8011 122.364 45.3987 120.476C46.0592 118.401 46.9398 116.325 48.0406 114.469C48.418 113.84 49.7704 113.431 50.6511 113.526C52.4438 113.683 54.3623 115.979 54.5825 117.772C54.7083 118.715 54.8027 119.659 54.8342 120.634C54.8656 122.049 54.8342 123.496 54.8342 124.911C54.9914 124.911 55.1487 124.911 55.3374 124.943V124.974Z" fill="white" fill-opacity="0.6"/>
<path d="M92.262 104.909C92.0104 100.695 91.7903 96.48 91.5072 92.2655C91.4443 91.4792 91.2556 90.6929 91.2242 89.9066C91.0984 86.7615 93.1742 85.126 96.0363 86.4156C107.202 91.4163 118.461 96.2284 128.683 103.116C131.545 105.035 132.017 107.96 129.469 110.319C127.959 111.734 126.072 112.992 124.154 113.621C115.222 116.483 106.038 118.433 96.7282 119.723C94.1806 120.069 92.2935 118.685 92.1048 116.043C91.8532 112.363 92.0418 108.652 92.0418 104.941C92.1048 104.941 92.1991 104.941 92.262 104.941V104.909Z" fill="white" fill-opacity="0.6"/>
<path d="M-5.36333 90.4402C-5.11172 90.4716 -4.5141 90.4717 -3.94797 90.6604C1.08427 92.2644 6.11648 93.8684 11.1487 95.5353C12.0294 95.8184 12.8786 96.353 13.6649 96.8877C15.206 97.9571 15.8665 99.4667 15.3318 101.322C14.4826 104.279 13.6334 107.235 12.5641 110.097C11.4004 113.243 9.70198 113.934 6.46247 113.054C2.84555 112.079 -0.834282 111.261 -4.45121 110.192C-6.81007 109.468 -9.16898 108.588 -11.3706 107.487C-13.5722 106.418 -14.264 104.814 -13.5406 102.455C-12.5342 99.2781 -11.3391 96.1644 -10.0181 93.1451C-9.26326 91.3838 -7.72219 90.4087 -5.36333 90.4402Z" fill="white" fill-opacity="0.6"/>
<path d="M95.0613 167.213C96.1936 168.314 97.1685 169.195 98.0491 170.201C101.635 174.196 100.565 178.599 95.4701 180.203C92.6709 181.083 89.7145 181.555 86.7895 181.996C84.5879 182.342 83.4556 181.083 82.9838 178.913C82.4492 176.397 82.8895 174.007 83.4242 171.554C84.2734 167.622 84.9025 163.659 85.7202 159.696C86.0976 157.904 86.6008 156.111 87.1669 154.35C87.6073 152.903 89.0855 151.959 90.721 152.4C95.2185 153.532 98.8669 155.985 101.006 160.2C102.043 162.244 101.131 164.414 98.9613 165.546C97.7976 166.175 96.5395 166.584 95.0927 167.182L95.0613 167.213Z" fill="white" fill-opacity="0.6"/>
<path d="M120.286 136.705C119.814 143.216 119.342 150.292 118.776 157.338C118.461 161.332 116.543 162.716 112.58 162.087C112.171 162.024 111.731 161.961 111.322 161.867C107.296 160.923 106.132 159.225 106.793 155.136C108.051 147.368 109.34 139.568 110.63 131.799C110.881 130.226 111.102 128.654 111.416 127.113C111.856 124.817 112.8 123.873 114.719 123.622C116.826 123.37 117.99 124.093 119.027 126.295C120.506 129.44 120.348 132.774 120.286 136.705Z" fill="white" fill-opacity="0.6"/>
<path d="M68.6105 4.04297C68.2331 4.04297 67.8557 4.04297 67.5097 4.04297C63.4525 4.04297 61.817 2.28167 62.2887 -1.77557C62.446 -3.25379 62.6347 -4.73196 63.0435 -6.14728C63.7984 -8.7263 65.5597 -9.82712 68.2016 -9.51261C70.9694 -9.16664 73.7371 -8.75776 76.5048 -8.31744C78.2661 -8.03437 79.3669 -7.05937 79.3984 -5.26664C79.4298 -2.90778 79.2411 -0.517466 78.8637 1.80994C78.5806 3.53977 77.1339 4.48328 75.1839 4.42037C72.9823 4.35747 70.7492 4.10588 68.5476 3.94862C68.5476 3.94862 68.5476 4.01152 68.5476 4.04297H68.6105Z" fill="white" fill-opacity="0.6"/>
<path d="M99.6849 144.317C98.4582 144.065 96.0364 143.688 93.709 143.027C91.1614 142.335 89.809 140.322 90.5638 137.806C91.6332 134.284 93.0171 130.824 94.5582 127.49C95.5647 125.351 99.2444 125.351 100.974 127.584C103.773 131.233 105.723 135.353 105.818 140.102C105.849 142.964 104.025 144.411 99.6849 144.317Z" fill="white" fill-opacity="0.6"/>
</g>
<g opacity="0.27">
<path d="M20.7729 288.207C20.2696 291.163 19.8608 293.837 19.3261 296.479C18.7285 299.435 18.1625 302.423 17.3133 305.285C16.2754 308.839 14.5769 310.034 10.8656 309.846C6.65114 309.625 2.43667 309.122 -1.77784 308.745C-2.34397 308.682 -2.91014 308.588 -3.69643 308.493C-3.53917 309.185 -3.50767 309.72 -3.35041 310.192C-1.9351 315.004 -0.614182 319.879 1.0213 324.628C2.18501 328.025 1.90196 330.824 -0.928682 333.214C-2.87868 334.85 -4.63995 336.705 -6.71575 338.12C-8.06816 339.064 -9.73513 339.662 -11.3706 340.008C-14.3271 340.637 -17.0004 339.316 -18.4472 336.642C-19.0762 335.479 -19.5479 334.221 -19.831 332.931C-22.9761 318.652 -26.0899 304.373 -29.1092 290.063C-29.581 287.798 -29.8326 285.439 -29.864 283.112C-29.8955 278.143 -26.6875 275.752 -21.9698 277.325C-19.5794 278.143 -17.2834 279.306 -15.1447 280.627C-9.73507 283.961 -4.41978 287.452 0.958429 290.849C1.55601 291.226 2.21653 291.509 3.25443 292.076C3.03426 289.276 2.84552 286.886 2.62535 284.464C2.02778 278.205 1.3044 271.915 0.864079 265.656C0.675369 262.889 1.02135 260.058 1.17861 257.259C1.21006 256.567 1.39872 255.906 1.61889 255.246C2.65678 252.006 5.26731 250.717 8.34956 252.069C10.1108 252.856 11.8092 253.925 13.3503 255.089C22.0624 261.756 30.7115 268.487 39.3607 275.218C41.122 276.57 42.8204 278.017 44.5502 279.401C44.9591 279.715 45.368 279.967 46.1857 280.533C45.9027 279.432 45.8083 278.74 45.5567 278.142C43.5123 272.859 41.468 267.575 39.4237 262.291C38.5116 259.932 37.568 257.542 36.7503 255.151C36.4358 254.271 36.3099 253.296 36.3099 252.352C36.3414 250.182 37.8197 248.61 40.0213 248.578C41.2164 248.578 42.443 248.767 43.6067 249.081C58.1688 253.013 72.7623 256.944 87.2929 261.001C90.9098 262.008 94.4323 263.36 97.8291 264.933C102.61 267.166 105.881 270.877 107.296 276.067C108.491 280.501 109.655 284.967 110.819 289.434C110.976 290.094 111.102 290.786 111.133 291.478C111.196 292.862 110.724 294.026 109.372 294.592C108.019 295.158 106.824 294.749 105.944 293.68C104.748 292.264 103.522 290.849 102.484 289.339C100.848 286.949 98.7413 285.156 96.2251 283.835C86.9784 278.96 76.9453 277.702 66.6921 277.293C65.2453 277.23 64.5849 277.891 64.2704 279.212C63.2954 283.458 62.3204 287.672 61.3139 291.887C60.8107 293.994 60.3075 296.133 59.647 298.177C59.2381 299.467 58.609 300.725 57.8227 301.857C55.9357 304.656 53.5454 305.317 50.5261 303.775C45.5567 301.259 40.6503 298.649 35.7438 296.038C31.3406 293.711 27.0003 291.289 22.5971 288.93C22.0939 288.647 21.5592 288.459 20.7415 288.113L20.7729 288.207Z" fill="white" fill-opacity="0.6"/>
<path d="M151.108 324.251C150.604 330.918 150.29 336.894 149.629 342.838C149.095 347.745 147.396 349.286 142.458 350.009C139.722 350.418 137.017 350.796 134.281 351.142C132.96 351.33 132.362 352.054 132.048 353.375C130.758 358.847 129.375 364.257 127.959 369.698C126.764 374.258 123.713 376.775 119.121 377.467C113.366 378.316 107.579 379.07 101.823 379.951C97.3254 380.612 98.0173 380.612 98.4262 384.26C98.898 388.286 99.6214 392.312 100.408 396.274C100.942 398.979 102.578 400.237 105.566 400.363C110.598 400.583 115.567 401.275 120.6 401.81C121.166 401.873 121.763 401.999 122.298 402.156C125.632 403.005 126.67 404.955 125.632 408.226C125.475 408.729 125.286 409.232 125.097 409.736C123.556 413.667 122.204 414.611 118.021 414.296C111.887 413.856 105.786 413.321 99.6528 412.786C98.6464 412.692 97.6714 412.409 96.6964 412.158C91.79 410.931 88.8965 408.037 87.89 402.911C86.1287 393.695 84.2101 384.512 84.1787 375.076C84.1787 373.818 84.0843 372.529 84.1787 371.271C84.5246 366.867 86.3489 364.32 90.6263 363.282C94.998 362.213 99.4642 361.709 103.899 360.892C107.862 360.168 111.793 359.319 115.756 358.564C117.014 358.313 117.517 357.683 117.454 356.363C117.234 352.242 117.108 348.122 116.888 343.971C116.637 339.284 118.021 336.642 122.518 335.259C126.858 333.938 131.387 333.246 135.822 332.302C136.388 332.176 137.049 332.208 137.521 331.956C137.992 331.705 138.621 331.17 138.621 330.73C138.779 327.176 138.81 323.653 138.904 320.099C138.904 318.841 138.37 318.055 137.237 317.52C133.62 315.79 130.066 313.872 126.387 312.205C123.273 310.789 121.7 308.336 121.606 305.097C121.417 296.573 121.354 288.05 121.354 279.527C121.354 277.294 122.518 276.256 124.72 276.067C126.67 275.91 128.62 275.784 130.601 275.752C134.753 275.752 136.829 277.388 137.395 281.508C138.087 286.54 138.621 291.604 139.03 296.668C139.187 298.586 139.942 299.624 141.735 300.253C143.685 300.945 145.541 301.857 147.396 302.801C149.126 303.681 150.101 305.128 150.227 307.11C150.541 313.085 150.825 319.061 151.076 324.345L151.108 324.251Z" fill="white" fill-opacity="0.6"/>
<path d="M19.7971 182.058C25.6471 182.53 31.5286 182.75 37.3471 183.537C42.0963 184.166 46.5938 185.864 50.651 188.537C55.1171 191.494 58.5139 195.394 59.9921 200.583C61.6591 206.433 62.98 212.378 64.4268 218.29C65.7792 223.794 67.0688 229.298 68.3583 234.834C68.547 235.589 68.7357 236.406 68.7043 237.161C68.6099 239.331 66.8172 240.527 64.8357 239.677C63.7349 239.206 62.6341 238.608 61.722 237.79C55.9035 232.695 50.1164 227.569 44.4237 222.379C41.1213 219.391 37.8189 216.403 34.7995 213.132C29.4213 207.314 22.7221 204.609 14.985 204.578C5.42374 204.546 -4.20044 204.546 -13.7303 205.081C-24.0464 205.678 -34.2995 206.968 -44.5842 207.817C-48.3269 208.132 -52.1011 208.037 -55.8438 208.006C-56.9446 208.006 -58.0454 207.723 -59.1148 207.408C-60.4672 206.999 -61.4422 206.087 -61.5995 204.609C-61.7567 203.131 -61.0019 201.999 -59.7752 201.338C-57.2591 200.017 -54.6801 198.728 -52.1011 197.532C-32.9156 188.663 -12.6923 184.103 8.41165 183.096C10.3302 183.002 12.2173 182.845 14.1044 182.719C15.9915 182.593 17.91 182.499 19.7971 182.373C19.7971 182.247 19.7971 182.153 19.8286 182.027L19.7971 182.058Z" fill="white" fill-opacity="0.6"/>
<path d="M110.063 197.753C115.253 197.595 120.316 198.224 125.254 199.828C132.614 202.25 137.74 206.905 139.848 214.579C142.395 223.763 141.609 232.79 138.401 241.628C137.866 243.106 136.797 244.458 135.79 245.716C134.941 246.786 133.715 246.974 132.614 245.999C131.261 244.773 130.003 243.42 128.651 242.194C123.556 237.539 118.492 232.853 113.365 228.261C108.113 223.574 102.798 218.951 97.514 214.296C95.3753 212.441 93.0478 210.742 91.1607 208.635C90.1228 207.471 89.5882 205.678 89.2107 204.106C89.0535 203.445 89.8398 202.187 90.5317 201.841C92.4817 200.898 94.5575 200.08 96.6962 199.577C99.5583 198.885 102.452 198.508 105.377 198.099C106.949 197.879 108.522 197.878 110.095 197.753H110.063Z" fill="white" fill-opacity="0.6"/>
<path d="M44.2987 353.532C44.2987 351.456 44.2987 349.412 44.2987 347.336C44.2672 345.323 45.1478 343.908 46.9406 342.996C59.8672 336.296 72.2277 328.496 85.5317 322.552C87.4188 321.703 89.0856 320.445 90.9727 319.564C92.5453 318.841 92.7026 317.835 91.8848 316.545C89.9348 313.463 88.0163 310.349 85.9091 307.393C84.0849 304.845 81.9776 302.518 80.122 300.033C77.8889 297.077 78.7381 294.183 82.1663 292.799C85.4373 291.447 86.7268 291.635 89.0227 294.34C94.055 300.222 98.9615 306.197 103.899 312.142C104.497 312.865 105 313.714 105.472 314.532C106.982 317.111 106.856 319.659 104.969 321.923C103.522 323.653 101.981 325.414 100.157 326.735C92.8599 332.019 85.563 337.271 78.0776 342.272C72.5421 345.952 66.6921 349.254 60.9679 352.651C59.8986 353.28 59.2382 354.098 59.2696 355.293C59.3011 357.841 59.4269 360.357 59.5527 362.904C59.6156 364.383 59.8357 365.861 59.9301 367.339C60.0244 369.258 59.3011 370.201 57.5083 370.736C55.6213 371.302 53.7656 371.931 51.8785 372.403C48.8277 373.158 46.9406 372.214 46.2801 369.132C45.5253 365.672 45.1793 362.15 44.7704 358.627C44.5817 356.96 44.739 355.23 44.739 353.563H44.3615L44.2987 353.532Z" fill="white" fill-opacity="0.6"/>
<path d="M116.132 256.819C107.357 256.725 100.029 255.404 93.4871 251.127C88.2661 247.698 84.3346 243.075 81.2209 237.728C78.233 232.602 76.7234 227.066 77.6984 221.153C78.233 217.977 78.8621 214.737 80.875 212.001C82.3532 209.957 84.9951 209.485 86.9136 211.246C89.7443 213.857 92.4491 216.561 95.1854 219.235C98.9281 222.852 102.671 226.469 106.414 230.117C108.71 232.35 110.943 234.677 113.239 236.942C117.736 241.439 122.202 245.969 126.731 250.435C128.272 251.944 128.147 254.02 126.197 255.027C125.473 255.404 124.624 255.624 123.775 255.75C120.881 256.19 117.956 256.568 116.132 256.819Z" fill="white" fill-opacity="0.6"/>
<path d="M29.1387 236.69C29.0129 238.073 28.9814 240.338 28.5726 242.571C27.975 245.716 25.7734 247.163 22.6283 246.502C20.7412 246.094 18.854 245.496 17.0613 244.71C9.8589 241.533 2.65649 238.294 -4.48301 234.991C-7.72252 233.513 -8.09987 230.651 -5.39504 228.323C-4.16843 227.254 -2.78463 226.279 -1.33786 225.587C4.95245 222.631 11.3686 220.02 18.1936 218.636C19.892 218.291 21.6533 218.196 23.3831 218.228C26.371 218.259 27.975 219.8 28.1952 222.788C28.5411 227.097 28.7927 231.437 29.1387 236.658V236.69Z" fill="white" fill-opacity="0.6"/>
<path d="M157.115 255.435C156.171 259.775 155.385 264.21 153.215 268.236C151.988 270.469 149.378 271.223 147.334 269.745C143.968 267.292 140.666 264.681 137.741 261.725C135.256 259.24 136.137 256.158 139.376 254.869C143.496 253.233 147.711 251.755 151.894 250.34C154.127 249.585 155.888 250.623 156.549 252.887C156.8 253.705 156.926 254.523 157.115 255.466V255.435Z" fill="white" fill-opacity="0.6"/>
<path d="M75.3091 188.412C79.9639 188.412 83.8953 191.683 83.8953 195.583C83.8953 199.954 79.5865 204.012 74.9946 203.98C70.6228 203.98 67.1945 200.458 67.1631 196.054C67.1631 191.525 70.4656 188.412 75.3091 188.412Z" fill="white" fill-opacity="0.6"/>
</g>
</g>
</g>
</svg>
