<svg width="21" height="20" viewBox="0 0 21 20" fill="none" xmlns="http://www.w3.org/2000/svg">
<path d="M18 8.33325C18 14.1666 10.5 19.1666 10.5 19.1666C10.5 19.1666 3 14.1666 3 8.33325C3 6.34413 3.79018 4.43647 5.1967 3.02995C6.60322 1.62343 8.51088 0.833252 10.5 0.833252C12.4891 0.833252 14.3968 1.62343 15.8033 3.02995C17.2098 4.43647 18 6.34413 18 8.33325Z" stroke="#676767" stroke-width="1.66667" stroke-linecap="round" stroke-linejoin="round"/>
<path d="M10.5 10.8333C11.8807 10.8333 13 9.71396 13 8.33325C13 6.95254 11.8807 5.83325 10.5 5.83325C9.11929 5.83325 8 6.95254 8 8.33325C8 9.71396 9.11929 10.8333 10.5 10.8333Z" stroke="#676767" stroke-width="1.66667" stroke-linecap="round" stroke-linejoin="round"/>
</svg>
