<svg width="64" height="64" viewBox="0 0 64 64" fill="none" xmlns="http://www.w3.org/2000/svg">
<path opacity="0.4" d="M22.6668 50.5865H21.3335C10.6668 50.5865 5.3335 47.9198 5.3335 34.5865V21.2532C5.3335 10.5865 10.6668 5.25317 21.3335 5.25317H42.6668C53.3335 5.25317 58.6668 10.5865 58.6668 21.2532V34.5865C58.6668 45.2532 53.3335 50.5865 42.6668 50.5865H41.3335C40.5068 50.5865 39.7069 50.9866 39.2002 51.6532L35.2002 56.9866C33.4402 59.3332 30.5601 59.3332 28.8001 56.9866L24.8001 51.6532C24.3735 51.0666 23.4135 50.5865 22.6668 50.5865Z" fill="url(#paint0_linear_800_73853)"/>
<path d="M21.3335 35.8666C20.8268 35.8666 20.3202 35.6799 19.9202 35.2799L14.5868 29.9465C13.8135 29.1732 13.8135 27.8932 14.5868 27.1199L19.9202 21.7865C20.6935 21.0132 21.9735 21.0132 22.7468 21.7865C23.5202 22.5599 23.5202 23.8399 22.7468 24.6132L18.8268 28.5333L22.7468 32.4532C23.5202 33.2265 23.5202 34.5065 22.7468 35.2799C22.3468 35.6799 21.8402 35.8666 21.3335 35.8666Z" fill="url(#paint1_linear_800_73853)"/>
<path d="M42.6667 35.8666C42.16 35.8666 41.6533 35.6799 41.2533 35.2799C40.48 34.5065 40.48 33.2265 41.2533 32.4532L45.1733 28.5333L41.2533 24.6132C40.48 23.8399 40.48 22.5599 41.2533 21.7865C42.0267 21.0132 43.3067 21.0132 44.08 21.7865L49.4133 27.1199C50.1867 27.8932 50.1867 29.1732 49.4133 29.9465L44.08 35.2799C43.68 35.6799 43.1733 35.8666 42.6667 35.8666Z" fill="url(#paint2_linear_800_73853)"/>
<path d="M29.3332 36.7468C29.0665 36.7468 28.7998 36.6933 28.5332 36.5866C27.5198 36.16 27.0398 34.9867 27.4931 33.9467L32.8265 21.4934C33.2531 20.4801 34.4265 20 35.4665 20.4533C36.4798 20.88 36.9598 22.0533 36.5065 23.0933L31.1732 35.5468C30.8532 36.2934 30.1065 36.7468 29.3332 36.7468Z" fill="url(#paint3_linear_800_73853)"/>
<defs>
<linearGradient id="paint0_linear_800_73853" x1="6.51127" y1="54.1328" x2="58.2241" y2="49.1238" gradientUnits="userSpaceOnUse">
<stop stop-color="#288DD1"/>
<stop offset="1" stop-color="#3FE0C8"/>
</linearGradient>
<linearGradient id="paint1_linear_800_73853" x1="14.2127" y1="34.6022" x2="23.2996" y2="34.041" gradientUnits="userSpaceOnUse">
<stop stop-color="#288DD1"/>
<stop offset="1" stop-color="#3FE0C8"/>
</linearGradient>
<linearGradient id="paint2_linear_800_73853" x1="40.8792" y1="34.6022" x2="49.9661" y2="34.041" gradientUnits="userSpaceOnUse">
<stop stop-color="#288DD1"/>
<stop offset="1" stop-color="#3FE0C8"/>
</linearGradient>
<linearGradient id="paint3_linear_800_73853" x1="27.5284" y1="35.3267" x2="36.6575" y2="34.8227" gradientUnits="userSpaceOnUse">
<stop stop-color="#288DD1"/>
<stop offset="1" stop-color="#3FE0C8"/>
</linearGradient>
</defs>
</svg>
