<svg width="600" height="485" viewBox="0 0 600 485" fill="none" xmlns="http://www.w3.org/2000/svg">
<path fill-rule="evenodd" clip-rule="evenodd" d="M522.375 437.76C522.375 456.893 447.234 472.403 354.543 472.403C261.851 472.403 186.711 456.893 186.711 437.76C186.711 418.626 261.851 403.117 354.543 403.117C447.234 403.117 522.375 418.626 522.375 437.76Z" fill="#F2F3FB"/>
<path fill-rule="evenodd" clip-rule="evenodd" d="M477.146 260.346H255.945V195.657C255.945 167.609 278.589 144.87 306.524 144.87H431.938C459.873 144.87 482.519 167.609 482.519 195.657V254.953C482.519 257.932 480.114 260.346 477.146 260.346Z" fill="#BEC0D5"/>
<path fill-rule="evenodd" clip-rule="evenodd" d="M476.222 249.848H249.648V195.035C249.648 167.329 272.292 144.87 300.228 144.87H425.641C453.577 144.87 476.222 167.329 476.222 195.035V249.848Z" fill="#D8DBE8"/>
<path fill-rule="evenodd" clip-rule="evenodd" d="M300.001 151.169C275.671 151.169 255.945 170.694 255.945 194.781V249.848H344.057V194.781C344.057 170.694 324.334 151.169 300.001 151.169Z" fill="#FEFEFE"/>
<path fill-rule="evenodd" clip-rule="evenodd" d="M249.648 193.16V195.26C249.648 194.557 249.678 193.859 249.703 193.16H249.648Z" fill="#E7EAF0"/>
<path fill-rule="evenodd" clip-rule="evenodd" d="M469.986 193.16H469.93C469.955 193.859 469.986 194.557 469.986 195.26V193.16Z" fill="#E7EAF0"/>
<path fill-rule="evenodd" clip-rule="evenodd" d="M424.23 144.87H300.397C300.263 144.87 300.132 144.879 300 144.88C326.189 145.095 347.355 166.448 347.355 192.769V193.16H474.126C473.177 166.331 451.208 144.87 424.23 144.87Z" fill="#E7EAF0"/>
<path fill-rule="evenodd" clip-rule="evenodd" d="M474.127 258.247H224.835C222.318 258.247 220.281 256.366 220.281 254.047C220.281 251.727 222.318 249.848 224.835 249.848H474.127V258.247Z" fill="#D8DBE8"/>
<mask id="mask0_1097_100955" style="mask-type:luminance" maskUnits="userSpaceOnUse" x="0" y="0" width="600" height="485">
<path fill-rule="evenodd" clip-rule="evenodd" d="M0 485H600V0H0V485Z" fill="white"/>
</mask>
<g mask="url(#mask0_1097_100955)">
<path fill-rule="evenodd" clip-rule="evenodd" d="M348.25 438.81H367.131V258.247H348.25V438.81Z" fill="#F0F1F5"/>
<path fill-rule="evenodd" clip-rule="evenodd" d="M354.547 438.81H367.134V258.247H354.547V438.81Z" fill="#BEC0D5"/>
<path fill-rule="evenodd" clip-rule="evenodd" d="M379.844 270.844H335.541C330.974 270.844 327.273 267.396 327.273 263.139V258.247H388.113V263.139C388.113 267.396 384.41 270.844 379.844 270.844Z" fill="#BEC0D5"/>
<path fill-rule="evenodd" clip-rule="evenodd" d="M327.273 262.446H388.113V258.247H327.273V262.446Z" fill="#F0F1F5"/>
<path fill-rule="evenodd" clip-rule="evenodd" d="M357.693 426.212C340.893 426.212 327.273 433.214 327.273 441.851C327.273 450.488 340.893 451.407 357.693 451.407C374.493 451.407 388.113 450.488 388.113 441.851C388.113 433.214 374.493 426.212 357.693 426.212Z" fill="#BEC0D5"/>
<path fill-rule="evenodd" clip-rule="evenodd" d="M349.374 446.068C355.506 438.973 354.506 430.735 354.458 426.212C337.545 426.212 327.273 432.872 327.273 441.158C327.273 445.648 331.301 447.964 337.683 449.143C337.683 449.143 345.649 450.38 349.374 446.068Z" fill="#F0F1F5"/>
<path fill-rule="evenodd" clip-rule="evenodd" d="M411.006 221.426C409.892 227.704 403.901 231.889 397.628 230.772C391.357 229.656 387.173 223.662 388.29 217.385C389.404 211.107 395.394 206.922 401.668 208.037C407.941 209.154 412.121 215.149 411.006 221.426Z" fill="#BEC0D5"/>
<path fill-rule="evenodd" clip-rule="evenodd" d="M408.747 219.827C407.357 224.854 402.155 227.8 397.133 226.409C392.109 225.016 389.164 219.812 390.556 214.784C391.946 209.757 397.148 206.809 402.172 208.202C407.194 209.595 410.139 214.799 408.747 219.827Z" fill="url(#paint0_linear_1097_100955)"/>
<path fill-rule="evenodd" clip-rule="evenodd" d="M444.304 160.557L418.002 153.42C415.748 152.807 413.391 154.114 412.765 156.324L409.155 169.098L407.46 175.095L394.406 221.268L399.143 222.554L412.195 176.379L437.861 183.343C444.258 185.08 450.938 181.373 452.711 175.106C454.483 168.839 450.699 162.292 444.304 160.557Z" fill="url(#paint1_linear_1097_100955)"/>
<path d="M157.341 49.5729C155.233 49.0795 153.133 48.6512 151.047 48.29" stroke="#9D9D9D" stroke-width="2.0979"/>
<path d="M136.643 48.3899C69.3086 45.8926 16.7795 90.6477 16.7812 134.249C16.7812 178.122 54.6913 230.65 114.451 218.741C174.211 206.833 178.837 168.313 233.971 168.313C267.741 168.313 309.465 190.239 329.369 201.969" stroke="#D7DAE9" stroke-width="2.0979" stroke-dasharray="16.95 16.95"/>
<path d="M335.664 205.757C339.685 208.361 341.958 209.956 341.958 209.956" stroke="#9D9D9D" stroke-width="2.0979"/>
<path d="M602.096 134.219C602.096 134.219 598.627 134.891 596.311 133.422C592.227 130.83 593.748 127.405 590.644 125.848C586.786 123.91 584.784 127.898 581.087 126.042C576.741 123.861 579.606 120.307 575.505 118.247C571.211 116.093 568.057 119.547 564.01 117.514C561.902 116.456 561.631 115.423 560.734 113.465C559.763 111.354 559.952 109.517 557.303 108.197C553.818 106.46 551.23 110.14 546.936 107.985C542.835 105.926 545.698 102.372 541.353 100.19C537.656 98.3346 535.655 102.322 531.796 100.386C528.693 98.8276 530.324 95.2387 526.128 92.8105C522.701 90.8282 519.957 92.6312 518.187 92.3704C515.09 91.9153 513.984 88.1816 513.984 88.1816" stroke="url(#paint2_linear_1097_100955)" stroke-width="2.0979"/>
<path d="M142.656 348.528C142.656 348.528 142.902 344.929 145.044 343.071C148.823 339.796 151.942 342.264 154.39 339.657C157.432 336.417 153.861 333.315 156.776 330.21C160.201 326.562 163.091 330.387 166.324 326.94C169.709 323.337 167.002 319.255 170.194 315.856C171.855 314.086 172.993 314.114 175.256 313.787C177.696 313.435 179.539 314.143 181.619 311.917C184.351 308.986 181.259 305.395 184.642 301.79C187.878 298.345 190.767 302.17 194.192 298.522C197.107 295.415 193.537 292.315 196.578 289.075C199.026 286.467 202.285 289.09 205.924 285.659C208.897 282.857 207.78 279.646 208.527 277.98C209.836 275.065 213.985 275.043 213.985 275.043" stroke="url(#paint3_linear_1097_100955)" stroke-width="2.0979"/>
<path fill-rule="evenodd" clip-rule="evenodd" d="M157.342 65.0869C152.543 63.9693 147.902 58.7882 146.695 57.8979L136.363 57.4565L145.24 51.7739C145.398 47.6101 147.313 43.3815 151.049 39.8921C151.078 44.133 151.962 48.4947 152.991 52.874C154.019 57.2533 155.499 61.347 157.342 65.0869Z" fill="#282526"/>
<path fill-rule="evenodd" clip-rule="evenodd" d="M148.054 56.6884L147.657 56.6647C147.336 55.9959 147.074 55.2966 146.852 54.5889C147.145 55.317 147.561 56.0197 148.054 56.6884Z" fill="#282526"/>
<path fill-rule="evenodd" clip-rule="evenodd" d="M164.683 65.0803C162.585 65.0866 159.438 65.0866 157.341 65.0803C155.489 61.3995 153.647 56.7269 152.615 52.4149C151.584 48.1011 151.074 44.0676 151.047 39.8918C152.639 38.4308 155.255 36.8431 157.341 35.6926C157.151 40.6394 158.205 46.2908 159.438 51.4394C160.67 56.588 162.294 60.832 164.683 65.0803Z" fill="#F5D30D"/>
<path fill-rule="evenodd" clip-rule="evenodd" d="M172.031 64.0367C169.618 64.5434 166.947 65.0304 164.668 65.0865C162.092 60.8993 160.358 56.2105 159.029 51.1359C157.699 46.0612 157.141 40.5683 157.346 35.6926C159.376 34.6828 161.635 34.2662 164.005 33.593C163.674 38.7442 164.18 44.1266 165.592 49.514C167.003 54.9015 169.933 59.8376 172.031 64.0367Z" fill="#282526"/>
<path fill-rule="evenodd" clip-rule="evenodd" d="M179.371 60.8876C179.371 60.8876 178.322 61.9374 176.224 62.9872C174.126 64.0369 173.077 64.0369 172.028 64.0369C169.441 59.7357 166.471 53.8027 165.181 48.503C163.887 43.2034 163.424 37.9087 163.725 32.8416C164.08 32.7295 164.437 32.6342 164.811 32.5355C167 31.9552 170.987 31.6007 173.077 31.4937C172.761 36.7426 172.89 41.1184 174.126 46.1906C175.362 51.2645 176.947 56.7168 179.371 60.8876Z" fill="#F5D30D"/>
<path fill-rule="evenodd" clip-rule="evenodd" d="M184.615 56.6882C182.983 58.0978 181.474 59.8373 179.37 60.8873C176.995 56.6568 174.751 51.9174 173.539 46.7708C172.326 41.626 171.864 36.5015 172.078 31.5585C174.391 31.3973 176.614 31.5398 178.669 31.9384C178.666 36.191 179.161 40.5539 180.195 44.9439C181.229 49.3322 182.727 52.953 184.615 56.6882Z" fill="#282526"/>
<path fill-rule="evenodd" clip-rule="evenodd" d="M184.614 56.6882C182.743 52.9548 180.861 48.8724 179.835 44.4882C178.808 40.1024 178.317 35.7437 178.32 31.4934C184.6 32.678 189.388 36.286 190.61 41.509C191.831 46.732 189.609 52.3871 184.614 56.6882Z" fill="#282526"/>
<path fill-rule="evenodd" clip-rule="evenodd" d="M175.593 37.6907C170.146 38.7631 164.135 31.2181 162.167 20.8388C160.197 10.4579 163.017 1.17421 168.463 0.101809C173.91 -0.972253 179.921 6.57436 181.891 16.9536C183.859 27.3329 181.04 36.6183 175.593 37.6907Z" fill="#98B4DD"/>
<path fill-rule="evenodd" clip-rule="evenodd" d="M180.782 37.8919C176.822 42.1302 167.343 39.4113 159.61 31.8192C151.878 24.2272 148.819 14.6372 152.779 10.3972C156.741 6.16068 166.219 8.87779 173.953 16.4699C181.686 24.062 184.743 33.6536 180.782 37.8919Z" fill="#B9C7E5"/>
<path fill-rule="evenodd" clip-rule="evenodd" d="M191.93 35.6927C190.056 33.2304 187.266 31.3618 183.878 30.5946C183.418 30.4891 182.971 30.4048 182.516 30.3513C185.814 27.7771 190.337 26.6481 194.832 27.6668C198.61 28.5232 201.635 30.7292 203.495 33.5889C199.307 32.64 195.12 33.5273 191.93 35.6927Z" fill="#1A1E1D"/>
<path fill-rule="evenodd" clip-rule="evenodd" d="M205.197 42.4975C203.514 49.1054 196.91 53.2961 190.038 52.3583C189.591 52.3038 189.153 52.2179 188.701 52.1122L188.668 52.104C181.381 50.3702 176.926 43.2867 178.716 36.2627C179.427 33.4722 181.016 31.1259 183.119 29.3938C183.566 29.4483 184.004 29.5341 184.454 29.6398C187.775 30.4225 190.51 32.3246 192.348 34.8311C195.473 32.6251 199.578 31.7219 203.649 32.6813L203.682 32.6895C205.435 35.5328 206.086 39.0185 205.197 42.4975Z" fill="#F5D30D"/>
<path fill-rule="evenodd" clip-rule="evenodd" d="M194.773 28.1382C195.328 24.8808 199.914 21.264 203.386 20.9956L203.5 22.2986C200.615 22.5213 196.589 25.8023 196.157 28.3441L194.773 28.1382Z" fill="#1A1E1D"/>
<path fill-rule="evenodd" clip-rule="evenodd" d="M205.492 23.7402C205.135 24.843 203.954 25.4495 202.852 25.0922C201.75 24.7368 201.144 23.5529 201.501 22.4501C201.856 21.3473 203.039 20.7409 204.141 21.0982C205.243 21.4535 205.849 22.6374 205.492 23.7402Z" fill="#1A1E1D"/>
<path fill-rule="evenodd" clip-rule="evenodd" d="M193.008 28.344C194.526 25.7308 192.203 20.7724 189.681 18.896L188.812 19.7766C190.911 21.337 193.008 25.1947 191.818 27.8214L193.008 28.344Z" fill="#1A1E1D"/>
<path fill-rule="evenodd" clip-rule="evenodd" d="M186.813 18.2511C186.456 19.3539 187.062 20.5378 188.162 20.8932C189.266 21.2505 190.449 20.6441 190.804 19.5413C191.161 18.4385 190.555 17.2545 189.453 16.8992C188.351 16.5419 187.169 17.1483 186.813 18.2511Z" fill="#1A1E1D"/>
<path fill-rule="evenodd" clip-rule="evenodd" d="M188.692 38.7912C188.142 41.0427 185.869 42.421 183.619 41.87C181.37 41.3174 179.992 39.0461 180.543 36.7931C181.097 34.5416 183.366 33.1633 185.616 33.7143C187.866 34.2669 189.243 36.5397 188.692 38.7912Z" fill="#1A1E1D"/>
<path fill-rule="evenodd" clip-rule="evenodd" d="M190.785 38.7919C190.235 41.0426 187.964 42.421 185.713 41.87C183.463 41.319 182.085 39.0467 182.638 36.7942C183.188 34.5417 185.459 33.1633 187.71 33.7143C189.96 34.2671 191.338 36.5394 190.785 38.7919Z" fill="#FEFEFE"/>
<path fill-rule="evenodd" clip-rule="evenodd" d="M184.678 37.2923C184.402 38.4188 185.09 39.5561 186.218 39.8307C187.341 40.1075 188.475 39.4166 188.752 38.2922C189.028 37.1657 188.34 36.0284 187.215 35.7538C186.089 35.477 184.955 36.1658 184.678 37.2923Z" fill="#1A1E1D"/>
<path fill-rule="evenodd" clip-rule="evenodd" d="M186.74 36.4757C186.606 37.0258 186.944 37.5822 187.494 37.7166C188.043 37.853 188.599 37.515 188.733 36.9628C188.87 36.4127 188.532 35.8584 187.982 35.722C187.431 35.5876 186.875 35.9235 186.74 36.4757Z" fill="#FEFEFE"/>
<path fill-rule="evenodd" clip-rule="evenodd" d="M191.031 38.8931C190.481 41.1448 191.857 43.4179 194.108 43.969C196.357 44.5216 198.628 43.1431 199.18 40.8914C199.731 38.6381 198.355 36.3666 196.104 35.8139C193.855 35.2628 191.582 36.6414 191.031 38.8931Z" fill="#1A1E1D"/>
<path fill-rule="evenodd" clip-rule="evenodd" d="M193.099 40.1921C192.685 41.8814 193.719 43.5854 195.407 44C197.093 44.4132 198.796 43.3795 199.21 41.6902C199.624 40.001 198.59 38.2969 196.904 37.8837C195.216 37.4691 193.513 38.5029 193.099 40.1921Z" fill="#FEFEFE"/>
<path fill-rule="evenodd" clip-rule="evenodd" d="M197.143 40.3917C196.867 41.5182 195.733 42.207 194.605 41.9302C193.482 41.6556 192.794 40.5183 193.068 39.3919C193.345 38.2654 194.481 37.5766 195.604 37.8534C196.73 38.128 197.418 39.2653 197.143 40.3917Z" fill="#1A1E1D"/>
<path fill-rule="evenodd" clip-rule="evenodd" d="M195.031 39.0633C194.897 39.6134 194.341 39.9515 193.789 39.8171C193.239 39.6806 192.902 39.1263 193.038 38.5742C193.172 38.0241 193.728 37.686 194.278 37.8225C194.828 37.9569 195.165 38.5133 195.031 39.0633Z" fill="#FEFEFE"/>
<path fill-rule="evenodd" clip-rule="evenodd" d="M189.447 48.2368C189.382 48.2286 189.319 48.2177 189.254 48.2081C188.165 48.0237 187.228 47.5538 186.804 46.9842C186.631 46.7465 186.707 46.4296 186.973 46.2739C187.24 46.1195 187.601 46.1851 187.777 46.4228C187.978 46.6932 188.592 47.0525 189.472 47.2014C190.041 47.3038 191.126 47.368 192.091 46.767C192.352 46.6044 192.713 46.6591 192.898 46.8913C193.084 47.1222 193.02 47.4418 192.757 47.6057C191.832 48.1794 190.662 48.4021 189.447 48.2368Z" fill="#1A1E1D"/>
<path fill-rule="evenodd" clip-rule="evenodd" d="M121.537 267.451C121.099 266.053 119.197 264.353 115.094 265.744C112.154 266.738 107.436 269.542 105.151 271.565C106.337 268.626 107.516 262.925 107.516 259.685C107.516 255.193 105.245 254.048 103.835 254.048C102.428 254.048 100.288 255.412 100.288 259.903C100.288 263.129 101.391 268.672 102.53 271.562C100.216 269.478 95.3781 266.546 92.4205 265.544C88.3168 264.157 86.5741 266.053 86.1367 267.451C85.7028 268.845 86.2849 271.388 90.385 272.775C93.3244 273.773 98.7225 274.395 101.716 274.154C99.0985 275.808 94.9297 279.697 93.1003 282.316C90.5694 285.952 91.7589 288.269 92.8978 289.132C94.0403 289.995 96.5387 290.206 99.0732 286.57C100.888 283.962 103.126 278.804 103.835 275.763C104.533 278.868 106.792 284.204 108.618 286.826C111.153 290.459 113.633 289.995 114.776 289.132C115.915 288.269 116.876 285.858 114.345 282.221C112.527 279.618 108.506 275.804 105.954 274.162C109.002 274.433 114.57 273.838 117.527 272.839C121.627 271.452 121.971 268.845 121.537 267.451Z" fill="url(#paint4_linear_1097_100955)"/>
<path fill-rule="evenodd" clip-rule="evenodd" d="M146.853 169.303C146.885 168.558 146.221 167.394 143.867 167.302C142.181 167.235 139.258 167.706 137.719 168.25C138.861 167.067 140.502 164.564 141.088 163.018C141.906 160.875 140.95 159.908 140.23 159.65C139.51 159.389 138.167 159.647 137.349 161.791C136.763 163.33 136.318 166.179 136.377 167.766C135.571 166.345 133.627 164.058 132.298 163.034C130.448 161.616 129.207 162.201 128.733 162.789C128.255 163.374 128.094 164.694 129.941 166.113C131.263 167.127 133.915 168.418 135.486 168.854C133.846 169.163 131.005 170.25 129.597 171.163C127.636 172.432 127.826 173.758 128.251 174.378C128.677 175.002 129.921 175.561 131.879 174.292C133.28 173.383 135.365 171.332 136.282 170.012C136.072 171.621 136.262 174.585 136.717 176.172C137.356 178.373 138.711 178.608 139.451 178.405C140.191 178.204 141.124 177.231 140.489 175.027C140.03 173.45 138.665 170.893 137.657 169.64C139.169 170.327 142.129 171.071 143.821 171.138C146.175 171.23 146.823 170.047 146.853 169.303Z" fill="#DFE1EC"/>
<path fill-rule="evenodd" clip-rule="evenodd" d="M349.672 90.5213C348.968 90.071 347.49 90.0561 346.146 92.2648C345.178 93.8484 344.068 96.928 343.772 98.7143C343.24 96.9485 341.699 93.9582 340.523 92.5198C338.89 90.5231 337.449 90.899 336.812 91.4461C336.177 91.9913 335.706 93.4278 337.338 95.4245C338.51 96.8536 341.022 98.8893 342.588 99.7285C340.786 99.7043 337.536 100.281 335.837 100.985C333.481 101.96 333.383 103.482 333.694 104.271C334.006 105.058 335.191 105.962 337.549 104.985C339.236 104.286 341.902 102.464 343.164 101.198C342.583 102.948 342.115 106.295 342.242 108.167C342.42 110.767 343.801 111.332 344.628 111.273C345.456 111.213 346.661 110.335 346.483 107.737C346.356 105.873 345.489 102.713 344.705 101.091C346.149 102.198 349.107 103.688 350.886 104.142C353.351 104.773 354.302 103.601 354.503 102.776C354.703 101.95 354.26 100.504 351.795 99.8736C350.028 99.4233 346.83 99.2912 345.08 99.5536C346.554 98.4892 348.852 96.0646 349.823 94.4717C351.167 92.263 350.376 90.9716 349.672 90.5213Z" fill="#DFE1EC"/>
<path fill-rule="evenodd" clip-rule="evenodd" d="M472.116 59.338C466.657 57.2779 462.231 53.8641 459.536 49.6334L457.342 46.1904L455.607 49.1109C452.901 53.6632 448.218 57.3279 442.381 59.456L438.461 60.8879L442.507 62.4707C447.373 64.3743 451.399 67.3645 454.07 71.0594L457.342 75.5844L459.855 71.8838C462.359 68.1993 466.197 65.1666 470.893 63.1621L476.223 60.8879L472.116 59.338Z" fill="#E8E9EB"/>
<path fill-rule="evenodd" clip-rule="evenodd" d="M487.444 35.2502C485.625 34.6617 484.149 33.6856 483.252 32.4767L482.52 31.4937L481.942 32.3279C481.041 33.6285 479.479 34.6756 477.534 35.2839L476.227 35.6932L477.575 36.1449C479.198 36.6892 480.54 37.5433 481.43 38.5991L482.52 39.8919L483.358 38.8353C484.192 37.7822 485.472 36.9151 487.037 36.3431L488.814 35.6932L487.444 35.2502Z" fill="#E8E9EB"/>
<path fill-rule="evenodd" clip-rule="evenodd" d="M443.386 45.7477C441.566 45.1593 440.091 44.184 439.193 42.9751L438.462 41.9912L437.883 42.8254C436.982 44.126 435.421 45.1731 433.475 45.7815L432.168 46.1908L433.518 46.6434C435.139 47.1868 436.481 48.0409 437.371 49.0966L438.462 50.3895L439.299 49.3329C440.135 48.2797 441.413 47.4127 442.979 46.8407L444.755 46.1908L443.386 45.7477Z" fill="#E8E9EB"/>
<path d="M447.355 78.4869C422.412 93.8743 432.826 113.254 444.901 121.466" stroke="#E8E9EB" stroke-width="2.0979"/>
</g>
<defs>
<linearGradient id="paint0_linear_1097_100955" x1="390.628" y1="225.123" x2="408.935" y2="223.346" gradientUnits="userSpaceOnUse">
<stop stop-color="#288DD1"/>
<stop offset="1" stop-color="#3FE0C8"/>
</linearGradient>
<linearGradient id="paint1_linear_1097_100955" x1="395.703" y1="216.578" x2="452.807" y2="211.875" gradientUnits="userSpaceOnUse">
<stop stop-color="#288DD1"/>
<stop offset="1" stop-color="#3FE0C8"/>
</linearGradient>
<linearGradient id="paint2_linear_1097_100955" x1="515.93" y1="130.388" x2="599.303" y2="114.937" gradientUnits="userSpaceOnUse">
<stop stop-color="#288DD1"/>
<stop offset="1" stop-color="#3FE0C8"/>
</linearGradient>
<linearGradient id="paint3_linear_1097_100955" x1="144.231" y1="342.19" x2="213.426" y2="335.665" gradientUnits="userSpaceOnUse">
<stop stop-color="#288DD1"/>
<stop offset="1" stop-color="#3FE0C8"/>
</linearGradient>
<linearGradient id="paint4_linear_1097_100955" x1="86.8032" y1="286.662" x2="121.382" y2="283.305" gradientUnits="userSpaceOnUse">
<stop stop-color="#288DD1"/>
<stop offset="1" stop-color="#3FE0C8"/>
</linearGradient>
</defs>
</svg>
