<svg width="64" height="64" viewBox="0 0 64 64" fill="none" xmlns="http://www.w3.org/2000/svg">
<path opacity="0.4" d="M56 5.33325V37.5999C56 42.6666 53.3334 45.3333 48.2667 45.3333H15.7333C10.6667 45.3333 8 42.6666 8 37.5999V5.33325H56Z" fill="url(#paint0_linear_802_7001)"/>
<path d="M58.6666 7.33325H5.33325C4.23992 7.33325 3.33325 6.42659 3.33325 5.33325C3.33325 4.23992 4.23992 3.33325 5.33325 3.33325H58.6666C59.7599 3.33325 60.6666 4.23992 60.6666 5.33325C60.6666 6.42659 59.7599 7.33325 58.6666 7.33325Z" fill="url(#paint1_linear_802_7001)"/>
<path d="M44.4533 59.5732C44.1067 60.2666 43.3866 60.6666 42.6666 60.6666C42.3733 60.6666 42.0533 60.5866 41.7867 60.4533L32 55.5732L22.2133 60.4533C21.9466 60.5866 21.6266 60.6666 21.3333 60.6666C20.6133 60.6666 19.8933 60.2666 19.5466 59.5732C19.0399 58.5599 19.44 57.3599 20.4533 56.8799L30 52.1066V45.3333H34V52.1066L43.5466 56.8799C44.5599 57.3599 44.96 58.5599 44.4533 59.5732Z" fill="url(#paint2_linear_802_7001)"/>
<path d="M19.9999 31.3334C19.4399 31.3334 18.8533 31.0934 18.4533 30.6134C17.7333 29.7601 17.8665 28.5068 18.7199 27.7867L27.1199 20.7734C27.8933 20.1334 28.8799 19.8667 29.8132 20.0267C30.7732 20.1867 31.5999 20.7733 32.1066 21.6267L34.9065 26.2933L42.7199 19.7867C43.5732 19.0667 44.8265 19.2 45.5465 20.0534C46.2665 20.9067 46.1332 22.16 45.2799 22.88L36.8798 29.8934C36.1065 30.5334 35.1199 30.8 34.1866 30.64C33.2266 30.48 32.3999 29.8934 31.8932 29.0401L29.0932 24.3734L21.2799 30.88C20.9066 31.1733 20.4532 31.3334 19.9999 31.3334Z" fill="url(#paint3_linear_802_7001)"/>
<defs>
<linearGradient id="paint0_linear_802_7001" x1="9.06" y1="41.8833" x2="55.4082" y2="36.4799" gradientUnits="userSpaceOnUse">
<stop stop-color="#288DD1"/>
<stop offset="1" stop-color="#3FE0C8"/>
</linearGradient>
<linearGradient id="paint1_linear_802_7001" x1="4.59936" y1="6.98825" x2="23.6913" y2="-19.5975" gradientUnits="userSpaceOnUse">
<stop stop-color="#288DD1"/>
<stop offset="1" stop-color="#3FE0C8"/>
</linearGradient>
<linearGradient id="paint2_linear_802_7001" x1="19.8871" y1="59.3441" x2="44.0691" y2="55.4608" gradientUnits="userSpaceOnUse">
<stop stop-color="#288DD1"/>
<stop offset="1" stop-color="#3FE0C8"/>
</linearGradient>
<linearGradient id="paint3_linear_802_7001" x1="18.606" y1="30.2973" x2="44.6948" y2="24.3842" gradientUnits="userSpaceOnUse">
<stop stop-color="#288DD1"/>
<stop offset="1" stop-color="#3FE0C8"/>
</linearGradient>
</defs>
</svg>
