<svg width="98" height="83" viewBox="0 0 98 83" fill="none" xmlns="http://www.w3.org/2000/svg">
<path d="M96.6252 51.7911L80.8156 9.76328C78.7208 4.23157 73.3527 0.500122 67.4282 0.500122C61.5037 0.500122 56.1356 4.23157 54.0408 9.76328C53.4516 11.3671 53.1243 13.0692 53.1243 14.804V33.1994H44.9412V14.804C44.9412 6.91557 38.5257 0.500122 30.6373 0.500122C24.7128 0.500122 19.3447 4.23157 17.2498 9.76328L1.44022 51.7911C0.49099 54.3442 0 56.9955 0 59.7122C0 72.1177 10.0815 82.1664 22.4542 82.1664C34.827 82.1664 44.9085 72.0849 44.9085 59.7122V57.6829H53.0915V59.7122C53.0915 72.1177 63.173 82.1664 75.5458 82.1664C87.9185 82.1664 98 72.0849 98 59.7122C98 56.9955 97.509 54.3442 96.5598 51.7911H96.6252ZM22.487 73.9834C14.5985 73.9834 8.18303 67.5679 8.18303 59.6795C8.18303 57.9447 8.47762 56.2426 9.09953 54.6388C11.1944 49.1071 16.5625 45.3757 22.487 45.3757C30.3754 45.3757 36.7909 51.7911 36.7909 59.6795C36.7909 67.5679 30.3754 73.9834 22.487 73.9834ZM75.6112 73.9834C67.7228 73.9834 61.3073 67.5679 61.3073 59.6795C61.3073 51.7911 67.7228 45.3757 75.6112 45.3757C81.5357 45.3757 86.9038 49.1071 88.9987 54.6388C89.5878 56.2426 89.9152 57.9447 89.9152 59.6795C89.9152 67.5679 83.4997 73.9834 75.6112 73.9834Z" fill="url(#paint0_linear_854_31422)"/>
<defs>
<linearGradient id="paint0_linear_854_31422" x1="2.16417" y1="75.1227" x2="96.7918" y2="64.0907" gradientUnits="userSpaceOnUse">
<stop stop-color="#288DD1"/>
<stop offset="1" stop-color="#3FE0C8"/>
</linearGradient>
</defs>
</svg>
