<svg width="18" height="18" viewBox="0 0 18 18" fill="none" xmlns="http://www.w3.org/2000/svg">
<path d="M12.6038 10.9926L8.48187 15.6298L6.4209 14.0841" stroke="#288DD1" stroke-width="1.28571" stroke-linecap="round" stroke-linejoin="round"/>
<path d="M13.8507 14.1337C14.7097 14.1286 15.5371 13.8086 16.1761 13.2344C16.8149 12.6602 17.2212 11.8717 17.3179 11.0181C17.4145 10.1645 17.1947 9.30506 16.7003 8.60259C16.2058 7.90013 15.4709 7.40337 14.6346 7.20637C14.5769 7.18913 14.5253 7.15574 14.4859 7.11012C14.4465 7.06451 14.4209 7.00858 14.4123 6.94893C14.309 5.8161 13.8204 4.75295 13.028 3.93676C12.2357 3.12058 11.1875 2.6007 10.0582 2.46382C8.92894 2.32693 7.78688 2.58132 6.82246 3.18458C5.85806 3.78783 5.1296 4.70345 4.75858 5.77878C4.73404 5.82892 4.69565 5.87099 4.64796 5.90002C4.60026 5.92904 4.54527 5.94383 4.48945 5.9426C3.95162 5.97871 3.42616 6.12041 2.94309 6.35959C2.46001 6.59877 2.02878 6.93075 1.67401 7.3366C0.957515 8.15623 0.595966 9.22692 0.668897 10.3131C0.741828 11.3993 1.24326 12.4121 2.06289 13.1286C2.65937 13.6499 3.3888 13.9834 4.16042 14.0983" stroke="#288DD1" stroke-width="1.28571" stroke-linecap="round" stroke-linejoin="round"/>
</svg>
