<svg width="60" height="60" viewBox="0 0 60 60" fill="none" xmlns="http://www.w3.org/2000/svg">
<path d="M47.9993 36.95C45.8493 38.925 42.9993 40.025 40.0743 40H15.9243C5.74932 39.275 5.72432 24.5 15.9243 23.775H16.0243C9.04932 4.37503 38.5243 -3.34997 41.8993 17C51.3243 18.2 55.1493 30.725 47.9993 36.95Z" fill="url(#paint0_linear_297_1900)"/>
<path d="M46.875 52.5C46.875 53.525 46.025 54.375 45 54.375H35C34.875 54.375 34.775 54.375 34.65 54.325C33.925 56.175 32.1 57.5 30 57.5C27.9 57.5 26.075 56.175 25.35 54.325C25.225 54.375 25.125 54.375 25 54.375H15C13.975 54.375 13.125 53.525 13.125 52.5C13.125 51.475 13.975 50.625 15 50.625H25C25.125 50.625 25.225 50.625 25.35 50.675C25.85 49.375 26.875 48.35 28.175 47.85C28.125 47.725 28.125 47.625 28.125 47.5V40H31.875V47.5C31.875 47.625 31.875 47.725 31.825 47.85C33.125 48.35 34.15 49.375 34.65 50.675C34.775 50.625 34.875 50.625 35 50.625H45C46.025 50.625 46.875 51.475 46.875 52.5Z" fill="url(#paint1_linear_297_1900)"/>
<defs>
<linearGradient id="paint0_linear_297_1900" x1="9.24258" y1="36.9814" x2="51.1314" y2="31.9331" gradientUnits="userSpaceOnUse">
<stop stop-color="#288DD1"/>
<stop offset="1" stop-color="#3FE0C8"/>
</linearGradient>
<linearGradient id="paint1_linear_297_1900" x1="13.8703" y1="55.9906" x2="45.7816" y2="50.0116" gradientUnits="userSpaceOnUse">
<stop stop-color="#288DD1"/>
<stop offset="1" stop-color="#3FE0C8"/>
</linearGradient>
</defs>
</svg>
