<svg width="61" height="61" viewBox="0 0 61 61" fill="none" xmlns="http://www.w3.org/2000/svg">
<path d="M40.7431 5.93713L19.5431 5.93713C12.6431 5.93713 10.1431 8.43713 10.1431 15.4621L10.1431 46.4121C10.1431 53.4371 12.6431 55.9371 19.5431 55.9371H40.7181C47.6431 55.9371 50.1431 53.4371 50.1431 46.4121V15.4621C50.1431 8.43713 47.6431 5.93713 40.7431 5.93713ZM30.1431 49.1871C27.7431 49.1871 25.7681 47.2121 25.7681 44.8121C25.7681 42.4121 27.7431 40.4371 30.1431 40.4371C32.5431 40.4371 34.5181 42.4121 34.5181 44.8121C34.5181 47.2121 32.5431 49.1871 30.1431 49.1871ZM35.1431 16.5621H25.1431C24.1181 16.5621 23.2681 15.7121 23.2681 14.6871C23.2681 13.6621 24.1181 12.8121 25.1431 12.8121L35.1431 12.8121C36.1681 12.8121 37.0181 13.6621 37.0181 14.6871C37.0181 15.7121 36.1681 16.5621 35.1431 16.5621Z" fill="url(#paint0_linear_297_1847)"/>
<defs>
<linearGradient id="paint0_linear_297_1847" x1="11.0264" y1="51.6246" x2="49.9398" y2="48.6002" gradientUnits="userSpaceOnUse">
<stop stop-color="#288DD1"/>
<stop offset="1" stop-color="#3FE0C8"/>
</linearGradient>
</defs>
</svg>
