<svg width="128" height="128" viewBox="0 0 128 128" fill="none" xmlns="http://www.w3.org/2000/svg">
<circle cx="64" cy="64" r="64" fill="white"/>
<path d="M76.8297 46.5645H76.2246V47.1511H76.8297V46.5645Z" fill="#3AF3FC"/>
<path d="M75.9225 46.5645H75.3174V47.1511H75.9225V46.5645Z" fill="#3AF3FC"/>
<path d="M75.9225 47.4451H75.3174V48.0317H75.9225V47.4451Z" fill="#3FE0C8"/>
<path d="M75.9225 48.325H75.3174V48.9115H75.9225V48.325Z" fill="#3FE0C8"/>
<path d="M76.9303 58.741H76.3252V59.3276H76.9303V58.741Z" fill="#4BC671"/>
<path d="M75.0143 47.4453H74.4092V48.0319H75.0143V47.4453Z" fill="#3FE0C8"/>
<path d="M75.0143 48.325H74.4092V48.9115H75.0143V48.325Z" fill="#3FE0C8"/>
<path d="M75.0143 49.2061H74.4092V49.7927H75.0143V49.2061Z" fill="#3FE0C8"/>
<path d="M76.023 59.6208H75.418V60.2074H76.023V59.6208Z" fill="#4BC671"/>
<path d="M76.023 61.3816H75.418V61.9682H76.023V61.3816Z" fill="#4BC671"/>
<path d="M76.023 63.1423H75.418V63.7289H76.023V63.1423Z" fill="#39B54A"/>
<path d="M74.106 47.4451H73.501V48.0317H74.106V47.4451Z" fill="#3FE0C8"/>
<path d="M74.106 48.325H73.501V48.9115H74.106V48.325Z" fill="#3FE0C8"/>
<path d="M74.106 49.2058H73.501V49.7924H74.106V49.2058Z" fill="#3FE0C8"/>
<path d="M74.106 50.0869H73.501V50.6735H74.106V50.0869Z" fill="#3FE0C8"/>
<path d="M73.1988 45.6843H72.5938V46.2709H73.1988V45.6843Z" fill="#3AF3FC"/>
<path d="M73.1988 46.5645H72.5938V47.1511H73.1988V46.5645Z" fill="#3AF3FC"/>
<path d="M73.1988 47.4451H72.5938V48.0317H73.1988V47.4451Z" fill="#3FE0C8"/>
<path d="M73.1988 48.325H72.5938V48.9115H73.1988V48.325Z" fill="#3FE0C8"/>
<path d="M73.1988 49.2058H72.5938V49.7924H73.1988V49.2058Z" fill="#3FE0C8"/>
<path d="M73.1988 50.0869H72.5938V50.6735H73.1988V50.0869Z" fill="#3FE0C8"/>
<path d="M73.1988 50.9666H72.5938V51.5532H73.1988V50.9666Z" fill="#3FE0C8"/>
<path d="M74.2057 62.2622H73.6006V62.8488H74.2057V62.2622Z" fill="#39B54A"/>
<path d="M72.2887 44.8035H71.6836V45.3901H72.2887V44.8035Z" fill="#3AF3FC"/>
<path d="M72.2887 45.6843H71.6836V46.2709H72.2887V45.6843Z" fill="#3AF3FC"/>
<path d="M72.2887 46.5645H71.6836V47.1511H72.2887V46.5645Z" fill="#3AF3FC"/>
<path d="M72.2887 47.4451H71.6836V48.0317H72.2887V47.4451Z" fill="#3FE0C8"/>
<path d="M72.2887 48.325H71.6836V48.9115H72.2887V48.325Z" fill="#3FE0C8"/>
<path d="M72.2887 49.2058H71.6836V49.7924H72.2887V49.2058Z" fill="#3FE0C8"/>
<path d="M72.2887 50.0869H71.6836V50.6735H72.2887V50.0869Z" fill="#3FE0C8"/>
<path d="M72.2887 50.9666H71.6836V51.5532H72.2887V50.9666Z" fill="#3FE0C8"/>
<path d="M72.2887 51.8474H71.6836V52.434H72.2887V51.8474Z" fill="#3FE0C8"/>
<path d="M72.2887 56.249H71.6836V56.8356H72.2887V56.249Z" fill="#4AD398"/>
<path d="M72.2887 57.1296H71.6836V57.7162H72.2887V57.1296Z" fill="#4AD398"/>
<path d="M71.3814 43.9241H70.7764V44.5107H71.3814V43.9241Z" fill="#3AF3FC"/>
<path d="M71.3814 44.8035H70.7764V45.3901H71.3814V44.8035Z" fill="#3AF3FC"/>
<path d="M71.3814 45.6843H70.7764V46.2709H71.3814V45.6843Z" fill="#3AF3FC"/>
<path d="M71.3814 46.5645H70.7764V47.1511H71.3814V46.5645Z" fill="#3AF3FC"/>
<path d="M71.3814 47.4451H70.7764V48.0317H71.3814V47.4451Z" fill="#3FE0C8"/>
<path d="M71.3814 48.325H70.7764V48.9115H71.3814V48.325Z" fill="#3FE0C8"/>
<path d="M71.3814 49.2058H70.7764V49.7924H71.3814V49.2058Z" fill="#3FE0C8"/>
<path d="M71.3814 50.0869H70.7764V50.6735H71.3814V50.0869Z" fill="#3FE0C8"/>
<path d="M71.3814 50.9666H70.7764V51.5532H71.3814V50.9666Z" fill="#3FE0C8"/>
<path d="M71.3814 51.8474H70.7764V52.434H71.3814V51.8474Z" fill="#3FE0C8"/>
<path d="M71.3814 52.7273H70.7764V53.3139H71.3814V52.7273Z" fill="#4AD398"/>
<path d="M71.3814 53.6082H70.7764V54.1948H71.3814V53.6082Z" fill="#4AD398"/>
<path d="M71.3814 54.4878H70.7764V55.0744H71.3814V54.4878Z" fill="#4AD398"/>
<path d="M71.3814 55.3689H70.7764V55.9555H71.3814V55.3689Z" fill="#4AD398"/>
<path d="M71.3814 56.249H70.7764V56.8356H71.3814V56.249Z" fill="#4AD398"/>
<path d="M71.3814 57.1296H70.7764V57.7162H71.3814V57.1296Z" fill="#4AD398"/>
<path d="M71.3814 58.0105H70.7764V58.5971H71.3814V58.0105Z" fill="#4BC671"/>
<path d="M70.4723 42.1628H69.8672V42.7494H70.4723V42.1628Z" fill="#3AF3FC"/>
<path d="M70.4723 43.043H69.8672V43.6296H70.4723V43.043Z" fill="#3AF3FC"/>
<path d="M70.4723 43.9241H69.8672V44.5107H70.4723V43.9241Z" fill="#3AF3FC"/>
<path d="M70.4723 44.8035H69.8672V45.3901H70.4723V44.8035Z" fill="#3AF3FC"/>
<path d="M70.4723 45.6843H69.8672V46.2709H70.4723V45.6843Z" fill="#3AF3FC"/>
<path d="M70.4723 46.5645H69.8672V47.1511H70.4723V46.5645Z" fill="#3AF3FC"/>
<path d="M70.4723 47.4451H69.8672V48.0317H70.4723V47.4451Z" fill="#3FE0C8"/>
<path d="M70.4723 48.325H69.8672V48.9115H70.4723V48.325Z" fill="#3FE0C8"/>
<path d="M70.4723 49.2058H69.8672V49.7924H70.4723V49.2058Z" fill="#3FE0C8"/>
<path d="M70.4723 50.0869H69.8672V50.6735H70.4723V50.0869Z" fill="#3FE0C8"/>
<path d="M70.4723 50.9666H69.8672V51.5532H70.4723V50.9666Z" fill="#3FE0C8"/>
<path d="M70.4723 51.8474H69.8672V52.434H70.4723V51.8474Z" fill="#3FE0C8"/>
<path d="M70.4723 52.7273H69.8672V53.3139H70.4723V52.7273Z" fill="#4AD398"/>
<path d="M70.4723 53.6082H69.8672V54.1948H70.4723V53.6082Z" fill="#4AD398"/>
<path d="M70.4723 54.4878H69.8672V55.0744H70.4723V54.4878Z" fill="#4AD398"/>
<path d="M70.4723 55.3689H69.8672V55.9555H70.4723V55.3689Z" fill="#4AD398"/>
<path d="M70.4723 56.249H69.8672V56.8356H70.4723V56.249Z" fill="#4AD398"/>
<path d="M70.4723 57.1296H69.8672V57.7162H70.4723V57.1296Z" fill="#4AD398"/>
<path d="M70.4723 58.0105H69.8672V58.5971H70.4723V58.0105Z" fill="#4BC671"/>
<path d="M70.4723 58.8904H69.8672V59.477H70.4723V58.8904Z" fill="#4BC671"/>
<path d="M69.565 40.4014H68.96V40.988H69.565V40.4014Z" fill="#3DC8F9"/>
<path d="M69.565 41.282H68.96V41.8686H69.565V41.282Z" fill="#3DC8F9"/>
<path d="M69.565 42.1628H68.96V42.7494H69.565V42.1628Z" fill="#3AF3FC"/>
<path d="M69.565 43.043H68.96V43.6296H69.565V43.043Z" fill="#3AF3FC"/>
<path d="M69.565 43.9241H68.96V44.5107H69.565V43.9241Z" fill="#3AF3FC"/>
<path d="M69.565 44.8035H68.96V45.3901H69.565V44.8035Z" fill="#3AF3FC"/>
<path d="M69.565 45.6843H68.96V46.2709H69.565V45.6843Z" fill="#3AF3FC"/>
<path d="M69.565 46.5645H68.96V47.1511H69.565V46.5645Z" fill="#3AF3FC"/>
<path d="M69.565 47.4451H68.96V48.0317H69.565V47.4451Z" fill="#3FE0C8"/>
<path d="M69.565 48.325H68.96V48.9115H69.565V48.325Z" fill="#3FE0C8"/>
<path d="M69.565 49.2058H68.96V49.7924H69.565V49.2058Z" fill="#3FE0C8"/>
<path d="M69.565 50.0869H68.96V50.6735H69.565V50.0869Z" fill="#3FE0C8"/>
<path d="M69.565 50.9666H68.96V51.5532H69.565V50.9666Z" fill="#3FE0C8"/>
<path d="M69.565 51.8474H68.96V52.434H69.565V51.8474Z" fill="#3FE0C8"/>
<path d="M69.565 52.7273H68.96V53.3139H69.565V52.7273Z" fill="#4AD398"/>
<path d="M69.565 53.6082H68.96V54.1948H69.565V53.6082Z" fill="#4AD398"/>
<path d="M69.565 54.4878H68.96V55.0744H69.565V54.4878Z" fill="#4AD398"/>
<path d="M69.565 55.3689H68.96V55.9555H69.565V55.3689Z" fill="#4AD398"/>
<path d="M69.565 56.249H68.96V56.8356H69.565V56.249Z" fill="#4AD398"/>
<path d="M69.565 57.1296H68.96V57.7162H69.565V57.1296Z" fill="#4AD398"/>
<path d="M69.565 58.0105H68.96V58.5971H69.565V58.0105Z" fill="#4BC671"/>
<path d="M69.565 58.8904H68.96V59.477H69.565V58.8904Z" fill="#4BC671"/>
<path d="M69.565 59.771H68.96V60.3576H69.565V59.771Z" fill="#4BC671"/>
<path d="M69.565 60.6511H68.96V61.2377H69.565V60.6511Z" fill="#4BC671"/>
<path d="M69.565 61.532H68.96V62.1186H69.565V61.532Z" fill="#4BC671"/>
<path d="M69.565 62.4119H68.96V62.9985H69.565V62.4119Z" fill="#39B54A"/>
<path d="M68.6568 38.6406H68.0518V39.2272H68.6568V38.6406Z" fill="#3DC8F9"/>
<path d="M68.6568 39.5217H68.0518V40.1083H68.6568V39.5217Z" fill="#3DC8F9"/>
<path d="M68.6568 40.4014H68.0518V40.988H68.6568V40.4014Z" fill="#3DC8F9"/>
<path d="M68.6568 41.282H68.0518V41.8686H68.6568V41.282Z" fill="#3DC8F9"/>
<path d="M68.6568 42.1631H68.0518V42.7497H68.6568V42.1631Z" fill="#3AF3FC"/>
<path d="M68.6568 43.0432H68.0518V43.6298H68.6568V43.0432Z" fill="#3AF3FC"/>
<path d="M68.6568 43.9241H68.0518V44.5107H68.6568V43.9241Z" fill="#3AF3FC"/>
<path d="M68.6568 44.8035H68.0518V45.3901H68.6568V44.8035Z" fill="#3AF3FC"/>
<path d="M68.6568 45.6846H68.0518V46.2712H68.6568V45.6846Z" fill="#3AF3FC"/>
<path d="M68.6568 46.5647H68.0518V47.1513H68.6568V46.5647Z" fill="#3AF3FC"/>
<path d="M68.6568 47.4453H68.0518V48.0319H68.6568V47.4453Z" fill="#3FE0C8"/>
<path d="M68.6568 48.325H68.0518V48.9115H68.6568V48.325Z" fill="#3FE0C8"/>
<path d="M68.6568 49.2061H68.0518V49.7927H68.6568V49.2061Z" fill="#3FE0C8"/>
<path d="M68.6568 50.0869H68.0518V50.6735H68.6568V50.0869Z" fill="#3FE0C8"/>
<path d="M68.6568 50.9668H68.0518V51.5534H68.6568V50.9668Z" fill="#3FE0C8"/>
<path d="M68.6568 51.8474H68.0518V52.434H68.6568V51.8474Z" fill="#3FE0C8"/>
<path d="M68.6568 52.7275H68.0518V53.3141H68.6568V52.7275Z" fill="#4AD398"/>
<path d="M68.6568 53.6082H68.0518V54.1948H68.6568V53.6082Z" fill="#4AD398"/>
<path d="M68.6568 54.488H68.0518V55.0746H68.6568V54.488Z" fill="#4AD398"/>
<path d="M68.6568 55.3689H68.0518V55.9555H68.6568V55.3689Z" fill="#4AD398"/>
<path d="M68.6568 56.249H68.0518V56.8356H68.6568V56.249Z" fill="#4AD398"/>
<path d="M68.6568 57.1296H68.0518V57.7162H68.6568V57.1296Z" fill="#4AD398"/>
<path d="M68.6568 58.0107H68.0518V58.5973H68.6568V58.0107Z" fill="#4BC671"/>
<path d="M68.6568 58.8904H68.0518V59.477H68.6568V58.8904Z" fill="#4BC671"/>
<path d="M68.6568 59.7712H68.0518V60.3578H68.6568V59.7712Z" fill="#4BC671"/>
<path d="M68.6568 60.6511H68.0518V61.2377H68.6568V60.6511Z" fill="#4BC671"/>
<path d="M68.6568 61.5322H68.0518V62.1188H68.6568V61.5322Z" fill="#4BC671"/>
<path d="M68.6568 62.4119H68.0518V62.9985H68.6568V62.4119Z" fill="#39B54A"/>
<path d="M67.7486 38.6406H67.1436V39.2272H67.7486V38.6406Z" fill="#3DC8F9"/>
<path d="M67.7486 39.5215H67.1436V40.1081H67.7486V39.5215Z" fill="#3DC8F9"/>
<path d="M67.7486 40.4014H67.1436V40.988H67.7486V40.4014Z" fill="#3DC8F9"/>
<path d="M67.7486 41.282H67.1436V41.8686H67.7486V41.282Z" fill="#3DC8F9"/>
<path d="M67.7486 42.1628H67.1436V42.7494H67.7486V42.1628Z" fill="#3AF3FC"/>
<path d="M67.7486 43.043H67.1436V43.6296H67.7486V43.043Z" fill="#3AF3FC"/>
<path d="M67.7486 43.9241H67.1436V44.5107H67.7486V43.9241Z" fill="#3AF3FC"/>
<path d="M67.7486 44.8035H67.1436V45.3901H67.7486V44.8035Z" fill="#3AF3FC"/>
<path d="M67.7486 45.6843H67.1436V46.2709H67.7486V45.6843Z" fill="#3AF3FC"/>
<path d="M67.7486 46.5645H67.1436V47.1511H67.7486V46.5645Z" fill="#3AF3FC"/>
<path d="M67.7486 47.4451H67.1436V48.0317H67.7486V47.4451Z" fill="#3FE0C8"/>
<path d="M67.7486 48.325H67.1436V48.9115H67.7486V48.325Z" fill="#3FE0C8"/>
<path d="M67.7486 49.2058H67.1436V49.7924H67.7486V49.2058Z" fill="#3FE0C8"/>
<path d="M67.7486 50.0869H67.1436V50.6735H67.7486V50.0869Z" fill="#3FE0C8"/>
<path d="M67.7486 50.9666H67.1436V51.5532H67.7486V50.9666Z" fill="#3FE0C8"/>
<path d="M67.7486 51.8474H67.1436V52.434H67.7486V51.8474Z" fill="#3FE0C8"/>
<path d="M67.7486 52.7273H67.1436V53.3139H67.7486V52.7273Z" fill="#4AD398"/>
<path d="M67.7486 53.6082H67.1436V54.1948H67.7486V53.6082Z" fill="#4AD398"/>
<path d="M67.7486 54.4878H67.1436V55.0744H67.7486V54.4878Z" fill="#4AD398"/>
<path d="M67.7486 55.3689H67.1436V55.9555H67.7486V55.3689Z" fill="#4AD398"/>
<path d="M67.7486 56.249H67.1436V56.8356H67.7486V56.249Z" fill="#4AD398"/>
<path d="M67.7486 57.1296H67.1436V57.7162H67.7486V57.1296Z" fill="#4AD398"/>
<path d="M67.7486 58.0105H67.1436V58.5971H67.7486V58.0105Z" fill="#4BC671"/>
<path d="M67.7486 58.8904H67.1436V59.477H67.7486V58.8904Z" fill="#4BC671"/>
<path d="M67.7486 59.771H67.1436V60.3576H67.7486V59.771Z" fill="#4BC671"/>
<path d="M67.7486 60.6511H67.1436V61.2377H67.7486V60.6511Z" fill="#4BC671"/>
<path d="M67.7486 61.532H67.1436V62.1186H67.7486V61.532Z" fill="#4BC671"/>
<path d="M67.7486 62.4119H67.1436V62.9985H67.7486V62.4119Z" fill="#39B54A"/>
<path d="M67.7486 63.2925H67.1436V63.8791H67.7486V63.2925Z" fill="#39B54A"/>
<path d="M66.8404 38.6406H66.2354V39.2272H66.8404V38.6406Z" fill="#3DC8F9"/>
<path d="M66.8404 39.5215H66.2354V40.1081H66.8404V39.5215Z" fill="#3DC8F9"/>
<path d="M66.8404 40.4014H66.2354V40.988H66.8404V40.4014Z" fill="#3DC8F9"/>
<path d="M66.8404 41.282H66.2354V41.8686H66.8404V41.282Z" fill="#3DC8F9"/>
<path d="M66.8404 42.1628H66.2354V42.7494H66.8404V42.1628Z" fill="#3AF3FC"/>
<path d="M66.8404 43.043H66.2354V43.6296H66.8404V43.043Z" fill="#3AF3FC"/>
<path d="M66.8404 43.9241H66.2354V44.5107H66.8404V43.9241Z" fill="#3AF3FC"/>
<path d="M66.8404 44.8035H66.2354V45.3901H66.8404V44.8035Z" fill="#3AF3FC"/>
<path d="M66.8404 45.6843H66.2354V46.2709H66.8404V45.6843Z" fill="#3AF3FC"/>
<path d="M66.8404 46.5645H66.2354V47.1511H66.8404V46.5645Z" fill="#3AF3FC"/>
<path d="M66.8404 47.4451H66.2354V48.0317H66.8404V47.4451Z" fill="#3FE0C8"/>
<path d="M66.8404 48.325H66.2354V48.9115H66.8404V48.325Z" fill="#3FE0C8"/>
<path d="M66.8404 49.2058H66.2354V49.7924H66.8404V49.2058Z" fill="#3FE0C8"/>
<path d="M66.8404 50.0869H66.2354V50.6735H66.8404V50.0869Z" fill="#3FE0C8"/>
<path d="M66.8404 50.9666H66.2354V51.5532H66.8404V50.9666Z" fill="#3FE0C8"/>
<path d="M66.8404 51.8474H66.2354V52.434H66.8404V51.8474Z" fill="#3FE0C8"/>
<path d="M66.8404 52.7273H66.2354V53.3139H66.8404V52.7273Z" fill="#4AD398"/>
<path d="M66.8404 53.6082H66.2354V54.1948H66.8404V53.6082Z" fill="#4AD398"/>
<path d="M66.8404 54.4878H66.2354V55.0744H66.8404V54.4878Z" fill="#4AD398"/>
<path d="M66.8404 55.3689H66.2354V55.9555H66.8404V55.3689Z" fill="#4AD398"/>
<path d="M66.8404 56.249H66.2354V56.8356H66.8404V56.249Z" fill="#4AD398"/>
<path d="M66.8404 57.1296H66.2354V57.7162H66.8404V57.1296Z" fill="#4AD398"/>
<path d="M66.8404 58.0105H66.2354V58.5971H66.8404V58.0105Z" fill="#4BC671"/>
<path d="M66.8404 58.8904H66.2354V59.477H66.8404V58.8904Z" fill="#4BC671"/>
<path d="M66.8404 59.771H66.2354V60.3576H66.8404V59.771Z" fill="#4BC671"/>
<path d="M66.8404 60.6511H66.2354V61.2377H66.8404V60.6511Z" fill="#4BC671"/>
<path d="M66.8404 61.532H66.2354V62.1186H66.8404V61.532Z" fill="#4BC671"/>
<path d="M66.8404 62.4119H66.2354V62.9985H66.8404V62.4119Z" fill="#39B54A"/>
<path d="M66.8404 63.2925H66.2354V63.8791H66.8404V63.2925Z" fill="#39B54A"/>
<path d="M66.8404 64.1726H66.2354V64.7592H66.8404V64.1726Z" fill="#39B54A"/>
<path d="M65.9332 37.761H65.3281V38.3476H65.9332V37.761Z" fill="#3DC8F9"/>
<path d="M65.9332 38.6406H65.3281V39.2272H65.9332V38.6406Z" fill="#3DC8F9"/>
<path d="M65.9332 39.5217H65.3281V40.1083H65.9332V39.5217Z" fill="#3DC8F9"/>
<path d="M65.9332 40.4014H65.3281V40.988H65.9332V40.4014Z" fill="#3DC8F9"/>
<path d="M65.9332 41.282H65.3281V41.8686H65.9332V41.282Z" fill="#3DC8F9"/>
<path d="M65.9332 42.1631H65.3281V42.7497H65.9332V42.1631Z" fill="#3AF3FC"/>
<path d="M65.9332 43.0432H65.3281V43.6298H65.9332V43.0432Z" fill="#3AF3FC"/>
<path d="M65.9332 43.9241H65.3281V44.5107H65.9332V43.9241Z" fill="#3AF3FC"/>
<path d="M65.9332 44.8035H65.3281V45.3901H65.9332V44.8035Z" fill="#3AF3FC"/>
<path d="M65.9332 45.6846H65.3281V46.2712H65.9332V45.6846Z" fill="#3AF3FC"/>
<path d="M65.9332 46.5647H65.3281V47.1513H65.9332V46.5647Z" fill="#3AF3FC"/>
<path d="M65.9332 47.4453H65.3281V48.0319H65.9332V47.4453Z" fill="#3FE0C8"/>
<path d="M65.9332 48.325H65.3281V48.9115H65.9332V48.325Z" fill="#3FE0C8"/>
<path d="M65.9332 49.2061H65.3281V49.7927H65.9332V49.2061Z" fill="#3FE0C8"/>
<path d="M65.9332 50.0869H65.3281V50.6735H65.9332V50.0869Z" fill="#3FE0C8"/>
<path d="M65.9332 50.9668H65.3281V51.5534H65.9332V50.9668Z" fill="#3FE0C8"/>
<path d="M65.9332 51.8474H65.3281V52.434H65.9332V51.8474Z" fill="#3FE0C8"/>
<path d="M65.9332 52.7275H65.3281V53.3141H65.9332V52.7275Z" fill="#4AD398"/>
<path d="M65.9332 53.6082H65.3281V54.1948H65.9332V53.6082Z" fill="#4AD398"/>
<path d="M65.9332 54.488H65.3281V55.0746H65.9332V54.488Z" fill="#4AD398"/>
<path d="M65.9332 55.3689H65.3281V55.9555H65.9332V55.3689Z" fill="#4AD398"/>
<path d="M65.9332 56.249H65.3281V56.8356H65.9332V56.249Z" fill="#4AD398"/>
<path d="M65.9332 57.1296H65.3281V57.7162H65.9332V57.1296Z" fill="#4AD398"/>
<path d="M65.9332 58.0107H65.3281V58.5973H65.9332V58.0107Z" fill="#4BC671"/>
<path d="M65.9332 58.8904H65.3281V59.477H65.9332V58.8904Z" fill="#4BC671"/>
<path d="M65.9332 59.7712H65.3281V60.3578H65.9332V59.7712Z" fill="#4BC671"/>
<path d="M65.9332 60.6511H65.3281V61.2377H65.9332V60.6511Z" fill="#4BC671"/>
<path d="M65.9332 61.5322H65.3281V62.1188H65.9332V61.5322Z" fill="#4BC671"/>
<path d="M65.9332 62.4119H65.3281V62.9985H65.9332V62.4119Z" fill="#39B54A"/>
<path d="M65.9332 63.2927H65.3281V63.8793H65.9332V63.2927Z" fill="#39B54A"/>
<path d="M65.9332 64.1726H65.3281V64.7592H65.9332V64.1726Z" fill="#39B54A"/>
<path d="M65.9332 65.0535H65.3281V65.6401H65.9332V65.0535Z" fill="#39B54A"/>
<path d="M65.024 37.7607H64.4189V38.3473H65.024V37.7607Z" fill="#3DC8F9"/>
<path d="M65.024 38.6406H64.4189V39.2272H65.024V38.6406Z" fill="#3DC8F9"/>
<path d="M65.024 39.5215H64.4189V40.1081H65.024V39.5215Z" fill="#3DC8F9"/>
<path d="M65.024 40.4014H64.4189V40.988H65.024V40.4014Z" fill="#3DC8F9"/>
<path d="M65.024 41.282H64.4189V41.8686H65.024V41.282Z" fill="#3DC8F9"/>
<path d="M65.024 42.1628H64.4189V42.7494H65.024V42.1628Z" fill="#3AF3FC"/>
<path d="M65.024 43.043H64.4189V43.6296H65.024V43.043Z" fill="#3AF3FC"/>
<path d="M65.024 43.9241H64.4189V44.5107H65.024V43.9241Z" fill="#3AF3FC"/>
<path d="M65.024 44.8035H64.4189V45.3901H65.024V44.8035Z" fill="#3AF3FC"/>
<path d="M65.024 45.6843H64.4189V46.2709H65.024V45.6843Z" fill="#3AF3FC"/>
<path d="M65.024 46.5645H64.4189V47.1511H65.024V46.5645Z" fill="#3AF3FC"/>
<path d="M65.024 47.4451H64.4189V48.0317H65.024V47.4451Z" fill="#3FE0C8"/>
<path d="M65.024 48.325H64.4189V48.9115H65.024V48.325Z" fill="#3FE0C8"/>
<path d="M65.024 49.2058H64.4189V49.7924H65.024V49.2058Z" fill="#3FE0C8"/>
<path d="M65.024 50.0869H64.4189V50.6735H65.024V50.0869Z" fill="#3FE0C8"/>
<path d="M65.024 50.9666H64.4189V51.5532H65.024V50.9666Z" fill="#3FE0C8"/>
<path d="M65.024 51.8474H64.4189V52.434H65.024V51.8474Z" fill="#3FE0C8"/>
<path d="M65.024 52.7273H64.4189V53.3139H65.024V52.7273Z" fill="#4AD398"/>
<path d="M65.024 53.6082H64.4189V54.1948H65.024V53.6082Z" fill="#4AD398"/>
<path d="M65.024 54.4878H64.4189V55.0744H65.024V54.4878Z" fill="#4AD398"/>
<path d="M65.024 55.3689H64.4189V55.9555H65.024V55.3689Z" fill="#4AD398"/>
<path d="M65.024 56.249H64.4189V56.8356H65.024V56.249Z" fill="#4AD398"/>
<path d="M65.024 57.1296H64.4189V57.7162H65.024V57.1296Z" fill="#4AD398"/>
<path d="M65.024 58.0105H64.4189V58.5971H65.024V58.0105Z" fill="#4BC671"/>
<path d="M65.024 58.8904H64.4189V59.477H65.024V58.8904Z" fill="#4BC671"/>
<path d="M65.024 59.771H64.4189V60.3576H65.024V59.771Z" fill="#4BC671"/>
<path d="M65.024 60.6511H64.4189V61.2377H65.024V60.6511Z" fill="#4BC671"/>
<path d="M65.024 61.532H64.4189V62.1186H65.024V61.532Z" fill="#4BC671"/>
<path d="M65.024 62.4119H64.4189V62.9985H65.024V62.4119Z" fill="#39B54A"/>
<path d="M65.024 63.2925H64.4189V63.8791H65.024V63.2925Z" fill="#39B54A"/>
<path d="M65.024 64.1726H64.4189V64.7592H65.024V64.1726Z" fill="#39B54A"/>
<path d="M65.024 65.0532H64.4189V65.6398H65.024V65.0532Z" fill="#39B54A"/>
<path d="M64.1168 37.7607H63.5117V38.3473H64.1168V37.7607Z" fill="#3DC8F9"/>
<path d="M64.1168 38.6406H63.5117V39.2272H64.1168V38.6406Z" fill="#3DC8F9"/>
<path d="M64.1168 39.5215H63.5117V40.1081H64.1168V39.5215Z" fill="#3DC8F9"/>
<path d="M64.1168 40.4014H63.5117V40.988H64.1168V40.4014Z" fill="#3DC8F9"/>
<path d="M64.1168 41.282H63.5117V41.8686H64.1168V41.282Z" fill="#3DC8F9"/>
<path d="M64.1168 42.1628H63.5117V42.7494H64.1168V42.1628Z" fill="#3AF3FC"/>
<path d="M64.1168 43.043H63.5117V43.6296H64.1168V43.043Z" fill="#3AF3FC"/>
<path d="M64.1168 43.9241H63.5117V44.5107H64.1168V43.9241Z" fill="#3AF3FC"/>
<path d="M64.1168 44.8035H63.5117V45.3901H64.1168V44.8035Z" fill="#3AF3FC"/>
<path d="M64.1168 45.6843H63.5117V46.2709H64.1168V45.6843Z" fill="#3AF3FC"/>
<path d="M64.1168 46.5645H63.5117V47.1511H64.1168V46.5645Z" fill="#3AF3FC"/>
<path d="M64.1168 47.4451H63.5117V48.0317H64.1168V47.4451Z" fill="#3FE0C8"/>
<path d="M64.1168 48.325H63.5117V48.9115H64.1168V48.325Z" fill="#3FE0C8"/>
<path d="M64.1168 49.2058H63.5117V49.7924H64.1168V49.2058Z" fill="#3FE0C8"/>
<path d="M64.1168 50.0869H63.5117V50.6735H64.1168V50.0869Z" fill="#3FE0C8"/>
<path d="M64.1168 50.9666H63.5117V51.5532H64.1168V50.9666Z" fill="#3FE0C8"/>
<path d="M64.1168 51.8474H63.5117V52.434H64.1168V51.8474Z" fill="#3FE0C8"/>
<path d="M64.1168 52.7273H63.5117V53.3139H64.1168V52.7273Z" fill="#4AD398"/>
<path d="M64.1168 53.6082H63.5117V54.1948H64.1168V53.6082Z" fill="#4AD398"/>
<path d="M64.1168 54.4878H63.5117V55.0744H64.1168V54.4878Z" fill="#4AD398"/>
<path d="M64.1168 55.3689H63.5117V55.9555H64.1168V55.3689Z" fill="#4AD398"/>
<path d="M64.1168 56.249H63.5117V56.8356H64.1168V56.249Z" fill="#4AD398"/>
<path d="M64.1168 57.1296H63.5117V57.7162H64.1168V57.1296Z" fill="#4AD398"/>
<path d="M64.1168 58.0105H63.5117V58.5971H64.1168V58.0105Z" fill="#4BC671"/>
<path d="M64.1168 58.8904H63.5117V59.477H64.1168V58.8904Z" fill="#4BC671"/>
<path d="M64.1168 59.771H63.5117V60.3576H64.1168V59.771Z" fill="#4BC671"/>
<path d="M64.1168 60.6511H63.5117V61.2377H64.1168V60.6511Z" fill="#4BC671"/>
<path d="M64.1168 61.532H63.5117V62.1186H64.1168V61.532Z" fill="#4BC671"/>
<path d="M64.1168 62.4119H63.5117V62.9985H64.1168V62.4119Z" fill="#39B54A"/>
<path d="M64.1168 63.2925H63.5117V63.8791H64.1168V63.2925Z" fill="#39B54A"/>
<path d="M64.1168 64.1726H63.5117V64.7592H64.1168V64.1726Z" fill="#39B54A"/>
<path d="M64.1168 65.0532H63.5117V65.6398H64.1168V65.0532Z" fill="#39B54A"/>
<path d="M63.2096 38.6406H62.6045V39.2272H63.2096V38.6406Z" fill="#3DC8F9"/>
<path d="M63.2096 39.5217H62.6045V40.1083H63.2096V39.5217Z" fill="#3DC8F9"/>
<path d="M63.2096 40.4014H62.6045V40.988H63.2096V40.4014Z" fill="#3DC8F9"/>
<path d="M63.2096 41.282H62.6045V41.8686H63.2096V41.282Z" fill="#3DC8F9"/>
<path d="M63.2096 42.1631H62.6045V42.7497H63.2096V42.1631Z" fill="#3AF3FC"/>
<path d="M63.2096 43.0432H62.6045V43.6298H63.2096V43.0432Z" fill="#3AF3FC"/>
<path d="M63.2096 43.9241H62.6045V44.5107H63.2096V43.9241Z" fill="#3AF3FC"/>
<path d="M63.2096 44.8035H62.6045V45.3901H63.2096V44.8035Z" fill="#3AF3FC"/>
<path d="M63.2096 45.6846H62.6045V46.2712H63.2096V45.6846Z" fill="#3AF3FC"/>
<path d="M63.2096 46.5647H62.6045V47.1513H63.2096V46.5647Z" fill="#3AF3FC"/>
<path d="M63.2096 47.4453H62.6045V48.0319H63.2096V47.4453Z" fill="#3FE0C8"/>
<path d="M63.2096 48.325H62.6045V48.9115H63.2096V48.325Z" fill="#3FE0C8"/>
<path d="M63.2096 49.2061H62.6045V49.7927H63.2096V49.2061Z" fill="#3FE0C8"/>
<path d="M63.2096 50.0869H62.6045V50.6735H63.2096V50.0869Z" fill="#3FE0C8"/>
<path d="M63.2096 50.9668H62.6045V51.5534H63.2096V50.9668Z" fill="#3FE0C8"/>
<path d="M63.2096 51.8474H62.6045V52.434H63.2096V51.8474Z" fill="#3FE0C8"/>
<path d="M63.2096 52.7275H62.6045V53.3141H63.2096V52.7275Z" fill="#4AD398"/>
<path d="M63.2096 53.6082H62.6045V54.1948H63.2096V53.6082Z" fill="#4AD398"/>
<path d="M63.2096 54.488H62.6045V55.0746H63.2096V54.488Z" fill="#4AD398"/>
<path d="M63.2096 55.3689H62.6045V55.9555H63.2096V55.3689Z" fill="#4AD398"/>
<path d="M63.2096 56.249H62.6045V56.8356H63.2096V56.249Z" fill="#4AD398"/>
<path d="M63.2096 57.1296H62.6045V57.7162H63.2096V57.1296Z" fill="#4AD398"/>
<path d="M63.2096 58.0107H62.6045V58.5973H63.2096V58.0107Z" fill="#4BC671"/>
<path d="M63.2096 58.8904H62.6045V59.477H63.2096V58.8904Z" fill="#4BC671"/>
<path d="M63.2096 59.7712H62.6045V60.3578H63.2096V59.7712Z" fill="#4BC671"/>
<path d="M63.2096 60.6511H62.6045V61.2377H63.2096V60.6511Z" fill="#4BC671"/>
<path d="M63.2096 61.5322H62.6045V62.1188H63.2096V61.5322Z" fill="#4BC671"/>
<path d="M63.2096 62.4119H62.6045V62.9985H63.2096V62.4119Z" fill="#39B54A"/>
<path d="M63.2096 63.2927H62.6045V63.8793H63.2096V63.2927Z" fill="#39B54A"/>
<path d="M63.2096 64.1726H62.6045V64.7592H63.2096V64.1726Z" fill="#39B54A"/>
<path d="M62.3004 38.6406H61.6953V39.2272H62.3004V38.6406Z" fill="#3DC8F9"/>
<path d="M62.3004 39.5215H61.6953V40.1081H62.3004V39.5215Z" fill="#3DC8F9"/>
<path d="M62.3004 40.4014H61.6953V40.988H62.3004V40.4014Z" fill="#3DC8F9"/>
<path d="M62.3004 41.282H61.6953V41.8686H62.3004V41.282Z" fill="#3DC8F9"/>
<path d="M62.3004 42.1628H61.6953V42.7494H62.3004V42.1628Z" fill="#3AF3FC"/>
<path d="M62.3004 43.043H61.6953V43.6296H62.3004V43.043Z" fill="#3AF3FC"/>
<path d="M62.3004 43.9241H61.6953V44.5107H62.3004V43.9241Z" fill="#3AF3FC"/>
<path d="M62.3004 44.8035H61.6953V45.3901H62.3004V44.8035Z" fill="#3AF3FC"/>
<path d="M62.3004 45.6843H61.6953V46.2709H62.3004V45.6843Z" fill="#3AF3FC"/>
<path d="M62.3004 46.5645H61.6953V47.1511H62.3004V46.5645Z" fill="#3AF3FC"/>
<path d="M62.3004 47.4451H61.6953V48.0317H62.3004V47.4451Z" fill="#3FE0C8"/>
<path d="M62.3004 48.325H61.6953V48.9115H62.3004V48.325Z" fill="#3FE0C8"/>
<path d="M62.3004 49.2058H61.6953V49.7924H62.3004V49.2058Z" fill="#3FE0C8"/>
<path d="M62.3004 50.0869H61.6953V50.6735H62.3004V50.0869Z" fill="#3FE0C8"/>
<path d="M62.3004 50.9666H61.6953V51.5532H62.3004V50.9666Z" fill="#3FE0C8"/>
<path d="M62.3004 51.8474H61.6953V52.434H62.3004V51.8474Z" fill="#3FE0C8"/>
<path d="M62.3004 52.7273H61.6953V53.3139H62.3004V52.7273Z" fill="#4AD398"/>
<path d="M62.3004 53.6082H61.6953V54.1948H62.3004V53.6082Z" fill="#4AD398"/>
<path d="M62.3004 54.4878H61.6953V55.0744H62.3004V54.4878Z" fill="#4AD398"/>
<path d="M62.3004 55.3689H61.6953V55.9555H62.3004V55.3689Z" fill="#4AD398"/>
<path d="M62.3004 56.249H61.6953V56.8356H62.3004V56.249Z" fill="#4AD398"/>
<path d="M62.3004 57.1296H61.6953V57.7162H62.3004V57.1296Z" fill="#4AD398"/>
<path d="M62.3004 58.0105H61.6953V58.5971H62.3004V58.0105Z" fill="#4BC671"/>
<path d="M62.3004 58.8904H61.6953V59.477H62.3004V58.8904Z" fill="#4BC671"/>
<path d="M62.3004 59.771H61.6953V60.3576H62.3004V59.771Z" fill="#4BC671"/>
<path d="M62.3004 60.6511H61.6953V61.2377H62.3004V60.6511Z" fill="#4BC671"/>
<path d="M62.3004 61.532H61.6953V62.1186H62.3004V61.532Z" fill="#4BC671"/>
<path d="M62.3004 62.4119H61.6953V62.9985H62.3004V62.4119Z" fill="#39B54A"/>
<path d="M61.3922 37.761H60.7871V38.3476H61.3922V37.761Z" fill="#3DC8F9"/>
<path d="M61.3922 38.6406H60.7871V39.2272H61.3922V38.6406Z" fill="#3DC8F9"/>
<path d="M61.3922 39.5217H60.7871V40.1083H61.3922V39.5217Z" fill="#3DC8F9"/>
<path d="M61.3922 40.4014H60.7871V40.988H61.3922V40.4014Z" fill="#3DC8F9"/>
<path d="M61.3922 41.282H60.7871V41.8686H61.3922V41.282Z" fill="#3DC8F9"/>
<path d="M61.3922 42.1631H60.7871V42.7497H61.3922V42.1631Z" fill="#3AF3FC"/>
<path d="M61.3922 43.0432H60.7871V43.6298H61.3922V43.0432Z" fill="#3AF3FC"/>
<path d="M61.3922 43.9241H60.7871V44.5107H61.3922V43.9241Z" fill="#3AF3FC"/>
<path d="M61.3922 44.8035H60.7871V45.3901H61.3922V44.8035Z" fill="#3AF3FC"/>
<path d="M61.3922 45.6846H60.7871V46.2712H61.3922V45.6846Z" fill="#3AF3FC"/>
<path d="M61.3922 46.5647H60.7871V47.1513H61.3922V46.5647Z" fill="#3AF3FC"/>
<path d="M61.3922 47.4453H60.7871V48.0319H61.3922V47.4453Z" fill="#3FE0C8"/>
<path d="M61.3922 48.325H60.7871V48.9115H61.3922V48.325Z" fill="#3FE0C8"/>
<path d="M61.3922 49.2061H60.7871V49.7927H61.3922V49.2061Z" fill="#3FE0C8"/>
<path d="M61.3922 50.0869H60.7871V50.6735H61.3922V50.0869Z" fill="#3FE0C8"/>
<path d="M61.3922 50.9668H60.7871V51.5534H61.3922V50.9668Z" fill="#3FE0C8"/>
<path d="M61.3922 51.8474H60.7871V52.434H61.3922V51.8474Z" fill="#3FE0C8"/>
<path d="M61.3922 52.7275H60.7871V53.3141H61.3922V52.7275Z" fill="#4AD398"/>
<path d="M61.3922 53.6082H60.7871V54.1948H61.3922V53.6082Z" fill="#4AD398"/>
<path d="M61.3922 54.488H60.7871V55.0746H61.3922V54.488Z" fill="#4AD398"/>
<path d="M61.3922 55.3689H60.7871V55.9555H61.3922V55.3689Z" fill="#4AD398"/>
<path d="M61.3922 56.249H60.7871V56.8356H61.3922V56.249Z" fill="#4AD398"/>
<path d="M61.3922 57.1296H60.7871V57.7162H61.3922V57.1296Z" fill="#4AD398"/>
<path d="M61.3922 58.0107H60.7871V58.5973H61.3922V58.0107Z" fill="#4BC671"/>
<path d="M61.3922 58.8904H60.7871V59.477H61.3922V58.8904Z" fill="#4BC671"/>
<path d="M61.3922 59.7712H60.7871V60.3578H61.3922V59.7712Z" fill="#4BC671"/>
<path d="M60.484 37.7607H59.8789V38.3473H60.484V37.7607Z" fill="#3DC8F9"/>
<path d="M60.484 38.6406H59.8789V39.2272H60.484V38.6406Z" fill="#3DC8F9"/>
<path d="M60.484 39.5215H59.8789V40.1081H60.484V39.5215Z" fill="#3DC8F9"/>
<path d="M60.484 40.4014H59.8789V40.988H60.484V40.4014Z" fill="#3DC8F9"/>
<path d="M60.484 41.282H59.8789V41.8686H60.484V41.282Z" fill="#3DC8F9"/>
<path d="M60.484 42.1628H59.8789V42.7494H60.484V42.1628Z" fill="#3AF3FC"/>
<path d="M60.484 43.043H59.8789V43.6296H60.484V43.043Z" fill="#3AF3FC"/>
<path d="M60.484 43.9241H59.8789V44.5107H60.484V43.9241Z" fill="#3AF3FC"/>
<path d="M60.484 44.8035H59.8789V45.3901H60.484V44.8035Z" fill="#3AF3FC"/>
<path d="M60.484 45.6843H59.8789V46.2709H60.484V45.6843Z" fill="#3AF3FC"/>
<path d="M60.484 46.5645H59.8789V47.1511H60.484V46.5645Z" fill="#3AF3FC"/>
<path d="M60.484 47.4451H59.8789V48.0317H60.484V47.4451Z" fill="#3FE0C8"/>
<path d="M60.484 48.325H59.8789V48.9115H60.484V48.325Z" fill="#3FE0C8"/>
<path d="M60.484 49.2058H59.8789V49.7924H60.484V49.2058Z" fill="#3FE0C8"/>
<path d="M60.484 50.0869H59.8789V50.6735H60.484V50.0869Z" fill="#3FE0C8"/>
<path d="M60.484 50.9666H59.8789V51.5532H60.484V50.9666Z" fill="#3FE0C8"/>
<path d="M60.484 51.8474H59.8789V52.434H60.484V51.8474Z" fill="#3FE0C8"/>
<path d="M60.484 52.7273H59.8789V53.3139H60.484V52.7273Z" fill="#4AD398"/>
<path d="M60.484 58.0105H59.8789V58.5971H60.484V58.0105Z" fill="#4BC671"/>
<path d="M59.5758 36H58.9707V36.5866H59.5758V36Z" fill="#3DC8F9"/>
<path d="M59.5758 36.8801H58.9707V37.4667H59.5758V36.8801Z" fill="#3DC8F9"/>
<path d="M59.5758 37.761H58.9707V38.3476H59.5758V37.761Z" fill="#3DC8F9"/>
<path d="M59.5758 38.6406H58.9707V39.2272H59.5758V38.6406Z" fill="#3DC8F9"/>
<path d="M59.5758 39.5217H58.9707V40.1083H59.5758V39.5217Z" fill="#3DC8F9"/>
<path d="M59.5758 40.4014H58.9707V40.988H59.5758V40.4014Z" fill="#3DC8F9"/>
<path d="M59.5758 41.282H58.9707V41.8686H59.5758V41.282Z" fill="#3DC8F9"/>
<path d="M59.5758 42.1631H58.9707V42.7497H59.5758V42.1631Z" fill="#3AF3FC"/>
<path d="M59.5758 43.0432H58.9707V43.6298H59.5758V43.0432Z" fill="#3AF3FC"/>
<path d="M59.5758 43.9241H58.9707V44.5107H59.5758V43.9241Z" fill="#3AF3FC"/>
<path d="M59.5758 44.8035H58.9707V45.3901H59.5758V44.8035Z" fill="#3AF3FC"/>
<path d="M59.5758 45.6846H58.9707V46.2712H59.5758V45.6846Z" fill="#3AF3FC"/>
<path d="M59.5758 46.5647H58.9707V47.1513H59.5758V46.5647Z" fill="#3AF3FC"/>
<path d="M59.5758 47.4453H58.9707V48.0319H59.5758V47.4453Z" fill="#3FE0C8"/>
<path d="M59.5758 48.325H58.9707V48.9115H59.5758V48.325Z" fill="#3FE0C8"/>
<path d="M59.5758 49.2061H58.9707V49.7927H59.5758V49.2061Z" fill="#3FE0C8"/>
<path d="M59.5758 50.0869H58.9707V50.6735H59.5758V50.0869Z" fill="#3FE0C8"/>
<path d="M59.5758 50.9668H58.9707V51.5534H59.5758V50.9668Z" fill="#3FE0C8"/>
<path d="M59.5758 51.8474H58.9707V52.434H59.5758V51.8474Z" fill="#3FE0C8"/>
<path d="M58.6676 36H58.0625V36.5866H58.6676V36Z" fill="#3DC8F9"/>
<path d="M58.6676 36.8801H58.0625V37.4667H58.6676V36.8801Z" fill="#3DC8F9"/>
<path d="M58.6676 37.7607H58.0625V38.3473H58.6676V37.7607Z" fill="#3DC8F9"/>
<path d="M58.6676 38.6406H58.0625V39.2272H58.6676V38.6406Z" fill="#3DC8F9"/>
<path d="M58.6676 39.5215H58.0625V40.1081H58.6676V39.5215Z" fill="#3DC8F9"/>
<path d="M58.6676 40.4014H58.0625V40.988H58.6676V40.4014Z" fill="#3DC8F9"/>
<path d="M58.6676 41.282H58.0625V41.8686H58.6676V41.282Z" fill="#3DC8F9"/>
<path d="M58.6676 42.1628H58.0625V42.7494H58.6676V42.1628Z" fill="#3AF3FC"/>
<path d="M58.6676 43.043H58.0625V43.6296H58.6676V43.043Z" fill="#3AF3FC"/>
<path d="M58.6676 43.9241H58.0625V44.5107H58.6676V43.9241Z" fill="#3AF3FC"/>
<path d="M58.6676 44.8035H58.0625V45.3901H58.6676V44.8035Z" fill="#3AF3FC"/>
<path d="M58.6676 45.6843H58.0625V46.2709H58.6676V45.6843Z" fill="#3AF3FC"/>
<path d="M58.6676 46.5645H58.0625V47.1511H58.6676V46.5645Z" fill="#3AF3FC"/>
<path d="M58.6676 47.4451H58.0625V48.0317H58.6676V47.4451Z" fill="#3FE0C8"/>
<path d="M58.6676 48.325H58.0625V48.9115H58.6676V48.325Z" fill="#3FE0C8"/>
<path d="M58.6676 50.0869H58.0625V50.6735H58.6676V50.0869Z" fill="#3FE0C8"/>
<path d="M57.7594 36H57.1543V36.5866H57.7594V36Z" fill="#3DC8F9"/>
<path d="M57.7594 36.8801H57.1543V37.4667H57.7594V36.8801Z" fill="#3DC8F9"/>
<path d="M57.7594 37.7607H57.1543V38.3473H57.7594V37.7607Z" fill="#3DC8F9"/>
<path d="M57.7594 38.6406H57.1543V39.2272H57.7594V38.6406Z" fill="#3DC8F9"/>
<path d="M57.7594 39.5215H57.1543V40.1081H57.7594V39.5215Z" fill="#3DC8F9"/>
<path d="M57.7594 40.4014H57.1543V40.988H57.7594V40.4014Z" fill="#3DC8F9"/>
<path d="M57.7594 41.282H57.1543V41.8686H57.7594V41.282Z" fill="#3DC8F9"/>
<path d="M57.7594 42.1628H57.1543V42.7494H57.7594V42.1628Z" fill="#3AF3FC"/>
<path d="M57.7594 43.043H57.1543V43.6296H57.7594V43.043Z" fill="#3AF3FC"/>
<path d="M57.7594 43.9241H57.1543V44.5107H57.7594V43.9241Z" fill="#3AF3FC"/>
<path d="M57.7594 44.8035H57.1543V45.3901H57.7594V44.8035Z" fill="#3AF3FC"/>
<path d="M57.7594 45.6843H57.1543V46.2709H57.7594V45.6843Z" fill="#3AF3FC"/>
<path d="M57.7594 46.5645H57.1543V47.1511H57.7594V46.5645Z" fill="#3AF3FC"/>
<path d="M57.7594 47.4451H57.1543V48.0317H57.7594V47.4451Z" fill="#3FE0C8"/>
<path d="M57.7594 48.325H57.1543V48.9115H57.7594V48.325Z" fill="#3FE0C8"/>
<path d="M56.8531 36H56.248V36.5866H56.8531V36Z" fill="#3DC8F9"/>
<path d="M56.8531 36.8801H56.248V37.4667H56.8531V36.8801Z" fill="#3DC8F9"/>
<path d="M56.8531 37.7607H56.248V38.3473H56.8531V37.7607Z" fill="#3DC8F9"/>
<path d="M56.8531 38.6406H56.248V39.2272H56.8531V38.6406Z" fill="#3DC8F9"/>
<path d="M56.8531 39.5215H56.248V40.1081H56.8531V39.5215Z" fill="#3DC8F9"/>
<path d="M56.8531 40.4014H56.248V40.988H56.8531V40.4014Z" fill="#3DC8F9"/>
<path d="M56.8531 41.282H56.248V41.8686H56.8531V41.282Z" fill="#3DC8F9"/>
<path d="M56.8531 42.1628H56.248V42.7494H56.8531V42.1628Z" fill="#3AF3FC"/>
<path d="M56.8531 43.043H56.248V43.6296H56.8531V43.043Z" fill="#3AF3FC"/>
<path d="M56.8531 43.9241H56.248V44.5107H56.8531V43.9241Z" fill="#3AF3FC"/>
<path d="M56.8531 44.8035H56.248V45.3901H56.8531V44.8035Z" fill="#3AF3FC"/>
<path d="M56.8531 45.6843H56.248V46.2709H56.8531V45.6843Z" fill="#3AF3FC"/>
<path d="M56.8531 46.5645H56.248V47.1511H56.8531V46.5645Z" fill="#3AF3FC"/>
<path d="M56.8531 47.4451H56.248V48.0317H56.8531V47.4451Z" fill="#3FE0C8"/>
<path d="M55.943 36H55.3379V36.5866H55.943V36Z" fill="#3DC8F9"/>
<path d="M55.943 36.8801H55.3379V37.4667H55.943V36.8801Z" fill="#3DC8F9"/>
<path d="M55.943 37.7607H55.3379V38.3473H55.943V37.7607Z" fill="#3DC8F9"/>
<path d="M55.943 38.6406H55.3379V39.2272H55.943V38.6406Z" fill="#3DC8F9"/>
<path d="M55.943 39.5215H55.3379V40.1081H55.943V39.5215Z" fill="#3DC8F9"/>
<path d="M55.943 40.4014H55.3379V40.988H55.943V40.4014Z" fill="#3DC8F9"/>
<path d="M55.943 41.282H55.3379V41.8686H55.943V41.282Z" fill="#3DC8F9"/>
<path d="M55.943 42.1628H55.3379V42.7494H55.943V42.1628Z" fill="#3AF3FC"/>
<path d="M55.943 43.043H55.3379V43.6296H55.943V43.043Z" fill="#3AF3FC"/>
<path d="M55.943 43.9241H55.3379V44.5107H55.943V43.9241Z" fill="#3AF3FC"/>
<path d="M55.943 44.8035H55.3379V45.3901H55.943V44.8035Z" fill="#3AF3FC"/>
<path d="M55.943 45.6843H55.3379V46.2709H55.943V45.6843Z" fill="#3AF3FC"/>
<path d="M55.943 46.5645H55.3379V47.1511H55.943V46.5645Z" fill="#3AF3FC"/>
<path d="M55.943 47.4451H55.3379V48.0317H55.943V47.4451Z" fill="#3FE0C8"/>
<path d="M55.0357 36H54.4307V36.5866H55.0357V36Z" fill="#3DC8F9"/>
<path d="M55.0357 36.8801H54.4307V37.4667H55.0357V36.8801Z" fill="#3DC8F9"/>
<path d="M55.0357 37.7607H54.4307V38.3473H55.0357V37.7607Z" fill="#3DC8F9"/>
<path d="M55.0357 38.6406H54.4307V39.2272H55.0357V38.6406Z" fill="#3DC8F9"/>
<path d="M55.0357 39.5215H54.4307V40.1081H55.0357V39.5215Z" fill="#3DC8F9"/>
<path d="M55.0357 40.4014H54.4307V40.988H55.0357V40.4014Z" fill="#3DC8F9"/>
<path d="M55.0357 41.282H54.4307V41.8686H55.0357V41.282Z" fill="#3DC8F9"/>
<path d="M55.0357 42.1628H54.4307V42.7494H55.0357V42.1628Z" fill="#3AF3FC"/>
<path d="M55.0357 43.043H54.4307V43.6296H55.0357V43.043Z" fill="#3AF3FC"/>
<path d="M55.0357 43.9241H54.4307V44.5107H55.0357V43.9241Z" fill="#3AF3FC"/>
<path d="M55.0357 44.8035H54.4307V45.3901H55.0357V44.8035Z" fill="#3AF3FC"/>
<path d="M55.0357 45.6843H54.4307V46.2709H55.0357V45.6843Z" fill="#3AF3FC"/>
<path d="M55.0357 46.5645H54.4307V47.1511H55.0357V46.5645Z" fill="#3AF3FC"/>
<path d="M55.0357 47.4451H54.4307V48.0317H55.0357V47.4451Z" fill="#3FE0C8"/>
<path d="M55.0357 48.325H54.4307V48.9115H55.0357V48.325Z" fill="#3FE0C8"/>
<path d="M54.1266 36H53.5215V36.5866H54.1266V36Z" fill="#3DC8F9"/>
<path d="M54.1266 36.8801H53.5215V37.4667H54.1266V36.8801Z" fill="#3DC8F9"/>
<path d="M54.1266 37.7607H53.5215V38.3473H54.1266V37.7607Z" fill="#3DC8F9"/>
<path d="M54.1266 38.6406H53.5215V39.2272H54.1266V38.6406Z" fill="#3DC8F9"/>
<path d="M54.1266 39.5215H53.5215V40.1081H54.1266V39.5215Z" fill="#3DC8F9"/>
<path d="M54.1266 40.4014H53.5215V40.988H54.1266V40.4014Z" fill="#3DC8F9"/>
<path d="M54.1266 41.282H53.5215V41.8686H54.1266V41.282Z" fill="#3DC8F9"/>
<path d="M54.1266 42.1628H53.5215V42.7494H54.1266V42.1628Z" fill="#3AF3FC"/>
<path d="M54.1266 43.043H53.5215V43.6296H54.1266V43.043Z" fill="#3AF3FC"/>
<path d="M54.1266 43.9241H53.5215V44.5107H54.1266V43.9241Z" fill="#3AF3FC"/>
<path d="M54.1266 44.8035H53.5215V45.3901H54.1266V44.8035Z" fill="#3AF3FC"/>
<path d="M54.1266 45.6843H53.5215V46.2709H54.1266V45.6843Z" fill="#3AF3FC"/>
<path d="M54.1266 46.5645H53.5215V47.1511H54.1266V46.5645Z" fill="#3AF3FC"/>
<path d="M54.1266 47.4451H53.5215V48.0317H54.1266V47.4451Z" fill="#3FE0C8"/>
<path d="M54.1266 48.325H53.5215V48.9115H54.1266V48.325Z" fill="#3FE0C8"/>
<path d="M53.2193 36.8801H52.6143V37.4667H53.2193V36.8801Z" fill="#3DC8F9"/>
<path d="M53.2193 37.7607H52.6143V38.3473H53.2193V37.7607Z" fill="#3DC8F9"/>
<path d="M53.2193 38.6406H52.6143V39.2272H53.2193V38.6406Z" fill="#3DC8F9"/>
<path d="M53.2193 39.5215H52.6143V40.1081H53.2193V39.5215Z" fill="#3DC8F9"/>
<path d="M53.2193 40.4014H52.6143V40.988H53.2193V40.4014Z" fill="#3DC8F9"/>
<path d="M53.2193 41.282H52.6143V41.8686H53.2193V41.282Z" fill="#3DC8F9"/>
<path d="M53.2193 42.1628H52.6143V42.7494H53.2193V42.1628Z" fill="#3AF3FC"/>
<path d="M53.2193 43.043H52.6143V43.6296H53.2193V43.043Z" fill="#3AF3FC"/>
<path d="M53.2193 43.9241H52.6143V44.5107H53.2193V43.9241Z" fill="#3AF3FC"/>
<path d="M53.2193 44.8035H52.6143V45.3901H53.2193V44.8035Z" fill="#3AF3FC"/>
<path d="M53.2193 45.6843H52.6143V46.2709H53.2193V45.6843Z" fill="#3AF3FC"/>
<path d="M53.2193 46.5645H52.6143V47.1511H53.2193V46.5645Z" fill="#3AF3FC"/>
<path d="M53.2193 47.4451H52.6143V48.0317H53.2193V47.4451Z" fill="#3FE0C8"/>
<path d="M53.2193 48.325H52.6143V48.9115H53.2193V48.325Z" fill="#3FE0C8"/>
<path d="M52.3111 37.761H51.7061V38.3476H52.3111V37.761Z" fill="#3DC8F9"/>
<path d="M52.3111 38.6406H51.7061V39.2272H52.3111V38.6406Z" fill="#3DC8F9"/>
<path d="M52.3111 39.5217H51.7061V40.1083H52.3111V39.5217Z" fill="#3DC8F9"/>
<path d="M52.3111 40.4014H51.7061V40.988H52.3111V40.4014Z" fill="#3DC8F9"/>
<path d="M52.3111 41.282H51.7061V41.8686H52.3111V41.282Z" fill="#3DC8F9"/>
<path d="M52.3111 42.1631H51.7061V42.7497H52.3111V42.1631Z" fill="#3AF3FC"/>
<path d="M52.3111 43.0432H51.7061V43.6298H52.3111V43.0432Z" fill="#3AF3FC"/>
<path d="M52.3111 43.9241H51.7061V44.5107H52.3111V43.9241Z" fill="#3AF3FC"/>
<path d="M52.3111 44.8035H51.7061V45.3901H52.3111V44.8035Z" fill="#3AF3FC"/>
<path d="M52.3111 45.6846H51.7061V46.2712H52.3111V45.6846Z" fill="#3AF3FC"/>
<path d="M52.3111 46.5647H51.7061V47.1513H52.3111V46.5647Z" fill="#3AF3FC"/>
<path d="M52.3111 47.4453H51.7061V48.0319H52.3111V47.4453Z" fill="#3FE0C8"/>
<path d="M52.3111 48.325H51.7061V48.9115H52.3111V48.325Z" fill="#3FE0C8"/>
<path d="M51.4019 38.6406H50.7969V39.2272H51.4019V38.6406Z" fill="#3DC8F9"/>
<path d="M51.4019 39.5215H50.7969V40.1081H51.4019V39.5215Z" fill="#3DC8F9"/>
<path d="M51.4019 40.4014H50.7969V40.988H51.4019V40.4014Z" fill="#3DC8F9"/>
<path d="M51.4019 41.282H50.7969V41.8686H51.4019V41.282Z" fill="#3DC8F9"/>
<path d="M51.4019 42.1628H50.7969V42.7494H51.4019V42.1628Z" fill="#3AF3FC"/>
<path d="M51.4019 43.043H50.7969V43.6296H51.4019V43.043Z" fill="#3AF3FC"/>
<path d="M51.4019 43.9241H50.7969V44.5107H51.4019V43.9241Z" fill="#3AF3FC"/>
<path d="M51.4019 44.8035H50.7969V45.3901H51.4019V44.8035Z" fill="#3AF3FC"/>
<path d="M51.4019 45.6843H50.7969V46.2709H51.4019V45.6843Z" fill="#3AF3FC"/>
<path d="M51.4019 46.5645H50.7969V47.1511H51.4019V46.5645Z" fill="#3AF3FC"/>
<path d="M51.4019 47.4451H50.7969V48.0317H51.4019V47.4451Z" fill="#3FE0C8"/>
<path d="M51.4019 48.325H50.7969V48.9115H51.4019V48.325Z" fill="#3FE0C8"/>
<path d="M50.4947 39.5215H49.8896V40.1081H50.4947V39.5215Z" fill="#3DC8F9"/>
<path d="M50.4947 40.4014H49.8896V40.988H50.4947V40.4014Z" fill="#3DC8F9"/>
<path d="M50.4947 41.282H49.8896V41.8686H50.4947V41.282Z" fill="#3DC8F9"/>
<path d="M50.4947 42.1628H49.8896V42.7494H50.4947V42.1628Z" fill="#3AF3FC"/>
<path d="M50.4947 43.043H49.8896V43.6296H50.4947V43.043Z" fill="#3AF3FC"/>
<path d="M50.4947 43.9241H49.8896V44.5107H50.4947V43.9241Z" fill="#3AF3FC"/>
<path d="M50.4947 44.8035H49.8896V45.3901H50.4947V44.8035Z" fill="#3AF3FC"/>
<path d="M50.4947 45.6843H49.8896V46.2709H50.4947V45.6843Z" fill="#3AF3FC"/>
<path d="M50.4947 46.5645H49.8896V47.1511H50.4947V46.5645Z" fill="#3AF3FC"/>
<path d="M50.4947 47.4451H49.8896V48.0317H50.4947V47.4451Z" fill="#3FE0C8"/>
<path d="M49.5875 40.4014H48.9824V40.988H49.5875V40.4014Z" fill="#3DC8F9"/>
<path d="M49.5875 41.282H48.9824V41.8686H49.5875V41.282Z" fill="#3DC8F9"/>
<path d="M49.5875 42.1631H48.9824V42.7497H49.5875V42.1631Z" fill="#3AF3FC"/>
<path d="M49.5875 43.0432H48.9824V43.6298H49.5875V43.0432Z" fill="#3AF3FC"/>
<path d="M49.5875 43.9241H48.9824V44.5107H49.5875V43.9241Z" fill="#3AF3FC"/>
<path d="M49.5875 44.8035H48.9824V45.3901H49.5875V44.8035Z" fill="#3AF3FC"/>
<path d="M49.5875 45.6846H48.9824V46.2712H49.5875V45.6846Z" fill="#3AF3FC"/>
<path d="M49.5875 46.5647H48.9824V47.1513H49.5875V46.5647Z" fill="#3AF3FC"/>
<path d="M49.5875 47.4453H48.9824V48.0319H49.5875V47.4453Z" fill="#3FE0C8"/>
<path d="M48.6783 41.2822H48.0732V41.8688H48.6783V41.2822Z" fill="#3DC8F9"/>
<path d="M48.6783 42.1628H48.0732V42.7494H48.6783V42.1628Z" fill="#3AF3FC"/>
<path d="M48.6783 43.043H48.0732V43.6296H48.6783V43.043Z" fill="#3AF3FC"/>
<path d="M48.6783 43.9236H48.0732V44.5102H48.6783V43.9236Z" fill="#3AF3FC"/>
<path d="M48.6783 44.8037H48.0732V45.3903H48.6783V44.8037Z" fill="#3AF3FC"/>
<path d="M48.6783 45.6843H48.0732V46.2709H48.6783V45.6843Z" fill="#3AF3FC"/>
<path d="M74.2389 62.2622H73.6338V62.8488H74.2389V62.2622Z" fill="#39B54A"/>
<path d="M75.9498 63.1396H75.3447V63.7262H75.9498V63.1396Z" fill="#39B54A"/>
<path d="M75.1236 59.6116H74.5186V60.1982H75.1236V59.6116Z" fill="#4BC671"/>
<path d="M76.0182 59.6116H75.4131V60.1982H76.0182V59.6116Z" fill="#4BC671"/>
<path d="M76.9342 58.7346H76.3291V59.3212H76.9342V58.7346Z" fill="#4BC671"/>
<path d="M76.0182 61.375H75.4131V61.9616H76.0182V61.375Z" fill="#4BC671"/>
<path d="M76.023 60.502H75.418V61.0886H76.023V60.502Z" fill="#4BC671"/>
<path d="M75.1139 60.5017H74.5088V61.0883H75.1139V60.5017Z" fill="#4BC671"/>
<path d="M75.1139 61.3816H74.5088V61.9682H75.1139V61.3816Z" fill="#4BC671"/>
<path d="M75.1139 62.2622H74.5088V62.8488H75.1139V62.2622Z" fill="#39B54A"/>
<path d="M75.1139 63.1423H74.5088V63.7289H75.1139V63.1423Z" fill="#39B54A"/>
<path d="M55.5933 53.0059C55.7254 52.8658 55.8613 52.7275 56.0145 52.604C56.1668 52.4796 56.3286 52.358 56.5267 52.2745C56.5765 52.2541 56.6292 52.2374 56.6818 52.2188C56.7383 52.2077 56.7929 52.191 56.8522 52.1863C56.971 52.1733 57.1002 52.1854 57.2228 52.2281C57.3415 52.2736 57.4544 52.3432 57.5377 52.4267C57.6277 52.5084 57.6938 52.6003 57.7551 52.6922C57.9848 53.0653 58.0902 53.4524 58.1849 53.8329C58.2788 54.2144 58.3372 54.5949 58.3946 54.9727C58.5028 55.7301 58.5765 56.4809 58.6541 57.2263C58.7297 57.9716 58.8101 58.7113 58.9078 59.4427C59.0093 60.1732 59.1261 60.8953 59.2936 61.597C59.4554 62.2987 59.667 62.9818 59.9485 63.6139C60.0892 63.9304 60.2539 64.2302 60.4348 64.5123L60.5755 64.7193L60.7249 64.9179L60.8924 65.1184L60.9748 65.2196L61.0619 65.3152L61.2361 65.5073L61.42 65.6874C61.4803 65.7486 61.5435 65.8053 61.6076 65.8619C61.6718 65.9166 61.7321 65.9788 61.8001 66.0289L61.9992 66.1858L62.206 66.3306C62.273 66.3826 62.3467 66.4216 62.4176 66.467L62.5248 66.5339L62.6359 66.5923C63.2247 66.9126 63.8862 67.0991 64.5842 67.1316C65.2821 67.1678 66.0068 67.049 66.7076 66.8235C67.4104 66.5979 68.0892 66.2647 68.7153 65.8517C68.8733 65.7505 69.0207 65.6326 69.1739 65.524C69.329 65.4164 69.4726 65.2948 69.6172 65.1732C69.7617 65.0516 69.9073 64.9319 70.0422 64.7991C70.1792 64.6692 70.3209 64.543 70.4511 64.4065L70.8417 63.9944C70.9719 63.857 71.0896 63.7085 71.2141 63.5656L71.397 63.3493L71.5731 63.1266C71.689 62.9771 71.8077 62.8296 71.9187 62.6764L72.2519 62.217C72.363 62.0638 72.4645 61.9042 72.5707 61.7483C72.7861 61.4373 72.9814 61.1134 73.1835 60.7941C73.2821 60.6335 73.3788 60.4702 73.4745 60.3078C73.5712 60.1453 73.6669 59.9829 73.7598 59.8177C73.9455 59.4891 74.1284 59.1578 74.3074 58.8255C74.6712 58.1637 75.0102 57.4871 75.3558 56.8151L75.8689 55.8025L76.1255 55.2957C76.2088 55.1295 76.2892 54.9653 76.3649 54.7973C76.5161 54.4631 76.6502 54.1225 76.7612 53.78C76.8761 53.4384 76.9671 53.0922 77.0188 52.7525C77.0446 52.5836 77.059 52.4156 77.0571 52.2578C77.0571 52.1019 77.037 51.9524 76.9996 51.8559C76.9824 51.8076 76.9604 51.777 76.9498 51.7705C76.947 51.7705 76.9451 51.7705 76.9451 51.7677C76.9441 51.7687 76.9441 51.7705 76.9451 51.7696C76.9441 51.7714 76.947 51.7733 76.9451 51.7724C76.9374 51.7705 76.9297 51.7687 76.9221 51.7659C76.8934 51.7594 76.8704 51.7585 76.8397 51.7612C76.8091 51.765 76.7679 51.7798 76.722 51.8002C76.6262 51.8457 76.5114 51.9311 76.4003 52.0397C76.2892 52.1474 76.1811 52.2736 76.0786 52.4091C75.8728 52.681 75.689 52.9883 75.5195 53.3048C75.1806 53.9406 74.8972 54.62 74.6435 55.3096C74.3879 56.0002 74.1648 56.7046 73.9676 57.4165C73.5779 58.8422 73.2629 60.2901 73.06 61.7473C73.0083 62.1112 72.9652 62.4759 72.9307 62.8407C72.8962 63.2092 72.8742 63.5573 72.8713 63.9137C72.8675 64.2673 72.8876 64.6181 72.9355 64.9606C72.9834 65.3031 73.0542 65.6382 73.1633 65.9538C73.3778 66.5849 73.7569 67.1372 74.2931 67.449C74.5592 67.6059 74.8618 67.7071 75.1825 67.7405C75.5032 67.7767 75.8402 67.746 76.1715 67.6681C76.835 67.5029 77.4707 67.1474 78.0164 66.6842C78.5602 66.2164 79.0255 65.6465 79.3979 65.02C80.1447 63.7605 80.519 62.2875 80.6052 60.795C80.6071 60.7644 80.6339 60.7403 80.6655 60.7421C80.6942 60.744 80.7172 60.7663 80.7191 60.7941C80.743 61.1719 80.7536 61.5515 80.7382 61.932C80.7201 62.3126 80.6818 62.6931 80.6176 63.0718C80.4893 63.8283 80.2605 64.5764 79.9158 65.2808C79.5731 65.9862 79.1174 66.6508 78.5353 67.217C77.9532 67.7795 77.2466 68.2575 76.4156 68.5062C76.0011 68.6269 75.5568 68.6937 75.1049 68.6668C74.654 68.6417 74.1954 68.5229 73.7895 68.3048C73.5884 68.1953 73.395 68.0681 73.2246 67.9196C73.1346 67.8491 73.059 67.7665 72.9776 67.6894C72.9039 67.6059 72.8244 67.5261 72.7593 67.4379C72.4836 67.0917 72.2758 66.7093 72.1255 66.3176C71.822 65.5324 71.7129 64.7184 71.6966 63.9248C71.6928 63.8255 71.6938 63.7262 71.6947 63.6269C71.6966 63.5275 71.6947 63.4282 71.7005 63.3298L71.7139 63.0347L71.734 62.746C71.7636 62.3618 71.8029 61.9794 71.8508 61.5979C72.048 60.0739 72.3687 58.573 72.812 57.1037C73.26 55.6354 73.7866 54.1865 74.5688 52.8073C74.7679 52.4639 74.9834 52.1242 75.2466 51.7965C75.3788 51.6332 75.5224 51.4726 75.6909 51.3194C75.8584 51.1672 76.0547 51.0196 76.3122 50.9092C76.4434 50.8563 76.5879 50.8117 76.7517 50.7997C76.9144 50.7876 77.0867 50.8089 77.2418 50.8619C77.2801 50.8758 77.3175 50.8906 77.3548 50.9064C77.396 50.9259 77.441 50.9519 77.4822 50.976C77.5214 51.0039 77.5607 51.0326 77.597 51.0633C77.6305 51.0948 77.6631 51.1282 77.6928 51.1616C77.8086 51.299 77.8718 51.442 77.912 51.5719C77.9905 51.8346 77.9972 52.0657 77.9848 52.2838C77.9714 52.5019 77.9379 52.708 77.8929 52.9084C77.711 53.7057 77.3855 54.4214 77.0054 55.1026C76.9106 55.2725 76.8101 55.4405 76.7086 55.6048L76.4089 56.0883L75.8096 57.0555L74.6071 58.9898L74.3046 59.4724L73.9972 59.9523C73.7981 60.2753 73.5836 60.5899 73.3816 60.9111C72.9623 61.5459 72.5382 62.1771 72.0892 62.7934C71.6344 63.406 71.1691 64.0121 70.6588 64.5875C70.1476 65.1611 69.599 65.7078 68.9977 66.2109C68.3907 66.7074 67.7254 67.1483 66.9939 67.4964C66.2644 67.8426 65.4583 68.0913 64.6043 68.1572C64.1782 68.1916 63.7416 68.1711 63.3099 68.1025C62.88 68.0273 62.4559 67.9038 62.0576 67.7275C61.2543 67.3813 60.5621 66.8476 59.9925 66.2443C59.8431 66.0967 59.7168 65.9352 59.5818 65.7793L59.3865 65.524L59.2055 65.2614C58.9738 64.9077 58.7862 64.5355 58.6225 64.1606C58.295 63.4097 58.0921 62.6356 57.9398 61.8671C57.8652 61.4819 57.8087 61.0967 57.7608 60.7124C57.712 60.3282 57.6766 59.9448 57.6517 59.5624C57.5971 58.7976 57.5789 58.0375 57.5712 57.2819L57.5674 56.1533C57.5693 55.7783 57.5674 55.4052 57.5617 55.0349C57.5569 54.6645 57.5435 54.2961 57.5138 53.935C57.4994 53.754 57.4765 53.5767 57.4449 53.4041C57.4142 53.2314 57.374 53.0635 57.3118 52.9159C57.2486 52.7692 57.1691 52.6449 57.059 52.5771C56.9499 52.5121 56.791 52.4954 56.6206 52.5381C56.4511 52.5771 56.2778 52.6523 56.1112 52.7395C55.9427 52.8258 55.7828 52.9307 55.6201 53.0347C55.6105 53.0412 55.5981 53.0384 55.5914 53.0291C55.5856 53.0217 55.5875 53.0115 55.5933 53.005V53.0059Z" fill="#288DD1"/>
<path d="M22.8495 77.173H24.6791V82.8711C24.6791 83.8774 24.9536 84.8053 26.3389 84.8053C27.6981 84.8053 27.9595 83.9297 27.9595 82.8711V77.173H29.8022V82.9103C29.8022 84.7922 29.005 86.2559 26.2997 86.2559C23.6336 86.2559 22.8495 84.8314 22.8495 82.9233V77.173ZM31.4671 86.1252V81.4727C31.4671 80.0874 31.454 79.6692 31.4409 79.3686H33.166C33.1922 79.4862 33.2314 79.9175 33.2314 80.2442C33.5058 79.7214 34.1462 79.2379 35.1133 79.2379C36.5248 79.2379 37.2436 80.1396 37.2436 81.6949V86.1252H35.4662V82.0346C35.4662 81.2766 35.2832 80.7016 34.4337 80.7016C33.6365 80.7016 33.2314 81.1721 33.2314 82.3614V86.1252H31.4671ZM39.0639 86.1252V79.3686H40.8282V86.1252H39.0639ZM39.0639 78.2577V76.6241H40.8282V78.2577H39.0639ZM49.2535 83.6813H49.9853C49.5671 85.132 48.4824 86.2429 46.5482 86.2429C43.9082 86.2429 42.5229 84.1518 42.5229 81.5772C42.5229 79.1072 43.8821 76.8593 46.5612 76.8593C48.5347 76.8593 49.6978 77.9571 49.9984 79.4862H49.2665C48.8614 78.31 48.0903 77.5258 46.522 77.5258C44.2611 77.5258 43.3071 79.5907 43.3071 81.5642C43.3071 83.5114 44.248 85.5633 46.5743 85.5633C48.0511 85.5633 48.8091 84.7922 49.2535 83.6813ZM52.492 86.1252H51.8124V76.5065H52.492V86.1252ZM57.1687 79.4339C58.9199 79.4339 60.07 80.7931 60.07 82.8449C60.07 84.6746 59.0506 86.2821 57.1033 86.2821C55.339 86.2821 54.2281 84.8314 54.2281 82.858C54.2281 80.9891 55.2737 79.4339 57.1687 79.4339ZM57.1295 80.0743C55.6527 80.0743 54.9469 81.3028 54.9469 82.858C54.9469 84.4132 55.7834 85.6548 57.1556 85.6548C58.554 85.6548 59.3512 84.5047 59.3512 82.858C59.3512 81.3289 58.5671 80.0743 57.1295 80.0743ZM66.7257 79.5907V84.2172C66.7257 84.8576 66.7387 85.8769 66.7387 86.1252H66.0853C66.0592 85.9553 66.0461 85.5371 66.0461 85.0013C65.7716 85.7724 65.1051 86.2821 63.942 86.2821C63.001 86.2821 61.7987 85.9161 61.7987 83.9166V79.5907H62.4652V83.7598C62.4652 84.7138 62.7658 85.6286 64.0465 85.6286C65.4972 85.6286 66.0461 84.8183 66.0461 82.9625V79.5907H66.7257ZM73.3786 76.5065H74.0582V84.2564C74.0582 84.8837 74.0582 85.4849 74.0713 86.1252H73.4178C73.3917 85.9684 73.3786 85.3672 73.3786 85.0405C73.0519 85.8377 72.32 86.2821 71.183 86.2821C69.4841 86.2821 68.4647 84.9098 68.4647 82.9364C68.4647 80.9238 69.5755 79.4339 71.366 79.4339C72.6598 79.4339 73.1826 79.9959 73.3786 80.4141V76.5065ZM71.3399 80.0743C70.0591 80.0743 69.1835 81.0937 69.1835 82.9103C69.1835 84.6877 70.1114 85.6548 71.2222 85.6548C72.9473 85.6548 73.4048 84.4655 73.4048 82.7142C73.4048 81.0283 73.0127 80.0743 71.3399 80.0743Z" fill="#288DD1"/>
<path d="M78.4934 77.3234H80.4407L81.9305 86.4717H80.4929L80.2315 84.6551V84.6812H78.5979L78.3365 86.4717H77.0035L78.4934 77.3234ZM80.0617 83.4397L79.4213 78.9178H79.3951L78.7678 83.4397H80.0617ZM82.8894 77.3234H86.6924V78.6303H84.3269V81.1787H86.1827V82.4856H84.3269V86.4717H82.8894V77.3234ZM87.6432 77.3234H89.7734C90.514 77.3234 91.0542 77.4976 91.394 77.8461C91.7338 78.1859 91.9037 78.7131 91.9037 79.4275V79.9895C91.9037 80.9391 91.59 81.5403 90.9627 81.793V81.8191C91.3112 81.9237 91.5552 82.1371 91.6946 82.4595C91.8427 82.7819 91.9168 83.2131 91.9168 83.7533V85.3608C91.9168 85.6222 91.9255 85.8357 91.9429 86.0012C91.9603 86.158 92.0039 86.3149 92.0736 86.4717H90.6099C90.5576 86.3236 90.5227 86.1842 90.5053 86.0535C90.4879 85.9228 90.4792 85.6875 90.4792 85.3477V83.6749C90.4792 83.2567 90.4095 82.9648 90.2701 82.7993C90.1394 82.6338 89.9085 82.551 89.5774 82.551H89.0808V86.4717H87.6432V77.3234ZM89.6036 81.2441C89.8911 81.2441 90.1045 81.17 90.2439 81.0219C90.392 80.8738 90.4661 80.6255 90.4661 80.277V79.5712C90.4661 79.2402 90.4051 79.0006 90.2831 78.8525C90.1699 78.7043 89.9869 78.6303 89.7342 78.6303H89.0808V81.2441H89.6036ZM93.1756 77.3234H94.6132V86.4717H93.1756V77.3234ZM97.9769 86.6024C97.2886 86.6024 96.7615 86.4063 96.3955 86.0143C96.0383 85.6222 95.8597 85.0689 95.8597 84.3545V79.4406C95.8597 78.7261 96.0383 78.1729 96.3955 77.7808C96.7615 77.3887 97.2886 77.1927 97.9769 77.1927C98.6652 77.1927 99.188 77.3887 99.5452 77.7808C99.9111 78.1729 100.094 78.7261 100.094 79.4406V80.4077H98.7349V79.3491C98.7349 78.7828 98.4953 78.4996 98.0161 78.4996C97.5369 78.4996 97.2973 78.7828 97.2973 79.3491V84.4591C97.2973 85.0167 97.5369 85.2955 98.0161 85.2955C98.4953 85.2955 98.7349 85.0167 98.7349 84.4591V83.0607H100.094V84.3545C100.094 85.0689 99.9111 85.6222 99.5452 86.0143C99.188 86.4063 98.6652 86.6024 97.9769 86.6024ZM102.326 77.3234H104.274L105.764 86.4717H104.326L104.065 84.6551V84.6812H102.431L102.17 86.4717H100.837L102.326 77.3234ZM103.895 83.4397L103.254 78.9178H103.228L102.601 83.4397H103.895Z" fill="#39B448"/>
<path d="M23.2891 90.8083H106.211" stroke="#39B448" stroke-width="0.65345" stroke-miterlimit="10"/>
</svg>
