<svg width="85" height="56" viewBox="0 0 85 56" fill="none" xmlns="http://www.w3.org/2000/svg">
<path d="M54.8297 10.5645H54.2246V11.1511H54.8297V10.5645Z" fill="#3AF3FC"/>
<path d="M53.9225 10.5645H53.3174V11.1511H53.9225V10.5645Z" fill="#3AF3FC"/>
<path d="M53.9225 11.4451H53.3174V12.0317H53.9225V11.4451Z" fill="#3FE0C8"/>
<path d="M53.9225 12.325H53.3174V12.9115H53.9225V12.325Z" fill="#3FE0C8"/>
<path d="M54.9303 22.741H54.3252V23.3276H54.9303V22.741Z" fill="#4BC671"/>
<path d="M53.0143 11.4453H52.4092V12.0319H53.0143V11.4453Z" fill="#3FE0C8"/>
<path d="M53.0143 12.325H52.4092V12.9115H53.0143V12.325Z" fill="#3FE0C8"/>
<path d="M53.0143 13.2061H52.4092V13.7927H53.0143V13.2061Z" fill="#3FE0C8"/>
<path d="M54.023 23.6208H53.418V24.2074H54.023V23.6208Z" fill="#4BC671"/>
<path d="M54.023 25.3816H53.418V25.9682H54.023V25.3816Z" fill="#4BC671"/>
<path d="M54.023 27.1423H53.418V27.7289H54.023V27.1423Z" fill="#39B54A"/>
<path d="M52.106 11.4451H51.501V12.0317H52.106V11.4451Z" fill="#3FE0C8"/>
<path d="M52.106 12.325H51.501V12.9115H52.106V12.325Z" fill="#3FE0C8"/>
<path d="M52.106 13.2058H51.501V13.7924H52.106V13.2058Z" fill="#3FE0C8"/>
<path d="M52.106 14.0869H51.501V14.6735H52.106V14.0869Z" fill="#3FE0C8"/>
<path d="M51.1988 9.68433H50.5938V10.2709H51.1988V9.68433Z" fill="#3AF3FC"/>
<path d="M51.1988 10.5645H50.5938V11.1511H51.1988V10.5645Z" fill="#3AF3FC"/>
<path d="M51.1988 11.4451H50.5938V12.0317H51.1988V11.4451Z" fill="#3FE0C8"/>
<path d="M51.1988 12.325H50.5938V12.9115H51.1988V12.325Z" fill="#3FE0C8"/>
<path d="M51.1988 13.2058H50.5938V13.7924H51.1988V13.2058Z" fill="#3FE0C8"/>
<path d="M51.1988 14.0869H50.5938V14.6735H51.1988V14.0869Z" fill="#3FE0C8"/>
<path d="M51.1988 14.9666H50.5938V15.5532H51.1988V14.9666Z" fill="#3FE0C8"/>
<path d="M52.2057 26.2622H51.6006V26.8488H52.2057V26.2622Z" fill="#39B54A"/>
<path d="M50.2887 8.80347H49.6836V9.39007H50.2887V8.80347Z" fill="#3AF3FC"/>
<path d="M50.2887 9.68433H49.6836V10.2709H50.2887V9.68433Z" fill="#3AF3FC"/>
<path d="M50.2887 10.5645H49.6836V11.1511H50.2887V10.5645Z" fill="#3AF3FC"/>
<path d="M50.2887 11.4451H49.6836V12.0317H50.2887V11.4451Z" fill="#3FE0C8"/>
<path d="M50.2887 12.325H49.6836V12.9115H50.2887V12.325Z" fill="#3FE0C8"/>
<path d="M50.2887 13.2058H49.6836V13.7924H50.2887V13.2058Z" fill="#3FE0C8"/>
<path d="M50.2887 14.0869H49.6836V14.6735H50.2887V14.0869Z" fill="#3FE0C8"/>
<path d="M50.2887 14.9666H49.6836V15.5532H50.2887V14.9666Z" fill="#3FE0C8"/>
<path d="M50.2887 15.8474H49.6836V16.434H50.2887V15.8474Z" fill="#3FE0C8"/>
<path d="M50.2887 20.249H49.6836V20.8356H50.2887V20.249Z" fill="#4AD398"/>
<path d="M50.2887 21.1296H49.6836V21.7162H50.2887V21.1296Z" fill="#4AD398"/>
<path d="M49.3814 7.92407H48.7764V8.51067H49.3814V7.92407Z" fill="#3AF3FC"/>
<path d="M49.3814 8.80347H48.7764V9.39007H49.3814V8.80347Z" fill="#3AF3FC"/>
<path d="M49.3814 9.68433H48.7764V10.2709H49.3814V9.68433Z" fill="#3AF3FC"/>
<path d="M49.3814 10.5645H48.7764V11.1511H49.3814V10.5645Z" fill="#3AF3FC"/>
<path d="M49.3814 11.4451H48.7764V12.0317H49.3814V11.4451Z" fill="#3FE0C8"/>
<path d="M49.3814 12.325H48.7764V12.9115H49.3814V12.325Z" fill="#3FE0C8"/>
<path d="M49.3814 13.2058H48.7764V13.7924H49.3814V13.2058Z" fill="#3FE0C8"/>
<path d="M49.3814 14.0869H48.7764V14.6735H49.3814V14.0869Z" fill="#3FE0C8"/>
<path d="M49.3814 14.9666H48.7764V15.5532H49.3814V14.9666Z" fill="#3FE0C8"/>
<path d="M49.3814 15.8474H48.7764V16.434H49.3814V15.8474Z" fill="#3FE0C8"/>
<path d="M49.3814 16.7273H48.7764V17.3139H49.3814V16.7273Z" fill="#4AD398"/>
<path d="M49.3814 17.6082H48.7764V18.1948H49.3814V17.6082Z" fill="#4AD398"/>
<path d="M49.3814 18.4878H48.7764V19.0744H49.3814V18.4878Z" fill="#4AD398"/>
<path d="M49.3814 19.3689H48.7764V19.9555H49.3814V19.3689Z" fill="#4AD398"/>
<path d="M49.3814 20.249H48.7764V20.8356H49.3814V20.249Z" fill="#4AD398"/>
<path d="M49.3814 21.1296H48.7764V21.7162H49.3814V21.1296Z" fill="#4AD398"/>
<path d="M49.3814 22.0105H48.7764V22.5971H49.3814V22.0105Z" fill="#4BC671"/>
<path d="M48.4723 6.16284H47.8672V6.74944H48.4723V6.16284Z" fill="#3AF3FC"/>
<path d="M48.4723 7.04297H47.8672V7.62957H48.4723V7.04297Z" fill="#3AF3FC"/>
<path d="M48.4723 7.92407H47.8672V8.51067H48.4723V7.92407Z" fill="#3AF3FC"/>
<path d="M48.4723 8.80347H47.8672V9.39007H48.4723V8.80347Z" fill="#3AF3FC"/>
<path d="M48.4723 9.68433H47.8672V10.2709H48.4723V9.68433Z" fill="#3AF3FC"/>
<path d="M48.4723 10.5645H47.8672V11.1511H48.4723V10.5645Z" fill="#3AF3FC"/>
<path d="M48.4723 11.4451H47.8672V12.0317H48.4723V11.4451Z" fill="#3FE0C8"/>
<path d="M48.4723 12.325H47.8672V12.9115H48.4723V12.325Z" fill="#3FE0C8"/>
<path d="M48.4723 13.2058H47.8672V13.7924H48.4723V13.2058Z" fill="#3FE0C8"/>
<path d="M48.4723 14.0869H47.8672V14.6735H48.4723V14.0869Z" fill="#3FE0C8"/>
<path d="M48.4723 14.9666H47.8672V15.5532H48.4723V14.9666Z" fill="#3FE0C8"/>
<path d="M48.4723 15.8474H47.8672V16.434H48.4723V15.8474Z" fill="#3FE0C8"/>
<path d="M48.4723 16.7273H47.8672V17.3139H48.4723V16.7273Z" fill="#4AD398"/>
<path d="M48.4723 17.6082H47.8672V18.1948H48.4723V17.6082Z" fill="#4AD398"/>
<path d="M48.4723 18.4878H47.8672V19.0744H48.4723V18.4878Z" fill="#4AD398"/>
<path d="M48.4723 19.3689H47.8672V19.9555H48.4723V19.3689Z" fill="#4AD398"/>
<path d="M48.4723 20.249H47.8672V20.8356H48.4723V20.249Z" fill="#4AD398"/>
<path d="M48.4723 21.1296H47.8672V21.7162H48.4723V21.1296Z" fill="#4AD398"/>
<path d="M48.4723 22.0105H47.8672V22.5971H48.4723V22.0105Z" fill="#4BC671"/>
<path d="M48.4723 22.8904H47.8672V23.477H48.4723V22.8904Z" fill="#4BC671"/>
<path d="M47.565 4.40137H46.96V4.98796H47.565V4.40137Z" fill="#3DC8F9"/>
<path d="M47.565 5.28198H46.96V5.86858H47.565V5.28198Z" fill="#3DC8F9"/>
<path d="M47.565 6.16284H46.96V6.74944H47.565V6.16284Z" fill="#3AF3FC"/>
<path d="M47.565 7.04297H46.96V7.62957H47.565V7.04297Z" fill="#3AF3FC"/>
<path d="M47.565 7.92407H46.96V8.51067H47.565V7.92407Z" fill="#3AF3FC"/>
<path d="M47.565 8.80347H46.96V9.39007H47.565V8.80347Z" fill="#3AF3FC"/>
<path d="M47.565 9.68433H46.96V10.2709H47.565V9.68433Z" fill="#3AF3FC"/>
<path d="M47.565 10.5645H46.96V11.1511H47.565V10.5645Z" fill="#3AF3FC"/>
<path d="M47.565 11.4451H46.96V12.0317H47.565V11.4451Z" fill="#3FE0C8"/>
<path d="M47.565 12.325H46.96V12.9115H47.565V12.325Z" fill="#3FE0C8"/>
<path d="M47.565 13.2058H46.96V13.7924H47.565V13.2058Z" fill="#3FE0C8"/>
<path d="M47.565 14.0869H46.96V14.6735H47.565V14.0869Z" fill="#3FE0C8"/>
<path d="M47.565 14.9666H46.96V15.5532H47.565V14.9666Z" fill="#3FE0C8"/>
<path d="M47.565 15.8474H46.96V16.434H47.565V15.8474Z" fill="#3FE0C8"/>
<path d="M47.565 16.7273H46.96V17.3139H47.565V16.7273Z" fill="#4AD398"/>
<path d="M47.565 17.6082H46.96V18.1948H47.565V17.6082Z" fill="#4AD398"/>
<path d="M47.565 18.4878H46.96V19.0744H47.565V18.4878Z" fill="#4AD398"/>
<path d="M47.565 19.3689H46.96V19.9555H47.565V19.3689Z" fill="#4AD398"/>
<path d="M47.565 20.249H46.96V20.8356H47.565V20.249Z" fill="#4AD398"/>
<path d="M47.565 21.1296H46.96V21.7162H47.565V21.1296Z" fill="#4AD398"/>
<path d="M47.565 22.0105H46.96V22.5971H47.565V22.0105Z" fill="#4BC671"/>
<path d="M47.565 22.8904H46.96V23.477H47.565V22.8904Z" fill="#4BC671"/>
<path d="M47.565 23.771H46.96V24.3576H47.565V23.771Z" fill="#4BC671"/>
<path d="M47.565 24.6511H46.96V25.2377H47.565V24.6511Z" fill="#4BC671"/>
<path d="M47.565 25.532H46.96V26.1186H47.565V25.532Z" fill="#4BC671"/>
<path d="M47.565 26.4119H46.96V26.9985H47.565V26.4119Z" fill="#39B54A"/>
<path d="M46.6568 2.64062H46.0518V3.22722H46.6568V2.64062Z" fill="#3DC8F9"/>
<path d="M46.6568 3.52173H46.0518V4.10833H46.6568V3.52173Z" fill="#3DC8F9"/>
<path d="M46.6568 4.40137H46.0518V4.98796H46.6568V4.40137Z" fill="#3DC8F9"/>
<path d="M46.6568 5.28198H46.0518V5.86858H46.6568V5.28198Z" fill="#3DC8F9"/>
<path d="M46.6568 6.16309H46.0518V6.74968H46.6568V6.16309Z" fill="#3AF3FC"/>
<path d="M46.6568 7.04321H46.0518V7.62981H46.6568V7.04321Z" fill="#3AF3FC"/>
<path d="M46.6568 7.92407H46.0518V8.51067H46.6568V7.92407Z" fill="#3AF3FC"/>
<path d="M46.6568 8.80347H46.0518V9.39007H46.6568V8.80347Z" fill="#3AF3FC"/>
<path d="M46.6568 9.68457H46.0518V10.2712H46.6568V9.68457Z" fill="#3AF3FC"/>
<path d="M46.6568 10.5647H46.0518V11.1513H46.6568V10.5647Z" fill="#3AF3FC"/>
<path d="M46.6568 11.4453H46.0518V12.0319H46.6568V11.4453Z" fill="#3FE0C8"/>
<path d="M46.6568 12.325H46.0518V12.9115H46.6568V12.325Z" fill="#3FE0C8"/>
<path d="M46.6568 13.2061H46.0518V13.7927H46.6568V13.2061Z" fill="#3FE0C8"/>
<path d="M46.6568 14.0869H46.0518V14.6735H46.6568V14.0869Z" fill="#3FE0C8"/>
<path d="M46.6568 14.9668H46.0518V15.5534H46.6568V14.9668Z" fill="#3FE0C8"/>
<path d="M46.6568 15.8474H46.0518V16.434H46.6568V15.8474Z" fill="#3FE0C8"/>
<path d="M46.6568 16.7275H46.0518V17.3141H46.6568V16.7275Z" fill="#4AD398"/>
<path d="M46.6568 17.6082H46.0518V18.1948H46.6568V17.6082Z" fill="#4AD398"/>
<path d="M46.6568 18.488H46.0518V19.0746H46.6568V18.488Z" fill="#4AD398"/>
<path d="M46.6568 19.3689H46.0518V19.9555H46.6568V19.3689Z" fill="#4AD398"/>
<path d="M46.6568 20.249H46.0518V20.8356H46.6568V20.249Z" fill="#4AD398"/>
<path d="M46.6568 21.1296H46.0518V21.7162H46.6568V21.1296Z" fill="#4AD398"/>
<path d="M46.6568 22.0107H46.0518V22.5973H46.6568V22.0107Z" fill="#4BC671"/>
<path d="M46.6568 22.8904H46.0518V23.477H46.6568V22.8904Z" fill="#4BC671"/>
<path d="M46.6568 23.7712H46.0518V24.3578H46.6568V23.7712Z" fill="#4BC671"/>
<path d="M46.6568 24.6511H46.0518V25.2377H46.6568V24.6511Z" fill="#4BC671"/>
<path d="M46.6568 25.5322H46.0518V26.1188H46.6568V25.5322Z" fill="#4BC671"/>
<path d="M46.6568 26.4119H46.0518V26.9985H46.6568V26.4119Z" fill="#39B54A"/>
<path d="M45.7486 2.64062H45.1436V3.22722H45.7486V2.64062Z" fill="#3DC8F9"/>
<path d="M45.7486 3.52148H45.1436V4.10808H45.7486V3.52148Z" fill="#3DC8F9"/>
<path d="M45.7486 4.40137H45.1436V4.98796H45.7486V4.40137Z" fill="#3DC8F9"/>
<path d="M45.7486 5.28198H45.1436V5.86858H45.7486V5.28198Z" fill="#3DC8F9"/>
<path d="M45.7486 6.16284H45.1436V6.74944H45.7486V6.16284Z" fill="#3AF3FC"/>
<path d="M45.7486 7.04297H45.1436V7.62957H45.7486V7.04297Z" fill="#3AF3FC"/>
<path d="M45.7486 7.92407H45.1436V8.51067H45.7486V7.92407Z" fill="#3AF3FC"/>
<path d="M45.7486 8.80347H45.1436V9.39007H45.7486V8.80347Z" fill="#3AF3FC"/>
<path d="M45.7486 9.68433H45.1436V10.2709H45.7486V9.68433Z" fill="#3AF3FC"/>
<path d="M45.7486 10.5645H45.1436V11.1511H45.7486V10.5645Z" fill="#3AF3FC"/>
<path d="M45.7486 11.4451H45.1436V12.0317H45.7486V11.4451Z" fill="#3FE0C8"/>
<path d="M45.7486 12.325H45.1436V12.9115H45.7486V12.325Z" fill="#3FE0C8"/>
<path d="M45.7486 13.2058H45.1436V13.7924H45.7486V13.2058Z" fill="#3FE0C8"/>
<path d="M45.7486 14.0869H45.1436V14.6735H45.7486V14.0869Z" fill="#3FE0C8"/>
<path d="M45.7486 14.9666H45.1436V15.5532H45.7486V14.9666Z" fill="#3FE0C8"/>
<path d="M45.7486 15.8474H45.1436V16.434H45.7486V15.8474Z" fill="#3FE0C8"/>
<path d="M45.7486 16.7273H45.1436V17.3139H45.7486V16.7273Z" fill="#4AD398"/>
<path d="M45.7486 17.6082H45.1436V18.1948H45.7486V17.6082Z" fill="#4AD398"/>
<path d="M45.7486 18.4878H45.1436V19.0744H45.7486V18.4878Z" fill="#4AD398"/>
<path d="M45.7486 19.3689H45.1436V19.9555H45.7486V19.3689Z" fill="#4AD398"/>
<path d="M45.7486 20.249H45.1436V20.8356H45.7486V20.249Z" fill="#4AD398"/>
<path d="M45.7486 21.1296H45.1436V21.7162H45.7486V21.1296Z" fill="#4AD398"/>
<path d="M45.7486 22.0105H45.1436V22.5971H45.7486V22.0105Z" fill="#4BC671"/>
<path d="M45.7486 22.8904H45.1436V23.477H45.7486V22.8904Z" fill="#4BC671"/>
<path d="M45.7486 23.771H45.1436V24.3576H45.7486V23.771Z" fill="#4BC671"/>
<path d="M45.7486 24.6511H45.1436V25.2377H45.7486V24.6511Z" fill="#4BC671"/>
<path d="M45.7486 25.532H45.1436V26.1186H45.7486V25.532Z" fill="#4BC671"/>
<path d="M45.7486 26.4119H45.1436V26.9985H45.7486V26.4119Z" fill="#39B54A"/>
<path d="M45.7486 27.2925H45.1436V27.8791H45.7486V27.2925Z" fill="#39B54A"/>
<path d="M44.8404 2.64062H44.2354V3.22722H44.8404V2.64062Z" fill="#3DC8F9"/>
<path d="M44.8404 3.52148H44.2354V4.10808H44.8404V3.52148Z" fill="#3DC8F9"/>
<path d="M44.8404 4.40137H44.2354V4.98796H44.8404V4.40137Z" fill="#3DC8F9"/>
<path d="M44.8404 5.28198H44.2354V5.86858H44.8404V5.28198Z" fill="#3DC8F9"/>
<path d="M44.8404 6.16284H44.2354V6.74944H44.8404V6.16284Z" fill="#3AF3FC"/>
<path d="M44.8404 7.04297H44.2354V7.62957H44.8404V7.04297Z" fill="#3AF3FC"/>
<path d="M44.8404 7.92407H44.2354V8.51067H44.8404V7.92407Z" fill="#3AF3FC"/>
<path d="M44.8404 8.80347H44.2354V9.39007H44.8404V8.80347Z" fill="#3AF3FC"/>
<path d="M44.8404 9.68433H44.2354V10.2709H44.8404V9.68433Z" fill="#3AF3FC"/>
<path d="M44.8404 10.5645H44.2354V11.1511H44.8404V10.5645Z" fill="#3AF3FC"/>
<path d="M44.8404 11.4451H44.2354V12.0317H44.8404V11.4451Z" fill="#3FE0C8"/>
<path d="M44.8404 12.325H44.2354V12.9115H44.8404V12.325Z" fill="#3FE0C8"/>
<path d="M44.8404 13.2058H44.2354V13.7924H44.8404V13.2058Z" fill="#3FE0C8"/>
<path d="M44.8404 14.0869H44.2354V14.6735H44.8404V14.0869Z" fill="#3FE0C8"/>
<path d="M44.8404 14.9666H44.2354V15.5532H44.8404V14.9666Z" fill="#3FE0C8"/>
<path d="M44.8404 15.8474H44.2354V16.434H44.8404V15.8474Z" fill="#3FE0C8"/>
<path d="M44.8404 16.7273H44.2354V17.3139H44.8404V16.7273Z" fill="#4AD398"/>
<path d="M44.8404 17.6082H44.2354V18.1948H44.8404V17.6082Z" fill="#4AD398"/>
<path d="M44.8404 18.4878H44.2354V19.0744H44.8404V18.4878Z" fill="#4AD398"/>
<path d="M44.8404 19.3689H44.2354V19.9555H44.8404V19.3689Z" fill="#4AD398"/>
<path d="M44.8404 20.249H44.2354V20.8356H44.8404V20.249Z" fill="#4AD398"/>
<path d="M44.8404 21.1296H44.2354V21.7162H44.8404V21.1296Z" fill="#4AD398"/>
<path d="M44.8404 22.0105H44.2354V22.5971H44.8404V22.0105Z" fill="#4BC671"/>
<path d="M44.8404 22.8904H44.2354V23.477H44.8404V22.8904Z" fill="#4BC671"/>
<path d="M44.8404 23.771H44.2354V24.3576H44.8404V23.771Z" fill="#4BC671"/>
<path d="M44.8404 24.6511H44.2354V25.2377H44.8404V24.6511Z" fill="#4BC671"/>
<path d="M44.8404 25.532H44.2354V26.1186H44.8404V25.532Z" fill="#4BC671"/>
<path d="M44.8404 26.4119H44.2354V26.9985H44.8404V26.4119Z" fill="#39B54A"/>
<path d="M44.8404 27.2925H44.2354V27.8791H44.8404V27.2925Z" fill="#39B54A"/>
<path d="M44.8404 28.1726H44.2354V28.7592H44.8404V28.1726Z" fill="#39B54A"/>
<path d="M43.9332 1.76099H43.3281V2.34759H43.9332V1.76099Z" fill="#3DC8F9"/>
<path d="M43.9332 2.64062H43.3281V3.22722H43.9332V2.64062Z" fill="#3DC8F9"/>
<path d="M43.9332 3.52173H43.3281V4.10833H43.9332V3.52173Z" fill="#3DC8F9"/>
<path d="M43.9332 4.40137H43.3281V4.98796H43.9332V4.40137Z" fill="#3DC8F9"/>
<path d="M43.9332 5.28198H43.3281V5.86858H43.9332V5.28198Z" fill="#3DC8F9"/>
<path d="M43.9332 6.16309H43.3281V6.74968H43.9332V6.16309Z" fill="#3AF3FC"/>
<path d="M43.9332 7.04321H43.3281V7.62981H43.9332V7.04321Z" fill="#3AF3FC"/>
<path d="M43.9332 7.92407H43.3281V8.51067H43.9332V7.92407Z" fill="#3AF3FC"/>
<path d="M43.9332 8.80347H43.3281V9.39007H43.9332V8.80347Z" fill="#3AF3FC"/>
<path d="M43.9332 9.68457H43.3281V10.2712H43.9332V9.68457Z" fill="#3AF3FC"/>
<path d="M43.9332 10.5647H43.3281V11.1513H43.9332V10.5647Z" fill="#3AF3FC"/>
<path d="M43.9332 11.4453H43.3281V12.0319H43.9332V11.4453Z" fill="#3FE0C8"/>
<path d="M43.9332 12.325H43.3281V12.9115H43.9332V12.325Z" fill="#3FE0C8"/>
<path d="M43.9332 13.2061H43.3281V13.7927H43.9332V13.2061Z" fill="#3FE0C8"/>
<path d="M43.9332 14.0869H43.3281V14.6735H43.9332V14.0869Z" fill="#3FE0C8"/>
<path d="M43.9332 14.9668H43.3281V15.5534H43.9332V14.9668Z" fill="#3FE0C8"/>
<path d="M43.9332 15.8474H43.3281V16.434H43.9332V15.8474Z" fill="#3FE0C8"/>
<path d="M43.9332 16.7275H43.3281V17.3141H43.9332V16.7275Z" fill="#4AD398"/>
<path d="M43.9332 17.6082H43.3281V18.1948H43.9332V17.6082Z" fill="#4AD398"/>
<path d="M43.9332 18.488H43.3281V19.0746H43.9332V18.488Z" fill="#4AD398"/>
<path d="M43.9332 19.3689H43.3281V19.9555H43.9332V19.3689Z" fill="#4AD398"/>
<path d="M43.9332 20.249H43.3281V20.8356H43.9332V20.249Z" fill="#4AD398"/>
<path d="M43.9332 21.1296H43.3281V21.7162H43.9332V21.1296Z" fill="#4AD398"/>
<path d="M43.9332 22.0107H43.3281V22.5973H43.9332V22.0107Z" fill="#4BC671"/>
<path d="M43.9332 22.8904H43.3281V23.477H43.9332V22.8904Z" fill="#4BC671"/>
<path d="M43.9332 23.7712H43.3281V24.3578H43.9332V23.7712Z" fill="#4BC671"/>
<path d="M43.9332 24.6511H43.3281V25.2377H43.9332V24.6511Z" fill="#4BC671"/>
<path d="M43.9332 25.5322H43.3281V26.1188H43.9332V25.5322Z" fill="#4BC671"/>
<path d="M43.9332 26.4119H43.3281V26.9985H43.9332V26.4119Z" fill="#39B54A"/>
<path d="M43.9332 27.2927H43.3281V27.8793H43.9332V27.2927Z" fill="#39B54A"/>
<path d="M43.9332 28.1726H43.3281V28.7592H43.9332V28.1726Z" fill="#39B54A"/>
<path d="M43.9332 29.0535H43.3281V29.6401H43.9332V29.0535Z" fill="#39B54A"/>
<path d="M43.024 1.76074H42.4189V2.34734H43.024V1.76074Z" fill="#3DC8F9"/>
<path d="M43.024 2.64062H42.4189V3.22722H43.024V2.64062Z" fill="#3DC8F9"/>
<path d="M43.024 3.52148H42.4189V4.10808H43.024V3.52148Z" fill="#3DC8F9"/>
<path d="M43.024 4.40137H42.4189V4.98796H43.024V4.40137Z" fill="#3DC8F9"/>
<path d="M43.024 5.28198H42.4189V5.86858H43.024V5.28198Z" fill="#3DC8F9"/>
<path d="M43.024 6.16284H42.4189V6.74944H43.024V6.16284Z" fill="#3AF3FC"/>
<path d="M43.024 7.04297H42.4189V7.62957H43.024V7.04297Z" fill="#3AF3FC"/>
<path d="M43.024 7.92407H42.4189V8.51067H43.024V7.92407Z" fill="#3AF3FC"/>
<path d="M43.024 8.80347H42.4189V9.39007H43.024V8.80347Z" fill="#3AF3FC"/>
<path d="M43.024 9.68433H42.4189V10.2709H43.024V9.68433Z" fill="#3AF3FC"/>
<path d="M43.024 10.5645H42.4189V11.1511H43.024V10.5645Z" fill="#3AF3FC"/>
<path d="M43.024 11.4451H42.4189V12.0317H43.024V11.4451Z" fill="#3FE0C8"/>
<path d="M43.024 12.325H42.4189V12.9115H43.024V12.325Z" fill="#3FE0C8"/>
<path d="M43.024 13.2058H42.4189V13.7924H43.024V13.2058Z" fill="#3FE0C8"/>
<path d="M43.024 14.0869H42.4189V14.6735H43.024V14.0869Z" fill="#3FE0C8"/>
<path d="M43.024 14.9666H42.4189V15.5532H43.024V14.9666Z" fill="#3FE0C8"/>
<path d="M43.024 15.8474H42.4189V16.434H43.024V15.8474Z" fill="#3FE0C8"/>
<path d="M43.024 16.7273H42.4189V17.3139H43.024V16.7273Z" fill="#4AD398"/>
<path d="M43.024 17.6082H42.4189V18.1948H43.024V17.6082Z" fill="#4AD398"/>
<path d="M43.024 18.4878H42.4189V19.0744H43.024V18.4878Z" fill="#4AD398"/>
<path d="M43.024 19.3689H42.4189V19.9555H43.024V19.3689Z" fill="#4AD398"/>
<path d="M43.024 20.249H42.4189V20.8356H43.024V20.249Z" fill="#4AD398"/>
<path d="M43.024 21.1296H42.4189V21.7162H43.024V21.1296Z" fill="#4AD398"/>
<path d="M43.024 22.0105H42.4189V22.5971H43.024V22.0105Z" fill="#4BC671"/>
<path d="M43.024 22.8904H42.4189V23.477H43.024V22.8904Z" fill="#4BC671"/>
<path d="M43.024 23.771H42.4189V24.3576H43.024V23.771Z" fill="#4BC671"/>
<path d="M43.024 24.6511H42.4189V25.2377H43.024V24.6511Z" fill="#4BC671"/>
<path d="M43.024 25.532H42.4189V26.1186H43.024V25.532Z" fill="#4BC671"/>
<path d="M43.024 26.4119H42.4189V26.9985H43.024V26.4119Z" fill="#39B54A"/>
<path d="M43.024 27.2925H42.4189V27.8791H43.024V27.2925Z" fill="#39B54A"/>
<path d="M43.024 28.1726H42.4189V28.7592H43.024V28.1726Z" fill="#39B54A"/>
<path d="M43.024 29.0532H42.4189V29.6398H43.024V29.0532Z" fill="#39B54A"/>
<path d="M42.1168 1.76074H41.5117V2.34734H42.1168V1.76074Z" fill="#3DC8F9"/>
<path d="M42.1168 2.64062H41.5117V3.22722H42.1168V2.64062Z" fill="#3DC8F9"/>
<path d="M42.1168 3.52148H41.5117V4.10808H42.1168V3.52148Z" fill="#3DC8F9"/>
<path d="M42.1168 4.40137H41.5117V4.98796H42.1168V4.40137Z" fill="#3DC8F9"/>
<path d="M42.1168 5.28198H41.5117V5.86858H42.1168V5.28198Z" fill="#3DC8F9"/>
<path d="M42.1168 6.16284H41.5117V6.74944H42.1168V6.16284Z" fill="#3AF3FC"/>
<path d="M42.1168 7.04297H41.5117V7.62957H42.1168V7.04297Z" fill="#3AF3FC"/>
<path d="M42.1168 7.92407H41.5117V8.51067H42.1168V7.92407Z" fill="#3AF3FC"/>
<path d="M42.1168 8.80347H41.5117V9.39007H42.1168V8.80347Z" fill="#3AF3FC"/>
<path d="M42.1168 9.68433H41.5117V10.2709H42.1168V9.68433Z" fill="#3AF3FC"/>
<path d="M42.1168 10.5645H41.5117V11.1511H42.1168V10.5645Z" fill="#3AF3FC"/>
<path d="M42.1168 11.4451H41.5117V12.0317H42.1168V11.4451Z" fill="#3FE0C8"/>
<path d="M42.1168 12.325H41.5117V12.9115H42.1168V12.325Z" fill="#3FE0C8"/>
<path d="M42.1168 13.2058H41.5117V13.7924H42.1168V13.2058Z" fill="#3FE0C8"/>
<path d="M42.1168 14.0869H41.5117V14.6735H42.1168V14.0869Z" fill="#3FE0C8"/>
<path d="M42.1168 14.9666H41.5117V15.5532H42.1168V14.9666Z" fill="#3FE0C8"/>
<path d="M42.1168 15.8474H41.5117V16.434H42.1168V15.8474Z" fill="#3FE0C8"/>
<path d="M42.1168 16.7273H41.5117V17.3139H42.1168V16.7273Z" fill="#4AD398"/>
<path d="M42.1168 17.6082H41.5117V18.1948H42.1168V17.6082Z" fill="#4AD398"/>
<path d="M42.1168 18.4878H41.5117V19.0744H42.1168V18.4878Z" fill="#4AD398"/>
<path d="M42.1168 19.3689H41.5117V19.9555H42.1168V19.3689Z" fill="#4AD398"/>
<path d="M42.1168 20.249H41.5117V20.8356H42.1168V20.249Z" fill="#4AD398"/>
<path d="M42.1168 21.1296H41.5117V21.7162H42.1168V21.1296Z" fill="#4AD398"/>
<path d="M42.1168 22.0105H41.5117V22.5971H42.1168V22.0105Z" fill="#4BC671"/>
<path d="M42.1168 22.8904H41.5117V23.477H42.1168V22.8904Z" fill="#4BC671"/>
<path d="M42.1168 23.771H41.5117V24.3576H42.1168V23.771Z" fill="#4BC671"/>
<path d="M42.1168 24.6511H41.5117V25.2377H42.1168V24.6511Z" fill="#4BC671"/>
<path d="M42.1168 25.532H41.5117V26.1186H42.1168V25.532Z" fill="#4BC671"/>
<path d="M42.1168 26.4119H41.5117V26.9985H42.1168V26.4119Z" fill="#39B54A"/>
<path d="M42.1168 27.2925H41.5117V27.8791H42.1168V27.2925Z" fill="#39B54A"/>
<path d="M42.1168 28.1726H41.5117V28.7592H42.1168V28.1726Z" fill="#39B54A"/>
<path d="M42.1168 29.0532H41.5117V29.6398H42.1168V29.0532Z" fill="#39B54A"/>
<path d="M41.2096 2.64062H40.6045V3.22722H41.2096V2.64062Z" fill="#3DC8F9"/>
<path d="M41.2096 3.52173H40.6045V4.10833H41.2096V3.52173Z" fill="#3DC8F9"/>
<path d="M41.2096 4.40137H40.6045V4.98796H41.2096V4.40137Z" fill="#3DC8F9"/>
<path d="M41.2096 5.28198H40.6045V5.86858H41.2096V5.28198Z" fill="#3DC8F9"/>
<path d="M41.2096 6.16309H40.6045V6.74968H41.2096V6.16309Z" fill="#3AF3FC"/>
<path d="M41.2096 7.04321H40.6045V7.62981H41.2096V7.04321Z" fill="#3AF3FC"/>
<path d="M41.2096 7.92407H40.6045V8.51067H41.2096V7.92407Z" fill="#3AF3FC"/>
<path d="M41.2096 8.80347H40.6045V9.39007H41.2096V8.80347Z" fill="#3AF3FC"/>
<path d="M41.2096 9.68457H40.6045V10.2712H41.2096V9.68457Z" fill="#3AF3FC"/>
<path d="M41.2096 10.5647H40.6045V11.1513H41.2096V10.5647Z" fill="#3AF3FC"/>
<path d="M41.2096 11.4453H40.6045V12.0319H41.2096V11.4453Z" fill="#3FE0C8"/>
<path d="M41.2096 12.325H40.6045V12.9115H41.2096V12.325Z" fill="#3FE0C8"/>
<path d="M41.2096 13.2061H40.6045V13.7927H41.2096V13.2061Z" fill="#3FE0C8"/>
<path d="M41.2096 14.0869H40.6045V14.6735H41.2096V14.0869Z" fill="#3FE0C8"/>
<path d="M41.2096 14.9668H40.6045V15.5534H41.2096V14.9668Z" fill="#3FE0C8"/>
<path d="M41.2096 15.8474H40.6045V16.434H41.2096V15.8474Z" fill="#3FE0C8"/>
<path d="M41.2096 16.7275H40.6045V17.3141H41.2096V16.7275Z" fill="#4AD398"/>
<path d="M41.2096 17.6082H40.6045V18.1948H41.2096V17.6082Z" fill="#4AD398"/>
<path d="M41.2096 18.488H40.6045V19.0746H41.2096V18.488Z" fill="#4AD398"/>
<path d="M41.2096 19.3689H40.6045V19.9555H41.2096V19.3689Z" fill="#4AD398"/>
<path d="M41.2096 20.249H40.6045V20.8356H41.2096V20.249Z" fill="#4AD398"/>
<path d="M41.2096 21.1296H40.6045V21.7162H41.2096V21.1296Z" fill="#4AD398"/>
<path d="M41.2096 22.0107H40.6045V22.5973H41.2096V22.0107Z" fill="#4BC671"/>
<path d="M41.2096 22.8904H40.6045V23.477H41.2096V22.8904Z" fill="#4BC671"/>
<path d="M41.2096 23.7712H40.6045V24.3578H41.2096V23.7712Z" fill="#4BC671"/>
<path d="M41.2096 24.6511H40.6045V25.2377H41.2096V24.6511Z" fill="#4BC671"/>
<path d="M41.2096 25.5322H40.6045V26.1188H41.2096V25.5322Z" fill="#4BC671"/>
<path d="M41.2096 26.4119H40.6045V26.9985H41.2096V26.4119Z" fill="#39B54A"/>
<path d="M41.2096 27.2927H40.6045V27.8793H41.2096V27.2927Z" fill="#39B54A"/>
<path d="M41.2096 28.1726H40.6045V28.7592H41.2096V28.1726Z" fill="#39B54A"/>
<path d="M40.3004 2.64062H39.6953V3.22722H40.3004V2.64062Z" fill="#3DC8F9"/>
<path d="M40.3004 3.52148H39.6953V4.10808H40.3004V3.52148Z" fill="#3DC8F9"/>
<path d="M40.3004 4.40137H39.6953V4.98796H40.3004V4.40137Z" fill="#3DC8F9"/>
<path d="M40.3004 5.28198H39.6953V5.86858H40.3004V5.28198Z" fill="#3DC8F9"/>
<path d="M40.3004 6.16284H39.6953V6.74944H40.3004V6.16284Z" fill="#3AF3FC"/>
<path d="M40.3004 7.04297H39.6953V7.62957H40.3004V7.04297Z" fill="#3AF3FC"/>
<path d="M40.3004 7.92407H39.6953V8.51067H40.3004V7.92407Z" fill="#3AF3FC"/>
<path d="M40.3004 8.80347H39.6953V9.39007H40.3004V8.80347Z" fill="#3AF3FC"/>
<path d="M40.3004 9.68433H39.6953V10.2709H40.3004V9.68433Z" fill="#3AF3FC"/>
<path d="M40.3004 10.5645H39.6953V11.1511H40.3004V10.5645Z" fill="#3AF3FC"/>
<path d="M40.3004 11.4451H39.6953V12.0317H40.3004V11.4451Z" fill="#3FE0C8"/>
<path d="M40.3004 12.325H39.6953V12.9115H40.3004V12.325Z" fill="#3FE0C8"/>
<path d="M40.3004 13.2058H39.6953V13.7924H40.3004V13.2058Z" fill="#3FE0C8"/>
<path d="M40.3004 14.0869H39.6953V14.6735H40.3004V14.0869Z" fill="#3FE0C8"/>
<path d="M40.3004 14.9666H39.6953V15.5532H40.3004V14.9666Z" fill="#3FE0C8"/>
<path d="M40.3004 15.8474H39.6953V16.434H40.3004V15.8474Z" fill="#3FE0C8"/>
<path d="M40.3004 16.7273H39.6953V17.3139H40.3004V16.7273Z" fill="#4AD398"/>
<path d="M40.3004 17.6082H39.6953V18.1948H40.3004V17.6082Z" fill="#4AD398"/>
<path d="M40.3004 18.4878H39.6953V19.0744H40.3004V18.4878Z" fill="#4AD398"/>
<path d="M40.3004 19.3689H39.6953V19.9555H40.3004V19.3689Z" fill="#4AD398"/>
<path d="M40.3004 20.249H39.6953V20.8356H40.3004V20.249Z" fill="#4AD398"/>
<path d="M40.3004 21.1296H39.6953V21.7162H40.3004V21.1296Z" fill="#4AD398"/>
<path d="M40.3004 22.0105H39.6953V22.5971H40.3004V22.0105Z" fill="#4BC671"/>
<path d="M40.3004 22.8904H39.6953V23.477H40.3004V22.8904Z" fill="#4BC671"/>
<path d="M40.3004 23.771H39.6953V24.3576H40.3004V23.771Z" fill="#4BC671"/>
<path d="M40.3004 24.6511H39.6953V25.2377H40.3004V24.6511Z" fill="#4BC671"/>
<path d="M40.3004 25.532H39.6953V26.1186H40.3004V25.532Z" fill="#4BC671"/>
<path d="M40.3004 26.4119H39.6953V26.9985H40.3004V26.4119Z" fill="#39B54A"/>
<path d="M39.3922 1.76099H38.7871V2.34759H39.3922V1.76099Z" fill="#3DC8F9"/>
<path d="M39.3922 2.64062H38.7871V3.22722H39.3922V2.64062Z" fill="#3DC8F9"/>
<path d="M39.3922 3.52173H38.7871V4.10833H39.3922V3.52173Z" fill="#3DC8F9"/>
<path d="M39.3922 4.40137H38.7871V4.98796H39.3922V4.40137Z" fill="#3DC8F9"/>
<path d="M39.3922 5.28198H38.7871V5.86858H39.3922V5.28198Z" fill="#3DC8F9"/>
<path d="M39.3922 6.16309H38.7871V6.74968H39.3922V6.16309Z" fill="#3AF3FC"/>
<path d="M39.3922 7.04321H38.7871V7.62981H39.3922V7.04321Z" fill="#3AF3FC"/>
<path d="M39.3922 7.92407H38.7871V8.51067H39.3922V7.92407Z" fill="#3AF3FC"/>
<path d="M39.3922 8.80347H38.7871V9.39007H39.3922V8.80347Z" fill="#3AF3FC"/>
<path d="M39.3922 9.68457H38.7871V10.2712H39.3922V9.68457Z" fill="#3AF3FC"/>
<path d="M39.3922 10.5647H38.7871V11.1513H39.3922V10.5647Z" fill="#3AF3FC"/>
<path d="M39.3922 11.4453H38.7871V12.0319H39.3922V11.4453Z" fill="#3FE0C8"/>
<path d="M39.3922 12.325H38.7871V12.9115H39.3922V12.325Z" fill="#3FE0C8"/>
<path d="M39.3922 13.2061H38.7871V13.7927H39.3922V13.2061Z" fill="#3FE0C8"/>
<path d="M39.3922 14.0869H38.7871V14.6735H39.3922V14.0869Z" fill="#3FE0C8"/>
<path d="M39.3922 14.9668H38.7871V15.5534H39.3922V14.9668Z" fill="#3FE0C8"/>
<path d="M39.3922 15.8474H38.7871V16.434H39.3922V15.8474Z" fill="#3FE0C8"/>
<path d="M39.3922 16.7275H38.7871V17.3141H39.3922V16.7275Z" fill="#4AD398"/>
<path d="M39.3922 17.6082H38.7871V18.1948H39.3922V17.6082Z" fill="#4AD398"/>
<path d="M39.3922 18.488H38.7871V19.0746H39.3922V18.488Z" fill="#4AD398"/>
<path d="M39.3922 19.3689H38.7871V19.9555H39.3922V19.3689Z" fill="#4AD398"/>
<path d="M39.3922 20.249H38.7871V20.8356H39.3922V20.249Z" fill="#4AD398"/>
<path d="M39.3922 21.1296H38.7871V21.7162H39.3922V21.1296Z" fill="#4AD398"/>
<path d="M39.3922 22.0107H38.7871V22.5973H39.3922V22.0107Z" fill="#4BC671"/>
<path d="M39.3922 22.8904H38.7871V23.477H39.3922V22.8904Z" fill="#4BC671"/>
<path d="M39.3922 23.7712H38.7871V24.3578H39.3922V23.7712Z" fill="#4BC671"/>
<path d="M38.484 1.76074H37.8789V2.34734H38.484V1.76074Z" fill="#3DC8F9"/>
<path d="M38.484 2.64062H37.8789V3.22722H38.484V2.64062Z" fill="#3DC8F9"/>
<path d="M38.484 3.52148H37.8789V4.10808H38.484V3.52148Z" fill="#3DC8F9"/>
<path d="M38.484 4.40137H37.8789V4.98796H38.484V4.40137Z" fill="#3DC8F9"/>
<path d="M38.484 5.28198H37.8789V5.86858H38.484V5.28198Z" fill="#3DC8F9"/>
<path d="M38.484 6.16284H37.8789V6.74944H38.484V6.16284Z" fill="#3AF3FC"/>
<path d="M38.484 7.04297H37.8789V7.62957H38.484V7.04297Z" fill="#3AF3FC"/>
<path d="M38.484 7.92407H37.8789V8.51067H38.484V7.92407Z" fill="#3AF3FC"/>
<path d="M38.484 8.80347H37.8789V9.39007H38.484V8.80347Z" fill="#3AF3FC"/>
<path d="M38.484 9.68433H37.8789V10.2709H38.484V9.68433Z" fill="#3AF3FC"/>
<path d="M38.484 10.5645H37.8789V11.1511H38.484V10.5645Z" fill="#3AF3FC"/>
<path d="M38.484 11.4451H37.8789V12.0317H38.484V11.4451Z" fill="#3FE0C8"/>
<path d="M38.484 12.325H37.8789V12.9115H38.484V12.325Z" fill="#3FE0C8"/>
<path d="M38.484 13.2058H37.8789V13.7924H38.484V13.2058Z" fill="#3FE0C8"/>
<path d="M38.484 14.0869H37.8789V14.6735H38.484V14.0869Z" fill="#3FE0C8"/>
<path d="M38.484 14.9666H37.8789V15.5532H38.484V14.9666Z" fill="#3FE0C8"/>
<path d="M38.484 15.8474H37.8789V16.434H38.484V15.8474Z" fill="#3FE0C8"/>
<path d="M38.484 16.7273H37.8789V17.3139H38.484V16.7273Z" fill="#4AD398"/>
<path d="M38.484 22.0105H37.8789V22.5971H38.484V22.0105Z" fill="#4BC671"/>
<path d="M37.5758 0H36.9707V0.586599H37.5758V0Z" fill="#3DC8F9"/>
<path d="M37.5758 0.880127H36.9707V1.46673H37.5758V0.880127Z" fill="#3DC8F9"/>
<path d="M37.5758 1.76099H36.9707V2.34759H37.5758V1.76099Z" fill="#3DC8F9"/>
<path d="M37.5758 2.64062H36.9707V3.22722H37.5758V2.64062Z" fill="#3DC8F9"/>
<path d="M37.5758 3.52173H36.9707V4.10833H37.5758V3.52173Z" fill="#3DC8F9"/>
<path d="M37.5758 4.40137H36.9707V4.98796H37.5758V4.40137Z" fill="#3DC8F9"/>
<path d="M37.5758 5.28198H36.9707V5.86858H37.5758V5.28198Z" fill="#3DC8F9"/>
<path d="M37.5758 6.16309H36.9707V6.74968H37.5758V6.16309Z" fill="#3AF3FC"/>
<path d="M37.5758 7.04321H36.9707V7.62981H37.5758V7.04321Z" fill="#3AF3FC"/>
<path d="M37.5758 7.92407H36.9707V8.51067H37.5758V7.92407Z" fill="#3AF3FC"/>
<path d="M37.5758 8.80347H36.9707V9.39007H37.5758V8.80347Z" fill="#3AF3FC"/>
<path d="M37.5758 9.68457H36.9707V10.2712H37.5758V9.68457Z" fill="#3AF3FC"/>
<path d="M37.5758 10.5647H36.9707V11.1513H37.5758V10.5647Z" fill="#3AF3FC"/>
<path d="M37.5758 11.4453H36.9707V12.0319H37.5758V11.4453Z" fill="#3FE0C8"/>
<path d="M37.5758 12.325H36.9707V12.9115H37.5758V12.325Z" fill="#3FE0C8"/>
<path d="M37.5758 13.2061H36.9707V13.7927H37.5758V13.2061Z" fill="#3FE0C8"/>
<path d="M37.5758 14.0869H36.9707V14.6735H37.5758V14.0869Z" fill="#3FE0C8"/>
<path d="M37.5758 14.9668H36.9707V15.5534H37.5758V14.9668Z" fill="#3FE0C8"/>
<path d="M37.5758 15.8474H36.9707V16.434H37.5758V15.8474Z" fill="#3FE0C8"/>
<path d="M36.6676 0H36.0625V0.586599H36.6676V0Z" fill="#3DC8F9"/>
<path d="M36.6676 0.880127H36.0625V1.46673H36.6676V0.880127Z" fill="#3DC8F9"/>
<path d="M36.6676 1.76074H36.0625V2.34734H36.6676V1.76074Z" fill="#3DC8F9"/>
<path d="M36.6676 2.64062H36.0625V3.22722H36.6676V2.64062Z" fill="#3DC8F9"/>
<path d="M36.6676 3.52148H36.0625V4.10808H36.6676V3.52148Z" fill="#3DC8F9"/>
<path d="M36.6676 4.40137H36.0625V4.98796H36.6676V4.40137Z" fill="#3DC8F9"/>
<path d="M36.6676 5.28198H36.0625V5.86858H36.6676V5.28198Z" fill="#3DC8F9"/>
<path d="M36.6676 6.16284H36.0625V6.74944H36.6676V6.16284Z" fill="#3AF3FC"/>
<path d="M36.6676 7.04297H36.0625V7.62957H36.6676V7.04297Z" fill="#3AF3FC"/>
<path d="M36.6676 7.92407H36.0625V8.51067H36.6676V7.92407Z" fill="#3AF3FC"/>
<path d="M36.6676 8.80347H36.0625V9.39007H36.6676V8.80347Z" fill="#3AF3FC"/>
<path d="M36.6676 9.68433H36.0625V10.2709H36.6676V9.68433Z" fill="#3AF3FC"/>
<path d="M36.6676 10.5645H36.0625V11.1511H36.6676V10.5645Z" fill="#3AF3FC"/>
<path d="M36.6676 11.4451H36.0625V12.0317H36.6676V11.4451Z" fill="#3FE0C8"/>
<path d="M36.6676 12.325H36.0625V12.9115H36.6676V12.325Z" fill="#3FE0C8"/>
<path d="M36.6676 14.0869H36.0625V14.6735H36.6676V14.0869Z" fill="#3FE0C8"/>
<path d="M35.7594 0H35.1543V0.586599H35.7594V0Z" fill="#3DC8F9"/>
<path d="M35.7594 0.880127H35.1543V1.46673H35.7594V0.880127Z" fill="#3DC8F9"/>
<path d="M35.7594 1.76074H35.1543V2.34734H35.7594V1.76074Z" fill="#3DC8F9"/>
<path d="M35.7594 2.64062H35.1543V3.22722H35.7594V2.64062Z" fill="#3DC8F9"/>
<path d="M35.7594 3.52148H35.1543V4.10808H35.7594V3.52148Z" fill="#3DC8F9"/>
<path d="M35.7594 4.40137H35.1543V4.98796H35.7594V4.40137Z" fill="#3DC8F9"/>
<path d="M35.7594 5.28198H35.1543V5.86858H35.7594V5.28198Z" fill="#3DC8F9"/>
<path d="M35.7594 6.16284H35.1543V6.74944H35.7594V6.16284Z" fill="#3AF3FC"/>
<path d="M35.7594 7.04297H35.1543V7.62957H35.7594V7.04297Z" fill="#3AF3FC"/>
<path d="M35.7594 7.92407H35.1543V8.51067H35.7594V7.92407Z" fill="#3AF3FC"/>
<path d="M35.7594 8.80347H35.1543V9.39007H35.7594V8.80347Z" fill="#3AF3FC"/>
<path d="M35.7594 9.68433H35.1543V10.2709H35.7594V9.68433Z" fill="#3AF3FC"/>
<path d="M35.7594 10.5645H35.1543V11.1511H35.7594V10.5645Z" fill="#3AF3FC"/>
<path d="M35.7594 11.4451H35.1543V12.0317H35.7594V11.4451Z" fill="#3FE0C8"/>
<path d="M35.7594 12.325H35.1543V12.9115H35.7594V12.325Z" fill="#3FE0C8"/>
<path d="M34.8531 0H34.248V0.586599H34.8531V0Z" fill="#3DC8F9"/>
<path d="M34.8531 0.880127H34.248V1.46673H34.8531V0.880127Z" fill="#3DC8F9"/>
<path d="M34.8531 1.76074H34.248V2.34734H34.8531V1.76074Z" fill="#3DC8F9"/>
<path d="M34.8531 2.64062H34.248V3.22722H34.8531V2.64062Z" fill="#3DC8F9"/>
<path d="M34.8531 3.52148H34.248V4.10808H34.8531V3.52148Z" fill="#3DC8F9"/>
<path d="M34.8531 4.40137H34.248V4.98796H34.8531V4.40137Z" fill="#3DC8F9"/>
<path d="M34.8531 5.28198H34.248V5.86858H34.8531V5.28198Z" fill="#3DC8F9"/>
<path d="M34.8531 6.16284H34.248V6.74944H34.8531V6.16284Z" fill="#3AF3FC"/>
<path d="M34.8531 7.04297H34.248V7.62957H34.8531V7.04297Z" fill="#3AF3FC"/>
<path d="M34.8531 7.92407H34.248V8.51067H34.8531V7.92407Z" fill="#3AF3FC"/>
<path d="M34.8531 8.80347H34.248V9.39007H34.8531V8.80347Z" fill="#3AF3FC"/>
<path d="M34.8531 9.68433H34.248V10.2709H34.8531V9.68433Z" fill="#3AF3FC"/>
<path d="M34.8531 10.5645H34.248V11.1511H34.8531V10.5645Z" fill="#3AF3FC"/>
<path d="M34.8531 11.4451H34.248V12.0317H34.8531V11.4451Z" fill="#3FE0C8"/>
<path d="M33.943 0H33.3379V0.586599H33.943V0Z" fill="#3DC8F9"/>
<path d="M33.943 0.880127H33.3379V1.46673H33.943V0.880127Z" fill="#3DC8F9"/>
<path d="M33.943 1.76074H33.3379V2.34734H33.943V1.76074Z" fill="#3DC8F9"/>
<path d="M33.943 2.64062H33.3379V3.22722H33.943V2.64062Z" fill="#3DC8F9"/>
<path d="M33.943 3.52148H33.3379V4.10808H33.943V3.52148Z" fill="#3DC8F9"/>
<path d="M33.943 4.40137H33.3379V4.98796H33.943V4.40137Z" fill="#3DC8F9"/>
<path d="M33.943 5.28198H33.3379V5.86858H33.943V5.28198Z" fill="#3DC8F9"/>
<path d="M33.943 6.16284H33.3379V6.74944H33.943V6.16284Z" fill="#3AF3FC"/>
<path d="M33.943 7.04297H33.3379V7.62957H33.943V7.04297Z" fill="#3AF3FC"/>
<path d="M33.943 7.92407H33.3379V8.51067H33.943V7.92407Z" fill="#3AF3FC"/>
<path d="M33.943 8.80347H33.3379V9.39007H33.943V8.80347Z" fill="#3AF3FC"/>
<path d="M33.943 9.68433H33.3379V10.2709H33.943V9.68433Z" fill="#3AF3FC"/>
<path d="M33.943 10.5645H33.3379V11.1511H33.943V10.5645Z" fill="#3AF3FC"/>
<path d="M33.943 11.4451H33.3379V12.0317H33.943V11.4451Z" fill="#3FE0C8"/>
<path d="M33.0357 0H32.4307V0.586599H33.0357V0Z" fill="#3DC8F9"/>
<path d="M33.0357 0.880127H32.4307V1.46673H33.0357V0.880127Z" fill="#3DC8F9"/>
<path d="M33.0357 1.76074H32.4307V2.34734H33.0357V1.76074Z" fill="#3DC8F9"/>
<path d="M33.0357 2.64062H32.4307V3.22722H33.0357V2.64062Z" fill="#3DC8F9"/>
<path d="M33.0357 3.52148H32.4307V4.10808H33.0357V3.52148Z" fill="#3DC8F9"/>
<path d="M33.0357 4.40137H32.4307V4.98796H33.0357V4.40137Z" fill="#3DC8F9"/>
<path d="M33.0357 5.28198H32.4307V5.86858H33.0357V5.28198Z" fill="#3DC8F9"/>
<path d="M33.0357 6.16284H32.4307V6.74944H33.0357V6.16284Z" fill="#3AF3FC"/>
<path d="M33.0357 7.04297H32.4307V7.62957H33.0357V7.04297Z" fill="#3AF3FC"/>
<path d="M33.0357 7.92407H32.4307V8.51067H33.0357V7.92407Z" fill="#3AF3FC"/>
<path d="M33.0357 8.80347H32.4307V9.39007H33.0357V8.80347Z" fill="#3AF3FC"/>
<path d="M33.0357 9.68433H32.4307V10.2709H33.0357V9.68433Z" fill="#3AF3FC"/>
<path d="M33.0357 10.5645H32.4307V11.1511H33.0357V10.5645Z" fill="#3AF3FC"/>
<path d="M33.0357 11.4451H32.4307V12.0317H33.0357V11.4451Z" fill="#3FE0C8"/>
<path d="M33.0357 12.325H32.4307V12.9115H33.0357V12.325Z" fill="#3FE0C8"/>
<path d="M32.1266 0H31.5215V0.586599H32.1266V0Z" fill="#3DC8F9"/>
<path d="M32.1266 0.880127H31.5215V1.46673H32.1266V0.880127Z" fill="#3DC8F9"/>
<path d="M32.1266 1.76074H31.5215V2.34734H32.1266V1.76074Z" fill="#3DC8F9"/>
<path d="M32.1266 2.64062H31.5215V3.22722H32.1266V2.64062Z" fill="#3DC8F9"/>
<path d="M32.1266 3.52148H31.5215V4.10808H32.1266V3.52148Z" fill="#3DC8F9"/>
<path d="M32.1266 4.40137H31.5215V4.98796H32.1266V4.40137Z" fill="#3DC8F9"/>
<path d="M32.1266 5.28198H31.5215V5.86858H32.1266V5.28198Z" fill="#3DC8F9"/>
<path d="M32.1266 6.16284H31.5215V6.74944H32.1266V6.16284Z" fill="#3AF3FC"/>
<path d="M32.1266 7.04297H31.5215V7.62957H32.1266V7.04297Z" fill="#3AF3FC"/>
<path d="M32.1266 7.92407H31.5215V8.51067H32.1266V7.92407Z" fill="#3AF3FC"/>
<path d="M32.1266 8.80347H31.5215V9.39007H32.1266V8.80347Z" fill="#3AF3FC"/>
<path d="M32.1266 9.68433H31.5215V10.2709H32.1266V9.68433Z" fill="#3AF3FC"/>
<path d="M32.1266 10.5645H31.5215V11.1511H32.1266V10.5645Z" fill="#3AF3FC"/>
<path d="M32.1266 11.4451H31.5215V12.0317H32.1266V11.4451Z" fill="#3FE0C8"/>
<path d="M32.1266 12.325H31.5215V12.9115H32.1266V12.325Z" fill="#3FE0C8"/>
<path d="M31.2193 0.880127H30.6143V1.46673H31.2193V0.880127Z" fill="#3DC8F9"/>
<path d="M31.2193 1.76074H30.6143V2.34734H31.2193V1.76074Z" fill="#3DC8F9"/>
<path d="M31.2193 2.64062H30.6143V3.22722H31.2193V2.64062Z" fill="#3DC8F9"/>
<path d="M31.2193 3.52148H30.6143V4.10808H31.2193V3.52148Z" fill="#3DC8F9"/>
<path d="M31.2193 4.40137H30.6143V4.98796H31.2193V4.40137Z" fill="#3DC8F9"/>
<path d="M31.2193 5.28198H30.6143V5.86858H31.2193V5.28198Z" fill="#3DC8F9"/>
<path d="M31.2193 6.16284H30.6143V6.74944H31.2193V6.16284Z" fill="#3AF3FC"/>
<path d="M31.2193 7.04297H30.6143V7.62957H31.2193V7.04297Z" fill="#3AF3FC"/>
<path d="M31.2193 7.92407H30.6143V8.51067H31.2193V7.92407Z" fill="#3AF3FC"/>
<path d="M31.2193 8.80347H30.6143V9.39007H31.2193V8.80347Z" fill="#3AF3FC"/>
<path d="M31.2193 9.68433H30.6143V10.2709H31.2193V9.68433Z" fill="#3AF3FC"/>
<path d="M31.2193 10.5645H30.6143V11.1511H31.2193V10.5645Z" fill="#3AF3FC"/>
<path d="M31.2193 11.4451H30.6143V12.0317H31.2193V11.4451Z" fill="#3FE0C8"/>
<path d="M31.2193 12.325H30.6143V12.9115H31.2193V12.325Z" fill="#3FE0C8"/>
<path d="M30.3111 1.76099H29.7061V2.34759H30.3111V1.76099Z" fill="#3DC8F9"/>
<path d="M30.3111 2.64062H29.7061V3.22722H30.3111V2.64062Z" fill="#3DC8F9"/>
<path d="M30.3111 3.52173H29.7061V4.10833H30.3111V3.52173Z" fill="#3DC8F9"/>
<path d="M30.3111 4.40137H29.7061V4.98796H30.3111V4.40137Z" fill="#3DC8F9"/>
<path d="M30.3111 5.28198H29.7061V5.86858H30.3111V5.28198Z" fill="#3DC8F9"/>
<path d="M30.3111 6.16309H29.7061V6.74968H30.3111V6.16309Z" fill="#3AF3FC"/>
<path d="M30.3111 7.04321H29.7061V7.62981H30.3111V7.04321Z" fill="#3AF3FC"/>
<path d="M30.3111 7.92407H29.7061V8.51067H30.3111V7.92407Z" fill="#3AF3FC"/>
<path d="M30.3111 8.80347H29.7061V9.39007H30.3111V8.80347Z" fill="#3AF3FC"/>
<path d="M30.3111 9.68457H29.7061V10.2712H30.3111V9.68457Z" fill="#3AF3FC"/>
<path d="M30.3111 10.5647H29.7061V11.1513H30.3111V10.5647Z" fill="#3AF3FC"/>
<path d="M30.3111 11.4453H29.7061V12.0319H30.3111V11.4453Z" fill="#3FE0C8"/>
<path d="M30.3111 12.325H29.7061V12.9115H30.3111V12.325Z" fill="#3FE0C8"/>
<path d="M29.4019 2.64062H28.7969V3.22722H29.4019V2.64062Z" fill="#3DC8F9"/>
<path d="M29.4019 3.52148H28.7969V4.10808H29.4019V3.52148Z" fill="#3DC8F9"/>
<path d="M29.4019 4.40137H28.7969V4.98796H29.4019V4.40137Z" fill="#3DC8F9"/>
<path d="M29.4019 5.28198H28.7969V5.86858H29.4019V5.28198Z" fill="#3DC8F9"/>
<path d="M29.4019 6.16284H28.7969V6.74944H29.4019V6.16284Z" fill="#3AF3FC"/>
<path d="M29.4019 7.04297H28.7969V7.62957H29.4019V7.04297Z" fill="#3AF3FC"/>
<path d="M29.4019 7.92407H28.7969V8.51067H29.4019V7.92407Z" fill="#3AF3FC"/>
<path d="M29.4019 8.80347H28.7969V9.39007H29.4019V8.80347Z" fill="#3AF3FC"/>
<path d="M29.4019 9.68433H28.7969V10.2709H29.4019V9.68433Z" fill="#3AF3FC"/>
<path d="M29.4019 10.5645H28.7969V11.1511H29.4019V10.5645Z" fill="#3AF3FC"/>
<path d="M29.4019 11.4451H28.7969V12.0317H29.4019V11.4451Z" fill="#3FE0C8"/>
<path d="M29.4019 12.325H28.7969V12.9115H29.4019V12.325Z" fill="#3FE0C8"/>
<path d="M28.4947 3.52148H27.8896V4.10808H28.4947V3.52148Z" fill="#3DC8F9"/>
<path d="M28.4947 4.40137H27.8896V4.98796H28.4947V4.40137Z" fill="#3DC8F9"/>
<path d="M28.4947 5.28198H27.8896V5.86858H28.4947V5.28198Z" fill="#3DC8F9"/>
<path d="M28.4947 6.16284H27.8896V6.74944H28.4947V6.16284Z" fill="#3AF3FC"/>
<path d="M28.4947 7.04297H27.8896V7.62957H28.4947V7.04297Z" fill="#3AF3FC"/>
<path d="M28.4947 7.92407H27.8896V8.51067H28.4947V7.92407Z" fill="#3AF3FC"/>
<path d="M28.4947 8.80347H27.8896V9.39007H28.4947V8.80347Z" fill="#3AF3FC"/>
<path d="M28.4947 9.68433H27.8896V10.2709H28.4947V9.68433Z" fill="#3AF3FC"/>
<path d="M28.4947 10.5645H27.8896V11.1511H28.4947V10.5645Z" fill="#3AF3FC"/>
<path d="M28.4947 11.4451H27.8896V12.0317H28.4947V11.4451Z" fill="#3FE0C8"/>
<path d="M27.5875 4.40137H26.9824V4.98796H27.5875V4.40137Z" fill="#3DC8F9"/>
<path d="M27.5875 5.28198H26.9824V5.86858H27.5875V5.28198Z" fill="#3DC8F9"/>
<path d="M27.5875 6.16309H26.9824V6.74968H27.5875V6.16309Z" fill="#3AF3FC"/>
<path d="M27.5875 7.04321H26.9824V7.62981H27.5875V7.04321Z" fill="#3AF3FC"/>
<path d="M27.5875 7.92407H26.9824V8.51067H27.5875V7.92407Z" fill="#3AF3FC"/>
<path d="M27.5875 8.80347H26.9824V9.39007H27.5875V8.80347Z" fill="#3AF3FC"/>
<path d="M27.5875 9.68457H26.9824V10.2712H27.5875V9.68457Z" fill="#3AF3FC"/>
<path d="M27.5875 10.5647H26.9824V11.1513H27.5875V10.5647Z" fill="#3AF3FC"/>
<path d="M27.5875 11.4453H26.9824V12.0319H27.5875V11.4453Z" fill="#3FE0C8"/>
<path d="M26.6783 5.28223H26.0732V5.86883H26.6783V5.28223Z" fill="#3DC8F9"/>
<path d="M26.6783 6.16284H26.0732V6.74944H26.6783V6.16284Z" fill="#3AF3FC"/>
<path d="M26.6783 7.04297H26.0732V7.62957H26.6783V7.04297Z" fill="#3AF3FC"/>
<path d="M26.6783 7.92358H26.0732V8.51018H26.6783V7.92358Z" fill="#3AF3FC"/>
<path d="M26.6783 8.80371H26.0732V9.39031H26.6783V8.80371Z" fill="#3AF3FC"/>
<path d="M26.6783 9.68433H26.0732V10.2709H26.6783V9.68433Z" fill="#3AF3FC"/>
<path d="M52.2389 26.2622H51.6338V26.8488H52.2389V26.2622Z" fill="#39B54A"/>
<path d="M53.9498 27.1396H53.3447V27.7262H53.9498V27.1396Z" fill="#39B54A"/>
<path d="M53.1236 23.6116H52.5186V24.1982H53.1236V23.6116Z" fill="#4BC671"/>
<path d="M54.0182 23.6116H53.4131V24.1982H54.0182V23.6116Z" fill="#4BC671"/>
<path d="M54.9342 22.7346H54.3291V23.3212H54.9342V22.7346Z" fill="#4BC671"/>
<path d="M54.0182 25.375H53.4131V25.9616H54.0182V25.375Z" fill="#4BC671"/>
<path d="M54.023 24.502H53.418V25.0886H54.023V24.502Z" fill="#4BC671"/>
<path d="M53.1139 24.5017H52.5088V25.0883H53.1139V24.5017Z" fill="#4BC671"/>
<path d="M53.1139 25.3816H52.5088V25.9682H53.1139V25.3816Z" fill="#4BC671"/>
<path d="M53.1139 26.2622H52.5088V26.8488H53.1139V26.2622Z" fill="#39B54A"/>
<path d="M53.1139 27.1423H52.5088V27.7289H53.1139V27.1423Z" fill="#39B54A"/>
<path d="M33.5933 17.0059C33.7254 16.8658 33.8613 16.7275 34.0145 16.604C34.1668 16.4796 34.3286 16.358 34.5267 16.2745C34.5765 16.2541 34.6292 16.2374 34.6818 16.2188C34.7383 16.2077 34.7929 16.191 34.8522 16.1863C34.971 16.1733 35.1002 16.1854 35.2228 16.2281C35.3415 16.2736 35.4544 16.3432 35.5377 16.4267C35.6277 16.5084 35.6938 16.6003 35.7551 16.6922C35.9848 17.0653 36.0902 17.4524 36.1849 17.8329C36.2788 18.2144 36.3372 18.5949 36.3946 18.9727C36.5028 19.7301 36.5765 20.4809 36.6541 21.2263C36.7297 21.9716 36.8101 22.7113 36.9078 23.4427C37.0093 24.1732 37.1261 24.8953 37.2936 25.597C37.4554 26.2987 37.667 26.9818 37.9485 27.6139C38.0892 27.9304 38.2539 28.2302 38.4348 28.5123L38.5755 28.7193L38.7249 28.9179L38.8924 29.1184L38.9748 29.2196L39.0619 29.3152L39.2361 29.5073L39.42 29.6874C39.4803 29.7486 39.5435 29.8053 39.6076 29.8619C39.6718 29.9166 39.7321 29.9788 39.8001 30.0289L39.9992 30.1858L40.206 30.3306C40.273 30.3826 40.3467 30.4216 40.4176 30.467L40.5248 30.5339L40.6359 30.5923C41.2247 30.9126 41.8862 31.0991 42.5842 31.1316C43.2821 31.1678 44.0068 31.049 44.7076 30.8235C45.4104 30.5979 46.0892 30.2647 46.7153 29.8517C46.8733 29.7505 47.0207 29.6326 47.1739 29.524C47.329 29.4164 47.4726 29.2948 47.6172 29.1732C47.7617 29.0516 47.9073 28.9319 48.0422 28.7991C48.1792 28.6692 48.3209 28.543 48.4511 28.4065L48.8417 27.9944C48.9719 27.857 49.0896 27.7085 49.2141 27.5656L49.397 27.3493L49.5731 27.1266C49.689 26.9771 49.8077 26.8296 49.9187 26.6764L50.2519 26.217C50.363 26.0638 50.4645 25.9042 50.5707 25.7483C50.7861 25.4373 50.9814 25.1134 51.1835 24.7941C51.2821 24.6335 51.3788 24.4702 51.4745 24.3078C51.5712 24.1453 51.6669 23.9829 51.7598 23.8177C51.9455 23.4891 52.1284 23.1578 52.3074 22.8255C52.6712 22.1637 53.0102 21.4871 53.3558 20.8151L53.8689 19.8025L54.1255 19.2957C54.2088 19.1295 54.2892 18.9653 54.3649 18.7973C54.5161 18.4631 54.6502 18.1225 54.7612 17.78C54.8761 17.4384 54.9671 17.0922 55.0188 16.7525C55.0446 16.5836 55.059 16.4156 55.0571 16.2578C55.0571 16.1019 55.037 15.9524 54.9996 15.8559C54.9824 15.8076 54.9604 15.777 54.9498 15.7705C54.947 15.7705 54.9451 15.7705 54.9451 15.7677C54.9441 15.7687 54.9441 15.7705 54.9451 15.7696C54.9441 15.7714 54.947 15.7733 54.9451 15.7724C54.9374 15.7705 54.9297 15.7687 54.9221 15.7659C54.8934 15.7594 54.8704 15.7585 54.8397 15.7612C54.8091 15.765 54.7679 15.7798 54.722 15.8002C54.6262 15.8457 54.5114 15.9311 54.4003 16.0397C54.2892 16.1474 54.1811 16.2736 54.0786 16.4091C53.8728 16.681 53.689 16.9883 53.5195 17.3048C53.1806 17.9406 52.8972 18.62 52.6435 19.3096C52.3879 20.0002 52.1648 20.7046 51.9676 21.4165C51.5779 22.8422 51.2629 24.2901 51.06 25.7473C51.0083 26.1112 50.9652 26.4759 50.9307 26.8407C50.8962 27.2092 50.8742 27.5573 50.8713 27.9137C50.8675 28.2673 50.8876 28.6181 50.9355 28.9606C50.9834 29.3031 51.0542 29.6382 51.1633 29.9538C51.3778 30.5849 51.7569 31.1372 52.2931 31.449C52.5592 31.6059 52.8618 31.7071 53.1825 31.7405C53.5032 31.7767 53.8402 31.746 54.1715 31.6681C54.835 31.5029 55.4707 31.1474 56.0164 30.6842C56.5602 30.2164 57.0255 29.6465 57.3979 29.02C58.1447 27.7605 58.519 26.2875 58.6052 24.795C58.6071 24.7644 58.6339 24.7403 58.6655 24.7421C58.6942 24.744 58.7172 24.7663 58.7191 24.7941C58.743 25.1719 58.7536 25.5515 58.7382 25.932C58.7201 26.3126 58.6818 26.6931 58.6176 27.0718C58.4893 27.8283 58.2605 28.5764 57.9158 29.2808C57.5731 29.9862 57.1174 30.6508 56.5353 31.217C55.9532 31.7795 55.2466 32.2575 54.4156 32.5062C54.0011 32.6269 53.5568 32.6937 53.1049 32.6668C52.654 32.6417 52.1954 32.5229 51.7895 32.3048C51.5884 32.1953 51.395 32.0681 51.2246 31.9196C51.1346 31.8491 51.059 31.7665 50.9776 31.6894C50.9039 31.6059 50.8244 31.5261 50.7593 31.4379C50.4836 31.0917 50.2758 30.7093 50.1255 30.3176C49.822 29.5324 49.7129 28.7184 49.6966 27.9248C49.6928 27.8255 49.6938 27.7262 49.6947 27.6269C49.6966 27.5275 49.6947 27.4282 49.7005 27.3298L49.7139 27.0347L49.734 26.746C49.7636 26.3618 49.8029 25.9794 49.8508 25.5979C50.048 24.0739 50.3687 22.573 50.812 21.1037C51.26 19.6354 51.7866 18.1865 52.5688 16.8073C52.7679 16.4639 52.9834 16.1242 53.2466 15.7965C53.3788 15.6332 53.5224 15.4726 53.6909 15.3194C53.8584 15.1672 54.0547 15.0196 54.3122 14.9092C54.4434 14.8563 54.5879 14.8117 54.7517 14.7997C54.9144 14.7876 55.0867 14.8089 55.2418 14.8619C55.2801 14.8758 55.3175 14.8906 55.3548 14.9064C55.396 14.9259 55.441 14.9519 55.4822 14.976C55.5214 15.0039 55.5607 15.0326 55.597 15.0633C55.6305 15.0948 55.6631 15.1282 55.6928 15.1616C55.8086 15.299 55.8718 15.442 55.912 15.5719C55.9905 15.8346 55.9972 16.0657 55.9848 16.2838C55.9714 16.5019 55.9379 16.708 55.8929 16.9084C55.711 17.7057 55.3855 18.4214 55.0054 19.1026C54.9106 19.2725 54.8101 19.4405 54.7086 19.6048L54.4089 20.0883L53.8096 21.0555L52.6071 22.9898L52.3046 23.4724L51.9972 23.9523C51.7981 24.2753 51.5836 24.5899 51.3816 24.9111C50.9623 25.5459 50.5382 26.1771 50.0892 26.7934C49.6344 27.406 49.1691 28.0121 48.6588 28.5875C48.1476 29.1611 47.599 29.7078 46.9977 30.2109C46.3907 30.7074 45.7254 31.1483 44.9939 31.4964C44.2644 31.8426 43.4583 32.0913 42.6043 32.1572C42.1782 32.1916 41.7416 32.1711 41.3099 32.1025C40.88 32.0273 40.4559 31.9038 40.0576 31.7275C39.2543 31.3813 38.5621 30.8476 37.9925 30.2443C37.8431 30.0967 37.7168 29.9352 37.5818 29.7793L37.3865 29.524L37.2055 29.2614C36.9738 28.9077 36.7862 28.5355 36.6225 28.1606C36.295 27.4097 36.0921 26.6356 35.9398 25.8671C35.8652 25.4819 35.8087 25.0967 35.7608 24.7124C35.712 24.3282 35.6766 23.9448 35.6517 23.5624C35.5971 22.7976 35.5789 22.0375 35.5712 21.2819L35.5674 20.1533C35.5693 19.7783 35.5674 19.4052 35.5617 19.0349C35.5569 18.6645 35.5435 18.2961 35.5138 17.935C35.4994 17.754 35.4765 17.5767 35.4449 17.4041C35.4142 17.2314 35.374 17.0635 35.3118 16.9159C35.2486 16.7692 35.1691 16.6449 35.059 16.5771C34.9499 16.5121 34.791 16.4954 34.6206 16.5381C34.4511 16.5771 34.2778 16.6523 34.1112 16.7395C33.9427 16.8258 33.7828 16.9307 33.6201 17.0347C33.6105 17.0412 33.5981 17.0384 33.5914 17.0291C33.5856 17.0217 33.5875 17.0115 33.5933 17.005V17.0059Z" fill="#288DD1"/>
<path d="M0.849485 41.173H2.67914V46.8711C2.67914 47.8774 2.95359 48.8053 4.33891 48.8053C5.69808 48.8053 5.95946 47.9297 5.95946 46.8711V41.173H7.80219V46.9103C7.80219 48.7922 7.00498 50.2559 4.2997 50.2559C1.63362 50.2559 0.849485 48.8314 0.849485 46.9233V41.173ZM9.46706 50.1252V45.4727C9.46706 44.0874 9.45399 43.6692 9.44092 43.3686H11.166C11.1922 43.4862 11.2314 43.9175 11.2314 44.2442C11.5058 43.7214 12.1462 43.2379 13.1133 43.2379C14.5248 43.2379 15.2436 44.1396 15.2436 45.6949V50.1252H13.4662V46.0346C13.4662 45.2766 13.2832 44.7016 12.4337 44.7016C11.6365 44.7016 11.2314 45.1721 11.2314 46.3614V50.1252H9.46706ZM17.0639 50.1252V43.3686H18.8282V50.1252H17.0639ZM17.0639 42.2577V40.6241H18.8282V42.2577H17.0639ZM27.2535 47.6813H27.9853C27.5671 49.132 26.4824 50.2429 24.5482 50.2429C21.9082 50.2429 20.5229 48.1518 20.5229 45.5772C20.5229 43.1072 21.8821 40.8593 24.5612 40.8593C26.5347 40.8593 27.6978 41.9571 27.9984 43.4862H27.2665C26.8614 42.31 26.0903 41.5258 24.522 41.5258C22.2611 41.5258 21.3071 43.5907 21.3071 45.5642C21.3071 47.5114 22.248 49.5633 24.5743 49.5633C26.0511 49.5633 26.8091 48.7922 27.2535 47.6813ZM30.492 50.1252H29.8124V40.5065H30.492V50.1252ZM35.1687 43.4339C36.9199 43.4339 38.07 44.7931 38.07 46.8449C38.07 48.6746 37.0506 50.2821 35.1033 50.2821C33.339 50.2821 32.2281 48.8314 32.2281 46.858C32.2281 44.9891 33.2737 43.4339 35.1687 43.4339ZM35.1295 44.0743C33.6527 44.0743 32.9469 45.3028 32.9469 46.858C32.9469 48.4132 33.7834 49.6548 35.1556 49.6548C36.554 49.6548 37.3512 48.5047 37.3512 46.858C37.3512 45.3289 36.5671 44.0743 35.1295 44.0743ZM44.7257 43.5907V48.2172C44.7257 48.8576 44.7387 49.8769 44.7387 50.1252H44.0853C44.0592 49.9553 44.0461 49.5371 44.0461 49.0013C43.7716 49.7724 43.1051 50.2821 41.942 50.2821C41.001 50.2821 39.7987 49.9161 39.7987 47.9166V43.5907H40.4652V47.7598C40.4652 48.7138 40.7658 49.6286 42.0465 49.6286C43.4972 49.6286 44.0461 48.8183 44.0461 46.9625V43.5907H44.7257ZM51.3786 40.5065H52.0582V48.2564C52.0582 48.8837 52.0582 49.4849 52.0713 50.1252H51.4178C51.3917 49.9684 51.3786 49.3672 51.3786 49.0405C51.0519 49.8377 50.32 50.2821 49.183 50.2821C47.4841 50.2821 46.4647 48.9098 46.4647 46.9364C46.4647 44.9238 47.5755 43.4339 49.366 43.4339C50.6598 43.4339 51.1826 43.9959 51.3786 44.4141V40.5065ZM49.3399 44.0743C48.0591 44.0743 47.1835 45.0937 47.1835 46.9103C47.1835 48.6877 48.1114 49.6548 49.2222 49.6548C50.9473 49.6548 51.4048 48.4655 51.4048 46.7142C51.4048 45.0283 51.0127 44.0743 49.3399 44.0743Z" fill="#288DD1"/>
<path d="M56.4934 41.3234H58.4407L59.9305 50.4717H58.4929L58.2315 48.6551V48.6812H56.5979L56.3365 50.4717H55.0035L56.4934 41.3234ZM58.0617 47.4397L57.4213 42.9178H57.3951L56.7678 47.4397H58.0617ZM60.8894 41.3234H64.6924V42.6303H62.3269V45.1787H64.1827V46.4856H62.3269V50.4717H60.8894V41.3234ZM65.6432 41.3234H67.7734C68.514 41.3234 69.0542 41.4976 69.394 41.8461C69.7338 42.1859 69.9037 42.7131 69.9037 43.4275V43.9895C69.9037 44.9391 69.59 45.5403 68.9627 45.793V45.8191C69.3112 45.9237 69.5552 46.1371 69.6946 46.4595C69.8427 46.7819 69.9168 47.2131 69.9168 47.7533V49.3608C69.9168 49.6222 69.9255 49.8357 69.9429 50.0012C69.9603 50.158 70.0039 50.3149 70.0736 50.4717H68.6099C68.5576 50.3236 68.5227 50.1842 68.5053 50.0535C68.4879 49.9228 68.4792 49.6875 68.4792 49.3477V47.6749C68.4792 47.2567 68.4095 46.9648 68.2701 46.7993C68.1394 46.6338 67.9085 46.551 67.5774 46.551H67.0808V50.4717H65.6432V41.3234ZM67.6036 45.2441C67.8911 45.2441 68.1045 45.17 68.2439 45.0219C68.392 44.8738 68.4661 44.6255 68.4661 44.277V43.5712C68.4661 43.2402 68.4051 43.0006 68.2831 42.8525C68.1699 42.7043 67.9869 42.6303 67.7342 42.6303H67.0808V45.2441H67.6036ZM71.1756 41.3234H72.6132V50.4717H71.1756V41.3234ZM75.9769 50.6024C75.2886 50.6024 74.7615 50.4063 74.3955 50.0143C74.0383 49.6222 73.8597 49.0689 73.8597 48.3545V43.4406C73.8597 42.7261 74.0383 42.1729 74.3955 41.7808C74.7615 41.3887 75.2886 41.1927 75.9769 41.1927C76.6652 41.1927 77.188 41.3887 77.5452 41.7808C77.9111 42.1729 78.0941 42.7261 78.0941 43.4406V44.4077H76.7349V43.3491C76.7349 42.7828 76.4953 42.4996 76.0161 42.4996C75.5369 42.4996 75.2973 42.7828 75.2973 43.3491V48.4591C75.2973 49.0167 75.5369 49.2955 76.0161 49.2955C76.4953 49.2955 76.7349 49.0167 76.7349 48.4591V47.0607H78.0941V48.3545C78.0941 49.0689 77.9111 49.6222 77.5452 50.0143C77.188 50.4063 76.6652 50.6024 75.9769 50.6024ZM80.3264 41.3234H82.2737L83.7636 50.4717H82.326L82.0646 48.6551V48.6812H80.431L80.1696 50.4717H78.8366L80.3264 41.3234ZM81.8947 47.4397L81.2543 42.9178H81.2282L80.6009 47.4397H81.8947Z" fill="#39B448"/>
<path d="M1.28906 54.8083H84.2112" stroke="#39B448" stroke-width="0.65345" stroke-miterlimit="10"/>
</svg>
