<svg width="138" height="150" viewBox="0 0 138 150" fill="none" xmlns="http://www.w3.org/2000/svg">
<path d="M91.146 14.3664C91.146 14.3664 87.7049 18.0006 86.3723 19.8893C85.0397 21.7779 88.057 21.4274 90.3019 18.3512C92.5469 15.275 94.4435 15.207 94.4435 15.207L98.0247 15.486C98.0247 15.486 102.094 21.6026 103.991 27.8945C105.887 34.1864 112.202 43.5187 114.203 44.7742C116.204 46.0333 116.624 48.4441 116.732 49.3885C116.836 50.3328 120.313 52.2178 120.313 52.9547V58.0912C120.313 58.0912 131.893 57.1469 135.579 54.525C139.264 51.9031 138.316 57.4617 135.579 60.8168C132.842 64.172 129.997 68.9938 130.525 71.0935C131.053 73.1896 128.944 72.9821 127.155 73.4006C125.367 73.8191 117.967 81.1554 115.834 88.4954C113.7 95.8353 112.224 97.5129 114.54 100.342C116.857 103.172 117.26 106.008 116.944 108.945C116.627 111.882 115.575 111.985 112.838 112.511C110.101 113.037 109.048 114.085 108.941 114.818C108.836 115.551 103.887 116.285 103.675 116.707C103.463 117.125 110.535 122.598 102.145 132.209C101.175 133.318 99.5692 134.846 99.5692 134.846C99.5692 134.846 95.5677 138.727 91.8824 143.023C88.197 147.322 88.9334 148.789 84.6159 148.789C80.2983 148.789 76.9291 151.514 73.7717 148.789C70.6144 146.063 69.4542 145.537 69.5619 143.441C69.6661 141.345 65.9808 139.456 65.2444 137.571C64.5081 135.683 61.3471 129.498 63.5598 129.394C65.7724 129.291 65.6647 126.88 64.192 125.935C62.7193 124.991 62.0871 126.354 61.4549 124.676C60.8227 122.999 60.4024 121.425 60.0864 119.747C59.7703 118.07 59.4542 120.166 58.0856 116.288C56.7171 112.407 55.7688 110.311 56.0849 108.845C56.401 107.378 58.6101 105.175 60.4024 104.23C62.1912 103.286 65.0361 101.086 63.1395 99.6161C61.243 98.1496 59.6661 99.6161 59.5583 97.7275C59.4542 95.8389 59.6625 92.0652 57.9779 90.0728C56.2932 88.0804 55.2408 89.9691 53.2401 86.8213C51.2394 83.6772 49.5906 79.6567 51.5554 77.7001C53.5202 75.7435 54.5044 77.2816 55.0648 74.0659C55.6251 70.8502 54.6445 69.8701 55.345 68.7541C56.0454 67.6345 50.7724 65.8174 50.6718 67.3555C50.5713 68.8936 47.4858 70.7107 45.6574 70.5712C43.8327 70.4317 43.8327 67.6345 42.2882 66.7975C40.7437 65.9605 39.1991 64.2829 37.2343 66.658C35.2695 69.0331 34.1452 69.7342 31.48 69.7342C28.8148 69.7342 26.9864 68.6146 25.0216 68.8972C23.0568 69.1762 19.8959 68.8257 19.7558 71.4118C19.6157 73.9979 16.6667 73.998 15.0539 70.7823C13.4412 67.5666 12.6689 68.9652 10.8442 67.4986C9.01945 66.0321 8.5992 61.5036 7.3887 59.776C6.17821 58.0447 2.59703 56.2097 0.966278 55.1116C-0.664472 54.0099 0.0718798 45.9725 0.966278 45.3429C1.86068 44.7134 4.66959 43.7369 3.96557 41.5692C3.26514 39.4016 1.72058 37.0265 1.01656 36.8154C0.316127 36.6044 1.22849 31.5037 2.70119 30.8741C4.17389 30.2446 6.21054 29.336 6.21054 27.5189C6.21054 25.7018 4.59774 19.3062 6.59487 19.621C8.5956 19.9358 13.0173 19.3062 13.8614 17.9434C14.7055 16.5806 18.7034 7.56307 24.9175 7.6668C31.128 7.77053 29.3392 10.3924 31.5518 7.6668C33.7645 4.94116 36.6057 4.20788 39.1309 3.26356C41.656 2.31925 41.656 -0.195356 43.7645 0.0121079C45.8694 0.223149 45.7652 2.10821 47.0296 3.3673C48.2939 4.62639 50.9268 2.84148 53.1359 3.57834C55.3486 4.31161 56.9254 5.98921 57.0332 7.14457C57.1374 8.29635 54.8205 8.50739 54.7164 9.0332C54.6122 9.55901 53.98 10.6071 55.873 11.4441C57.7695 12.2811 66.4333 16.1621 68.998 16.7916C71.5627 17.4212 71.9829 16.7916 75.5605 13.9623C79.1417 11.1329 79.9822 11.4441 81.4549 13.1217C82.9276 14.7993 92.4176 13 91.1424 14.3808L91.146 14.3664Z" fill="url(#paint0_linear_566_26502)"/>
<path d="M130.945 107.725C130.945 107.725 133.226 111.932 132.957 113.266C132.688 114.6 131.147 112.798 130.945 114.135C130.744 115.47 131.883 116.671 130.611 118.875C129.336 121.078 128.33 119.808 128.266 122.012C128.201 124.215 126.858 125.417 126.588 126.419C126.319 127.42 124.979 130.489 123.37 131.627C121.761 132.761 121.089 133.497 120.421 131.627C119.749 129.756 118.542 125.818 119.548 124.816C120.554 123.815 122.027 123.815 121.56 121.611C121.089 119.408 122.296 115.87 122.698 115.602C123.101 115.334 123.704 115.67 125.313 114.869C126.922 114.067 127.393 113.266 128.129 112.197C128.866 111.127 128.934 109.993 128.866 109.192C128.797 108.391 130.608 107.078 130.945 107.722V107.725Z" fill="url(#paint1_linear_566_26502)"/>
<defs>
<linearGradient id="paint0_linear_566_26502" x1="3.0475" y1="137.063" x2="137.039" y2="125.086" gradientUnits="userSpaceOnUse">
<stop stop-color="#288DD1"/>
<stop offset="1" stop-color="#3FE0C8"/>
</linearGradient>
<linearGradient id="paint1_linear_566_26502" x1="3.0475" y1="137.063" x2="137.039" y2="125.086" gradientUnits="userSpaceOnUse">
<stop stop-color="#288DD1"/>
<stop offset="1" stop-color="#3FE0C8"/>
</linearGradient>
</defs>
</svg>
