<svg width="20" height="20" viewBox="0 0 20 20" fill="none" xmlns="http://www.w3.org/2000/svg">
<path opacity="0.4" d="M16.75 5.78328C16.75 6.23328 16.5083 6.64159 16.125 6.84992L14.675 7.63325L13.4417 8.29162L10.8833 9.67493C10.6083 9.82493 10.3083 9.89995 10 9.89995C9.69167 9.89995 9.39167 9.82493 9.11667 9.67493L3.875 6.84992C3.49167 6.64159 3.25 6.23328 3.25 5.78328C3.25 5.33328 3.49167 4.92492 3.875 4.71659L5.51667 3.83326L6.82501 3.12494L9.11667 1.89163C9.66667 1.59163 10.3333 1.59163 10.8833 1.89163L16.125 4.71659C16.5083 4.92492 16.75 5.33328 16.75 5.78328Z" fill="#666666"/>
<path opacity="0.4" d="M8.25091 10.6584L3.3759 8.2167C3.0009 8.02503 2.56757 8.05003 2.20924 8.26669C1.85091 8.48336 1.64258 8.86672 1.64258 9.28339V13.8917C1.64258 14.6917 2.08423 15.4084 2.8009 15.7667L7.6759 18.2001C7.84257 18.2834 8.02592 18.325 8.20925 18.325C8.42592 18.325 8.64258 18.2667 8.83425 18.1417C9.19258 17.9251 9.40091 17.5417 9.40091 17.125V12.5167C9.40924 11.7334 8.96757 11.0167 8.25091 10.6584Z" fill="#666666"/>
<path opacity="0.4" d="M18.3585 9.29172V13.9C18.3585 14.6917 17.9168 15.4083 17.2001 15.7667L12.3251 18.2083C12.1585 18.2917 11.9751 18.3334 11.7918 18.3334C11.5751 18.3334 11.3585 18.2751 11.1585 18.1501C10.8085 17.9334 10.5918 17.55 10.5918 17.1334V12.5333C10.5918 11.7333 11.0335 11.0167 11.7501 10.6583L13.5418 9.76667L14.7918 9.14167L16.6251 8.22502C17.0001 8.03336 17.4335 8.05002 17.7918 8.27502C18.1418 8.49169 18.3585 8.87505 18.3585 9.29172Z" fill="#666666"/>
<path d="M14.674 7.63331L13.4406 8.29168L5.51562 3.83331L6.82396 3.125L14.474 7.44166C14.5573 7.49166 14.624 7.55831 14.674 7.63331Z" fill="#666666"/>
<path d="M14.791 9.1416V11.0333C14.791 11.375 14.5077 11.6583 14.166 11.6583C13.8243 11.6583 13.541 11.375 13.541 11.0333V9.7666L14.791 9.1416Z" fill="#666666"/>
</svg>
