<svg width="349" height="134" viewBox="0 0 349 134" fill="none" xmlns="http://www.w3.org/2000/svg">
<path d="M238.565 76.0395L242.045 77.0831C241.813 78.0687 241.465 78.8804 240.943 79.5182C240.421 80.156 239.841 80.6778 239.087 80.9677C238.333 81.3156 237.405 81.4895 236.245 81.4895C234.853 81.4895 233.751 81.3155 232.823 80.9097C231.953 80.5038 231.199 79.8081 230.561 78.7645C229.923 77.7788 229.575 76.4453 229.575 74.8799C229.575 72.7926 230.155 71.1692 231.257 70.0096C232.359 68.8501 233.983 68.3282 236.013 68.3282C237.637 68.3282 238.855 68.6761 239.783 69.3139C240.711 69.9517 241.407 70.9373 241.813 72.3288L238.333 73.0825C238.217 72.6767 238.101 72.3868 237.927 72.2128C237.695 71.923 237.463 71.691 237.115 71.5171C236.767 71.3432 236.419 71.2852 236.071 71.2852C235.201 71.2852 234.505 71.633 234.041 72.3868C233.693 72.9086 233.519 73.7783 233.519 74.8799C233.519 76.2714 233.751 77.257 234.157 77.7788C234.563 78.3006 235.201 78.5905 235.955 78.5905C236.709 78.5905 237.289 78.3586 237.637 77.9528C238.101 77.431 238.391 76.8512 238.565 76.0395Z" fill="#225E63"/>
<path d="M243.438 74.8802C243.438 72.793 244.018 71.1696 245.178 70.01C246.338 68.8504 247.962 68.2706 250.05 68.2706C252.196 68.2706 253.82 68.8504 254.98 69.952C256.14 71.1116 256.72 72.677 256.72 74.7643C256.72 76.2717 256.488 77.4893 255.966 78.417C255.444 79.3446 254.748 80.0984 253.762 80.6202C252.834 81.142 251.616 81.4319 250.224 81.4319C248.774 81.4319 247.614 81.1999 246.628 80.7361C245.7 80.2723 244.946 79.5765 244.308 78.5329C243.67 77.4893 243.438 76.3877 243.438 74.8802ZM247.382 74.8802C247.382 76.1558 247.614 77.0834 248.078 77.6632C248.542 78.243 249.18 78.5329 250.05 78.5329C250.92 78.5329 251.558 78.243 252.022 77.7212C252.486 77.1414 252.718 76.1558 252.718 74.7643C252.718 73.5467 252.486 72.677 251.964 72.1552C251.5 71.5754 250.804 71.3435 249.992 71.3435C249.18 71.3435 248.542 71.6334 248.078 72.2132C247.614 72.677 247.382 73.6047 247.382 74.8802Z" fill="#225E63"/>
<path d="M258.75 68.5032H263.912L265.884 76.2724L267.856 68.5032H273.019V81.2586H269.771V71.5181L267.276 81.2586H264.376L261.882 71.5181V81.2586H258.634V68.5032H258.75Z" fill="#225E63"/>
<path d="M275.57 68.5032H282.124C283.574 68.5032 284.618 68.851 285.314 69.5468C286.01 70.2425 286.358 71.1702 286.358 72.4457C286.358 73.7213 285.952 74.7649 285.198 75.4607C284.444 76.2144 283.226 76.5623 281.66 76.5623H279.514V81.3165H275.57V68.5032ZM279.514 73.9532H280.5C281.254 73.9532 281.776 73.8372 282.124 73.5473C282.414 73.2574 282.588 72.9676 282.588 72.5617C282.588 72.1559 282.472 71.808 282.182 71.5181C281.892 71.2282 281.428 71.1122 280.674 71.1122H279.572V73.9532H279.514Z" fill="#225E63"/>
<path d="M288.446 68.5032H292.39V78.1277H298.539V81.2586H288.446V68.5032Z" fill="#225E63"/>
<path d="M300.511 68.5032H304.455V81.2586H300.511V68.5032Z" fill="#225E63"/>
<path d="M315.128 79.1127H310.662L310.024 81.2H306.021L310.836 68.4446H315.128L319.942 81.2H315.824L315.128 79.1127ZM314.316 76.3877L312.924 71.8074L311.532 76.3877H314.316Z" fill="#225E63"/>
<path d="M321.159 68.5032H324.813L329.627 75.5766V68.5032H333.339V81.2586H329.627L324.871 74.2431V81.2586H321.159V68.5032Z" fill="#225E63"/>
<path d="M335.08 68.5032H347.086V71.634H343.084V81.2586H339.14V71.634H335.138V68.5032H335.08Z" fill="#225E63"/>
<path d="M191.12 87.9259L202.546 84.3312L198.834 76.0981C196.108 79.5189 193.382 83.9253 191.12 87.9259ZM187.234 50.2975L164.845 0.435547L0.933594 9.71219L46.3486 133.555L133.757 106.015C128.188 98.0142 126.158 88.5057 132.597 83.8673C139.789 78.6492 150.635 84.679 157.537 93.2019C164.207 82.07 182.942 56.1534 187.234 50.2975Z" fill="#225E63"/>
<path d="M159.738 36.4692C166.583 36.4692 172.151 31.2511 172.151 24.7574C172.151 18.2638 166.583 13.0457 159.738 13.0457C152.894 13.0457 147.326 18.2638 147.326 24.7574C147.326 31.1931 152.894 36.4692 159.738 36.4692ZM149.588 41.5133H169.889V94.5641H149.588V41.5133Z" fill="#FEFEFE"/>
<path d="M139.555 56.9935C139.729 57.0515 139.845 56.9935 139.845 56.8196V43.3684C139.845 43.1945 139.729 43.0206 139.555 42.9046C139.555 42.9046 136.886 41.1652 128.766 40.7014C128.36 40.4695 121.226 40.4115 119.312 40.7014C89.7314 43.0785 88.6294 64.4728 88.6294 65.4005V70.6186C88.6294 71.2563 88.6294 93.1144 119.312 95.0277C122.328 95.2597 128.186 95.0277 128.766 95.0277C135.842 95.0277 140.715 92.8825 140.715 92.8825C140.889 92.8245 141.005 92.6506 141.005 92.4767V79.8952C141.005 79.7213 140.889 79.6633 140.773 79.7793C140.773 79.7793 138.569 81.5186 128.94 82.5043C126.214 82.7942 124.88 82.6782 123.894 82.5043C110.206 80.1851 109.568 70.2127 109.568 70.2127C109.568 70.0388 109.51 69.7489 109.51 69.6329V65.8063C109.51 65.6324 109.51 65.3425 109.568 65.2265C109.568 65.2265 110.496 54.5004 123.894 53.3408H128.94C134.798 54.0946 139.555 56.9935 139.555 56.9935Z" fill="#FEFEFE"/>
<path d="M32.252 94.3901C32.252 94.564 32.368 94.6799 32.542 94.6799H52.3204C52.4944 94.6799 52.6104 94.564 52.6104 94.3901V78.9676C52.6104 78.7937 52.7264 78.6777 52.9004 78.6777C52.9004 78.6777 84.5111 80.9389 84.5111 59.7766C84.5111 43.0206 64.6747 41.2233 58.1785 41.5132C58.0625 41.5132 32.542 41.5132 32.542 41.5132C32.368 41.5132 32.252 41.6292 32.252 41.8031V94.3901ZM52.2624 66.908V53.051H57.1345C57.1345 53.051 64.1527 53.3409 64.7327 58.1532C64.8487 58.501 64.8487 60.8782 64.7327 60.9941C63.8047 66.6181 57.7145 66.908 57.7145 66.908H52.2624Z" fill="#FEFEFE"/>
<path d="M160.321 120.162C161.945 120.162 163.221 120.162 165.309 119.234C172.501 115.466 196.804 56.1532 222.441 37.8898C222.615 37.7739 222.789 37.5999 222.905 37.426C223.079 37.1941 223.079 36.9621 223.079 36.9621C223.079 36.9621 223.079 35.7446 219.308 35.7446C196.514 35.1068 172.791 82.9395 160.321 101.841C160.147 102.073 159.335 101.841 159.335 101.841C159.335 101.841 150.983 91.9842 143.733 88.2156C143.559 88.1576 142.747 87.8677 141.877 87.9257C141.297 87.9257 137.933 88.6214 136.367 90.2449C134.511 92.2161 134.569 93.3177 134.569 95.6949C134.569 95.8688 134.685 96.6805 134.917 97.0864C136.715 100.217 144.777 111.349 151.447 117.495C152.433 118.249 153.999 120.162 160.321 120.162Z" fill="#2BBC5D"/>
<path d="M229.169 19.9735H248.135C251.905 19.9735 254.922 20.4953 257.184 21.481C259.504 22.5246 261.418 23.9741 262.868 25.8294C264.376 27.7427 265.478 29.9459 266.116 32.439C266.812 34.9321 267.16 37.5991 267.16 40.4401C267.16 44.8465 266.638 48.2673 265.652 50.7024C264.666 53.1375 263.274 55.1668 261.476 56.8482C259.678 58.4716 257.764 59.5732 255.734 60.153C252.949 60.9067 250.397 61.2546 248.135 61.2546H229.169V19.9735ZM241.929 29.3081V51.862H245.061C247.729 51.862 249.643 51.5721 250.745 50.9923C251.847 50.4125 252.775 49.3689 253.414 47.9194C254.052 46.4699 254.4 44.0348 254.4 40.73C254.4 36.3236 253.704 33.3667 252.253 31.7432C250.803 30.1198 248.483 29.3081 245.119 29.3081H241.929Z" fill="#225E63"/>
<path d="M270.698 47.6296L282.878 46.8758C283.168 48.8471 283.69 50.3546 284.502 51.3982C285.836 53.0796 287.692 53.8913 290.128 53.8913C291.926 53.8913 293.376 53.4854 294.362 52.6157C295.348 51.7461 295.87 50.7604 295.87 49.6588C295.87 48.6152 295.406 47.6296 294.478 46.7599C293.55 45.8902 291.346 45.1365 287.924 44.3827C282.298 43.1072 278.354 41.4258 275.918 39.3386C273.482 37.2513 272.322 34.5843 272.322 31.3375C272.322 29.1922 272.96 27.221 274.178 25.3077C275.396 23.3943 277.252 21.9449 279.746 20.8433C282.24 19.7417 285.604 19.2198 289.896 19.2198C295.174 19.2198 299.234 20.2055 301.96 22.1768C304.745 24.1481 306.369 27.2789 306.891 31.5694L294.826 32.2651C294.478 30.4098 293.84 29.0763 292.796 28.2066C291.752 27.3369 290.36 26.9311 288.562 26.9311C287.054 26.9311 285.952 27.221 285.198 27.8587C284.444 28.4965 284.096 29.2502 284.096 30.1779C284.096 30.8157 284.386 31.4534 285.024 31.9752C285.604 32.497 287.054 33.0188 289.316 33.4827C294.884 34.7002 298.886 35.9178 301.322 37.1354C303.759 38.3529 305.499 39.9184 306.601 41.7157C307.703 43.5131 308.225 45.6003 308.225 47.8615C308.225 50.5285 307.471 52.9636 306.021 55.1668C304.571 57.428 302.482 59.1094 299.872 60.269C297.262 61.4286 293.898 62.0084 289.896 62.0084C282.878 62.0084 278.006 60.6748 275.28 57.9498C272.612 55.2248 271.104 51.8041 270.698 47.6296Z" fill="#225E63"/>
<path d="M311.473 47.6296L323.653 46.8758C323.943 48.8471 324.465 50.3546 325.277 51.3982C326.611 53.0796 328.467 53.8913 330.903 53.8913C332.701 53.8913 334.151 53.4854 335.137 52.6157C336.123 51.7461 336.645 50.7604 336.645 49.6588C336.645 48.6152 336.181 47.6296 335.253 46.7599C334.325 45.8902 332.121 45.1365 328.699 44.3827C323.073 43.1072 319.129 41.4258 316.693 39.3386C314.315 37.2513 313.097 34.5843 313.097 31.3375C313.097 29.1922 313.735 27.221 314.953 25.3077C316.171 23.3943 318.027 21.9449 320.521 20.8433C323.015 19.7417 326.379 19.2198 330.671 19.2198C335.949 19.2198 340.009 20.2055 342.735 22.1768C345.519 24.1481 347.143 27.2789 347.665 31.5694L335.601 32.2651C335.253 30.4098 334.615 29.0763 333.571 28.2066C332.527 27.3369 331.135 26.9311 329.337 26.9311C327.829 26.9311 326.727 27.221 325.973 27.8587C325.219 28.4965 324.871 29.2502 324.871 30.1779C324.871 30.8157 325.161 31.4534 325.799 31.9752C326.379 32.497 327.829 33.0188 330.091 33.4827C335.659 34.7002 339.661 35.9178 342.097 37.1354C344.533 38.3529 346.273 39.9184 347.375 41.7157C348.477 43.5131 349 45.6003 349 47.8615C349 50.5285 348.245 52.9636 346.795 55.1668C345.345 57.428 343.257 59.1094 340.647 60.269C338.037 61.4286 334.673 62.0084 330.671 62.0084C323.653 62.0084 318.781 60.6748 316.055 57.9498C313.329 55.2248 311.821 51.8041 311.473 47.6296Z" fill="#225E63"/>
</svg>
