<svg width="600" height="100" viewBox="0 0 600 100" fill="none" xmlns="http://www.w3.org/2000/svg">
<mask id="mask0_566_26035" style="mask-type:luminance" maskUnits="userSpaceOnUse" x="0" y="-500" width="600" height="600">
<path d="M600 -500H0V100H600V-500Z" fill="white"/>
</mask>
<g mask="url(#mask0_566_26035)">
<g opacity="0.27">
<path d="M558.076 132.648C558.579 129.691 558.988 127.018 559.523 124.407C560.12 121.451 560.686 118.463 561.536 115.601C562.574 112.047 564.272 110.852 567.983 111.04C572.198 111.261 576.412 111.764 580.627 112.141C581.193 112.204 581.759 112.298 582.545 112.393C582.388 111.701 582.357 111.166 582.199 110.694C580.784 105.882 579.463 101.007 577.828 96.2582C576.664 92.8615 576.947 90.0623 579.778 87.672C581.728 86.0365 583.489 84.1808 585.565 82.7655C586.917 81.822 588.584 81.2244 590.219 80.8784C593.176 80.2494 595.849 81.5704 597.296 84.2438C597.925 85.4075 598.397 86.6655 598.68 87.955C601.825 102.234 604.939 116.513 607.958 130.823C608.43 133.088 608.681 135.447 608.713 137.774C608.744 142.743 605.536 145.134 600.819 143.561C598.428 142.743 596.132 141.58 593.994 140.259C588.584 136.925 583.269 133.434 577.89 130.037C577.293 129.66 576.632 129.377 575.594 128.81C575.815 131.61 576.003 134 576.224 136.422C576.821 142.681 577.545 148.971 577.985 155.23C578.174 157.998 577.828 160.828 577.67 163.627C577.639 164.319 577.45 164.98 577.23 165.64C576.192 168.88 573.582 170.169 570.499 168.817C568.738 168.03 567.04 166.961 565.499 165.797C556.787 159.13 548.137 152.399 539.488 145.668C537.727 144.316 536.028 142.869 534.299 141.485C533.89 141.171 533.481 140.919 532.663 140.353C532.946 141.454 533.041 142.146 533.292 142.744C535.337 148.027 537.381 153.311 539.425 158.595C540.337 160.954 541.281 163.344 542.099 165.735C542.413 166.615 542.539 167.59 542.539 168.534C542.507 170.704 541.029 172.276 538.828 172.308C537.633 172.308 536.406 172.119 535.242 171.805C520.68 167.873 506.087 163.942 491.556 159.885C487.939 158.878 484.417 157.526 481.02 155.953C476.239 153.72 472.968 150.009 471.553 144.819C470.358 140.385 469.194 135.919 468.03 131.452C467.873 130.792 467.747 130.1 467.716 129.408C467.653 128.024 468.125 126.86 469.477 126.294C470.83 125.728 472.025 126.137 472.905 127.206C474.101 128.622 475.327 130.037 476.365 131.547C478.001 133.937 480.108 135.73 482.624 137.051C491.871 141.926 501.904 143.184 512.157 143.593C513.604 143.656 514.264 142.995 514.579 141.674C515.554 137.428 516.529 133.214 517.535 128.999C518.038 126.892 518.51 124.753 519.202 122.709C519.611 121.419 520.24 120.161 521.026 119.029C522.913 116.23 525.304 115.569 528.323 117.11C533.292 119.627 538.199 122.237 543.105 124.848C547.508 127.175 551.849 129.597 556.252 131.956C556.755 132.239 557.29 132.427 558.107 132.773L558.076 132.648Z" fill="url(#paint0_linear_566_26035)"/>
<path d="M540.84 -30.5542C534.393 -30.5542 527.914 -30.5542 521.466 -30.5542C517.566 -30.5542 513.949 -34.6744 514.39 -38.6373C514.578 -40.43 515.868 -41.7195 518.07 -42.034C520.114 -42.3171 522.19 -42.4429 524.234 -42.4744C535.305 -42.6316 546.376 -42.726 557.447 -42.8518C560.372 -42.8832 560.655 -43.0405 560.969 -45.9026C561.661 -52.0356 562.416 -50.8719 556.881 -51.6896C545.558 -53.388 534.204 -54.709 522.882 -56.3759C515.868 -57.4138 508.886 -58.7977 501.935 -60.1501C498.664 -60.7791 497.312 -62.5404 497.878 -65.8113C498.444 -69.0823 499.325 -72.3218 500.362 -75.4984C501.149 -77.9202 503.162 -79.1468 505.678 -79.021C508.854 -78.8637 512.031 -78.5806 515.145 -78.0145C530.367 -75.2468 545.558 -72.3533 560.749 -69.4597C562.982 -69.0194 565.121 -68.2331 567.323 -67.6041C570.939 -66.5662 573.33 -64.3017 574.336 -60.6848C576.632 -52.4131 579.085 -44.2042 581.035 -35.8381C583.929 -23.5405 585.91 -11.0858 586.477 1.52621C586.602 4.04233 586.477 6.62139 586.319 9.13751C586.068 12.9431 584.243 15.8682 580.878 17.7238C580.06 18.1956 579.243 18.6988 578.362 19.0762C563.706 25.5552 548.829 31.3737 532.978 34.2987C531.845 34.5189 530.43 34.4874 529.486 33.9528C527.128 32.6947 527.316 28.3229 529.644 27.0019C530.336 26.6245 531.059 26.31 531.782 25.9641C541.312 21.5923 550.842 17.252 560.372 12.8488C567.071 9.76652 568.109 8.38269 567.448 0.991592C566.725 -7.05999 565.498 -15.1116 564.492 -23.1317C564.272 -25.0188 563.926 -26.9059 563.831 -28.8245C563.737 -30.397 562.951 -30.9631 561.504 -30.9631C558.013 -30.9631 554.522 -30.9002 551.031 -30.8688C547.634 -30.8688 544.269 -30.8688 540.872 -30.8688C540.872 -30.7744 540.872 -30.6801 540.872 -30.5857L540.84 -30.5542Z" fill="url(#paint1_linear_566_26035)"/>
<path d="M427.709 96.6043C428.213 89.9366 428.527 83.9608 429.188 78.0164C429.722 73.11 431.421 71.5689 436.359 70.8455C439.095 70.4366 441.8 70.0593 444.536 69.7133C445.857 69.5246 446.455 68.8011 446.769 67.4802C448.059 62.0076 449.442 56.598 450.858 51.1569C452.053 46.5965 455.104 44.0803 459.696 43.3884C465.451 42.5392 471.238 41.7844 476.994 40.9037C481.491 40.2432 480.8 40.2433 480.391 36.5949C479.919 32.5691 479.196 28.5433 478.409 24.5804C477.875 21.8756 476.239 20.6175 473.251 20.4917C468.219 20.2716 463.25 19.5796 458.217 19.0764C457.651 19.0135 457.054 18.8876 456.519 18.7304C453.185 17.8812 452.147 15.9312 453.217 12.6603C453.374 12.157 453.563 11.6539 453.751 11.1506C455.292 7.21921 456.645 6.27563 460.828 6.59014C466.961 7.03046 473.062 7.56517 479.196 8.09985C480.202 8.1942 481.177 8.47721 482.152 8.72882C487.058 9.95543 489.952 12.849 490.958 17.9756C492.72 27.1908 494.638 36.3747 494.67 45.8101C494.67 47.0682 494.764 48.3577 494.67 49.6157C494.324 54.019 492.499 56.5666 488.222 57.6045C483.85 58.6738 479.384 59.1771 474.95 59.9948C470.987 60.7182 467.055 61.5673 463.092 62.3222C461.834 62.5738 461.331 63.2029 461.394 64.5238C461.614 68.644 461.74 72.764 461.96 76.9156C462.212 81.6019 460.828 84.2439 456.33 85.6277C451.99 86.9487 447.461 87.6406 443.026 88.5842C442.46 88.71 441.8 88.6785 441.328 88.9301C440.856 89.1817 440.227 89.7164 440.227 90.1568C440.07 93.7108 440.038 97.2334 439.944 100.787C439.944 102.045 440.479 102.832 441.611 103.366C445.228 105.096 448.782 107.015 452.462 108.682C455.575 110.097 457.148 112.55 457.242 115.79C457.431 124.313 457.494 132.836 457.494 141.36C457.494 143.593 456.33 144.631 454.129 144.819C452.179 144.977 450.229 145.102 448.247 145.134C444.096 145.134 442.02 143.498 441.454 139.378C440.762 134.346 440.227 129.282 439.818 124.219C439.661 122.3 438.906 121.262 437.113 120.633C435.163 119.941 433.308 119.029 431.452 118.086C429.722 117.205 428.747 115.758 428.622 113.777C428.307 107.801 428.024 101.825 427.772 96.5414L427.709 96.6043Z" fill="url(#paint2_linear_566_26035)"/>
<path d="M482.561 -55.1492C486.429 -54.9919 489.417 -53.4508 491.65 -50.4315C496.274 -44.0468 500.803 -37.5678 505.552 -31.2775C508.666 -27.1574 512.062 -23.1945 515.459 -19.2945C518.793 -15.4574 523.039 -13.6017 528.197 -14.1364C533.607 -14.7025 539.016 -15.3316 544.457 -15.8977C546.124 -16.055 547.854 -16.2751 549.521 -16.1179C553.169 -15.7405 554.994 -12.5953 553.138 -9.45018C551.377 -6.43084 549.144 -3.60017 546.816 -0.958244C544.898 1.21191 542.539 2.97318 540.369 4.92317C539.268 5.92962 538.261 6.99894 537.129 7.94249C533.324 11.0562 529.046 13.1949 524.14 13.6982C521.278 14.0127 518.73 12.8489 516.623 10.8674C515.428 9.7352 514.327 8.54009 513.257 7.28203C501.652 -6.65097 490.644 -21.0243 481.334 -36.6242C479.29 -40.021 477.151 -43.3863 475.107 -46.7831C474.604 -47.6323 474.195 -48.6073 473.975 -49.5508C473.597 -51.3121 474.478 -52.9161 476.333 -53.5766C478.346 -54.2685 480.516 -54.6774 482.592 -55.1807L482.561 -55.1492Z" fill="url(#paint3_linear_566_26035)"/>
<path d="M608.776 13.3214C606.983 13.2271 604.782 13.2901 602.643 13.007C597.233 12.3151 594.151 6.21341 596.604 1.33843C596.856 0.866661 597.076 0.394913 597.422 -0.0139618C600.976 -4.54297 601.92 -9.85822 602.077 -15.3937C602.486 -31.5912 600.536 -47.5371 596.982 -63.2943C596.447 -65.7161 596.007 -68.1693 595.818 -70.654C595.629 -73.3902 596.824 -74.8684 599.498 -75.3402C602.108 -75.7805 604.75 -76.1895 607.361 -76.1895C611.827 -76.1895 614.091 -74.208 614.877 -69.8048C616.01 -63.6718 616.953 -57.4758 618.117 -51.3428C620.853 -36.5292 622.646 -21.6211 624.03 -6.61879C624.407 -2.43574 624.47 1.74731 623.495 5.86745C622.426 10.3336 620.476 12.1892 615.947 12.7868C613.682 13.1013 611.418 13.1328 608.776 13.3529V13.3214Z" fill="url(#paint4_linear_566_26035)"/>
<path d="M534.55 67.3229C534.55 69.3987 534.55 71.4431 534.55 73.5189C534.582 75.5318 533.701 76.9471 531.908 77.8592C518.982 84.5584 506.621 92.3583 493.317 98.3027C491.43 99.1519 489.763 100.41 487.876 101.291C486.304 102.014 486.146 103.02 486.964 104.31C488.914 107.392 490.833 110.506 492.94 113.462C494.764 116.01 496.871 118.337 498.727 120.822C500.96 123.778 500.111 126.672 496.683 128.056C493.412 129.408 492.122 129.219 489.826 126.515C484.794 120.633 479.888 114.657 474.981 108.713C474.384 107.99 473.88 107.14 473.409 106.323C471.899 103.744 472.025 101.196 473.912 98.9316C475.359 97.2018 476.9 95.4405 478.724 94.1196C486.021 88.8357 493.317 83.5833 500.803 78.5825C506.338 74.9027 512.188 71.6003 517.912 68.2036C518.982 67.5746 519.642 66.7568 519.611 65.5617C519.579 63.0141 519.454 60.4979 519.328 57.9504C519.233 56.4721 519.045 54.994 518.95 53.5158C518.856 51.5973 519.579 50.6537 521.372 50.119C523.259 49.5529 525.115 48.9238 527.002 48.4521C530.053 47.6972 531.94 48.6408 532.6 51.723C533.355 55.1827 533.701 58.7053 534.11 62.2278C534.299 63.8947 534.11 65.6245 534.11 67.2915H534.487L534.55 67.3229Z" fill="url(#paint5_linear_566_26035)"/>
<path d="M585.219 72.009C581.885 72.009 578.551 71.9461 575.217 72.009C571.506 72.0719 569.902 69.9018 571.286 66.505C572.072 64.555 573.016 62.6365 573.928 60.7179C575.815 56.7551 578.96 54.7108 583.332 54.4906C585.03 54.3963 586.697 54.2389 588.395 54.2075C589.245 54.2075 589.653 53.8615 589.653 52.9809C589.59 49.1753 589.559 45.3696 589.496 41.564C589.496 40.0229 588.678 38.9536 587.295 38.356C585.502 37.5382 583.709 36.7834 581.885 36.06C578.079 34.4874 576.978 31.6253 579.149 27.2221C579.683 26.1213 580.249 25.052 580.847 24.0141C581.885 22.1585 583.489 21.1835 585.628 21.152C591.037 21.0262 596.29 21.9068 601.448 23.4479C604.75 24.4229 607.015 26.6245 607.423 30.1471C608.619 40.1801 608.839 50.2132 606.889 60.1833C606.48 62.2906 605.725 64.3663 604.844 66.3163C603.146 70.0276 600.252 72.1977 596.007 72.1977C592.421 72.1977 588.804 72.1977 585.219 72.1977C585.219 72.1663 585.219 72.1034 585.219 72.072V72.009Z" fill="url(#paint6_linear_566_26035)"/>
<path d="M464.162 -18.3195C461.552 -18.8542 459.287 -19.2945 457.023 -19.7978C455.953 -20.0494 454.852 -20.301 453.814 -20.6784C451.11 -21.6534 450.198 -23.5405 451.33 -26.1824C452.556 -29.0445 453.972 -31.8436 455.261 -34.6742C455.576 -35.3347 455.859 -36.0267 456.236 -36.8444C455.639 -37.1275 455.135 -37.379 454.632 -37.5992C452.116 -38.7 449.569 -39.738 447.052 -40.9017C446.015 -41.3734 445.008 -42.0339 444.127 -42.7888C441.611 -44.9275 441.423 -47.3492 443.561 -49.8339C446.958 -53.8282 450.732 -57.4766 455.136 -60.433C458.878 -62.9491 461.426 -62.5717 464.477 -58.2629C465.923 -56.2185 465.106 -54.2371 462.715 -53.4508C462.527 -53.3879 462.275 -53.3564 462.118 -53.2306C459.696 -51.2492 457.274 -49.2363 454.506 -46.9403C455.607 -46.4685 456.205 -46.1855 456.834 -45.9653C459.318 -45.0847 461.866 -44.2985 464.351 -43.3864C468.471 -41.8452 469.289 -39.4549 466.993 -35.7436C465.672 -33.5734 464.193 -31.4976 462.841 -29.3589C462.338 -28.5726 462.023 -27.6921 461.489 -26.5598C462.998 -26.3396 464.256 -26.1824 465.483 -25.9622C467.968 -25.4904 470.515 -25.113 472.937 -24.3896C476.711 -23.2259 477.498 -20.4267 475.107 -17.2816C473.472 -15.1429 471.71 -13.0985 469.981 -10.9913C469.666 -10.5824 469.352 -10.1736 468.88 -9.54454C472.623 -8.94696 476.114 -8.7268 479.668 -8.94696C481.209 -9.04131 482.876 -8.85257 484.291 -8.31789C485.14 -8.00337 486.021 -6.8397 486.21 -5.89616C486.996 -1.93327 485.109 0.457069 481.051 0.425621C474.164 0.394169 467.276 0.173935 460.419 -0.140579C456.74 -0.297836 455.513 -2.40501 456.614 -5.86468C457.872 -9.79611 459.696 -13.413 462.589 -16.4009C463.093 -16.9356 463.533 -17.5332 464.194 -18.3509L464.162 -18.3195Z" fill="url(#paint7_linear_566_26035)"/>
<path d="M548.263 114.186C541.155 113.588 534.267 112.078 527.411 110.097C522.599 108.682 517.724 107.518 512.849 106.291C510.27 105.631 509.295 103.24 510.899 101.039C512.251 99.1518 514.233 98.2711 516.466 98.0824C520.617 97.705 524.8 97.4534 528.983 97.1074C530.21 97.0131 531.405 96.8244 532.6 96.73C536.532 96.3526 539.865 94.9058 542.79 92.1695C548.169 87.1059 554.49 83.2687 560.718 79.3688C561.158 79.0857 561.63 78.8341 562.133 78.6454C563.58 78.0793 565.058 77.9535 566.316 79.0543C567.606 80.1551 567.794 81.6648 567.323 83.143C565.907 87.4833 564.618 91.8551 562.888 96.0381C561.19 100.158 559.145 104.09 557.069 108.021C556.283 109.499 555.151 110.789 553.987 112.015C552.446 113.651 550.465 114.343 548.232 114.186H548.263Z" fill="url(#paint8_linear_566_26035)"/>
<path d="M541.878 48.1376C542.224 46.4392 542.476 44.6779 542.979 43.0424C543.891 40.086 545.81 38.7336 548.861 39.1425C551.471 39.4884 554.113 39.9916 556.598 40.7779C560.592 42.036 564.492 43.5142 568.392 45.0868C569.493 45.5271 570.625 46.3763 571.348 47.3513C572.575 49.0182 571.852 50.7795 570.468 52.2892C568.298 54.6166 565.845 54.4908 563.077 54.1448C557.353 53.4214 551.597 52.9182 545.841 52.3207C542.853 52.0376 541.973 51.0626 541.878 48.169V48.1376Z" fill="url(#paint9_linear_566_26035)"/>
<path d="M510.207 19.9255C510.584 19.9255 510.962 19.9255 511.308 19.9255C515.365 19.9255 517 21.6868 516.529 25.7441C516.371 27.2223 516.183 28.7006 515.774 30.1159C515.019 32.6949 513.258 33.7956 510.616 33.4811C507.848 33.1351 505.08 32.7263 502.312 32.286C500.551 32.003 499.45 31.028 499.419 29.2352C499.387 26.8764 499.576 24.4861 499.954 22.1586C500.237 20.4288 501.683 19.4852 503.633 19.5481C505.835 19.611 508.068 19.8626 510.27 20.0199C510.27 20.0199 510.27 19.957 510.27 19.9255H510.207Z" fill="url(#paint10_linear_566_26035)"/>
<path d="M477.717 80.6898C475.39 80.6898 474.069 79.872 473.377 78.2994C472.245 75.7519 471.081 73.1728 470.232 70.5309C469.949 69.6503 470.326 68.3293 470.861 67.5116C471.553 66.4737 472.811 66.5995 473.88 67.1342C476.334 68.3294 478.818 69.4931 481.208 70.7826C482.152 71.2858 483.001 72.1035 483.693 72.9213C484.637 74.085 484.857 75.5317 483.913 76.7584C482.215 78.9914 479.825 80.1866 477.655 80.6898H477.717Z" fill="url(#paint11_linear_566_26035)"/>
</g>
<g opacity="0.27">
<path d="M325.271 100.409C331.719 100.409 338.198 100.409 344.646 100.409C348.546 100.409 352.162 104.529 351.722 108.492C351.533 110.285 350.244 111.574 348.042 111.889C345.998 112.172 343.922 112.297 341.878 112.329C330.807 112.486 319.736 112.58 308.665 112.706C305.74 112.738 305.457 112.895 305.143 115.757C304.451 121.89 303.696 120.726 309.231 121.544C320.554 123.242 331.908 124.564 343.23 126.23C350.244 127.268 357.226 128.652 364.177 130.005C367.448 130.634 368.8 132.395 368.234 135.666C367.668 138.937 366.787 142.176 365.749 145.353C364.963 147.775 362.95 149.001 360.434 148.875C357.258 148.718 354.081 148.435 350.967 147.869C335.745 145.101 320.554 142.208 305.363 139.314C303.13 138.874 300.991 138.088 298.789 137.459C295.172 136.421 292.782 134.156 291.776 130.539C289.48 122.268 287.026 114.059 285.076 105.693C282.183 93.3951 280.201 80.9403 279.635 68.3283C279.51 65.8121 279.635 63.2331 279.793 60.717C280.044 56.9113 281.868 53.9864 285.234 52.1308C286.051 51.659 286.869 51.1557 287.75 50.7783C302.406 44.2993 317.283 38.4808 333.134 35.5558C334.267 35.3356 335.682 35.3671 336.625 35.9018C338.984 37.1598 338.796 41.5316 336.468 42.8525C335.776 43.23 335.053 43.5444 334.329 43.8904C324.8 48.2622 315.27 52.6025 305.74 57.0057C299.041 60.088 298.003 61.4718 298.664 68.8629C299.387 76.9145 300.614 84.9346 301.62 92.9862C301.84 94.8733 302.186 96.7604 302.28 98.6789C302.375 100.251 303.161 100.818 304.608 100.818C308.099 100.818 311.59 100.755 315.081 100.723C318.478 100.723 321.843 100.723 325.24 100.723V100.44L325.271 100.409Z" fill="url(#paint12_linear_566_26035)"/>
<path d="M438.371 -26.7494C437.868 -20.0817 437.553 -14.1059 436.893 -8.16159C436.358 -3.25516 434.66 -1.71404 429.722 -0.990654C426.986 -0.581787 424.281 -0.204315 421.545 0.141647C420.224 0.33036 419.626 1.05372 419.311 2.37468C418.022 7.84724 416.638 13.2569 415.223 18.698C414.028 23.2585 410.977 25.7746 406.385 26.4665C400.629 27.3157 394.842 28.0705 389.087 28.9511C384.589 29.6116 385.281 29.6117 385.69 33.2601C386.162 37.2858 386.885 41.3116 387.671 45.2745C388.206 47.9793 389.842 49.2374 392.829 49.3632C397.862 49.5834 402.831 50.2753 407.863 50.8099C408.429 50.8728 409.027 50.9987 409.562 51.156C412.895 52.0051 413.933 53.9551 412.895 57.2261C412.738 57.7293 412.549 58.2325 412.361 58.7357C410.82 62.6671 409.467 63.6107 405.284 63.2962C399.151 62.8559 393.05 62.3212 386.916 61.7865C385.91 61.6921 384.935 61.4091 383.96 61.1575C379.054 59.9309 376.16 57.0374 375.154 51.9108C373.392 42.6955 371.474 33.5116 371.442 24.0762C371.442 22.8181 371.348 21.5286 371.442 20.2706C371.788 15.8674 373.613 13.3198 377.89 12.2819C382.262 11.2125 386.728 10.7093 391.162 9.89153C395.125 9.16815 399.057 8.31899 403.02 7.56416C404.278 7.31254 404.781 6.68347 404.718 5.36251C404.498 1.24237 404.372 -2.87769 404.152 -7.02928C403.9 -11.7156 405.284 -14.3575 409.782 -15.7414C414.122 -17.0624 418.651 -17.7543 423.086 -18.6979C423.652 -18.8237 424.312 -18.7922 424.784 -19.0438C425.256 -19.2954 425.885 -19.8301 425.885 -20.2704C426.042 -23.8244 426.074 -27.347 426.168 -30.901C426.168 -32.1591 425.633 -32.9453 424.501 -33.48C420.884 -35.2098 417.33 -37.1284 413.65 -38.7953C410.537 -40.2106 408.964 -42.6639 408.87 -45.9034C408.681 -54.4267 408.618 -62.9501 408.618 -71.4734C408.618 -73.7065 409.782 -74.7444 411.983 -74.9331C413.933 -75.0904 415.883 -75.2161 417.865 -75.2476C422.016 -75.2476 424.092 -73.6121 424.658 -69.492C425.35 -64.4597 425.885 -59.396 426.294 -54.3323C426.451 -52.4138 427.206 -51.376 428.999 -50.7469C430.949 -50.055 432.804 -49.1429 434.66 -48.1994C436.39 -47.3187 437.365 -45.8719 437.49 -43.8904C437.805 -37.9146 438.088 -31.9389 438.34 -26.6551L438.371 -26.7494Z" fill="url(#paint13_linear_566_26035)"/>
<path d="M222.708 -72.9518C225.004 -72.2914 226.86 -71.7567 228.747 -71.1906C236.012 -69.0519 242.302 -65.2777 247.618 -59.868C247.901 -59.5535 248.215 -59.2704 248.498 -58.9244C255.921 -50.5583 256.173 -41.2802 249.159 -32.5682C244.441 -26.7182 238.402 -22.598 231.672 -19.3585C230.98 -19.0125 230.257 -18.6666 229.093 -18.1004C230.005 -17.8488 230.445 -17.723 230.917 -17.5972C237.144 -16.119 243.089 -13.9174 248.467 -10.3948C251.801 -8.22465 253.971 -5.20535 255.166 -1.39973C256.204 1.90268 255.606 4.85914 253.499 7.56396C250.102 11.9357 245.605 14.5462 240.352 15.9616C233.307 17.8486 226.105 18.6349 218.84 18.6978C215.128 18.7293 213.65 17.0623 213.776 13.3825C213.87 10.9922 214.971 9.5454 217.393 9.32524C222.142 8.88492 226.891 8.72764 231.64 8.31877C235.509 7.9728 239.315 7.31239 242.711 5.23659C246.454 2.94063 246.643 1.36803 243.183 -1.2739C235.666 -7.06097 227.174 -10.2376 217.582 -10.3319C216.544 -10.3319 215.348 -10.269 214.468 -10.7093C213.524 -11.2126 212.518 -12.1561 212.235 -13.0997C211.732 -14.7352 211.637 -16.5279 211.637 -18.2892C211.637 -21.3399 213.178 -23.3528 216.072 -24.3593C219.909 -25.7117 223.809 -27.0012 227.552 -28.6052C230.445 -29.8318 233.433 -31.1528 235.949 -33.0084C243.875 -38.9213 243.938 -48.5769 236.358 -54.993C233.496 -57.4147 230.194 -58.893 226.765 -60.1826C223.777 -61.2834 220.758 -62.2584 217.77 -63.3277C216.418 -63.7995 215.128 -64.397 213.839 -65.026C211.606 -66.1268 210.694 -67.951 210.631 -70.4357C210.536 -74.3986 211.826 -77.1978 215.789 -78.7704C217.959 -79.6196 219.878 -81.1922 221.702 -82.7018C224.407 -84.9663 224.627 -88.3631 222.048 -90.7534C220.318 -92.3889 218.179 -93.7727 215.978 -94.6848C213.084 -95.9114 211.669 -97.7356 211.826 -100.849C211.889 -101.793 211.7 -102.736 211.637 -103.711C211.449 -106.07 212.927 -107.548 215.286 -107.391C215.537 -107.391 215.82 -107.36 216.072 -107.265C221.607 -105.19 227.048 -102.925 230.886 -98.1444C235.823 -92.0114 235.635 -84.7147 230.225 -79.022C228.527 -77.2292 226.451 -75.7825 224.564 -74.2099C224.092 -73.801 223.557 -73.4865 222.645 -72.8575L222.708 -72.9518Z" fill="url(#paint14_linear_566_26035)"/>
<path d="M383.551 125.004C379.683 124.847 376.695 123.306 374.462 120.286C369.838 113.902 365.309 107.423 360.56 101.132C357.446 97.0122 354.05 93.0493 350.653 89.1493C347.319 85.3122 343.073 83.4565 337.915 83.9912C332.505 84.5573 327.096 85.1865 321.655 85.7526C319.988 85.9098 318.258 86.1299 316.591 85.9727C312.943 85.5953 311.118 82.4501 312.974 79.305C314.735 76.2856 316.968 73.4551 319.296 70.8131C321.214 68.643 323.573 66.8816 325.743 64.9316C326.844 63.9252 327.851 62.8559 328.983 61.9123C332.788 58.7986 337.066 56.66 341.972 56.1567C344.834 55.8422 347.382 57.0059 349.489 58.9873C350.684 60.1196 351.817 61.3147 352.855 62.5728C364.46 76.5058 375.468 90.8792 384.778 106.479C386.822 109.876 388.961 113.241 391.005 116.638C391.508 117.487 391.917 118.431 392.138 119.406C392.515 121.167 391.634 122.771 389.779 123.431C387.734 124.123 385.596 124.532 383.52 125.035L383.551 125.004Z" fill="url(#paint15_linear_566_26035)"/>
<path d="M257.336 56.534C259.129 56.6284 261.33 56.5655 263.469 56.8486C268.879 57.5405 271.961 63.6421 269.508 68.5171C269.256 68.9888 269.036 69.4606 268.69 69.8694C265.136 74.3985 264.192 79.7138 264.035 85.2493C263.626 101.447 265.576 117.393 269.13 133.15C269.665 135.572 270.105 138.025 270.294 140.509C270.483 143.246 269.288 144.724 266.614 145.196C264.004 145.636 261.362 146.045 258.751 146.045C254.285 146.045 252.021 144.063 251.234 139.66C250.102 133.527 249.159 127.331 247.995 121.198C245.227 106.385 243.466 91.4766 242.082 76.4743C241.705 72.2912 241.642 68.1082 242.617 63.988C243.686 59.5219 245.636 57.6662 250.165 57.0687C252.429 56.7542 254.694 56.7227 257.336 56.5026V56.534Z" fill="url(#paint16_linear_566_26035)"/>
<path d="M331.562 2.53187C331.562 0.456074 331.562 -1.58828 331.562 -3.66407C331.53 -5.67697 332.411 -7.0923 334.204 -8.00439C347.13 -14.7036 359.491 -22.5035 372.795 -28.4479C374.682 -29.297 376.349 -30.555 378.236 -31.4357C379.808 -32.1591 379.966 -33.1655 379.148 -34.455C377.198 -37.5372 375.279 -40.651 373.172 -43.6074C371.348 -46.155 369.241 -48.4824 367.385 -50.967C365.152 -53.9235 366.001 -56.8171 369.429 -58.2009C372.7 -59.5533 373.99 -59.3647 376.286 -56.6598C381.318 -50.7784 386.225 -44.8026 391.162 -38.8583C391.76 -38.1349 392.263 -37.2857 392.735 -36.4679C394.245 -33.8889 394.119 -31.3413 392.232 -29.0768C390.785 -27.347 389.244 -25.5857 387.42 -24.2648C380.123 -18.9809 372.826 -13.7285 365.341 -8.72771C359.805 -5.04789 353.955 -1.74553 348.231 1.65124C347.162 2.28027 346.501 3.09799 346.533 4.29315C346.564 6.84072 346.69 9.35688 346.816 11.9044C346.879 13.3827 347.099 14.8609 347.193 16.3391C347.288 18.2577 346.564 19.2012 344.772 19.7358C342.884 20.302 341.029 20.931 339.142 21.4028C336.091 22.1576 334.204 21.2141 333.543 18.1319C332.788 14.6722 332.442 11.1496 332.034 7.627C331.845 5.96007 332.002 4.23029 332.002 2.56335H331.625L331.562 2.53187Z" fill="url(#paint17_linear_566_26035)"/>
<path d="M280.893 -2.15456C284.227 -2.15456 287.561 -2.09166 290.895 -2.15456C294.606 -2.21746 296.21 -0.0473113 294.826 3.34945C294.04 5.29944 293.096 7.21797 292.184 9.13651C290.297 13.0994 287.152 15.1438 282.78 15.3639C281.082 15.4583 279.415 15.6155 277.717 15.647C276.867 15.647 276.459 15.9929 276.459 16.8735C276.522 20.6792 276.553 24.4848 276.616 28.2905C276.616 29.8316 277.434 30.901 278.818 31.4986C280.61 32.3163 282.403 33.0711 284.227 33.7945C288.064 35.367 289.134 38.2291 286.963 42.6323C286.429 43.7331 285.863 44.8025 285.265 45.8404C284.227 47.6961 282.623 48.671 280.484 48.7024C275.075 48.8282 269.822 47.9477 264.664 46.4065C261.362 45.4315 259.097 43.2299 258.688 39.7074C257.493 29.6743 257.273 19.6413 259.223 9.67123C259.632 7.56398 260.387 5.48814 261.268 3.53815C262.966 -0.173125 265.859 -2.34326 270.105 -2.34326C273.691 -2.34326 277.308 -2.34326 280.893 -2.34326V-2.21743V-2.15456Z" fill="url(#paint18_linear_566_26035)"/>
<path d="M401.919 88.1742C404.529 88.7089 406.794 89.1492 409.058 89.6524C410.128 89.904 411.228 90.1556 412.266 90.5331C414.971 91.5081 415.883 93.3951 414.751 96.0371C413.524 98.8992 412.109 101.698 410.82 104.529C410.505 105.189 410.222 105.881 409.845 106.699C410.442 106.982 410.945 107.234 411.449 107.454C413.965 108.555 416.512 109.593 419.028 110.756C420.066 111.228 421.073 111.889 421.953 112.643C424.469 114.782 424.658 117.204 422.52 119.689C419.123 123.683 415.349 127.331 410.945 130.288C407.203 132.804 404.655 132.426 401.604 128.118C400.157 126.073 400.975 124.092 403.366 123.305C403.554 123.243 403.806 123.211 403.963 123.085C406.385 121.104 408.807 119.091 411.574 116.795C410.474 116.323 409.876 116.04 409.247 115.82C406.762 114.939 404.215 114.153 401.73 113.241C397.61 111.7 396.792 109.31 399.088 105.598C400.409 103.428 401.887 101.352 403.24 99.2137C403.743 98.4274 404.058 97.5467 404.592 96.4145C403.083 96.1943 401.824 96.037 400.598 95.8169C398.113 95.3451 395.566 94.9677 393.144 94.2443C389.37 93.0806 388.583 90.2814 390.974 87.1362C392.609 84.9975 394.37 82.9532 396.1 80.8459C396.415 80.4371 396.729 80.0282 397.201 79.3992C393.458 78.8016 389.967 78.5815 386.413 78.8016C384.872 78.896 383.205 78.7073 381.79 78.1726C380.941 77.8581 380.06 76.6944 379.871 75.7508C379.085 71.7879 380.972 69.3977 385.029 69.4291C391.917 69.4606 398.805 69.6807 405.662 69.9952C409.341 70.1525 410.568 72.2598 409.467 75.7194C408.209 79.6509 406.385 83.2677 403.491 86.2556C402.988 86.7903 402.548 87.3879 401.887 88.2057L401.919 88.1742Z" fill="url(#paint19_linear_566_26035)"/>
<path d="M233.433 29.6744C238.025 29.6744 242.617 29.6744 247.24 29.6744C247.932 29.6744 248.624 29.7373 249.284 29.8316C251.266 30.0832 252.272 31.0268 252.461 32.9768C252.713 35.3356 252.901 37.726 252.964 40.0849C253.027 42.884 251.549 44.3622 248.718 44.205C238.685 43.6389 228.652 43.0413 218.619 42.4122C216.134 42.255 213.933 41.4373 213.367 38.701C212.706 35.5558 212.643 32.3478 215.442 30.0833C216.417 29.297 217.99 29.0454 219.311 29.014C224.029 28.8882 228.715 28.951 233.433 28.951C233.433 29.2026 233.433 29.4228 233.433 29.6744Z" fill="url(#paint20_linear_566_26035)"/>
<path d="M217.235 77.9847C215.254 77.9847 213.713 77.0725 213.115 75.154C212.549 73.3612 212.266 71.4427 212.077 69.5556C211.763 66.2532 211.637 62.9194 211.448 59.5855C211.322 57.6355 212.234 56.0314 213.65 54.8992C215.002 53.7984 216.575 54.3332 217.99 55.088C222.896 57.7928 227.803 60.4976 232.678 63.2968C235.917 65.1524 236.263 68.4548 233.307 70.6564C228.715 74.0217 223.494 76.2548 218.053 77.9217C217.77 78.0161 217.424 77.9846 217.267 78.0161L217.235 77.9847Z" fill="url(#paint21_linear_566_26035)"/>
<path d="M217.645 102.139C215.16 102.139 213.588 100.912 213.179 98.5847C212.896 97.0751 212.927 95.534 212.77 93.9928C212.518 91.4767 212.298 88.9291 211.858 86.4444C211.355 83.5194 212.896 81.884 215.821 82.6388C217.456 83.0791 219.029 83.7082 220.57 84.4001C225.162 86.4444 229.722 88.5203 234.314 90.6275C234.943 90.9106 235.541 91.2251 236.138 91.6025C238.655 93.238 238.623 96.1315 235.95 97.5783C234.629 98.3016 233.119 98.8049 231.641 99.1508C227.426 100.157 223.18 101.006 218.934 101.919C218.431 102.013 217.897 102.076 217.645 102.107V102.139Z" fill="url(#paint22_linear_566_26035)"/>
<path d="M324.234 21.7173C323.888 23.4157 323.636 25.177 323.133 26.8125C322.221 29.7689 320.302 31.1214 317.251 30.7125C314.641 30.3665 311.999 29.8633 309.514 29.077C305.52 27.8189 301.62 26.3407 297.72 24.7681C296.619 24.3278 295.487 23.4786 294.764 22.5036C293.537 20.8367 294.26 19.0754 295.644 17.5657C297.814 15.2383 300.268 15.3641 303.035 15.7101C308.759 16.4335 314.515 16.9367 320.271 17.5343C323.259 17.8174 324.139 18.7923 324.234 21.6858V21.7173Z" fill="url(#paint23_linear_566_26035)"/>
<path d="M355.874 49.9292C355.496 49.9292 355.119 49.9292 354.773 49.9292C350.716 49.9292 349.08 48.1679 349.552 44.1107C349.709 42.6324 349.898 41.1543 350.307 39.739C351.062 37.1599 352.823 36.0591 355.465 36.3736C358.233 36.7196 361 37.1285 363.768 37.5688C365.529 37.8519 366.63 38.8269 366.662 40.6196C366.693 42.9785 366.504 45.3688 366.127 47.6962C365.844 49.426 364.397 50.3695 362.447 50.3066C360.245 50.2437 358.012 49.9921 355.811 49.8349C355.811 49.8349 355.811 49.8978 355.811 49.9292H355.874Z" fill="url(#paint24_linear_566_26035)"/>
<path d="M417.267 39.2042C417.361 38.1034 417.361 36.9712 417.55 35.9018C417.928 33.7946 419.343 32.6308 421.482 32.788C423.306 32.9453 425.161 33.2598 426.954 33.6687C428.778 34.109 430.508 36.8453 430.508 39.0155C430.508 41.563 429.25 43.5131 427.049 44.1421C425.382 44.6139 423.652 44.9284 421.922 45.1486C419.06 45.526 417.55 44.1735 417.393 41.2485C417.361 40.5566 417.393 39.8646 417.393 39.1727H417.33L417.267 39.2042Z" fill="url(#paint25_linear_566_26035)"/>
<path d="M388.395 -10.835C390.722 -10.835 392.043 -10.0172 392.735 -8.44462C393.867 -5.89705 395.031 -3.31802 395.88 -0.676098C396.163 0.204544 395.786 1.52548 395.251 2.34322C394.559 3.38112 393.301 3.2553 392.232 2.72062C389.779 1.52546 387.294 0.361748 384.904 -0.927763C383.96 -1.43099 383.111 -2.2487 382.419 -3.06644C381.476 -4.23015 381.255 -5.67692 382.199 -6.90353C383.897 -9.13658 386.288 -10.3317 388.458 -10.835H388.395Z" fill="url(#paint26_linear_566_26035)"/>
</g>
<g opacity="0.27">
<path d="M108.068 132.648C108.571 129.691 108.98 127.018 109.515 124.407C110.112 121.451 110.678 118.463 111.527 115.601C112.565 112.047 114.264 110.852 117.975 111.04C122.189 111.261 126.404 111.764 130.619 112.141C131.185 112.204 131.751 112.298 132.537 112.393C132.38 111.701 132.317 111.166 132.191 110.694C130.776 105.882 129.455 101.007 127.819 96.2582C126.656 92.8615 126.939 90.0623 129.769 87.672C131.719 86.0365 133.481 84.1808 135.556 82.7655C136.909 81.822 138.576 81.2244 140.211 80.8784C143.168 80.2494 145.841 81.5704 147.288 84.2438C147.917 85.4075 148.389 86.6655 148.672 87.955C151.817 102.234 154.93 116.513 157.95 130.823C158.422 133.088 158.673 135.447 158.705 137.774C158.736 142.743 155.528 145.134 150.81 143.561C148.42 142.743 146.124 141.58 143.985 140.259C138.576 136.925 133.26 133.434 127.882 130.037C127.285 129.66 126.624 129.377 125.586 128.81C125.806 131.61 125.995 134 126.215 136.422C126.813 142.681 127.536 148.971 127.977 155.23C128.165 157.998 127.819 160.828 127.662 163.627C127.631 164.319 127.442 164.98 127.222 165.64C126.184 168.88 123.573 170.169 120.491 168.817C118.73 168.03 117.031 166.961 115.49 165.797C106.778 159.13 98.1291 152.399 89.4799 145.668C87.7187 144.316 86.0203 142.869 84.2905 141.485C83.8816 141.171 83.4728 140.919 82.655 140.353C82.9381 141.454 83.0324 142.146 83.284 142.744C85.3283 148.027 87.3727 153.311 89.4171 158.595C90.3292 160.954 91.2727 163.344 92.0905 165.735C92.405 166.615 92.5307 167.59 92.5307 168.534C92.4993 170.704 91.0211 172.276 88.8195 172.308C87.6243 172.308 86.3977 172.119 85.234 171.805C70.6719 167.873 56.0785 163.942 41.5479 159.885C37.931 158.878 34.4084 157.526 31.0116 155.953C26.231 153.72 22.96 150.009 21.5447 144.819C20.3496 140.385 19.1859 135.919 18.0222 131.452C17.8649 130.792 17.7391 130.1 17.7076 129.408C17.6447 128.024 18.1165 126.86 19.4689 126.294C20.8213 125.728 22.0166 126.137 22.8972 127.206C24.0924 128.622 25.3189 130.037 26.3568 131.547C27.9923 133.937 30.0996 135.73 32.6157 137.051C41.8624 141.926 51.8954 143.184 62.1486 143.593C63.5954 143.656 64.2559 142.995 64.5704 141.674C65.5454 137.428 66.5203 133.214 67.5268 128.999C68.03 126.892 68.5332 124.753 69.1937 122.709C69.6026 121.419 70.2316 120.161 71.0179 119.029C72.905 116.23 75.2954 115.569 78.3147 117.11C83.284 119.627 88.1904 122.237 93.0968 124.848C97.5 127.175 101.84 129.597 106.244 131.956C106.747 132.239 107.282 132.427 108.099 132.773L108.068 132.648Z" fill="url(#paint27_linear_566_26035)"/>
<path d="M90.8322 -30.5542C84.3846 -30.5542 77.9056 -30.5542 71.458 -30.5542C67.5581 -30.5542 63.9411 -34.6744 64.3815 -38.6373C64.5702 -40.43 65.8597 -41.7195 68.0613 -42.034C70.1057 -42.3171 72.1814 -42.4429 74.2258 -42.4744C85.2967 -42.6316 96.3676 -42.726 107.439 -42.8518C110.364 -42.8832 110.647 -43.0405 110.961 -45.9026C111.653 -52.0356 112.408 -50.8719 106.872 -51.6896C95.5499 -53.388 84.1959 -54.709 72.8734 -56.3759C65.8597 -57.4138 58.8775 -58.7977 51.9267 -60.1501C48.6557 -60.7791 47.3033 -62.5404 47.8694 -65.8113C48.4356 -69.0823 49.3162 -72.3218 50.3541 -75.4984C51.1404 -77.9202 53.1533 -79.1468 55.6694 -79.021C58.846 -78.8637 62.0227 -78.5806 65.1364 -78.0145C80.3589 -75.2468 95.5499 -72.3533 110.741 -69.4597C112.974 -69.0194 115.113 -68.2331 117.314 -67.6041C120.931 -66.5662 123.322 -64.3017 124.328 -60.6848C126.624 -52.4131 129.077 -44.2042 131.027 -35.8381C133.921 -23.5405 135.902 -11.0858 136.468 1.52621C136.594 4.04233 136.468 6.62139 136.311 9.13751C136.059 12.9431 134.235 15.8682 130.87 17.7238C130.052 18.1956 129.234 18.6988 128.354 19.0762C113.697 25.5552 98.8208 31.3737 82.9693 34.2987C81.837 34.5189 80.4218 34.4874 79.4782 33.9528C77.1194 32.6947 77.308 28.3229 79.6354 27.0019C80.3274 26.6245 81.0507 26.31 81.7741 25.9641C91.3039 21.5923 100.834 17.252 110.364 12.8488C117.063 9.76652 118.101 8.38269 117.44 0.991592C116.717 -7.05999 115.49 -15.1116 114.484 -23.1317C114.264 -25.0188 113.918 -26.9059 113.823 -28.8245C113.729 -30.397 112.943 -30.9631 111.496 -30.9631C108.005 -30.9631 104.514 -30.9002 101.023 -30.8688C97.6258 -30.8688 94.2604 -30.8688 90.8637 -30.8688V-30.5857L90.8322 -30.5542Z" fill="url(#paint28_linear_566_26035)"/>
<path d="M-22.2988 96.6043C-21.7956 89.9366 -21.4811 83.9608 -20.8206 78.0164C-20.2859 73.11 -18.5876 71.5689 -13.6497 70.8455C-10.9134 70.4366 -8.20854 70.0593 -5.47227 69.7133C-4.1513 69.5246 -3.55375 68.8011 -3.23924 67.4802C-1.94973 62.0076 -0.565804 56.598 0.849514 51.1569C2.04467 46.5965 5.09546 44.0803 9.68737 43.3884C15.443 42.5392 21.2301 41.7844 26.9857 40.9037C31.4832 40.2432 30.7913 40.2433 30.3824 36.5949C29.9106 32.5691 29.1873 28.5433 28.401 24.5804C27.8664 21.8756 26.2308 20.6175 23.243 20.4917C18.2107 20.2716 13.2414 19.5796 8.20915 19.0764C7.64302 19.0135 7.04542 18.8876 6.51074 18.7304C3.17688 17.8812 2.13899 15.9312 3.17689 12.6603C3.33415 12.157 3.5229 11.6539 3.71161 11.1506C5.25273 7.21921 6.60515 6.27563 10.7882 6.59014C16.9212 7.03046 23.0228 7.56517 29.1558 8.09985C30.1623 8.1942 31.1373 8.47721 32.1123 8.72882C37.0187 9.95543 39.9122 12.849 40.9187 17.9756C42.68 27.1908 44.5985 36.3747 44.6299 45.8101C44.6299 47.0682 44.7243 48.3577 44.6299 49.6157C44.284 54.019 42.4598 56.5666 38.1824 57.6045C33.8106 58.6738 29.3445 59.1771 24.9099 59.9948C20.947 60.7182 17.0156 61.5673 13.0527 62.3222C11.7946 62.5738 11.2914 63.2029 11.3543 64.5238C11.5745 68.644 11.7002 72.764 11.9204 76.9156C12.172 81.6019 10.7881 84.2439 6.29056 85.6277C1.95025 86.9487 -2.5787 87.6406 -7.01336 88.5842C-7.57948 88.71 -8.23999 88.6785 -8.71176 88.9301C-9.18354 89.1817 -9.81259 89.7164 -9.81259 90.1568C-9.96984 93.7108 -10.0013 97.2334 -10.0956 100.787C-10.0956 102.045 -9.56097 102.832 -8.42871 103.366C-4.81179 105.096 -1.25774 107.015 2.42209 108.682C5.53578 110.097 7.10832 112.55 7.20268 115.79C7.39139 124.313 7.45434 132.836 7.45434 141.36C7.45434 143.593 6.29062 144.631 4.08901 144.819C2.13902 144.977 0.189043 145.102 -1.7924 145.134C-5.944 145.134 -8.0198 143.498 -8.58593 139.378C-9.27786 134.346 -9.8126 129.282 -10.2215 124.219C-10.3787 122.3 -11.1335 121.262 -12.9263 120.633C-14.8762 119.941 -16.7318 119.029 -18.5875 118.086C-20.3173 117.205 -21.2924 115.758 -21.4182 113.777C-21.7327 107.801 -22.0157 101.825 -22.2673 96.5414L-22.2988 96.6043Z" fill="url(#paint29_linear_566_26035)"/>
<path d="M193.396 142.806C191.1 142.146 189.244 141.611 187.357 141.045C180.091 138.906 173.801 135.132 168.486 129.723C168.203 129.408 167.888 129.125 167.605 128.779C160.183 120.413 159.931 111.135 166.945 102.423C171.663 96.5727 177.701 92.4525 184.432 89.213C185.124 88.8671 185.847 88.5211 187.011 87.955C186.099 87.7034 185.658 87.5776 185.187 87.4518C178.959 85.9735 173.015 83.772 167.637 80.2494C164.303 78.0793 162.133 75.0599 160.938 71.2543C159.9 67.9519 160.497 64.9954 162.604 62.2906C166.001 57.9188 170.499 55.3084 175.751 53.8931C182.796 52.006 189.999 51.2197 197.264 51.1568C200.975 51.1254 202.454 52.7922 202.328 56.472C202.233 58.8623 201.133 60.3091 198.711 60.5293C193.962 60.9696 189.212 61.1269 184.463 61.5358C180.595 61.8817 176.789 62.5422 173.392 64.618C169.65 66.914 169.461 68.4865 172.921 71.1284C180.437 76.9155 188.929 80.0921 198.522 80.1865C199.56 80.1865 200.755 80.1235 201.636 80.5639C202.579 81.0671 203.586 82.0107 203.869 82.9542C204.372 84.5897 204.466 86.3824 204.466 88.1437C204.466 91.1945 202.925 93.2074 200.032 94.2138C196.195 95.5662 192.295 96.8557 188.552 98.4598C185.658 99.6864 182.671 101.007 180.154 102.863C172.229 108.776 172.166 118.432 179.746 124.848C182.608 127.269 185.91 128.748 189.338 130.037C192.326 131.138 195.346 132.113 198.333 133.182C199.686 133.654 200.975 134.252 202.265 134.881C204.498 135.981 205.41 137.806 205.473 140.29C205.567 144.253 204.278 147.052 200.315 148.625C198.145 149.474 196.226 151.047 194.402 152.556C191.697 154.821 191.477 158.218 194.056 160.608C195.786 162.243 197.924 163.627 200.126 164.539C203.02 165.766 204.435 167.59 204.278 170.704C204.215 171.647 204.403 172.591 204.466 173.566C204.655 175.925 203.177 177.403 200.818 177.246C200.566 177.246 200.283 177.214 200.032 177.12C194.496 175.044 189.055 172.78 185.218 167.999C180.28 161.866 180.469 154.569 185.879 148.876C187.577 147.084 189.653 145.637 191.54 144.064C192.012 143.656 192.546 143.341 193.427 142.712L193.396 142.806Z" fill="url(#paint30_linear_566_26035)"/>
<path d="M32.553 -55.1492C36.4215 -54.9919 39.4094 -53.4508 41.6425 -50.4315C46.2658 -44.0468 50.7948 -37.5678 55.544 -31.2775C58.6577 -27.1574 62.0545 -23.1945 65.4513 -19.2945C68.7851 -15.4574 73.031 -13.6017 78.1891 -14.1364C83.5987 -14.7025 89.0084 -15.3316 94.4495 -15.8977C96.1165 -16.055 97.8463 -16.2751 99.5132 -16.1179C103.162 -15.7405 104.986 -12.5953 103.13 -9.45018C101.369 -6.43084 99.1358 -3.60017 96.8084 -0.958244C94.8899 1.21191 92.5309 2.97318 90.3608 4.92317C89.26 5.92962 88.2535 6.99894 87.1213 7.94249C83.3157 11.0562 79.0382 13.1949 74.1318 13.6982C71.2697 14.0127 68.7222 12.8489 66.615 10.8674C65.4198 9.7352 64.319 8.54009 63.2496 7.28203C51.644 -6.65097 40.636 -21.0243 31.3264 -36.6242C29.282 -40.021 27.1433 -43.3863 25.099 -46.7831C24.5957 -47.6323 24.1869 -48.6073 23.9668 -49.5508C23.5893 -51.3121 24.47 -52.9161 26.3256 -53.5766C28.37 -54.2685 30.5086 -54.6774 32.5844 -55.1807L32.553 -55.1492Z" fill="url(#paint31_linear_566_26035)"/>
<path d="M158.768 13.3214C156.975 13.2271 154.774 13.2901 152.635 13.007C147.225 12.3151 144.143 6.21341 146.596 1.33843C146.848 0.866661 147.068 0.394913 147.414 -0.0139618C150.968 -4.54297 151.912 -9.85822 152.069 -15.3937C152.478 -31.5912 150.528 -47.5371 146.974 -63.2943C146.439 -65.7161 145.999 -68.1693 145.81 -70.654C145.621 -73.3902 146.817 -74.8684 149.49 -75.3402C152.1 -75.7805 154.742 -76.1895 157.353 -76.1895C161.819 -76.1895 164.083 -74.208 164.87 -69.8048C166.002 -63.6718 166.945 -57.4758 168.109 -51.3428C170.877 -36.5292 172.638 -21.6211 174.022 -6.61879C174.399 -2.43574 174.462 1.74731 173.487 5.86745C172.418 10.3336 170.468 12.1892 165.939 12.7868C163.675 13.1013 161.41 13.1328 158.768 13.3529V13.3214Z" fill="url(#paint32_linear_566_26035)"/>
<path d="M84.5421 67.3229C84.5421 69.3987 84.5421 71.4431 84.5421 73.5189C84.5736 75.5318 83.6929 76.9471 81.9002 77.8592C68.9736 84.5584 56.6132 92.3583 43.3093 98.3027C41.4222 99.1519 39.7552 100.41 37.8681 101.291C36.2956 102.014 36.1383 103.02 36.956 104.31C38.906 107.392 40.8246 110.506 42.9319 113.462C44.7561 116.01 46.8633 118.337 48.7189 120.822C50.952 123.778 50.1028 126.672 46.6746 128.056C43.4036 129.408 42.1141 129.219 39.8181 126.515C34.7859 120.633 29.8795 114.657 24.9416 108.713C24.344 107.99 23.8408 107.14 23.369 106.323C21.8594 103.744 21.9852 101.196 23.8723 98.9316C25.319 97.2018 26.8602 95.4405 28.6843 94.1196C35.9811 88.8357 43.2778 83.5833 50.7633 78.5825C56.2987 74.9027 62.1487 71.6003 67.8729 68.2036C68.9422 67.5746 69.6027 66.7568 69.5713 65.5617C69.5398 63.0141 69.414 60.4979 69.2882 57.9504C69.2253 56.4721 69.0051 54.994 68.9107 53.5158C68.8164 51.5973 69.5398 50.6537 71.3326 50.119C73.2196 49.5529 75.0752 48.9238 76.9623 48.4521C80.0131 47.6972 81.9002 48.6408 82.5607 51.723C83.3155 55.1827 83.6615 58.7053 84.0704 62.2278C84.2591 63.8947 84.1018 65.6245 84.1018 67.2915H84.4792L84.5421 67.3229Z" fill="url(#paint33_linear_566_26035)"/>
<path d="M135.21 72.009C131.877 72.009 128.543 71.9461 125.209 72.009C121.498 72.0719 119.894 69.9018 121.277 66.505C122.064 64.555 123.007 62.6365 123.919 60.7179C125.806 56.7551 128.952 54.7108 133.323 54.4906C135.022 54.3963 136.689 54.2389 138.387 54.2075C139.236 54.2075 139.645 53.8615 139.645 52.9809C139.582 49.1753 139.551 45.3696 139.488 41.564C139.488 40.0229 138.67 38.9536 137.286 38.356C135.493 37.5382 133.701 36.7834 131.877 36.06C128.039 34.4874 126.97 31.6253 129.14 27.2221C129.675 26.1213 130.241 25.052 130.839 24.0141C131.876 22.1585 133.481 21.1835 135.619 21.152C141.029 21.0262 146.281 21.9068 151.439 23.4479C154.742 24.4229 157.006 26.6245 157.415 30.1471C158.61 40.1801 158.83 50.2132 156.88 60.1833C156.472 62.2906 155.717 64.3663 154.836 66.3163C153.138 70.0276 150.244 72.1977 145.998 72.1977C142.413 72.1977 138.796 72.1977 135.21 72.1977V72.072V72.009Z" fill="url(#paint34_linear_566_26035)"/>
<path d="M14.185 -18.3195C11.5745 -18.8542 9.31007 -19.2945 7.04556 -19.7978C5.97621 -20.0494 4.87535 -20.301 3.83745 -20.6784C1.13262 -21.6534 0.220597 -23.5405 1.35285 -26.1824C2.57946 -29.0445 3.96332 -31.8436 5.28429 -34.6742C5.5988 -35.3347 5.88186 -36.0267 6.25927 -36.8444C5.6617 -37.1275 5.15844 -37.379 4.65522 -37.5992C2.1391 -38.7 -0.408482 -39.738 -2.9246 -40.9017C-3.9625 -41.3734 -4.96892 -42.0339 -5.84957 -42.7888C-8.36568 -44.9275 -8.55437 -47.3492 -6.41567 -49.8339C-3.01891 -53.8282 0.755246 -57.4766 5.15845 -60.433C8.90118 -62.9491 11.4488 -62.5717 14.4995 -58.2629C15.9463 -56.2185 15.1286 -54.2371 12.7383 -53.4508C12.5496 -53.3879 12.2979 -53.3564 12.1407 -53.2306C9.71892 -51.2492 7.29712 -49.2363 4.52939 -46.9403C5.63019 -46.4685 6.22783 -46.1855 6.85686 -45.9653C9.37298 -45.0847 11.889 -44.2985 14.3737 -43.3864C18.4939 -41.8452 19.3116 -39.4549 17.0156 -35.7436C15.6947 -33.5734 14.2165 -31.4976 12.8641 -29.3589C12.3609 -28.5726 12.0463 -27.6921 11.5116 -26.5598C13.0213 -26.3396 14.2794 -26.1824 15.506 -25.9622C17.9907 -25.4904 20.5382 -25.113 22.96 -24.3896C26.7342 -23.2259 27.5205 -20.4267 25.1302 -17.2816C23.4947 -15.1429 21.7334 -13.0985 20.0036 -10.9913C19.689 -10.5824 19.3745 -10.1736 18.9027 -9.54454C22.6455 -8.94696 26.1366 -8.7268 29.6906 -8.94696C31.2317 -9.04131 32.8986 -8.85257 34.3139 -8.31789C35.1631 -8.00337 36.0438 -6.8397 36.2325 -5.89616C37.0188 -1.93327 35.1317 0.457069 31.0744 0.425621C24.1866 0.394169 17.2987 0.173935 10.4423 -0.140579C6.76246 -0.297836 5.53588 -2.40501 6.63668 -5.86468C7.89474 -9.79611 9.7189 -13.413 12.6124 -16.4009C13.1157 -16.9356 13.556 -17.5332 14.2165 -18.3509L14.185 -18.3195Z" fill="url(#paint35_linear_566_26035)"/>
<path d="M98.2864 114.186C91.1783 113.588 84.2905 112.078 77.4341 110.097C72.622 108.682 67.747 107.518 62.8721 106.291C60.293 105.631 59.3181 103.24 60.9221 101.039C62.2745 99.1518 64.2559 98.2711 66.489 98.0824C70.6406 97.705 74.8236 97.4534 79.0067 97.1074C80.2333 97.0131 81.4284 96.8244 82.6236 96.73C86.555 96.3526 89.8889 94.9058 92.8138 92.1695C98.192 87.1059 104.514 83.2687 110.741 79.3688C111.182 79.0857 111.653 78.8341 112.156 78.6454C113.603 78.0793 115.082 77.9535 116.34 79.0543C117.629 80.1551 117.818 81.6648 117.346 83.143C115.931 87.4833 114.641 91.8551 112.911 96.0381C111.213 100.158 109.169 104.09 107.093 108.021C106.307 109.499 105.174 110.789 104.011 112.015C102.469 113.651 100.488 114.343 98.255 114.186H98.2864Z" fill="url(#paint36_linear_566_26035)"/>
<path d="M182.671 40.1801C178.079 40.1801 173.487 40.1801 168.864 40.1801C168.172 40.1801 167.48 40.1173 166.819 40.0229C164.838 39.7713 163.832 38.8278 163.643 36.8778C163.391 34.5189 163.203 32.1286 163.14 29.7697C163.077 26.9705 164.555 25.4923 167.385 25.6496C177.419 26.2157 187.452 26.8133 197.485 27.4423C199.969 27.5996 202.171 28.4173 202.737 31.1536C203.398 34.2987 203.46 37.5067 200.661 39.7712C199.686 40.5575 198.114 40.8091 196.793 40.8406C192.075 40.9664 187.389 40.9035 182.671 40.9035V40.1801Z" fill="url(#paint37_linear_566_26035)"/>
<path d="M198.837 -8.12916C200.819 -8.12916 202.36 -7.21709 202.957 -5.29855C203.524 -3.50581 203.807 -1.58728 203.995 0.299812C204.31 3.60222 204.436 6.93612 204.624 10.27C204.75 12.22 203.838 13.824 202.423 14.9562C201.07 16.057 199.498 15.5223 198.082 14.7675C193.176 12.0627 188.27 9.35781 183.395 6.55863C180.155 4.70299 179.809 1.40059 182.765 -0.801009C187.357 -4.16632 192.578 -6.39937 198.019 -8.06629C198.303 -8.16065 198.649 -8.12919 198.806 -8.16064L198.837 -8.12916Z" fill="url(#paint38_linear_566_26035)"/>
<path d="M91.8701 48.1376C92.2161 46.4392 92.4677 44.6779 92.9709 43.0424C93.883 40.086 95.8016 38.7336 98.8524 39.1425C101.463 39.4884 104.105 39.9916 106.589 40.7779C110.584 42.036 114.484 43.5142 118.384 45.0868C119.484 45.5271 120.617 46.3763 121.34 47.3513C122.567 49.0182 121.843 50.7795 120.46 52.2892C118.289 54.6166 115.836 54.4908 113.068 54.1448C107.344 53.4214 101.589 52.9182 95.8329 52.3207C92.845 52.0376 91.9645 51.0626 91.8701 48.169V48.1376Z" fill="url(#paint39_linear_566_26035)"/>
<path d="M60.2298 19.9255C60.6072 19.9255 60.9845 19.9255 61.3305 19.9255C65.3878 19.9255 67.0232 21.6868 66.5515 25.7441C66.3942 27.2223 66.2055 28.7006 65.7967 30.1159C65.0418 32.6949 63.2806 33.7956 60.6387 33.4811C57.8709 33.1351 55.1032 32.7263 52.3354 32.286C50.5742 32.003 49.4733 31.028 49.4419 29.2352C49.4104 26.8764 49.5992 24.4861 49.9766 22.1586C50.2596 20.4288 51.7064 19.4852 53.6564 19.5481C55.858 19.611 58.0911 19.8626 60.2927 20.0199C60.2927 20.0199 60.2927 19.957 60.2927 19.9255H60.2298Z" fill="url(#paint40_linear_566_26035)"/>
<path d="M27.7091 80.6898C25.3817 80.6898 24.0607 79.872 23.3688 78.2994C22.2365 75.7519 21.0728 73.1728 20.2236 70.5309C19.9406 69.6503 20.3179 68.3293 20.8526 67.5116C21.5445 66.4737 22.8027 66.5995 23.872 67.1342C26.3252 68.3294 28.8099 69.4931 31.2002 70.7826C32.1437 71.2858 32.9929 72.1035 33.6849 72.9213C34.6284 74.085 34.8486 75.5317 33.905 76.7584C32.2067 78.9914 29.8163 80.1866 27.6461 80.6898H27.7091Z" fill="url(#paint41_linear_566_26035)"/>
</g>
</g>
<defs>
<linearGradient id="paint0_linear_566_26035" x1="470.824" y1="164.409" x2="605.805" y2="144.219" gradientUnits="userSpaceOnUse">
<stop stop-color="#288DD1"/>
<stop offset="1" stop-color="#3FE0C8"/>
</linearGradient>
<linearGradient id="paint1_linear_566_26035" x1="499.713" y1="24.6414" x2="586.099" y2="18.0745" gradientUnits="userSpaceOnUse">
<stop stop-color="#288DD1"/>
<stop offset="1" stop-color="#3FE0C8"/>
</linearGradient>
<linearGradient id="paint2_linear_566_26035" x1="429.189" y1="133.18" x2="494.621" y2="130.107" gradientUnits="userSpaceOnUse">
<stop stop-color="#288DD1"/>
<stop offset="1" stop-color="#3FE0C8"/>
</linearGradient>
<linearGradient id="paint3_linear_566_26035" x1="475.655" y1="7.80397" x2="552.954" y2="-0.910098" gradientUnits="userSpaceOnUse">
<stop stop-color="#288DD1"/>
<stop offset="1" stop-color="#3FE0C8"/>
</linearGradient>
<linearGradient id="paint4_linear_566_26035" x1="596.38" y1="5.62989" x2="624.282" y2="4.76605" gradientUnits="userSpaceOnUse">
<stop stop-color="#288DD1"/>
<stop offset="1" stop-color="#3FE0C8"/>
</linearGradient>
<linearGradient id="paint5_linear_566_26035" x1="473.749" y1="121.919" x2="534.261" y2="117.388" gradientUnits="userSpaceOnUse">
<stop stop-color="#288DD1"/>
<stop offset="1" stop-color="#3FE0C8"/>
</linearGradient>
<linearGradient id="paint6_linear_566_26035" x1="571.623" y1="67.794" x2="608.182" y2="65.1822" gradientUnits="userSpaceOnUse">
<stop stop-color="#288DD1"/>
<stop offset="1" stop-color="#3FE0C8"/>
</linearGradient>
<linearGradient id="paint7_linear_566_26035" x1="443.066" y1="-4.95808" x2="486.215" y2="-7.93285" gradientUnits="userSpaceOnUse">
<stop stop-color="#288DD1"/>
<stop offset="1" stop-color="#3FE0C8"/>
</linearGradient>
<linearGradient id="paint8_linear_566_26035" x1="511.387" y1="111.103" x2="566.284" y2="102.591" gradientUnits="userSpaceOnUse">
<stop stop-color="#288DD1"/>
<stop offset="1" stop-color="#3FE0C8"/>
</linearGradient>
<linearGradient id="paint9_linear_566_26035" x1="542.543" y1="53.0199" x2="570.957" y2="47.5776" gradientUnits="userSpaceOnUse">
<stop stop-color="#288DD1"/>
<stop offset="1" stop-color="#3FE0C8"/>
</linearGradient>
<linearGradient id="paint10_linear_566_26035" x1="499.795" y1="32.327" x2="516.384" y2="30.3462" gradientUnits="userSpaceOnUse">
<stop stop-color="#288DD1"/>
<stop offset="1" stop-color="#3FE0C8"/>
</linearGradient>
<linearGradient id="paint11_linear_566_26035" x1="470.453" y1="79.4857" x2="484.392" y2="78.0903" gradientUnits="userSpaceOnUse">
<stop stop-color="#288DD1"/>
<stop offset="1" stop-color="#3FE0C8"/>
</linearGradient>
<linearGradient id="paint12_linear_566_26035" x1="281.544" y1="139.099" x2="367.931" y2="132.532" gradientUnits="userSpaceOnUse">
<stop stop-color="#288DD1"/>
<stop offset="1" stop-color="#3FE0C8"/>
</linearGradient>
<linearGradient id="paint13_linear_566_26035" x1="372.879" y1="51.3979" x2="438.28" y2="48.3278" gradientUnits="userSpaceOnUse">
<stop stop-color="#288DD1"/>
<stop offset="1" stop-color="#3FE0C8"/>
</linearGradient>
<linearGradient id="paint14_linear_566_26035" x1="211.621" y1="7.82206" x2="255.647" y2="6.29441" gradientUnits="userSpaceOnUse">
<stop stop-color="#288DD1"/>
<stop offset="1" stop-color="#3FE0C8"/>
</linearGradient>
<linearGradient id="paint15_linear_566_26035" x1="314.006" y1="119.09" x2="391.305" y2="110.376" gradientUnits="userSpaceOnUse">
<stop stop-color="#288DD1"/>
<stop offset="1" stop-color="#3FE0C8"/>
</linearGradient>
<linearGradient id="paint16_linear_566_26035" x1="242.456" y1="138.322" x2="270.358" y2="137.458" gradientUnits="userSpaceOnUse">
<stop stop-color="#288DD1"/>
<stop offset="1" stop-color="#3FE0C8"/>
</linearGradient>
<linearGradient id="paint17_linear_566_26035" x1="332.935" y1="14.6918" x2="393.478" y2="10.1562" gradientUnits="userSpaceOnUse">
<stop stop-color="#288DD1"/>
<stop offset="1" stop-color="#3FE0C8"/>
</linearGradient>
<linearGradient id="paint18_linear_566_26035" x1="258.603" y1="44.3106" x2="295.162" y2="41.6988" gradientUnits="userSpaceOnUse">
<stop stop-color="#288DD1"/>
<stop offset="1" stop-color="#3FE0C8"/>
</linearGradient>
<linearGradient id="paint19_linear_566_26035" x1="380.675" y1="126.468" x2="423.824" y2="123.493" gradientUnits="userSpaceOnUse">
<stop stop-color="#288DD1"/>
<stop offset="1" stop-color="#3FE0C8"/>
</linearGradient>
<linearGradient id="paint20_linear_566_26035" x1="213.872" y1="42.8984" x2="250.624" y2="33.5576" gradientUnits="userSpaceOnUse">
<stop stop-color="#288DD1"/>
<stop offset="1" stop-color="#3FE0C8"/>
</linearGradient>
<linearGradient id="paint21_linear_566_26035" x1="211.964" y1="75.9682" x2="235.128" y2="73.7036" gradientUnits="userSpaceOnUse">
<stop stop-color="#288DD1"/>
<stop offset="1" stop-color="#3FE0C8"/>
</linearGradient>
<linearGradient id="paint22_linear_566_26035" x1="212.343" y1="100.441" x2="237.589" y2="97.173" gradientUnits="userSpaceOnUse">
<stop stop-color="#288DD1"/>
<stop offset="1" stop-color="#3FE0C8"/>
</linearGradient>
<linearGradient id="paint23_linear_566_26035" x1="294.801" y1="29.4673" x2="323.215" y2="24.0249" gradientUnits="userSpaceOnUse">
<stop stop-color="#288DD1"/>
<stop offset="1" stop-color="#3FE0C8"/>
</linearGradient>
<linearGradient id="paint24_linear_566_26035" x1="349.853" y1="49.1031" x2="366.442" y2="47.1223" gradientUnits="userSpaceOnUse">
<stop stop-color="#288DD1"/>
<stop offset="1" stop-color="#3FE0C8"/>
</linearGradient>
<linearGradient id="paint25_linear_566_26035" x1="417.559" y1="44.1379" x2="430.381" y2="42.8116" gradientUnits="userSpaceOnUse">
<stop stop-color="#288DD1"/>
<stop offset="1" stop-color="#3FE0C8"/>
</linearGradient>
<linearGradient id="paint26_linear_566_26035" x1="381.909" y1="1.92137" x2="395.849" y2="0.525945" gradientUnits="userSpaceOnUse">
<stop stop-color="#288DD1"/>
<stop offset="1" stop-color="#3FE0C8"/>
</linearGradient>
<linearGradient id="paint27_linear_566_26035" x1="20.816" y1="164.409" x2="155.797" y2="144.219" gradientUnits="userSpaceOnUse">
<stop stop-color="#288DD1"/>
<stop offset="1" stop-color="#3FE0C8"/>
</linearGradient>
<linearGradient id="paint28_linear_566_26035" x1="49.7046" y1="24.6414" x2="136.091" y2="18.0745" gradientUnits="userSpaceOnUse">
<stop stop-color="#288DD1"/>
<stop offset="1" stop-color="#3FE0C8"/>
</linearGradient>
<linearGradient id="paint29_linear_566_26035" x1="-20.8199" y1="133.18" x2="44.581" y2="130.11" gradientUnits="userSpaceOnUse">
<stop stop-color="#288DD1"/>
<stop offset="1" stop-color="#3FE0C8"/>
</linearGradient>
<linearGradient id="paint30_linear_566_26035" x1="161.434" y1="166.381" x2="205.46" y2="164.853" gradientUnits="userSpaceOnUse">
<stop stop-color="#288DD1"/>
<stop offset="1" stop-color="#3FE0C8"/>
</linearGradient>
<linearGradient id="paint31_linear_566_26035" x1="25.6472" y1="7.80397" x2="102.946" y2="-0.91008" gradientUnits="userSpaceOnUse">
<stop stop-color="#288DD1"/>
<stop offset="1" stop-color="#3FE0C8"/>
</linearGradient>
<linearGradient id="paint32_linear_566_26035" x1="146.372" y1="5.62989" x2="174.274" y2="4.76605" gradientUnits="userSpaceOnUse">
<stop stop-color="#288DD1"/>
<stop offset="1" stop-color="#3FE0C8"/>
</linearGradient>
<linearGradient id="paint33_linear_566_26035" x1="23.7097" y1="121.919" x2="84.2526" y2="117.384" gradientUnits="userSpaceOnUse">
<stop stop-color="#288DD1"/>
<stop offset="1" stop-color="#3FE0C8"/>
</linearGradient>
<linearGradient id="paint34_linear_566_26035" x1="121.614" y1="67.794" x2="158.173" y2="65.1822" gradientUnits="userSpaceOnUse">
<stop stop-color="#288DD1"/>
<stop offset="1" stop-color="#3FE0C8"/>
</linearGradient>
<linearGradient id="paint35_linear_566_26035" x1="-6.91142" y1="-4.95808" x2="36.2377" y2="-7.93285" gradientUnits="userSpaceOnUse">
<stop stop-color="#288DD1"/>
<stop offset="1" stop-color="#3FE0C8"/>
</linearGradient>
<linearGradient id="paint36_linear_566_26035" x1="61.4101" y1="111.103" x2="116.307" y2="102.591" gradientUnits="userSpaceOnUse">
<stop stop-color="#288DD1"/>
<stop offset="1" stop-color="#3FE0C8"/>
</linearGradient>
<linearGradient id="paint37_linear_566_26035" x1="164.021" y1="39.6013" x2="200.772" y2="30.2605" gradientUnits="userSpaceOnUse">
<stop stop-color="#288DD1"/>
<stop offset="1" stop-color="#3FE0C8"/>
</linearGradient>
<linearGradient id="paint38_linear_566_26035" x1="181.27" y1="13.5351" x2="204.433" y2="11.2705" gradientUnits="userSpaceOnUse">
<stop stop-color="#288DD1"/>
<stop offset="1" stop-color="#3FE0C8"/>
</linearGradient>
<linearGradient id="paint39_linear_566_26035" x1="92.5348" y1="53.0199" x2="120.948" y2="47.5776" gradientUnits="userSpaceOnUse">
<stop stop-color="#288DD1"/>
<stop offset="1" stop-color="#3FE0C8"/>
</linearGradient>
<linearGradient id="paint40_linear_566_26035" x1="49.8181" y1="32.327" x2="66.4074" y2="30.3462" gradientUnits="userSpaceOnUse">
<stop stop-color="#288DD1"/>
<stop offset="1" stop-color="#3FE0C8"/>
</linearGradient>
<linearGradient id="paint41_linear_566_26035" x1="20.4446" y1="79.4857" x2="34.3839" y2="78.0903" gradientUnits="userSpaceOnUse">
<stop stop-color="#288DD1"/>
<stop offset="1" stop-color="#3FE0C8"/>
</linearGradient>
</defs>
</svg>
