<svg width="24" height="25" viewBox="0 0 24 25" fill="none" xmlns="http://www.w3.org/2000/svg">
<g clip-path="url(#clip0_566_27148)">
<path d="M24 12.1252C24 5.49782 18.6274 0.125244 12 0.125244C5.37258 0.125244 0 5.49782 0 12.1252C0 18.1147 4.3882 23.0792 10.125 23.9795V15.594H7.07812V12.1252H10.125V9.48149C10.125 6.47399 11.9166 4.81274 14.6576 4.81274C15.9701 4.81274 17.3438 5.04712 17.3438 5.04712V8.00024H15.8306C14.34 8.00024 13.875 8.92532 13.875 9.87524V12.1252H17.2031L16.6711 15.594H13.875V23.9795C19.6118 23.0792 24 18.1147 24 12.1252Z" fill="#A5ACBA"/>
<path d="M16.6711 15.594L17.2031 12.1252H13.875V9.87524C13.875 8.92626 14.34 8.00024 15.8306 8.00024H17.3438V5.04712C17.3438 5.04712 15.9705 4.81274 14.6576 4.81274C11.9166 4.81274 10.125 6.47399 10.125 9.48149V12.1252H7.07812V15.594H10.125V23.9795C11.3674 24.1738 12.6326 24.1738 13.875 23.9795V15.594H16.6711Z" fill="#1E1E1E"/>
</g>
<defs>
<clipPath id="clip0_566_27148">
<rect width="24" height="24" fill="white" transform="translate(0 0.125244)"/>
</clipPath>
</defs>
</svg>
