<svg width="24" height="25" viewBox="0 0 24 25" fill="none" xmlns="http://www.w3.org/2000/svg">
<path d="M16.8503 0.125244H7.14973C3.20735 0.125244 0 3.3326 0 7.27497V16.9755C0 20.9179 3.20735 24.1252 7.14973 24.1252H16.8503C20.7926 24.1252 24 20.9179 24 16.9755V7.27497C24 3.3326 20.7926 0.125244 16.8503 0.125244ZM21.5856 16.9755C21.5856 19.5907 19.4655 21.7108 16.8503 21.7108H7.14973C4.5345 21.7108 2.4144 19.5907 2.4144 16.9755V7.27497C2.4144 4.6597 4.5345 2.53964 7.14973 2.53964H16.8503C19.4655 2.53964 21.5856 4.6597 21.5856 7.27497V16.9755Z" fill="#A5ACBA"/>
<path d="M12.0002 5.91797C8.57754 5.91797 5.79297 8.70254 5.79297 12.1252C5.79297 15.5478 8.57754 18.3324 12.0002 18.3324C15.4229 18.3324 18.2075 15.5479 18.2075 12.1252C18.2075 8.70249 15.4229 5.91797 12.0002 5.91797ZM12.0002 15.9181C9.90547 15.9181 8.20737 14.22 8.20737 12.1252C8.20737 10.0305 9.90551 8.33237 12.0002 8.33237C14.095 8.33237 15.7931 10.0305 15.7931 12.1252C15.7931 14.2199 14.0949 15.9181 12.0002 15.9181Z" fill="#A5ACBA"/>
<path d="M18.2188 7.45198C19.0402 7.45198 19.7061 6.78607 19.7061 5.96464C19.7061 5.1432 19.0402 4.47729 18.2188 4.47729C17.3974 4.47729 16.7314 5.1432 16.7314 5.96464C16.7314 6.78607 17.3974 7.45198 18.2188 7.45198Z" fill="#A5ACBA"/>
</svg>
