<svg width="461" height="500" viewBox="0 0 461 500" fill="none" xmlns="http://www.w3.org/2000/svg">
<path d="M304.101 47.8882C304.101 47.8882 292.626 60.0021 288.182 66.2976C283.738 72.593 293.8 71.4245 301.286 61.1706C308.773 50.9166 315.097 50.6901 315.097 50.6901L327.039 51.6201C327.039 51.6201 340.611 72.0088 346.935 92.9817C353.26 113.955 374.317 145.062 380.989 149.247C387.661 153.444 389.062 161.48 389.422 164.628C389.769 167.776 401.364 174.059 401.364 176.516V193.637C401.364 193.637 439.982 190.49 452.271 181.75C464.561 173.01 461.399 191.539 452.271 202.723C443.144 213.907 433.657 229.979 435.418 236.978C437.179 243.965 430.148 243.274 424.182 244.669C418.217 246.064 393.542 270.518 386.427 294.985C379.312 319.451 374.389 325.043 382.115 334.474C389.841 343.905 391.183 353.361 390.128 363.149C389.074 372.938 385.565 373.284 376.437 375.037C367.31 376.79 363.8 380.283 363.441 382.727C363.094 385.172 346.588 387.616 345.881 389.023C345.174 390.418 368.759 408.66 340.778 440.698C337.544 444.394 332.19 449.485 332.19 449.485C332.19 449.485 318.846 462.422 306.557 476.742C294.267 491.074 296.723 495.962 282.325 495.962C267.927 495.962 256.691 505.047 246.163 495.962C235.634 486.877 231.765 485.124 232.124 478.137C232.471 471.15 220.182 464.854 217.726 458.571C215.271 452.275 204.73 431.66 212.109 431.314C219.487 430.969 219.128 422.932 214.217 419.785C209.306 416.637 207.197 421.18 205.089 415.588C202.981 409.996 201.58 404.75 200.526 399.158C199.472 393.566 198.417 400.553 193.854 387.628C189.29 374.691 186.128 367.704 187.182 362.816C188.236 357.927 195.603 350.582 201.58 347.435C207.545 344.287 217.032 336.954 210.707 332.054C204.383 327.165 199.124 332.054 198.765 325.758C198.417 319.463 199.112 306.884 193.494 300.243C187.877 293.601 184.367 299.897 177.695 289.404C171.023 278.924 165.525 265.522 172.077 259C178.629 252.478 181.911 257.605 183.78 246.886C185.649 236.167 182.379 232.9 184.714 229.18C187.05 225.448 169.466 219.391 169.131 224.518C168.795 229.645 158.506 235.702 152.409 235.237C146.324 234.772 146.324 225.448 141.174 222.658C136.023 219.868 130.872 214.276 124.32 222.193C117.768 230.11 114.019 232.447 105.131 232.447C96.2435 232.447 90.1466 228.715 83.5945 229.657C77.0424 230.587 66.5016 229.419 66.0345 238.039C65.5673 246.66 55.7332 246.66 50.355 235.941C44.9768 225.222 42.4015 229.884 36.3166 224.995C30.2317 220.107 28.8302 205.012 24.7936 199.253C20.7569 193.482 8.81467 187.366 3.37657 183.705C-2.06153 180.033 0.393996 153.242 3.37657 151.143C6.35914 149.045 15.7261 145.79 13.3784 138.564C11.0426 131.339 5.89197 123.422 3.54424 122.718C1.20849 122.015 4.25096 105.012 9.16202 102.914C14.0731 100.815 20.8647 97.7868 20.8647 91.7298C20.8647 85.6728 15.4865 64.3541 22.1464 65.4033C28.8182 66.4526 43.5634 64.3541 46.3783 59.8114C49.1931 55.2686 62.5249 25.2102 83.2471 25.556C103.957 25.9018 97.9923 34.6415 105.371 25.556C112.749 16.4705 122.224 14.0263 130.645 10.8785C139.066 7.73082 139.066 -0.651186 146.097 0.0403597C153.116 0.743828 152.769 7.02736 156.985 11.2243C161.201 15.4213 169.981 9.47161 177.348 11.9278C184.726 14.372 189.985 19.964 190.344 23.8152C190.692 27.6545 182.966 28.358 182.618 30.1107C182.271 31.8634 180.163 35.3569 186.475 38.1469C192.8 40.9369 221.691 53.8736 230.244 55.9721C238.796 58.0706 240.197 55.9721 252.128 46.5408C264.07 37.1096 266.873 38.1469 271.784 43.7389C276.695 49.3309 308.341 43.3335 304.089 47.9358L304.101 47.8882Z" fill="url(#paint0_linear_566_26547)"/>
<path d="M436.821 359.085C436.821 359.085 444.427 373.107 443.529 377.554C442.63 382.001 437.492 375.992 436.821 380.451C436.15 384.899 439.947 388.905 435.707 396.249C431.455 403.594 428.101 399.361 427.885 406.706C427.67 414.051 423.19 418.057 422.291 421.396C421.393 424.734 416.925 434.964 411.559 438.756C406.193 442.535 403.953 444.992 401.725 438.756C399.485 432.52 395.46 419.392 398.814 416.054C402.168 412.715 407.079 412.715 405.522 405.371C403.953 398.026 407.977 386.234 409.319 385.34C410.661 384.446 412.673 385.566 418.039 382.895C423.405 380.225 424.975 377.554 427.43 373.989C429.886 370.424 430.113 366.644 429.886 363.973C429.658 361.303 435.695 356.927 436.821 359.073V359.085Z" fill="url(#paint1_linear_566_26547)"/>
<defs>
<linearGradient id="paint0_linear_566_26547" x1="10.3169" y1="456.875" x2="457.139" y2="416.922" gradientUnits="userSpaceOnUse">
<stop stop-color="#288DD1"/>
<stop offset="1" stop-color="#3FE0C8"/>
</linearGradient>
<linearGradient id="paint1_linear_566_26547" x1="10.3169" y1="456.875" x2="457.139" y2="416.922" gradientUnits="userSpaceOnUse">
<stop stop-color="#288DD1"/>
<stop offset="1" stop-color="#3FE0C8"/>
</linearGradient>
</defs>
</svg>
