<svg width="20" height="20" viewBox="0 0 20 20" fill="none" xmlns="http://www.w3.org/2000/svg">
<path d="M18.334 5.00003V7.01669C18.334 8.33336 17.5007 9.16669 16.184 9.16669H13.334V3.34169C13.334 2.41669 14.0923 1.65836 15.0173 1.66669C15.9257 1.67503 16.759 2.04169 17.359 2.64169C17.959 3.25003 18.334 4.08336 18.334 5.00003Z" fill="#666666"/>
<path opacity="0.4" d="M1.66602 5.83329V17.5C1.66602 18.1916 2.44935 18.5833 2.99935 18.1666L4.42435 17.1C4.75768 16.85 5.22435 16.8833 5.52435 17.1833L6.90768 18.575C7.23268 18.9 7.76602 18.9 8.09102 18.575L9.49102 17.175C9.78268 16.8833 10.2493 16.85 10.5743 17.1L11.9993 18.1666C12.5493 18.575 13.3327 18.1833 13.3327 17.5V3.33329C13.3327 2.41663 14.0827 1.66663 14.9993 1.66663H5.83268H4.99935C2.49935 1.66663 1.66602 3.15829 1.66602 4.99996V5.83329Z" fill="#666666"/>
<path d="M10 10.2167H7.5C7.15833 10.2167 6.875 10.5 6.875 10.8417C6.875 11.1833 7.15833 11.4667 7.5 11.4667H10C10.3417 11.4667 10.625 11.1833 10.625 10.8417C10.625 10.5 10.3417 10.2167 10 10.2167Z" fill="#666666"/>
<path d="M7.5 8.13342H10C10.3417 8.13342 10.625 7.85009 10.625 7.50842C10.625 7.16676 10.3417 6.88342 10 6.88342H7.5C7.15833 6.88342 6.875 7.16676 6.875 7.50842C6.875 7.85009 7.15833 8.13342 7.5 8.13342Z" fill="#666666"/>
<path d="M4.97591 6.67505C4.50924 6.67505 4.14258 7.05005 4.14258 7.50838C4.14258 7.96672 4.51758 8.34172 4.97591 8.34172C5.43424 8.34172 5.80924 7.96672 5.80924 7.50838C5.80924 7.05005 5.43424 6.67505 4.97591 6.67505Z" fill="#666666"/>
<path d="M4.97591 10.0084C4.50924 10.0084 4.14258 10.3834 4.14258 10.8418C4.14258 11.3001 4.51758 11.6751 4.97591 11.6751C5.43424 11.6751 5.80924 11.3001 5.80924 10.8418C5.80924 10.3834 5.43424 10.0084 4.97591 10.0084Z" fill="#666666"/>
</svg>
