<svg width="20" height="20" viewBox="0 0 20 20" fill="none" xmlns="http://www.w3.org/2000/svg">
<path opacity="0.4" d="M16.6667 5.86663V14.1333C16.6667 15.4 16.55 16.3 16.25 16.9416C16.25 16.95 16.2417 16.9666 16.2333 16.975C16.05 17.2083 15.8083 17.325 15.525 17.325C15.0833 17.325 14.55 17.0333 13.975 16.4166C13.2917 15.6833 12.2416 15.7416 11.6416 16.5416L10.8 17.6583C10.4667 18.1083 10.025 18.3333 9.58333 18.3333C9.14167 18.3333 8.69998 18.1083 8.36665 17.6583L7.51668 16.5333C6.92502 15.7416 5.88333 15.6833 5.19999 16.4083L5.19165 16.4166C4.24998 17.425 3.41668 17.575 2.93335 16.975C2.92502 16.9666 2.91667 16.95 2.91667 16.9416C2.61667 16.3 2.5 15.4 2.5 14.1333V5.86663C2.5 4.59996 2.61667 3.69996 2.91667 3.05829C2.91667 3.04996 2.91668 3.04163 2.93335 3.03329C3.40835 2.42496 4.24998 2.57496 5.19165 3.58329L5.19999 3.59163C5.88333 4.31663 6.92502 4.25829 7.51668 3.46663L8.36665 2.34163C8.69998 1.89163 9.14167 1.66663 9.58333 1.66663C10.025 1.66663 10.4667 1.89163 10.8 2.34163L11.6416 3.45829C12.2416 4.25829 13.2917 4.31663 13.975 3.58329C14.55 2.96663 15.0833 2.67496 15.525 2.67496C15.8083 2.67496 16.05 2.79996 16.2333 3.03329C16.25 3.04163 16.25 3.04996 16.25 3.05829C16.55 3.69996 16.6667 4.59996 16.6667 5.86663Z" fill="#666666"/>
<path d="M13.3346 9.16675H6.66797C6.3263 9.16675 6.04297 8.88341 6.04297 8.54175C6.04297 8.20008 6.3263 7.91675 6.66797 7.91675H13.3346C13.6763 7.91675 13.9596 8.20008 13.9596 8.54175C13.9596 8.88341 13.6763 9.16675 13.3346 9.16675Z" fill="#666666"/>
<path d="M11.668 12.0833H6.66797C6.3263 12.0833 6.04297 11.7999 6.04297 11.4583C6.04297 11.1166 6.3263 10.8333 6.66797 10.8333H11.668C12.0096 10.8333 12.293 11.1166 12.293 11.4583C12.293 11.7999 12.0096 12.0833 11.668 12.0833Z" fill="#666666"/>
</svg>
