<svg width="24" height="25" viewBox="0 0 24 25" fill="none" xmlns="http://www.w3.org/2000/svg">
<path d="M7.54752 21.8758C16.6042 21.8758 21.5578 14.3724 21.5578 7.86552C21.5578 7.6524 21.5578 7.44024 21.5434 7.22904C22.507 6.532 23.3389 5.66892 24 4.68024C23.1014 5.07864 22.148 5.3398 21.1718 5.45496C22.1998 4.83965 22.9692 3.87174 23.3366 2.73144C22.3701 3.30505 21.3126 3.70927 20.2099 3.92664C19.4675 3.13722 18.4856 2.61448 17.4162 2.43932C16.3468 2.26417 15.2494 2.44635 14.294 2.95769C13.3385 3.46903 12.5782 4.28101 12.1307 5.26799C11.6833 6.25496 11.5735 7.36191 11.8186 8.41752C9.8609 8.31932 7.94576 7.81055 6.19745 6.92424C4.44915 6.03794 2.90676 4.7939 1.6704 3.27288C1.04073 4.35688 0.847872 5.64011 1.1311 6.8613C1.41433 8.0825 2.15234 9.14983 3.19488 9.846C2.41123 9.82304 1.64465 9.61163 0.96 9.22968V9.29208C0.960311 10.4289 1.35385 11.5307 2.07387 12.4104C2.79389 13.2902 3.79606 13.8939 4.9104 14.119C4.18548 14.3167 3.42487 14.3456 2.68704 14.2034C3.00181 15.1818 3.61443 16.0373 4.43924 16.6504C5.26405 17.2635 6.25983 17.6035 7.28736 17.623C6.26644 18.4254 5.09731 19.0188 3.84687 19.369C2.59643 19.7192 1.28921 19.8194 0 19.6639C2.25183 21.1089 4.87192 21.8754 7.54752 21.8719" fill="#A5ACBA"/>
</svg>
