<svg width="24" height="25" viewBox="0 0 24 25" fill="none" xmlns="http://www.w3.org/2000/svg">
<path d="M0.00976562 24.1252L1.73171 17.7283C0.343005 15.2364 -0.0982005 12.3285 0.489056 9.53833C1.07631 6.74812 2.65264 4.26273 4.92878 2.53823C7.20491 0.813724 10.0282 -0.0342108 12.8805 0.150018C15.7328 0.334246 18.4229 1.53828 20.4571 3.54118C22.4912 5.54408 23.733 8.21149 23.9546 11.0539C24.1762 13.8964 23.3627 16.7232 21.6634 19.0157C19.9641 21.3082 17.493 22.9125 14.7035 23.5343C11.914 24.1561 8.99327 23.7537 6.47723 22.4009L0.00976562 24.1252ZM6.78908 20.0071L7.18906 20.2438C9.01148 21.3213 11.14 21.7671 13.243 21.5119C15.346 21.2567 17.3053 20.3148 18.8156 18.8329C20.3258 17.3511 21.3022 15.4125 21.5926 13.3194C21.883 11.2262 21.471 9.09602 20.4209 7.26077C19.3709 5.42552 17.7416 3.98831 15.7871 3.17309C13.8326 2.35787 11.6627 2.21044 9.6154 2.75378C7.56813 3.29712 5.75856 4.50071 4.46868 6.17698C3.1788 7.85325 2.48107 9.90804 2.48421 12.0211C2.4825 13.7732 2.9683 15.4915 3.88753 16.9845L4.13837 17.397L3.1757 20.9674L6.78908 20.0071Z" fill="#A5ACBA"/>
<path fill-rule="evenodd" clip-rule="evenodd" d="M16.4972 13.6637C16.2628 13.4751 15.9882 13.3423 15.6945 13.2755C15.4008 13.2087 15.0957 13.2097 14.8024 13.2783C14.3617 13.4609 14.077 14.1506 13.7923 14.4955C13.7322 14.5781 13.644 14.6361 13.5442 14.6585C13.4443 14.6809 13.3397 14.6662 13.2499 14.6172C11.6367 13.9869 10.2844 12.8311 9.41285 11.3376C9.33851 11.2444 9.30332 11.126 9.3147 11.0075C9.32608 10.8889 9.38314 10.7794 9.47386 10.7019C9.79143 10.3884 10.0246 9.99996 10.1518 9.57267C10.18 9.10137 10.0718 8.6319 9.83994 8.22026C9.66071 7.64316 9.31961 7.12929 8.85694 6.73937C8.61831 6.63232 8.35372 6.59642 8.0951 6.63602C7.83647 6.67561 7.59485 6.78901 7.39939 6.96252C7.06007 7.25453 6.79073 7.61875 6.61122 8.02835C6.43171 8.43794 6.3466 8.88249 6.36216 9.32924C6.3632 9.58012 6.39508 9.82993 6.45707 10.0731C6.61449 10.6572 6.85658 11.2154 7.17567 11.7298C7.4059 12.1238 7.65709 12.5053 7.92818 12.8726C8.80918 14.0789 9.91662 15.1031 11.189 15.8884C11.8275 16.2875 12.51 16.612 13.2228 16.8554C13.9633 17.1902 14.7809 17.3188 15.5888 17.2273C16.0491 17.1578 16.4852 16.9766 16.8588 16.6995C17.2323 16.4224 17.5319 16.0579 17.7311 15.6382C17.8481 15.3847 17.8836 15.1013 17.8328 14.8268C17.7107 14.2655 16.9582 13.9342 16.4972 13.6637Z" fill="#A5ACBA"/>
</svg>
